<?xml version="1.0" encoding="utf-8"?>
<!-- Generator: Adobe Illustrator 19.2.1, SVG Export Plug-In . SVG Version: 6.00 Build 0)  -->
<svg version="1.1" id="Champion" xmlns="http://www.w3.org/2000/svg" xmlns:xlink="http://www.w3.org/1999/xlink" x="0px"
	 y="0px" width="400px" height="220px" viewBox="0 0 400 220" style="enable-background:new 0 0 400 220;" xml:space="preserve">
<style type="text/css">
	.st0{fill:#FFFFFF;stroke:#000000;stroke-width:72.9003;}
</style>
<title>Champion</title>
<g>
	<path class="st0" d="M60.5,104.6"/>
	<path d="M121.3,81.9c-1.4,9.2-4.1,31.6,1.8,53.7c1.2,2.9,4.1,2.2,5.3,0.8c0.4-0.6,4.3-4.3,4.3-4.3c1.4-2,2.7-1.4,3.7,0
		c1,1.4,3.7,5.7,7.8,5.9c4.1,0.2,10.6-4.7,13.1-6.7c1.8,3.3,3.9,6.5,7.4,6.3c3.5-0.2,6.9-2.7,9.8-5.9c2.2,2.5,4.5,5.3,7.3,5.1
		c2.7-0.2,7.8-3.1,12.7-7.6c2-2.2,4.1-1.2,5.5,1c1.4,2.2,3.3,5.7,5.9,5.7c2.5,0,6.3-3.5,7.4-4.5c1.2-1,2.4-1.8,3.7-0.2l2.9,2.7
		c1.8,1.8,5.5,1.4,8.2-1.2c2.7-2.5,3.3-3.3,4.5-3.3c1.2,0,1.8,1.6,2.9,2.7c1.2,1.2,10.2,9,22.1-3.1c0.2,6.1-1.2,40.2-1.2,45.1
		c0,2.4,2.7,3.1,6.7,2.4c3.9-0.8,5.9-2,5.7-7.6c-0.2-5.7-1-33.7-1-33.7c0.6-4.5,4.5-12,8.6-12.2c4.1-0.2,2.2,4.9,0.2,4.9
		c-2,0-4.1,1-4.1,2.7c0,1.8,0.6,6.9,12.2,6.9c11.6,0,12.9-3.7,16.1-5.1c2,3.7,7.8,9.6,24.1-0.8c3.3,3.9,9.6,8.8,16.5,3.9
		c2.2-1.8,4.3-5.9,3.5-9.4c-0.6-1.4-0.2-2,0.8-2c1,0,5.1,0,6.5,0c1.4,0,3.7,1,4.5,4.9c0.8,3.9,3.5,7.3,5.7,7.1
		c2.2-0.2,6.3-3.5,8.6-5.9c2,2.7,10.4,15.5,25.9-5.9c1.4-2-0.8-2.9-2-1.6c-1.2,1.4-4.7,3.5-7.6,3.7c-2.9,0.2-6.5-2.7-9.2-6.5
		c-2.7-3.7-5.9-2.4-7.8,0.6c-1.4,1.6-2.2,3.1-3.7,4.9c-1-1.8-2.2-5.5-4.1-6.9c-2-1.4-3.5-1.6-8.2-0.4c-4.7,1.2-10,1.8-15.3,2
		c-2.9-0.2-2.2,1.2-2,2.4c0.2,1.2,2.4,6.1-1.6,6.3c-3.9,0.2-3.5-5.7-0.8-8.8c1.4-1.4-0.6-4.3-2.7-3.1c-2.2,1.2-3.5,1.8-5.3,4.5
		c-1.8,2.7-5.5,6.9-11.6,7.1c-6.1,0.2-4.3-6.9-4.1-10c0-1.8-1.2-3.3-4.3-2.5c-3.1,0.8-7.3,0.4-6.9,9c-2.2,3.1-7.1,5.1-11,4.5
		c-1.2-0.2-1.6-0.8-1.2-2.2c0.4-1.4,1.4-9-4.5-11c-5.9-2-10.4,0.8-13.3,3.3c-1.6,0.8-2,0-2-1.4l0.2-7.3c0-3.3-6.7-4.1-7.6-0.2
		c-1,3.9-2.2,11.6-8,14.3c-5.9,2.7-7.8-0.8-11-4.7c-3.1-3.9-6.3-3.7-9.8-0.2l-3.5,3.3c-1.4,1.2-2.2,0.8-3.3-1
		c-1.2-1.8-2-4.1-4.1-4.3c-2.2-0.2-2.5,0.6-4.1,1.8l-4.5,3.5c-1.8,1.4-2.2,1.4-3.9-1c0,0-2.9-4.9-5.9-4.9c-2.9,0-3.9,1.8-5.7,3.1
		c0,0-4.5,3.1-6.1,4.5c-1.6,1.4-6.1,4.1-10.4-2.4c-1.6-2.4-4.3-4.1-6.3-0.8c-2,3.3-5.1,8.4-7.4,6.9c-2.4-1.6,1.6-6.1,4.5-6.5
		s1.2-4.1-1.8-4.3c-2.9-0.2-7.6,1.8-9.8,4.3c-2.2,2.5-5.7,5.5-9.2,5.3c-3.5-0.2-4.3-2.9-6.1-6.7s-4.9-3.3-7.3-1.4
		c-2.4,2-2.9,2.5-4.7,4.7c-1.8,2.2-1.8,1-2-0.4c-0.2-1.4-1.4-26.7,0.6-42.9C131.5,77,123,75.6,121.3,81.9z"/>
	<g>
		<circle cx="306.7" cy="106" r="6.1"/>
	</g>
	<path d="M111.5,118.3c-0.8,0.6-22.9,8-35.1,8.8V81.7c7.1,0.2,20.4,3.1,28.8,6.3c2,1,6.1-0.2,1.8-4.5c-10-8-25.7-14.1-46.5-14.1
		s-58,11.6-58,35.1c0,23.5,29.8,35.3,58.2,35.3c20,0,38.6-7.3,52.1-20.2C115,117.4,112.3,117.8,111.5,118.3z M44.2,127.1
		c-16.9-3.5-28.9-12.2-28.9-22.5c0-10.3,12-19,28.9-22.5V127.1z"/>
	<path d="M388.3,112.5c-1.6,0-2.9,1.2-2.9,2.8c0,1.5,1.3,2.8,2.9,2.8c1.6,0,2.8-1.2,2.8-2.8C391.2,113.7,389.9,112.5,388.3,112.5z
		 M388.3,117.5c-1.3,0-2.3-1-2.3-2.2c0-1.2,1-2.2,2.3-2.2c1.3,0,2.3,1,2.3,2.2C390.6,116.5,389.6,117.5,388.3,117.5z"/>
	<path d="M389.8,114.5c0-0.3-0.1-0.5-0.4-0.7c-0.2-0.1-0.5-0.1-0.8-0.1h-1.4v3.1h0.5v-1.4h0.6l0.9,1.4h0.5l-1-1.4
		C389.3,115.3,389.8,115.1,389.8,114.5z M388.3,115h-0.5V114h0.8c0.4,0,0.8,0.1,0.8,0.5C389.3,115,388.7,115,388.3,115z"/>
</g>
</svg>
