<?xml version="1.0" encoding="utf-8"?>
<!-- Generator: Adobe Illustrator 19.2.1, SVG Export Plug-In . SVG Version: 6.00 Build 0)  -->
<svg version="1.1" id="CP_Company" xmlns="http://www.w3.org/2000/svg" xmlns:xlink="http://www.w3.org/1999/xlink" x="0px" y="0px"
	 width="400px" height="220px" viewBox="0 0 400 220" enable-background="new 0 0 400 220" xml:space="preserve">
<title>CP Company</title>
<g>
	<g>
		<g>
			<path fill="#1D1D1B" d="M110.1,217h15.9v-1.5h-1.1c-4.4,0-6.2-1.1-6.2-7.8v-46.6h0.2l19.6,55.9h2.2l19.2-54.9h0.2v53.4H153v1.5
				h26.1v-1.5h-6.2v-54.9h6.2v-1.5h-19.8l-13.9,39.7h-0.2l-13.6-39.7h-21v1.5h6.2v47.8c0,3.5-0.8,7.1-6.3,7.1h-0.3V217z"/>
			<path fill="#1D1D1B" d="M51.2,159.5h-1.5c-0.1,1.7-1,2.5-2.7,2.5c-3.5,0-9-4.2-15-4.2c-16.8,0-27,16.6-27,31.2
				c0,14.7,9.7,29.3,26,29.3c9.9,0,13.6-4.7,16.2-4.7c1.7,0,2.7,2.1,3,3.4h1.2v-20.1h-1.2l-0.5,2.8c-1.1,6.7-7.3,17.2-17.9,17.2
				c-9.4,0-13-8.8-13-28.8c0-21,4.9-28.8,13.2-28.8c9.4,0,16.4,11.3,17.7,19.6h1.5V159.5z"/>
			<path fill="#1D1D1B" d="M84,216.8c-9.6,0-12.3-7.9-12.3-28.8c0-26,6-28.8,12.3-28.8c6.3,0,12.3,2.8,12.3,28.8
				C96.3,208.9,93.6,216.8,84,216.8 M57.9,188.1c-0.3,15.4,11.6,30.2,26.1,30.2c14.5,0,26.5-14.9,26.1-30.2
				c0-16.1-10.6-30.2-26.1-30.2C68.5,157.8,57.9,172,57.9,188.1"/>
			<path fill="#1D1D1B" d="M182.8,217h27.6v-1.5h-8.1v-24.8c2.5,0.2,5.4,0.3,8.9,0.3c12.4,0,22.1-6.5,22.1-16.4
				c0-10.1-6.7-15.5-21.1-15.5h-29.3v1.5h6.7v54.9h-6.7V217z M202.3,160.6h6.7c8.9,0,10.5,4,10.5,14.5c0,9.7-3.9,14.5-13.7,14.5
				c-1.2,0-2.5-0.2-3.5-0.4V160.6z"/>
			<path fill="#1D1D1B" d="M238.5,196.9l7.3-20.8h0.2l7.2,20.8H238.5z M224.7,217h14.9v-1.5h-2.3c-1.6,0-3.9-0.3-3.9-3
				c0-0.9,0.3-1.8,0.6-2.5l3.9-11.6h15.9l6,17.1h-6.6v1.5h24.5v-1.5h-4l-22-57.7h-1.2l-19.1,52.8c-1,2.7-2.5,4.7-5.6,4.9h-1.1V217z"
				/>
			<path fill="#1D1D1B" d="M281.4,217h15.5v-1.5h-0.7c-4.6,0-6.4-0.8-6.4-5.5v-42h0.2l38.3,50h3.5V165c0-2.1,1.6-4.4,5.3-4.4h1.2
				v-1.5h-15.5v1.5h1.6c3.6,0,5.6,1.6,5.6,4.7V199h-0.2l-31-39.9h-16.9v1.5h2.5l3.6,4.8v44.1c0,5-2.4,5.9-4.9,5.9H282h-0.6V217z"/>
			<path fill="#1D1D1B" d="M356.9,217h25.5v-1.5H376v-22.1l11.2-25.1c2.5-6.2,4.4-7.7,7.2-7.7h0.6v-1.5h-14.8v1.5h1.1
				c3.7,0,4.9,1.1,4.9,3.2c0,1.4-0.7,3.3-1.6,5.7l-9.8,22.2l-13.6-31.1h5.9v-1.5h-25.3v1.5h5.4l15.9,36.2v18.7h-6.3V217z"/>
			<path fill="#1D1D1B" d="M219.5,140.7h64.9v-3.5h-19.1V78.9c5.8,0.6,12.7,0.8,20.9,0.8c29.2,0,51.9-15.3,51.9-38.6
				c0-23.8-15.8-36.3-49.6-36.3h-68.9v3.5h15.6v129h-15.6V140.7z M265.3,8.2h15.6c20.9,0,24.7,9.5,24.7,34c0,22.8-9.3,34-32.2,34
				c-2.7,0-5.8-0.4-8.1-1V8.2z"/>
			<path fill="#1D1D1B" d="M298.7,131.2c0,6.2,5,11.2,11.2,11.2s11.2-5,11.2-11.2c0-6.2-5-11.2-11.2-11.2S298.7,125,298.7,131.2"/>
			<path fill="#1D1D1B" d="M185.3,131.2c0,6.2,5,11.2,11.2,11.2s11.2-5,11.2-11.2c0-6.2-5-11.2-11.2-11.2S185.3,125,185.3,131.2"/>
			<path fill="#1D1D1B" d="M170.4,5.7h-3.5c-0.2,4.1-2.3,5.8-6.4,5.8c-8.1,0-21.2-9.8-35.1-9.8c-39.6,0-63.5,39-63.5,73.4
				c0,34.6,22.8,68.7,61,68.7c23.2,0,31.9-11,38-11c4.1,0,6.4,5,7.1,7.9h2.9V93.4h-2.9l-1.2,6.6c-2.7,15.6-17.2,40.4-42.1,40.4
				c-22,0-30.5-20.7-30.5-67.6c0-49.2,11.6-67.6,31.1-67.6c22,0,38.4,26.5,41.5,46.2h3.5V5.7z"/>
		</g>
	</g>
</g>
</svg>
