<?xml version="1.0" encoding="utf-8"?>
<!-- Generator: Adobe Illustrator 19.2.1, SVG Export Plug-In . SVG Version: 6.00 Build 0)  -->
<svg version="1.1" id="Evisu" xmlns="http://www.w3.org/2000/svg" xmlns:xlink="http://www.w3.org/1999/xlink" x="0px" y="0px"
	 width="400px" height="220px" viewBox="0 0 400 220" style="enable-background:new 0 0 400 220;" xml:space="preserve">
<title>Evisu</title>
<g>
	<g>
		<g>
			<path d="M216.7,73.4c0-2.3-1.9-4.2-4.2-4.2l-14.8,0c-2.3,0-4.2,1.9-4.2,4.2v73.3c0,2.3,1.9,4.2,4.2,4.2l14.8,0
				c2.3,0,4.2-1.9,4.2-4.2V73.4z"/>
			<path d="M103.2,150.7c3.1,0,4.3-2.2,2.8-4.9l-6.7-11.6c-1.5-2.7-5.3-4.9-8.4-4.9H68.8c-3.1,0-6.8-2.2-8.4-4.8l-0.1-0.2
				c-1.6-2.7-0.3-4.8,2.7-4.8h21.5c3.1,0,4.3-2.2,2.7-4.8l-6.9-11.8c-1.6-2.7-5.3-4.9-8.4-4.9H50.4c-3.1,0-6.1-1-7.5-3.4
				c-1.4-2.5-0.1-4.4,3-4.4h21.7c3.1,0,4.3-2.2,2.8-4.9l-6.2-10.7c-1.5-2.7-5.3-4.9-8.4-4.9H5.9c-3.1,0-4.3,2.2-2.7,4.9L45,145.9
				c1.6,2.7,5.4,4.9,8.4,4.9H103.2z"/>
			<path d="M238.3,115.3c0,2.3,1.9,4.2,4.2,4.2l28.4,0c2.8,0,5,2.3,5,5c0,2.8-2.3,5-5,5l-31.7,0c-2.3,0-4.2,1.9-4.2,4.2v12.9
				c0,2.3,1.9,4.2,4.2,4.2l55.7,0c2.3,0,4.2-1.9,4.2-4.2l0-44.3c0-2.3-1.9-4.2-4.2-4.2l-28.3,0c-2.8,0-5-2.3-5-5v-2.5
				c0-2.8,2.3-5,5-5l33.7,0.1c2.3,0,4.2-1.9,4.2-4.2v-8.2c0-2.3-1.9-4.2-4.2-4.2l-43.1,0h-14.8c-2.3,0-4.2,1.9-4.2,4.2V115.3z"/>
			<path d="M120.5,73.4c-1.1-2.3-3.9-4.2-6.2-4.2H93.8c-2.3,0-3.3,1.9-2.1,4.2l35.6,73.3c1.1,2.3,3.9,4.2,6.2,4.2h15.7
				c2.3,0,4.9-1.9,5.7-4.2l26.8-73.3c0.8-2.3-0.3-4.2-2.6-4.2h-20.5c-2.3,0-4.9,1.9-5.7,4.2l-12.2,37.2c-0.4,0.9-1.3,1.5-2.3,1.5
				c-0.9,0-1.6-0.4-2.1-1.1L120.5,73.4z"/>
			<path d="M355.4,119.6c-1.1,3.2-4.2,7.8-10.3,7.8c-4.6,0-7.4-4.2-6.6-7.8c0.2-0.7,12.1-46.2,12.1-46.2c0.6-2.3-0.8-4.2-3.1-4.2
				h-14.8c-2.3,0-4.7,1.9-5.3,4.2l-19.6,73.3c-0.6,2.3,0.8,4.2,3.1,4.2h54.2c2.3,0,4.9-1.9,5.7-4.2l26.5-73.3
				c0.8-2.3-0.4-4.2-2.7-4.2h-16.7c-2.3,0-4.9,1.9-5.7,4.2L355.4,119.6z"/>
		</g>
	</g>
</g>
</svg>
