<?xml version="1.0" encoding="utf-8"?>
<!-- Generator: Adobe Illustrator 19.2.1, SVG Export Plug-In . SVG Version: 6.00 Build 0)  -->
<svg version="1.1" id="Maharishi" xmlns="http://www.w3.org/2000/svg" xmlns:xlink="http://www.w3.org/1999/xlink" x="0px" y="0px"
	 width="400px" height="220px" viewBox="0 0 400 220" enable-background="new 0 0 400 220" xml:space="preserve">
<title>Maharishi</title>
<g>
	<g>
		<g>
			<path d="M293.3,191.7h-4.5v23.4h4.5V191.7z M293.3,182h-4.5v-10.4h4.5V182z M269.5,203.1c0-1.3-0.3-3,0.7-5.4
				c0.8-1.9,3.5-3.3,5.3-3.2c4.2,0.1,5.2,2.7,5.2,6.9v13.8h4.4v-15.9c0-4.2-1.9-8.2-8-8.2c-3.4,0-5.9,1.2-7.6,3.8h-0.1v-10.6h-4.4
				v30.9h4.4V203.1z M269.5,182h-4.4v-10.4h4.4V182z M257.1,208.5c0,3-2.7,4-5.3,4c-2.7,0-4.6-1.5-4.7-4.4h-4.7c0,5.4,4.1,7.7,9,7.7
				c4.8,0,10.4-1.8,10.4-7.5c0-5.2-4.5-5.8-8.5-7c-1.7-0.6-5.7-0.7-5.7-3.3c0-2.6,1.9-3.7,4.3-3.7c2.6,0,4.9,1,4.7,3.9h4.6
				c0.3-5.3-4.6-7.1-9.1-7.1c-4.2,0-9.2,2.2-9.2,7.1C242.9,207.2,257.1,203.3,257.1,208.5 M239,182h-4.5v-10.5h4.5V182z M239,191.7
				h-4.4v23.4h4.4V191.7z M229.6,195.4c0.6,0,1.3,0,1.9,0.2v-4.2c-0.5,0-1,0-1.5,0c-3.2,0-6.2,1.6-6.9,4.8H223v-4.5h-4.4v23.4h4.4
				v-11.6C223,198.5,224,195.6,229.6,195.4 M203.6,212.5c-2.6,0-4.6-1.4-4.6-4.3c0-3.4,3.6-4.5,6.3-4.5h4.4
				C209.8,208,208.8,212.5,203.6,212.5 M194.3,209.1c0,4.5,4.1,6.7,8.1,6.7c3.3,0,5.8-1.3,7.3-4.2h0.1c0,1.1,0.1,2.1,0.2,3.2
				c0,0.6,0.8,0.4,1.3,0.4h3c-0.2-1.9-0.2-3.9-0.2-5v-11.2c0-6.5-4.7-7.9-9.5-7.9c-4.6,0-8.6,1.8-8.9,6.9h4.6c0-2.4,2.1-3.7,4.4-3.7
				c4.7,0,4.9,2.4,4.9,6.4h-4C200.2,200.7,194.3,202.6,194.3,209.1 M174.8,203.1c0-1.3-0.3-3,0.7-5.4c0.8-1.9,3.6-3.3,5.3-3.2
				c4.1,0.1,5.2,2.7,5.2,6.9v13.8h4.5v-15.9c0-4.2-1.9-8.2-8-8.2c-3.4,0-5.9,1.2-7.6,3.8h-0.1v-10.6h-4.4v30.9h4.4V203.1z
				 M155.5,212.5c-2.6,0-4.6-1.4-4.6-4.3c0-3.4,3.6-4.5,6.3-4.5h4.4C161.7,208,160.8,212.5,155.5,212.5 M146.3,209.1
				c0,4.5,4.1,6.7,8.1,6.7c3.2,0,5.8-1.3,7.3-4.2h0.1c0,1.1,0.1,2.1,0.2,3.2c0,0.6,0.8,0.4,1.3,0.4h3c-0.1-1.9-0.2-3.9-0.2-5v-11.2
				c0-6.5-4.7-7.9-9.5-7.9c-4.6,0-8.6,1.8-8.9,6.9h4.6c0-2.4,2.1-3.7,4.4-3.7c4.7,0,4.9,2.4,4.9,6.4h-4
				C152.1,200.7,146.3,202.6,146.3,209.1 M106.7,191.7v23.4h4.5v-12c0-0.6-0.2-3.7,0.3-4.9c1.3-3.1,3.9-3.8,5.7-3.8
				c4.3,0,5.2,2.8,5.2,6.9v13.8h4.4v-12c0-0.6-0.1-2.9,0.5-5.1c0.8-2.9,3.8-3.6,5.2-3.6c5.2,0,5.6,3.6,5.6,6.9v13.8h4.5v-16.5
				c0-4.2-3.3-7.6-8.7-7.6c-3.5,0-6.1,1.5-7.8,4.4c-1.2-2.9-3.8-4.4-8.3-4.4c-2.4,0-5.2,1.1-6.6,4h-0.1v-3.3H106.7z"/>
			<path d="M131.8,94.9c1.1,0.8,2.8,1.9,2.7,2.2V118c0,3.4,1.9,6.6,5.2,8.4l44.3,25.2c0,0,8.2,4.6,7.6,4.3c-0.6-0.3,4.2,2.2,4.2,2.2
				V89.9c0-24.4-4.6-35.5-20.8-52.1c-1.3,1.4-3,3.3-3.3,3.5c-6.5,6.3-16.4,14-27.9,15.9c-7.4,1.2-15.3,0.2-23.1-4.4
				c-3.9-2.5-8.3-1.9-11.3,1c-1.1,1-1.9,2.5-2.4,3.9c-0.4,1-0.4,2.1-0.4,3.2c0,1.5,0.3,3,1.1,4.3c3.3,6.3,6.7,11.4,10,15.6
				C123,87.5,127.8,92,131.8,94.9 M282.2,80.7c3.3-4.3,6.6-9.3,9.9-15.6c0.7-1.4,1.1-3,1.1-4.5c0-1.1-0.2-2-0.5-3
				c-0.5-1.3-1.1-2.5-2.2-3.6c-2.8-2.8-7.4-3.6-11.3-1.3c-7.1,4.3-14.7,5.7-22.4,4.7c-3.9-0.6-6-1.3-10.3-3.1
				c4.7,16.6,4.3,32.5,4.3,56.2l0.1,21.1l9.2-5.2c3.2-1.6,5.2-5,5.2-8.4V96.9c1-0.6,1.9-1.3,3.1-2.1
				C272.4,91.9,277.1,87.3,282.2,80.7 M234.2,51.5c-0.2-0.5-1.6-5-9.9-15c-5-6.4-9.4-12.5-12.1-17.5c-1.4-2.5-2.3-4.5-3.5-8.5
				c-0.3-1.1-1.4-2.5-2.3-3.4c-1.5-1.7-4.1-2.8-6.3-2.8c-2.4,0-5,1.3-6.7,3.2c-0.9,1-1.6,2.2-1.9,3c-1.1,2.9-2.4,6.8-5,11.6
				c-1.1,2-3.1,5.4-4.6,7.6c19.1,19.3,25,31.1,25,59.2c0,0.3-0.1,67.9-0.1,67.9s1.8-0.9,2.4-1.2c0.3-0.2,30.9-17.6,30.9-17.6l0-28.4
				C239.9,82,241.3,68.6,234.2,51.5"/>
		</g>
	</g>
</g>
</svg>
