<?xml version="1.0" encoding="utf-8"?>
<!-- Generator: Adobe Illustrator 19.2.1, SVG Export Plug-In . SVG Version: 6.00 Build 0)  -->
<svg version="1.1" id="MA_Strum" xmlns="http://www.w3.org/2000/svg" xmlns:xlink="http://www.w3.org/1999/xlink" x="0px" y="0px"
	 width="400px" height="220px" viewBox="0 0 400 220" style="enable-background:new 0 0 400 220;" xml:space="preserve">
<title>MA.Strum</title>
<g>
	<path d="M242.3,101h10.6c1.3,0,2.4,1.1,2.4,2.4v21.3c0,1.3,1.1,2.4,2.4,2.4h3.2c1.3,0,2.4-1.1,2.4-2.4v-21.3c0-1.3,1.1-2.4,2.4-2.4
		h10.9l-7.2-8h-27.1c-1.3,0-2.4,1.1-2.4,2.4v3.2C239.9,99.9,241,101,242.3,101z"/>
	<path d="M304.3,101c1.5,0,2.2,1.2,2.2,3.5c0,2.3-0.1,2.4-0.1,2.4c-1.2,0.6-3.2,1.1-4.5,1.1h-15.7c-1.3,0-1.7,0.8-0.8,1.8l13.9,15.5
		c0.9,1,2.7,1.8,4,1.8h6.1c1.3,0,1.7-0.8,0.8-1.8l-6.8-7.6c-0.9-1-0.5-1.8,0.8-1.8h0.7c3.1,0,5.5-1.2,7.2-3.6
		c1.6-2.2,2.4-4.8,2.4-7.9c0-3.1-0.8-5.7-2.4-7.9c-1.8-2.4-4.9-3.1-4.9-3.1c-1.3-0.3-3.4-0.5-4.7-0.5h-28.3l7.3,8H304.3z"/>
	<path d="M206.4,113.5c1.3,0.3,3.4,0.5,4.7,0.5h19c1.1,0,1.7,0.9,1.7,2.5v0.9c-0.1,1.5-1.8,1.5-4,1.6h-24.7c-1.3,0-2.4,1.1-2.4,2.4
		v3.2c0,1.3,1.1,2.4,2.4,2.4h27c2.8,0,5.2-1.1,7-3.2c1.7-2,2.6-4.5,2.6-7.3c0-2.9-0.9-5.3-2.6-7.3c-1.9-2.1-4.7-2.7-4.7-2.7
		c-1.3-0.3-3.4-0.5-4.7-0.5h-19.1c-1.1,0-1.6-0.8-1.7-2.5c0-0.2,0-0.4,0-0.5c0.1-2.4,2.7-2.1,4-2.1h24.7c1.3,0,2.4-1.1,2.4-2.4v-3.2
		c0-1.3-1.1-2.4-2.4-2.4h-27.1c-2.8,0-5.2,1-7,3.1c-1.8,2.1-2.7,4.6-2.7,7.4c0,2.9,0.9,5.3,2.6,7.3
		C203.5,113,206.4,113.5,206.4,113.5z"/>
	<path d="M324.1,126.6c1.3,0.3,3.4,0.5,4.7,0.5H349c2.8,0,5.1-1,7-3.1c1.8-2.1,2.3-5.1,2.3-5.1c0.2-1.3,0.4-3.4,0.4-4.7v-7.9
		c0.5,0.7,1,1.5,1.3,2l11.5,16.3c0.7,1.1,2,1.1,2.7,0l11.5-16.3c0.7-1.1,1.4-0.9,1.4,0.4v16c0,1.3,1.1,2.4,2.4,2.4h3.2
		c1.3,0,2.4-1.1,2.4-2.4V95.4c0-1.3-1.1-2.4-2.4-2.4h-3.5c-1.3,0-3,0.9-3.8,1.9l-11.1,15.8c-0.8,1.1-2,1.1-2.8,0l-11.3-15.8
		c-0.8-1.1-2.5-1.9-3.8-1.9h-3.2c-0.3,0-0.6,0.1-0.8,0.2c-0.9,0.3-1.5,1.2-1.5,2.2v18.7c0,1.7,0.6,5-4.1,5h-19c-1.1,0-3.1-0.1-2.9-5
		V95.4c0-1.3-1.1-2.4-2.4-2.4h-3.2c-1.3,0-2.4,1.1-2.4,2.4v21.1c0,2.9,0.9,5.4,2.7,7.4C321.3,126.1,324.1,126.6,324.1,126.6z"/>
	<path d="M22.1,122.2c2.5,4.8,6.4,8.7,11.2,11.2c1.6,1.1,11.4,8.1,12,17h0.2c0.6-8.9,10.4-15.9,12-17c4.8-2.5,8.7-6.4,11.2-11.2
		c0.9-1.3,8-11.5,17.1-12.2v-0.2c-9.7-0.7-17.2-12.3-17.2-12.3s0,0,0,0c-2.5-4.6-6.3-8.5-11-10.9c0.1,0,0.1,0,0.1,0
		s-11.6-7.5-12.3-17.2h-0.2C44.6,79.3,33,86.7,33,86.7s0,0,0.1,0c-4.7,2.5-8.5,6.3-11,10.9v0c0,0-7.5,11.6-17.2,12.3v0.2
		C14.1,110.7,21.2,120.9,22.1,122.2z M45.4,88.4c12,0,21.7,9.7,21.7,21.7c0,12-9.7,21.7-21.7,21.7c-12,0-21.7-9.7-21.7-21.7
		C23.7,98.1,33.4,88.4,45.4,88.4z"/>
	<path d="M102.7,127.1h3.2c1.3,0,2.4-1.1,2.4-2.4v-16c0-1.3,0.6-1.5,1.4-0.4l11.5,16.3c0.8,1.1,2,1.1,2.7,0l11.5-16.3
		c0.8-1.1,1.4-0.9,1.4,0.4v16c0,1.3,1.1,2.4,2.4,2.4h3.2c1.3,0,2.4-1.1,2.4-2.4V95.4c0-1.3-1.1-2.4-2.4-2.4h-3.5c-1.3,0-3,0.9-3.8,2
		l-11.1,15.8c-0.8,1.1-2,1.1-2.7,0l-11-15.8c-0.8-1.1-2.4-2-3.8-2h-3.6c-1.3,0-2.4,1.1-2.4,2.4v29.3
		C100.4,126,101.4,127.1,102.7,127.1z"/>
	<path d="M192.5,127h3.1c1.3,0,2.4-1.1,2.4-2.4v-3.2c0-1.3-1.1-2.4-2.4-2.4h-3.1c-1.3,0-2.4,1.1-2.4,2.4v3.2
		C190.1,125.9,191.2,127,192.5,127z"/>
	<path d="M146.8,127h4c1.3,0,2.9-1,3.5-2.1l3.4-6.5c0.2,0,0.4,0.1,0.6,0.1h17.2c0.2,0,0.3,0,0.4-0.1l3.4,6.5
		c0.6,1.2,2.2,2.1,3.5,2.1h4.1c1.3,0,1.9-0.9,1.2-2.1l-16-29.8c-0.6-1.2-2.2-2.1-3.5-2.1h-3.5c-1.3,0-2.9,0.9-3.5,2.1l-16,29.8
		C144.9,126.1,145.5,127,146.8,127z M166.8,101l5,9.5h-9.9L166.8,101z"/>
</g>
</svg>
