<?xml version="1.0" encoding="utf-8"?>
<!-- Generator: Adobe Illustrator 20.1.0, SVG Export Plug-In . SVG Version: 6.00 Build 0)  -->
<svg version="1.1" id="Napapijri" xmlns="http://www.w3.org/2000/svg" xmlns:xlink="http://www.w3.org/1999/xlink" x="0px" y="0px"
	 width="400px" height="220px" viewBox="0 0 400 220" style="enable-background:new 0 0 400 220;" xml:space="preserve">
<title>Napapijri</title>
<g>
	<g>
		<path d="M108.6,139c-0.5,0-1.1,0.2-1.4,0.7c-0.4,0.3-0.5,1-0.5,2.1c0,0.9,0.2,1.6,0.5,2.1c0.4,0.5,0.9,0.7,1.4,0.7
			c0.7,0,1.3-0.2,1.6-0.7c0.4-0.5,0.5-1.2,0.5-2.1c0-0.9-0.2-1.6-0.5-2.1C109.8,139.2,109.3,139,108.6,139z"/>
		<path d="M259.9,139.2c-0.7,0-1.1,0.2-1.4,0.7c-0.4,0.4-0.5,1.1-0.5,1.9c0,0.9,0.2,1.6,0.5,2.1c0.4,0.4,0.9,0.5,1.4,0.5
			c0.7,0,1.1-0.2,1.4-0.7c0.3-0.3,0.5-1,0.5-1.9s-0.2-1.6-0.5-1.9C260.9,139.4,260.6,139.2,259.9,139.2z"/>
		<path d="M70.4,138.6c-0.5,0-0.9,0.2-1.3,0.5c-0.4,0.4-0.6,0.9-0.6,1.6h3.8c0-0.7-0.2-1.2-0.5-1.6
			C71.4,138.7,71.1,138.6,70.4,138.6z"/>
		<path d="M220.3,142.7c-0.4,0-0.7,0.2-0.9,0.4s-0.2,0.5-0.2,0.7c0,0.4,0,0.7,0.4,0.9c0.2,0.2,0.5,0.4,0.9,0.4
			c0.5,0,0.9-0.2,1.3-0.5c0.4-0.4,0.5-0.7,0.5-1.2V142c-0.2,0.2-0.7,0.4-1.3,0.5C220.6,142.5,220.5,142.7,220.3,142.7z"/>
		<path d="M2.3,59v102h395.4V59H2.3z M36.6,144.9c0,1.2-0.2,2.1-0.2,2.6c-0.2,0.5-0.4,1.1-0.5,1.4c-0.4,0.5-0.9,1.1-1.8,1.4
			c-0.7,0.2-1.6,0.4-2.7,0.4c-1.6,0-2.7-0.2-3.6-0.7c-0.6-0.4-1.1-1.3-1.3-2.4h3.4c0,0.4,0.2,0.5,0.5,0.7c0.2,0.2,0.5,0.2,0.9,0.2
			c0.7,0,1.3-0.2,1.6-0.4c0.4-0.4,0.4-1.1,0.4-1.8v-1.1c-0.4,0.5-0.7,0.9-1.3,1.2c-0.5,0.2-1.1,0.4-1.8,0.4c-1.3,0-2.3-0.5-3.2-1.4
			c-0.7-1.1-1.1-2.3-1.1-3.7c0-1.6,0.4-3,1.1-3.9c0.9-1.1,2-1.4,3.2-1.4c0.7,0,1.3,0,1.8,0.4c0.5,0.2,1.1,0.7,1.4,1.2v-1.4h3.2
			C36.6,136.6,36.6,144.9,36.6,144.9z M75.5,142.4v0.2h-7c0,0.7,0.2,1.2,0.5,1.6c0.4,0.5,0.7,0.7,1.4,0.7c0.4,0,0.7-0.2,1.1-0.4
			c0.2-0.2,0.4-0.6,0.6-0.9h3.2c-0.4,1.2-0.9,1.9-1.8,2.6c-0.9,0.5-2,0.9-3.2,0.9c-1.6,0-2.9-0.5-3.8-1.4s-1.4-2.3-1.4-3.9
			c0-1.6,0.5-3,1.4-4.1c0.9-0.9,2.2-1.4,3.8-1.4c1.6,0,2.9,0.5,3.8,1.6c0.9,0.9,1.4,2.3,1.4,4.1C75.5,142.2,75.5,142.2,75.5,142.4z
			 M112.7,145.7c-1.1,1.1-2.3,1.4-4.1,1.4c-1.6,0-3-0.4-3.9-1.4c-0.9-0.9-1.4-2.3-1.4-3.9c0-1.8,0.5-3,1.4-4.1
			c1.1-0.9,2.3-1.4,3.9-1.4c1.8,0,3,0.5,4.1,1.4c0.9,1.1,1.4,2.3,1.4,4.1C114.1,143.4,113.6,144.8,112.7,145.7z M152.7,144.9
			c0,1.2,0,2.1-0.2,2.6c0,0.5-0.2,1.1-0.4,1.4c-0.5,0.5-1.1,1.1-1.8,1.4c-0.9,0.2-1.8,0.4-2.9,0.4c-1.4,0-2.7-0.2-3.4-0.7
			c-0.8-0.4-1.3-1.3-1.5-2.4h3.4c0.2,0.4,0.4,0.5,0.5,0.7c0.4,0.2,0.5,0.2,1.1,0.2c0.7,0,1.3-0.2,1.4-0.4c0.4-0.4,0.5-1.1,0.5-1.8
			v-1.1c-0.4,0.5-0.9,0.9-1.4,1.2c-0.5,0.2-1.1,0.4-1.8,0.4c-1.3,0-2.3-0.5-3-1.4c-0.9-1.1-1.3-2.3-1.3-3.7c0-1.6,0.4-3,1.3-3.9
			c0.7-1.1,1.8-1.4,3-1.4c0.7,0,1.4,0,2,0.4c0.5,0.2,0.9,0.7,1.3,1.2v-1.4h3.2L152.7,144.9L152.7,144.9z M188.5,139.7
			c-0.2,0-0.4,0-0.5,0c-0.2,0-0.2,0-0.4,0c-0.5,0-0.9,0-1.3,0.2c-0.4,0.2-0.7,0.4-0.9,0.7c0,0.2-0.2,0.5-0.2,0.9
			c0,0.5-0.2,1.1-0.2,1.9v3.4h-3.2v-0.1v-10.1h3.2v1.8c0.4-0.7,0.7-1.2,1.3-1.4c0.5-0.4,1.3-0.5,2.2-0.5L188.5,139.7L188.5,139.7z
			 M226.1,146.7h-3.4c0-0.2,0-0.4-0.2-0.4c0-0.2,0-0.4,0-0.7c-0.5,0.5-0.9,0.9-1.4,1.1c-0.5,0.4-1.3,0.4-1.8,0.4
			c-1.1,0-1.8-0.2-2.3-0.7s-0.9-1.2-0.9-2.3c0-0.7,0.2-1.4,0.7-1.9c0.4-0.5,1.1-0.9,2-1.1c0.5-0.2,1.1-0.4,2-0.4
			c1.1-0.4,1.6-0.5,1.6-0.9v-0.2c0-0.4,0-0.5-0.2-0.7c-0.4-0.2-0.7-0.4-1.1-0.4c-0.5,0-0.9,0.2-1.1,0.4c-0.4,0.2-0.5,0.5-0.5,0.9
			h-3.2c0.2-1.2,0.7-1.9,1.6-2.6c0.7-0.5,1.8-0.7,3.2-0.7c1.1,0,1.8,0,2.3,0.4c0.7,0.2,1.3,0.5,1.4,0.9c0.4,0.4,0.5,0.7,0.5,1.2
			c0.2,0.4,0.2,1.1,0.2,1.9v3.9c0,0.5,0,0.9,0.2,1.1c0,0.4,0.2,0.5,0.4,0.5V146.7z M264,145.7c-0.9,0.9-2,1.4-3,1.4
			c-0.7,0-1.4-0.2-2-0.4c-0.4-0.4-0.9-0.7-1.3-1.2v5.3h-3.1v-14.1h3.2v1.4c0.4-0.5,0.9-1.1,1.4-1.2c0.4-0.4,1.1-0.4,1.6-0.4
			c1.3,0,2.3,0.4,3.2,1.4c0.7,0.9,1.1,2.3,1.1,3.9C265.1,143.4,264.7,144.6,264,145.7z M303.6,146.7h-3.4v-4.9
			c0-1.2-0.2-1.9-0.4-2.3s-0.5-0.5-1.1-0.5c-0.5,0-1.1,0.2-1.3,0.5c-0.4,0.4-0.4,1.1-0.4,1.9v5.3h-3.3v-13.6h3.4v4.9
			c0.4-0.7,0.7-1.1,1.3-1.2c0.5-0.4,1.1-0.4,1.8-0.4c1.1,0,2,0.2,2.5,0.9c0.5,0.5,0.9,1.4,0.9,2.5V146.7z M335.8,146.7h-3.4v-10.1
			h3.4V146.7z M335.8,135.8h-3.4v-2.6h3.4V135.8z M368.1,143.8c0.2,0.4,0.7,0.5,1.3,0.5c0.5,0,0.9,0,1.1-0.4
			c0.2-0.2,0.4-0.5,0.5-1.1h3.2v0.2c0,1.2-0.5,2.3-1.4,3s-2.2,1.1-3.4,1.1c-1.6,0-2.9-0.5-3.8-1.4s-1.4-2.3-1.4-3.9
			c0-1.6,0.5-3,1.4-4.1c0.9-0.9,2.2-1.4,3.9-1.4c1.3,0,2.5,0.4,3.4,1.1c0.7,0.7,1.3,1.6,1.4,2.8H371c-0.2-0.4-0.4-0.7-0.5-1.1
			c-0.4-0.2-0.5-0.4-1.1-0.4c-0.5,0-0.9,0.4-1.3,0.9c-0.4,0.4-0.5,1.1-0.5,2.1C367.6,142.6,367.8,143.3,368.1,143.8z M388,125.9
			H10.9V65.1H388V125.9z"/>
		<path d="M147.6,139c-0.7,0-1.3,0.2-1.6,0.7c-0.2,0.5-0.4,1.2-0.4,1.9c0,0.9,0.2,1.6,0.5,1.9c0.2,0.5,0.7,0.7,1.3,0.7
			c0.7,0,1.3-0.2,1.6-0.7c0.4-0.4,0.5-1.1,0.5-1.9c0-0.9-0.2-1.4-0.5-1.9C148.6,139.2,148.1,139,147.6,139z"/>
		<path d="M31.3,139c-0.5,0-1.1,0.2-1.4,0.7s-0.5,1.2-0.5,1.9c0,0.9,0.2,1.6,0.5,1.9c0.4,0.5,0.9,0.7,1.4,0.7s1.1-0.2,1.4-0.7
			c0.4-0.4,0.5-1.1,0.5-1.9c0-0.9-0.2-1.4-0.5-1.9C32.5,139.2,32,139,31.3,139z"/>
	</g>
	<path d="M138.2,94.6l-0.4-13.8c0-4.2,8.8-5.1,13.6-3.5c1.6,0.5,6.5,8.3,0.5,13.6C149.7,92.9,143.1,93.9,138.2,94.6L138.2,94.6z"/>
	<path d="M228.1,94.6l-0.2-13.8c-0.2-4.2,8.6-5.1,13.4-3.5c1.8,0.5,6.6,8.3,0.7,13.6C239.5,92.9,233.1,93.9,228.1,94.6L228.1,94.6z"
		/>
	<polygon points="214.8,69.7 214.9,69.7 214.8,69.6 	"/>
	<polygon points="315.7,69.7 315.8,69.7 315.7,69.6 	"/>
	<path d="M329,91.8l-0.4-10.9c0-4.2,8.8-5.1,13.4-3.5c1.8,0.5,6.6,8.3,0.7,13.6C340.5,92.9,334,91.6,329,91.8L329,91.8z"/>
	<g>
		<path d="M13.2,66.9v29.3h9v-20l-2.5-6.7h15.2L47,96.2h4.1V72.9l-2.3-3.4h12.7l-2.2,3.4v23.3H78l8.2-24.9L85,69.6h15l-1.3,1.8
			l7.6,24.8h21.3l-0.2-23.5l-2.5-3.2h28.3c10.8,0,14.5,11.7,9,24c-0.3,1.1-1.2,2-2.5,2.7h10.8l8.1-24.9l-1.3-1.8h15.2l-1.3,1.8
			l7.5,24.9h19l-0.2-23.5l-2.7-3.2h28.5c10.6,0,14.5,11.7,9,24c-0.6,1.1-1.5,2-2.5,2.7h10.3l0.2-22.3l-2.9-4.4h14.3l-2.7,4.4
			l-0.1,22.3h29.4V73.6l-2.3-4.1h14l-2.9,4.1v22.6h11.3l-0.2-23.5l-2.5-3.2H344c13,0.1,15.3,25,3.8,26.7h16.5l0.2-22.3l-2.9-4.4H376
			l-2.5,4.4l-0.2,22.3h12.4V66.9H13.2z"/>
		<polygon points="179.1,96.2 189.7,96.2 184.1,80.7 		"/>
		<polygon points="86.8,96.2 97.2,96.2 91.8,80.7 		"/>
		<polygon points="30.8,96.2 35.8,96.2 30.8,86.8 		"/>
		<path d="M151.4,77.3c-4.8-1.6-13.6-0.7-13.6,3.5l0.4,13.8c4.9-0.7,11.5-1.7,13.7-3.7C157.9,85.6,153,77.8,151.4,77.3z"/>
		<path d="M241.3,77.3c-4.8-1.6-13.6-0.7-13.4,3.5l0.2,13.8c5-0.7,11.4-1.7,13.9-3.7C247.9,85.6,243.1,77.8,241.3,77.3z"/>
		<path d="M342.7,91c5.9-5.3,1.1-13.1-0.7-13.6c-4.6-1.6-13.4-0.7-13.4,3.5l0.4,10.9C334,91.6,340.5,92.9,342.7,91z"/>
	</g>
	<g>
		<polygon points="30.8,96.2 22.2,96.2 22.2,118.3 21.1,123.2 32.6,123.2 30.8,118.3 		"/>
		<polygon points="51,96.2 51,105.3 46.9,96.2 35.7,96.2 50.1,123.2 59.2,123.2 59.2,96.2 		"/>
	</g>
	<path d="M106.3,96.2h-9.1l3.4,9.9h-17l3.2-9.9H78l-7.7,23.3l-2.2,3.7h13.1c-2-4.2-2.7-9-0.2-9h20.4c3.4,0.2,1.4,6,0.2,9h14
		l-2.3-3.7L106.3,96.2z"/>
	<path d="M136.6,106.5c0-4.4,16.5-5.8,23.2-10.3h-32.1l0.2,22.9l-2.3,4.2h13.8L137,119L136.6,106.5z"/>
	<path d="M198.8,96.2h-9.3l3.5,9.9h-17l3.2-9.9h-8.5l-7.6,23.3l-2.5,3.7h13.1c-1.8-4.2-2.7-9,0-9H194c3.4,0.2,1.4,6,0.4,9H208
		l-2.3-3.7L198.8,96.2z"/>
	<path d="M226.7,106.6c0-4.4,16.7-5.8,23.3-10.4h-32.3l0.2,22.9l-2.3,4.2h13.8l-2.5-4.2L226.7,106.6z"/>
	<polygon points="268.9,96.2 260.1,96.2 259.9,118.7 257.4,123.3 271.7,123.3 268.8,118.7 	"/>
	<path d="M298.3,96.2V108c0,12.7-16.3,7.6-19.2-1.4l-0.2,16.8l4.5-1.9c11.8,6.4,23.7-1.2,23.7-10.9V96.2H298.3z"/>
	<path d="M347.5,96.4c0.4,0,0.7-0.1,1.1-0.2h-30.2l0.2,22.9l-2.3,4.2h13.8l-2.3-4.2l-0.4-17.1l9-0.5c9.7-1.1,7.7,14.8,10,21.9h9
		C354.5,115.3,353.2,98,347.5,96.4z"/>
	<polygon points="373.3,96.2 364.5,96.2 364.4,118.7 361.7,123.3 376,123.3 373.1,118.7 	"/>
</g>
</svg>
