<?xml version="1.0" encoding="utf-8"?>
<!-- Generator: Adobe Illustrator 23.0.3, SVG Export Plug-In . SVG Version: 6.00 Build 0)  -->
<svg version="1.1" id="Слой_1" xmlns="http://www.w3.org/2000/svg" xmlns:xlink="http://www.w3.org/1999/xlink" x="0px" y="0px"
	 width="400px" height="220px" viewBox="0 0 400 220" style="enable-background:new 0 0 400 220;" xml:space="preserve">
<style type="text/css">
	.st0{fill-rule:evenodd;clip-rule:evenodd;}
</style>
<g>
	<g>
		<path class="st0" d="M196.38,36.27c22.69-0.03,40.51,1.05,59.82,4.33c21.08,3.59,40.74,8.42,56.57,17.5
			c1.17,0.67,2.06,1.11,3.58,2.08c6.17,3.96,13.85,10.31,15.33,18.83c1.19,6.89-2.03,12.5-5.5,16.5c-3.61,4.15-8.03,7.31-12.75,10
			c-19.25,10.97-44.63,16.81-70.98,19.83c-12.25,1.4-25.09,2.42-40.16,2.42c-14.65,0-27.59-0.59-40.07-1.83
			c-25.39-2.52-51.97-7.85-71.98-18c-4.98-2.53-9.64-5.29-13.83-9c-3.97-3.52-7.76-7.89-8.83-13.91
			c-1.8-10.11,5.33-17.47,11.25-21.99c6.34-4.85,14.5-8.9,22.33-11.83c16.28-6.08,35.96-10.13,55.49-12.5
			C169.65,37.11,181.2,36.29,196.38,36.27z M196.96,45.36c-17.61,0-34.34,3.2-48.99,8.58c-7.18,2.64-13.55,5.87-19.16,10.58
			c-4.9,4.11-10.68,10.69-9.33,19.75c1.17,7.81,7.38,13.38,12.66,17.08c5.9,4.13,12.98,7.26,20.16,9.58
			c15.51,5.02,32.88,7.19,50.82,7c17.05-0.18,34.98-3.13,49.07-8.66c6.95-2.73,13.62-6.07,19.08-10.66
			c5.03-4.23,10.36-11.07,9-19.58c-1.22-7.62-7.03-13.19-12.66-17.08c-6.19-4.28-12.76-7.1-20.16-9.58
			c-11.34-3.8-24.22-6.05-36.57-6.66c-3.88-0.19-8.98-0.56-13.75-0.33C197.08,45.36,197.02,45.36,196.96,45.36z"/>
		<path class="st0" d="M320.68,120.5c1.79-0.11,4.22-0.04,6.17,0.33c1.55,0.3,4.32,1.01,4.33,2.67c0.01,1.48-2.14,2.24-3.5,2.58
			c-3.27,0.82-7.1,0.83-10.58,0c-1.56-0.37-3.63-1.07-3.67-2.5c-0.04-1.58,1.81-2.09,2.92-2.42
			C318.02,120.68,319.13,120.6,320.68,120.5z M317.68,121.5c-1.05,0.33-2.49,0.86-2.5,2c-0.01,0.89,1.12,1.6,1.92,1.92
			c2.66,1.04,7.65,1.18,10.58-0.08c0.73-0.31,1.73-1.1,1.75-1.75c0.04-1.13-1.98-2.01-2.92-2.25c-1.61-0.42-3.45-0.47-4.75-0.42
			C320.38,120.97,319.08,121.07,317.68,121.5z"/>
		<path class="st0" d="M319.1,121.84c1.64,0.18,6.99-0.56,6.83,1.08c-0.09,0.85-1.4,0.7-2.17,0.83c0.68,0.57,1.7,0.8,2.25,1.5
			c-2.38,0.55-3.27-1.48-5.08-1.5c-0.18,0.32-0.04,0.96-0.08,1.42c-0.33,0.11-1.09,0.08-1.75,0.08
			C319.1,124.11,319.1,122.98,319.1,121.84z M320.93,123.25c0.77-0.1,2.62,0.26,3.08-0.42C323.6,122.34,320.24,121.85,320.93,123.25
			z"/>
		<path class="st0" d="M21.67,144.92c7.52-0.02,14.21-0.09,20.33,1.17c2.05,0.42,4.36,1.21,5.08,2.75c0.68,1.44,0.42,3.83,0.42,7.33
			c0,6.5,0,12.45,0,19.24c0,1.23,0.16,2.79-0.17,3.67c-1,2.73-6.45,3.38-9.25,3.67c-7.52,0.78-16.47,0.73-24.16,0
			c-3.02-0.29-8.41-0.93-9.58-3.5c-0.7-1.53-0.33-5.13-0.33-7.41c0-5.55,0-9.6,0-15.33c0-2.7-0.41-6.28,0.67-7.92
			c1.09-1.66,4.65-2.58,7.58-3C15.53,145.12,18.02,144.92,21.67,144.92z M21.01,149.66c-0.3,0.61-0.17,2.36-0.17,3.42
			c0,6.43,0,11.83,0,18.16c0,2.15-0.42,5.88,0.25,7.08c0.7,1.24,2.63,1.23,4.58,1.25c1.55,0.02,3.91,0.11,4.67-1.17
			c0.68-1.16,0.25-4.61,0.25-6.91c0-5.89,0-8.82,0-14.5c0-1.56,0.39-5.97-0.08-7.16c-0.6-1.53-4.61-1.43-6-1.33
			C23.51,148.57,21.52,148.61,21.01,149.66z"/>
		<path class="st0" d="M86.74,145.33c6.75,0,14.22,0,21.24,0c4.88,12.4,9.77,24.77,14.58,37.24c-6.39,0-12.77,0-19.16,0
			c-1.05-3.06-2.02-6.2-3.08-9.25c-3.59-0.13-7.74-0.14-11.33,0c-1.03,2.95-1.81,6.13-2.67,9.25c-4.36,0-8.72,0-13.08,0
			c3.24-9.26,6.68-18.53,10-27.83C84.36,151.63,85.64,148.09,86.74,145.33z M89.82,168.99c2.92-0.14,6.41-0.14,9.33,0
			c-1.66-4.89-3.26-9.85-5.08-14.58C92.74,159.35,91.17,164.06,89.82,168.99z"/>
		<path class="st0" d="M168.97,160.33c3.97-4.1,8.11-8.71,12.25-13.25c0.5-0.55,1.39-1.63,1.83-1.75c0.99-0.27,2.76,0,3.92,0
			c3.81,0,7.84,0.07,11.58-0.08c0.16,0.45-0.45,0.68-0.67,0.92c-4.32,4.76-8.96,9.81-13.41,14.5c4.41,7.28,9.13,14.7,13.33,21.91
			c-6.42,0-12.83,0-19.25,0c-3.4-5.21-6.28-10.94-9.58-16.25c0,5.41,0,10.83,0,16.25c-6.05,0-12.11,0-18.16,0
			c-0.06-12.03,0.11-24.99-0.08-37.16c5.78-0.19,12.36-0.03,18-0.08c0.46-0.05,0.25,1.01,0.25,1.58
			C168.97,151.15,168.97,156.04,168.97,160.33z"/>
		<path class="st0" d="M226.37,145.33c6.03,0,12.05,0,18.08,0c0,10.69,0,21.83,0,32.24c6,0.06,12.22-0.11,18.08,0.08
			c0,1.64,0,3.28,0,4.92c-12.11,0-24.22,0-36.33,0c0.19-11.42,0.03-24.94,0.08-37.07C226.12,145.42,226.33,145.13,226.37,145.33z"/>
		<path class="st0" d="M289.61,145.33c11.86,0,23.72,0,35.57,0c0,1.58,0,3.17,0,4.75c-5.78,0-11.55,0-17.33,0
			c-0.19,3.64-0.03,7.64-0.08,11.41c4.44,0.06,9.11-0.11,13.41,0.08c0.03,1.61-0.06,3.14,0.08,4.33c-4.47,0-8.94,0-13.41,0
			c0,3.94,0,7.89,0,11.83c5.58,0.19,11.52,0.03,17.25,0.08c0,1.58,0,3.17,0,4.75c-11.86,0-23.72,0-35.57,0c0-12.36,0-24.72,0-37.07
			C289.49,145.34,289.58,145.2,289.61,145.33z"/>
		<path class="st0" d="M395.83,145.25c0.07-0.02,0.08,0.03,0.08,0.08c-4.91,7.78-10.43,15.67-15.58,23.49
			c0.05,4.47-0.11,9.6,0.08,13.66c-5.94,0.19-12.25,0.03-18.33,0.08c0-3.26,0-6.7,0-10.25c0-1.14,0.21-2.43,0-3.42
			c-0.19-0.87-1.35-2.05-2-3c-4.68-6.85-9.33-13.83-13.75-20.58c6.42,0,12.83,0,19.24,0c2.84,4.47,5.41,9.19,8.08,13.83
			c2.79-4.54,5.39-9.27,8.17-13.83C386.47,145.28,391.33,145.44,395.83,145.25z"/>
	</g>
</g>
</svg>
