<?xml version="1.0" encoding="utf-8"?>
<!-- Generator: Adobe Illustrator 19.2.1, SVG Export Plug-In . SVG Version: 6.00 Build 0)  -->
<svg version="1.1" id="Peaceful_Hooligan" xmlns="http://www.w3.org/2000/svg" xmlns:xlink="http://www.w3.org/1999/xlink" x="0px" y="0px"
	 width="400px" height="220px" viewBox="0 0 400 220" style="enable-background:new 0 0 400 220;" xml:space="preserve">
<title>Peaceful Hooligan</title>
<path class="st0" d="M107.2,137.8c-0.1-0.6-0.1-1.2-0.2-1.8c-0.1-0.7-0.5-0.9-0.6-0.9c-0.3,0-0.5,0.8-0.6,1.2
	c-0.1,0.6-0.3,1.4-0.4,1.9c-0.3,1.1-0.3,2.1-0.5,3.2c-0.1,0.7-0.3,1.4-0.3,2.1c0,1.3,0.4,1.7,1.4,1.8c0.6,0,1.8,0,1.8-1.6
	c0,0,0-1.8-0.3-3.6C107.5,139.3,107.3,138.6,107.2,137.8z"/>
<path class="st0" d="M61.5,139.7c0,2.3,1.4,2.8,2,2.8c0.4,0,2.2-0.4,2.2-2.7l-0.1-1.4l0-1.5c0-2.5-1.5-3.2-2.3-3.2
	c-1.7,0-1.8,1.8-1.9,2.8c0,0.3,0,1.8,0,2.1L61.5,139.7z"/>
<path class="st0" d="M179,177.5c0-0.7-0.1-1.6-0.3-2.5c-0.1-0.8-0.3-1.5-0.4-2.3c-0.1-0.6-0.2-1.2-0.3-1.8c-0.1-0.8-0.5-0.9-0.6-0.9
	c-0.3,0-0.5,0.8-0.6,1.2c-0.1,0.6-0.3,1.4-0.4,1.9c-0.3,1.1-0.3,2.1-0.5,3.2c-0.1,0.3-0.1,0.6-0.2,0.9h0c0,0.3-0.1,0.9-0.1,1.2
	c0,1.3,0.4,1.7,1.4,1.7c0.6,0,1.8,0,1.8-1.6C179.1,178.6,179.1,178.1,179,177.5L179,177.5z"/>
<path class="st0" d="M103.7,177.6L103.7,177.6l0-1.9l0-1.8c0-0.6-0.1-2.1-0.2-3c-0.2-1.9-1.2-2.4-2.1-2.4c-2.3,0-2.3,2.7-2.3,3.8
	l0.1,3.4c0,0.3,0,1.2,0,2.2h0c0,1.7,0,4,0,4.6c0,1.7,0,4.4,2.3,4.4c2,0,2.2-1.8,2.2-2.8c0-0.3,0-1.7,0-2c0-0.5,0.2-3.2,0.2-3.8
	L103.7,177.6z"/>
<path class="st0" d="M281.2,65.3c-2.1,0-3.7,1.7-3.7,3.8c0,2.1,1.7,3.7,3.8,3.7c2.1,0,3.7-1.7,3.7-3.8
	C285,66.9,283.3,65.2,281.2,65.3z"/>
<path class="st0" d="M357.5,42.6l-2-0.7l0.4-2c0.1-0.8,0.2-1.6,0.2-2.5c0-7.6-6.2-13.7-13.8-13.7c-6.7,0-12.3,4.9-13.5,11.3
	l-0.4,2.3l-2.3-0.3c-0.7-0.1-1.3-0.1-2-0.1c-5.2,0-9.8,2.6-12.7,6.5c-1.4,1.8-5.2,4-8.9,0.9c-7.2-5.8-17.5-8.6-29.3-7.6
	c-18.5,0.8-33.5,17.8-40.9,34.4c-1.3,2.9-2.7,8-4.1,13.6c-1.4,5.6-2.8,11.5-4,15.9c-1.3,4.5-7.2,5.8-9,1.2
	C202,68.5,175.5,29,150.2,10.1c-14.9-11.1-28-8.9-34.2-0.5c-3.3,4.5-4.1,10.5-3.7,16.1c0.3,5.6,1.7,10.4,2,12.1l0.3,1.3l-0.9,1
	c-3,3-5.1,7.8-5,14.8c0,5.4,0.9,10.8,2,16.1l0.3,1.2l-0.9,0.9c-6.5,7-9,19.4-8.6,28.6c0.1,2.7,0.3,5.2,0.5,7.3
	c0.3,1.7-0.4,2.6-2.1,2.7c-0.7,0.1-12,0.1-22.7,0.1l-21.6,0c-1.8,0-5.5,0.2-9,2.4l-2.8,2.2c-0.2,0.2-0.5,0.5-0.9,0.9
	c-0.5,0.5-1.1,1.2-1.6,2.2c-1.1,1.9-2.2,4.6-2.1,8.3l0.3,18.1c-0.1,1.9-0.5,3-1.2,3.3c-6.9,4-7.2,13.2-7.2,13.5l0.2,30.1
	c0,3.9,2.7,15.4,18.5,15.4c0.3,0.1,30.8-0.1,61.9-0.2l61.7-0.4c5.5,0,7.7,1.4,8.8,2.1c16.8,9.3,56.1,7.8,64.6,7.1
	c36.4-3.2,61.4-26.6,69-53c0.6-3,2-3.3,4.2-1c2.8,3.2,6.9,5.2,11.4,5.1c8.3,0,15.1-6.9,15-15.2c0-2.9-0.8-5.6-2.3-7.8
	c-1.2-1.8-2.4-3.6-3.5-5.4c-1.2-1.8-2.2-3.6-3-5.3c-1.1-2.3-1.1-6,1.8-9.2c2.6-3,4.1-6.9,4.1-11.1c0-1.6-0.3-3.2-0.7-4.7
	c-0.4-1.7-1.3-3.5-2.4-5c-3.1-4.3-8.2-7.1-13.9-7.2c-5.1-0.1-9-33.6,17.5-22.9c3.3,1.3,5.3,1.9,8,1.9c9.6-0.1,17.3-7.9,17.2-17.5
	C369,51.3,364.2,44.9,357.5,42.6z M209.7,150.1c1.9,0,1.9,1,1.9,4.3l-0.1,2.6c0,0.8-0.4,1.1-0.7,1.3c-0.2,0.1-0.4,0.1-0.8,0.1
	l-1.9-0.1c-0.3,0-1.9,0-2.2,0c-0.8,0.1-5.1,0-6,0l-2.7,0.1c-1.5,0-1.9-0.9-1.9-1.6l0-1.7c0-1.2,0.1-2.4,0.1-3.6
	c0-0.1-0.2-4.4-0.2-5.2c0-0.4,0.1-2.4,0.2-2.9c0-0.4,0-0.7,0-1.1l-0.1-3.1l0-2.4l-0.1-2.6l0.1-3.6l-0.1-3.7c0-0.8,0-2.1,1.6-2.1
	c0.3,0,2.1,0.1,2.5,0.1l1.3,0c0.5-0.1,0.9-0.1,1.3-0.1c0.7,0,1.9,0,1.9,1.4l0,0.8c-0.1,1-0.2,3.1-0.2,4.4l0.1,3.3l-0.1,2.8
	c0,0.4,0.2,2.2,0.2,2.6c0,0.2,0,0.5,0,1.2c-0.1,0.8,0,1.8,0,2.6l0.1,2.3l-0.1,1.3c0,1.2,0.5,2.5,2.1,2.7c0.3,0,1.7,0,2.1,0
	L209.7,150.1z M131.8,16.7c11-0.3,33.1,27.3,49.5,49.7c16.8,23.1,25.8,54,25.8,54s-5.8,1.3-9.9,0.7c-4.1-0.6-11-0.6-11-0.6
	s-16.6-29.7-24.1-43.4c-7.5-13.7-28.6-47.6-29.6-49.7C131.5,25.4,124.2,16.9,131.8,16.7z M172.4,144.5c0-1-0.2-6.2-0.2-7.3
	c0-0.6,0.1-3.7,0.1-4.3l-0.1-4.6c0-2.4,0.3-3,1.6-3c0.4,0,2.6,0.1,3,0.1c0.1,0,0.5,0,0.8-0.1l0.8,0c1.3,0,1.5,0,1.7,0.2
	c0.2,0.1,0.8,0.4,0.8,1.3c-0.1,1.1-0.2,2.7-0.1,4.3l0.1,2.2l0,1.8l0,1.9c0,0.6-0.1,3.7-0.1,4.4l0,2.9v3.5c0,0.7,0,1.8,0.4,2.3
	c0.1,0.2,0.6,1,1.6,1c0.4,0,0.9-0.2,1.3-0.4c1-0.6,1.1-1.7,1.1-3.7l-0.1-2.1l0-3.6c0-0.9-0.2-5.2-0.2-6.2c0-0.6,0.1-4,0.1-4.8
	l-0.1-1.9c0-2.2,0.1-2.3,0.4-2.7c0.5-0.6,0.8-0.6,1.2-0.6c0.4,0,2.6,0.1,3.1,0.1c0.2,0,0.7,0,1.2-0.1c0.5,0,1.1,0,1.2,0
	c1.5,0,1.5,1.4,1.5,1.8c0,0.3,0,0.5,0,0.8c-0.1,1.7-0.1,3.7-0.1,4.8c0,0.5,0,1,0,1.4c0,0.3,0.2,2,0.2,2.4c0,0.8-0.1,1.5-0.1,2.2
	c0,0.8-0.1,1.6-0.1,2.4c0,0.8,0.2,5,0.2,5.9c0,0.5,0,1,0,1.5c0,0.4-0.1,0.8-0.1,1.2c0,0.7,0,1.3-0.1,2c-0.1,1.3-0.6,2.6-1.2,3.4
	c-1.2,1.8-2.5,2.5-3.3,2.9c-2.2,1.2-3.3,1.3-6.8,1.3c-2.9,0-4.5-0.7-6.3-1.7c-0.8-0.5-2-1.2-2.8-3.1c-0.5-1.4-0.7-3.7-0.7-4.7
	C172.3,148.9,172.4,145.3,172.4,144.5z M127.2,31.4c0.9-6.5,6.1,3.2,9.8,9.5c3.7,6.3,31.8,55.6,34.9,60.1
	c3.2,4.5,11.4,19.4,11.4,19.4s-7.1,0.1-9.4,0.2c-2.3,0.1-9.5,0.7-9.5,0.7s-15.2-37.6-19.3-46C140.9,66.8,126.3,37.9,127.2,31.4z
	 M123.7,49.9c3.9-2.2,9.4,7.9,15.6,20.4c6.2,12.4,22,50.6,22,50.6s-8.6,0.8-12.1,1c-3.4,0.2-10.7-0.8-10.7-0.8s-9.8-30.5-11.4-38.5
	C125.5,74.6,119.8,52,123.7,49.9z M153.8,156.9c0,1.6-1.1,1.9-1.7,1.9l-1.7-0.1l-1.6,0.1c-1,0-2-0.1-3-0.1l-1.7,0.1l-1.6,0l-2.9,0.1
	l-1.8,0.1c-1.1,0-1.9-0.8-2-1.8c0.1-1.6,0.1-2.7,0.1-3.6l-0.1-2.9c0-0.3,0.1-1.9,0.1-2.2l-0.1-2.2l0-4.1l-0.1-4.6
	c0-1.7,0.1-3.4,0.1-5l-0.1-3.6c0-2.3,0-3.6,2.4-3.7c0.2,0,0.8,0.1,1.4,0l1.4,0.1h2.5l4,0.1l1.8-0.1l1,0l1.5-0.1
	c0.9,0,1.4,0.6,1.4,1.5c0,0.4-0.1,2.2-0.1,2.6l0.1,1.6c0,0.7-0.1,1.7-1.7,1.9c-0.1,0-0.7,0-0.8,0l-1.5,0.1c-0.3,0-1.7-0.1-2-0.1
	c-1.8,0-2.3,0.4-2.6,0.8c-0.2,0.3-0.2,0.4-0.2,1.8c0,0.5,0,2.3,1.7,2.3l1.4-0.1l1.9,0.1l1.5-0.1c1.4,0,1.9,0.5,1.9,1.9l-0.1,2l0.1,2
	c0,0.4,0,0.7-0.1,0.9c-0.4,1.1-1.2,1.1-1.9,1.1c-0.5,0-3.3-0.2-3.8-0.2c-0.8,0-1.8,0.1-2.2,0.9c-0.2,0.4-0.2,1.1-0.2,2.4
	c0,1,0,1.8,1.2,2.1c0.5,0.1,1.3,0.1,1.9,0.1c0.5,0,0.9,0.1,1.4,0.2c0.3,0.1,0.7,0,1,0c0.4,0,0.8,0,1.1-0.1c0.3,0,0.6-0.1,1-0.1
	c0.6,0,1.7,0.4,1.8,1.7c0,0.3,0,0.5,0,0.8c0,0.5,0,1,0,1.4L153.8,156.9z M115.3,95.1c0.9-4.7,3-12.5,6.2-13.6
	c3.2-1.1,4.4,10.6,7.6,19.5c3.2,9,5.4,20.3,5.4,20.3s-4.4-0.1-8.5-0.7c-4.1-0.6-9.1,1.3-9.1,1.3S114.4,99.7,115.3,95.1z M53.7,126.1
	c0.4-0.3,0.8-0.3,1.6-0.3l2,0c0.8,0,1.6-0.1,2.3-0.1l1.9,0.1l2.4-0.1c4.2,0,6,1.4,6.7,1.9c0.6,0.4,1.6,1.2,2.3,2.8
	c0.1,0.3,0.9,2.3,1,2.6c0.4,1.3,0.6,2.7,0.6,3.8c0,1.1-0.2,3.1-0.3,4.7c-0.1,1.2-0.3,2.8-1.7,5c-1.4,2.1-3.6,4.3-7.1,4.4h-1.9
	c-0.8,0-1.2,0.1-1.5,0.3c-0.4,0.4-0.6,0.9-0.6,1.5l0.1,0.8c0.1,1,0.1,2,0.1,3c0.1,0.4,0.1,0.8,0.1,1.2c0,0.7,0,1.6-1.5,1.6
	c-0.5,0-2.5-0.1-2.9-0.1l-1.9,0.1c-0.2,0.1-0.7,0.1-1,0.1c-1,0-1.3-0.7-1.4-1.8c0-0.5,0.1-1,0.1-1.4l0-1.2l0.1-1.1
	c0.1-0.2,0.1-0.7,0.1-1.6l-0.1-4.2l0-4.4l-0.1-4.3c0-1.6,0.1-3.3,0-4.9c0-0.9-0.2-5.5-0.2-6.5C52.8,126.7,53.6,126.2,53.7,126.1z
	 M64.8,194.6l-0.6,0c-0.5-0.1-1.1-0.1-1.5-0.1c-0.5,0-2.9,0.2-3.3,0.2c-0.6,0-1.6-0.3-1.6-1.7c0-0.2,0.1-1.6,0.2-2l0-1.3
	c0-0.8,0-2.2,0-2.9l0.1-1.9c0-1.1-0.2-2.3-1.2-2.7c-0.3-0.1-1.3-0.1-1.6-0.1c-0.6,0-1.5,0.2-1.6,1.5c-0.1,1.3-0.2,1.8-0.2,2.5
	l0.1,2.8l-0.1,2.9l0.1,1.6c0,0.9-0.8,1.4-1.4,1.4c-1.1-0.1-1.8-0.1-2.4-0.1l-0.7,0c-0.2,0-0.7,0-1.1,0.1l-1.2,0.1
	c-1.8,0-1.8-1.5-1.8-1.9s0.2-2.9,0.2-3.5l0-1.3l0.1-2.8c0-0.8-0.2-4.7-0.2-5.6c0-0.2,0.1-0.9,0.2-1.5l-0.1,0c0-1.2,0.1-2.6,0.1-3.1
	c0-0.4-0.1-1.3-0.1-2c-0.1-1.8-0.1-3.8-0.1-4.2l0.1-3.2c0-0.4-0.2-2.6-0.2-3c0-0.3,0-1.5,1.6-1.5c0.2,0,0.8,0,1.3,0.1
	c0.6,0,1.1,0,1.3,0c0.5,0,0.9,0,1.4-0.1c0.9-0.1,1.1-0.1,1.3-0.1c1.5,0,1.7,1,1.7,1.7c0,0.4-0.2,2.2-0.2,2.6l0.1,3l0,3.4
	c0,1.7,1,1.8,2.3,1.8c0.8,0,1.8-0.1,1.9-1.3c0.1-0.5,0.2-1.9,0.2-2.4c0-0.4-0.2-2.4-0.2-2.9l0-1.9c-0.1-0.6-0.2-2-0.2-2.3
	c0-0.7,0.3-1.6,1.7-1.6c0.3,0,0.5,0,0.8,0c0.7,0.1,1.4,0.1,2.1,0.1l1.1-0.1c0.5,0,1,0,1.1,0c1.4,0,1.8,0.9,1.8,1
	c0.1,0.2,0.1,0.4,0.1,1.2c0,0.5,0,1-0.1,1.6c0,0.7-0.1,2.8-0.1,3.3l0.1,1.3c0,0.3-0.1,2.1-0.1,2.5l0.1,4.1l0,2.1l-0.1,0l0,2.8
	c0,0.8,0,1.5,0.1,2.3l0.2,2.8v0.8l0,2.9l0,0.8c0,0.3,0.2,1.7,0.2,2C66.4,193.5,66.2,194.6,64.8,194.6z M89.3,178v0.2
	c0,4.5,0,4.9-0.5,7.6c-0.5,3.3-1,4.5-2.1,5.9c-1.5,1.8-2.6,2.2-4,2.7c-1,0.3-2,0.6-3.7,0.6c-4.8,0-8.1-1.7-9.6-4.3
	c-0.7-1.2-1.4-3.5-1.5-4c-0.3-1.1-0.4-4.1-0.4-4.4l0-3.5l0.1-0.8h-0.1l-0.1-2.7c-0.1-7.9,0.7-10.8,4.5-13.4c1.3-0.9,2.1-1.5,6.6-1.5
	c3.2,0,4.5,0.6,6.5,2.1c0.3,0.3,1.3,0.9,1.6,1.3c1.9,2.1,2.6,6,2.6,10.8L89.3,178z M88.8,159.2c-1,0-2-0.1-3-0.1l-1.7,0.1l-1.6,0
	l-2.9,0.1l-1.8,0.1c-1.1,0-1.9-0.8-2-1.8c0.1-1.6,0.1-2.8,0.1-3.6l-0.1-2.9c0-0.3,0.1-1.9,0.1-2.2l-0.1-2.2l0-4.1l-0.1-4.6
	c0-1.7,0.1-3.4,0-5l-0.1-3.6c0-2.3,0-3.6,2.4-3.7c0.2,0,0.8,0.1,1.4,0l1.4,0.1h2.5l4,0.1l1.8-0.1h1l1.5-0.1c0.8,0,1.4,0.6,1.4,1.5
	c0,0.4-0.1,2.2-0.1,2.6l0.1,1.6c0,0.7-0.1,1.8-1.7,1.9c-0.1,0-0.7,0-0.8,0l-1.5,0.1c-0.3,0-1.7-0.1-2-0.1c-1.8,0-2.3,0.4-2.6,0.8
	c-0.2,0.3-0.2,0.4-0.2,1.7c0,0.5,0,2.3,1.7,2.3l1.4-0.1l2,0.1l1.5-0.1c1.4,0,1.8,0.6,1.9,1.9l-0.1,2l0.1,2c0,0.4,0,0.7-0.1,0.9
	c-0.5,1.1-1.2,1.1-1.9,1.1c-0.5,0-3.3-0.2-3.8-0.2c-0.8,0-1.8,0.1-2.2,0.9c-0.2,0.4-0.2,1.1-0.2,2.5c0,0.9,0,1.8,1.2,2.1
	c0.5,0.1,1.3,0.1,1.9,0.1c0.5,0,1,0.1,1.4,0.2c0.3,0,0.7,0,1,0c0.4,0,0.7,0,1.1-0.1c0.3,0,0.6-0.1,0.9-0.1c0.6,0,1.8,0.3,1.8,1.7
	c0,0.3,0,0.6,0,0.9c0,0.5,0,1.1,0,1.4l0.1,2c0,1.6-1.1,1.9-1.7,1.9l-1.6-0.1L88.8,159.2z M112.4,177.9l0,0.2c0,4.5,0,4.9-0.5,7.6
	c-0.5,3.3-1,4.5-2.1,6c-1.5,1.8-2.6,2.2-4,2.7c-1,0.3-2,0.6-3.7,0.6c-4.8,0-8.1-1.7-9.6-4.3c-0.7-1.2-1.4-3.5-1.5-4
	c-0.2-1.1-0.4-4.1-0.4-4.4l0-3.5l0.1-0.8l-0.1,0l-0.1-2.7c-0.1-7.9,0.8-10.8,4.5-13.3c1.3-0.9,2.1-1.5,6.6-1.5
	c3.2,0,4.5,0.6,6.5,2.1c0.3,0.2,1.3,0.9,1.6,1.3c1.9,2.1,2.6,6,2.6,10.8V177.9z M111,159c-1.5,0-1.6-1.2-1.6-1.7
	c0-0.6-0.1-1.4-0.2-2.1c-0.1-1.1-0.2-1.6-0.7-1.8c-0.2-0.1-1.1-0.1-3-0.1c-1,0-1.4,0.1-1.6,0.5c-0.2,0.4-0.4,2.9-0.4,3.5
	c0,1.4-0.8,1.8-1.6,1.8c-0.3,0-1.9-0.1-2.3-0.1l-2.9,0.1c-0.4,0-0.8,0-1.1-0.1c-0.6-0.2-0.8-0.8-0.8-1.2c0-0.3,1-6.2,1-6.6
	c0.1-0.5,0.2-1.1,0.3-1.6c0.1-0.7,0.5-3.9,0.6-4.6c0.2-1.4,0.5-2.8,0.7-4.2c0.1-0.9,0.2-1.7,0.3-2.5c0.2-1.2,0.5-2.4,0.7-3.6
	c0.4-1.8,0.4-3.7,0.8-5.6c0.7-3.3,1.2-3.6,3.2-3.6c0.5,0,1,0.1,1.6,0.1c1,0,1.9,0.1,2.9,0.1c1.2,0,2.4-0.1,3.5-0.1
	c1.8,0,2.3,0.4,2.6,2.2c0.1,0.6,0.7,3.2,0.7,3.7c0.1,0.6,0.5,3.6,0.6,4.3c0.2,1.1,1.3,6.5,1.6,7.8c0.3,1.3,0.3,1.5,0.5,3.9
	c0.2,2,0.6,4,1,6c0.2,0.7,0.3,1.5,0.5,2.3c0.1,0.5,0.1,1,0.1,1.4c0,1-0.6,2-1.4,2c-0.5,0-2.7-0.1-3.2-0.1
	C113.1,158.9,111.4,159,111,159z M130.4,192.8c0,0.7-0.4,1.1-0.8,1.3c-0.2,0.1-0.4,0.1-0.8,0.1l-2-0.1c-0.3,0-1.8,0-2.2,0
	c-0.8,0.1-5.1,0-6,0l-2.8,0.1c-1.5,0-1.9-0.9-1.9-1.6l0-1.7c0-1.2,0.1-2.4,0.1-3.6c0-0.1-0.2-4.4-0.2-5.2c0-0.4,0.1-2.5,0.2-2.9
	c0-0.4,0-0.7,0-1.1l0-0.3h-0.1l-0.1-2.7l0-2.4l-0.1-2.6l0.1-3.6l-0.1-3.7c0-0.7,0-2.1,1.6-2.1c0.3,0,2.1,0.1,2.5,0.1l1.3,0
	c0.5-0.1,0.9-0.1,1.3-0.1c0.7,0,1.9,0,1.9,1.4l0,0.8c-0.1,0.9-0.2,3.1-0.2,4.4l0.1,3.3l-0.1,2.8c0,0.4,0.2,2.2,0.2,2.6
	c0,0.2,0,0.5,0,1.2c0,0.2,0,0.5,0,0.7l0,0c0,0.6,0,1.3,0,1.9l0.1,2.3l0,1.3c0,1.2,0.5,2.5,2.1,2.7c0.3,0,1.7,0,2.1,0l1.7-0.1
	c1.9,0,1.9,1,1.9,4.3L130.4,192.8z M127.7,159c-0.4-0.1-0.9-0.3-1.3-0.4c-1.2-0.3-1.4-0.4-2.1-0.8c-1.6-0.9-2.4-1.9-3.3-3.1
	c-0.9-1.1-1-1.3-1.4-2.1c-1.6-3.4-1.7-3.9-1.9-7.3c-0.1-0.8-0.1-1.6-0.2-2.4c-0.1-0.5-0.1-1-0.1-1.5c0-2.6,0.4-4.5,0.6-6
	c0.5-2.7,1.5-5.1,3.4-6.8c0.6-0.5,3.2-2.3,3.4-2.4c1.3-0.7,4.1-1.2,6-1.2c0.5,0,1.9,0,2.3,0.2c0.7,0.4,0.8,1.2,0.8,1.5l0,0.8
	c0,0.6,0,1.2,0,1.8l0.1,3.7c0,1.1-0.8,1.6-1.5,1.6c-0.2,0-0.5,0-0.7-0.1c-0.3,0-0.6-0.1-0.9-0.1c-0.4,0-2.1,0.6-2.6,1
	c-0.9,0.7-1.4,2-1.6,3.2c-0.2,1.2-0.3,3.1-0.3,3.9c0,0.8,0.1,3.8,1.6,5.6c0.8,1,2.8,1.9,3.6,1.9c0.2,0,1-0.2,1.3-0.2
	c1.2,0.6,1.3,1.1,1.3,1.7l-0.1,2.3c0,0.8,0,1.6,0.1,2.4l0.1,0.9c0,1.3-0.6,2-1.8,2c-0.6,0-1.1,0-1.7-0.1
	C128.4,159.1,128.2,159.1,127.7,159z M139.1,194.1l-2-0.1c-0.5,0-2.7,0.2-3.2,0.2c-0.6,0-1.8,0-2.1-1c0-0.2-0.1-2.6-0.1-3.1
	c0-0.4,0.1-2.5,0.1-3l-0.1-3.5c0-0.7-0.2-4.1-0.2-4.9l0-0.9l0,0l-0.1-5c0-0.7,0.1-4.3,0.1-5.1l0-3.2c0-0.3-0.2-2-0.2-2.3
	c0-0.9,0.5-1.2,0.8-1.4c0.3-0.2,0.5-0.2,1.4-0.2l2.9,0c0.6,0,1.1,0,1.7-0.1l0.8-0.1c1.2,0,1.2,1.5,1.2,1.7c0,0.4-0.1,2.2-0.1,2.6
	c0,1.1,0,1.7,0,6.5l0.1,3.6l-0.1,2.5h0.1l-0.1,0.4l0,2.3c0,0.7,0.2,4.2,0.2,5c0,0.5-0.1,3-0.1,3.6c0,0.6,0.2,3.4,0.2,4
	C140.5,193.4,140.2,194.1,139.1,194.1z M163.6,193.5c-1.4,0.9-5,1-6.3,1l-2.9,0c-1.5,0-3-0.5-4.5-1c-2.7-1-3.3-1.9-4.6-3.7
	c-0.3-0.4-0.6-0.7-0.8-1.2c-0.7-1-1.5-2.5-1.8-3.8c-0.3-1.1-0.8-4.6-0.8-7l0,0c0-0.1,0-0.2,0-0.3c0-1.2,0.1-2.2,0.2-3l0.2-1.2
	c0.1-0.7,0.1-1.5,0.3-2.2c0.4-1.9,1.9-4.9,2.4-5.6c0.8-1.1,2.5-2.7,3.9-3.5c3.1-1.8,8.3-1.9,9.4-1.9l3.6,0.1c0.9,0,1.6,0.6,1.6,1.6
	l0,1.3l0,3.3c0,0.7,0,1.3-0.1,1.6c-0.2,0.7-1.1,1.2-1.7,1.2c-0.2,0-0.5,0-0.7-0.1c-0.2-0.1-0.5-0.3-0.8-0.4
	c-0.5-0.2-1.1-0.2-1.6-0.2l-1.4,0c-3.3,0-4.5,1.3-5.2,2.7c-0.3,0.7-0.4,0.9-0.5,2.1l-0.2,1.1c-0.2,0.9-0.4,1.7-0.3,3.2v0.2l0.1,2.2
	c0,0.5,0,0.9,0.3,1.6c0.2,0.7,0.6,1.3,0.9,2c0.5,1.3,1.1,2.8,3.4,2.8c0.5,0,1.7,0,1.7-1.1l-0.1-1.4l0.1-1.8c0-1.2-1.1-1.6-1.5-1.6
	c-0.1,0-0.7,0.2-0.8,0.2c-0.2,0-1.2-0.3-1.2-1.3l0-1.8h0.1l0.1-3.3c0.1-1,0.9-1.6,2.1-1.6l2.5,0.1l2.9-0.1c0.2-0.1,1.1-0.2,1.3-0.1
	c0.3,0,0.6,0,0.9,0.2c1.1,0.5,1.1,1.4,1.2,1.8l0,2.7c0,0.1,0,0.2,0,0.3l0,0c0,0.7,0,2,0,2.3l-0.1,3.1l0.1,3.5l0,3.7l0,1.3
	C164.6,192.3,164.5,192.9,163.6,193.5z M163.5,147.7l0,2.5l0.1,2.4l-0.1,2.1c0,0.3,0.2,1.8,0.2,2.2c0,1.9-1.3,1.9-1.7,1.9l-2.8-0.1
	l-2.5,0.1c-1.6,0-1.7-1.2-1.7-1.6c0.1-1.6,0.1-2.6,0.1-3.7l-0.2-6.9c0-0.8,0-1.5,0-2.2l0.1-4c0-0.8-0.2-4.5-0.2-5.3l0-4.6l-0.1-2.6
	c0-0.3,0-1.3,0.6-1.9c0.5-0.5,0.9-0.5,2.3-0.5h0.8l4.6-0.1l2.5,0l3.8-0.1c1.4,0,1.4,0.9,1.3,1.9l0,4.8c0,0.6-0.5,1.3-1.5,1.3
	l-1.4-0.1l-1.3,0.1l-1.9,0c-0.2,0-1.2,0-1.4,0.9l0,1.2l0,1.5c0,0.9,0.6,1.2,0.7,1.3c0.3,0.2,0.4,0.2,2,0.2l1.5,0l1.2-0.1
	c1.1,0,1.5,0.8,1.5,1.4l-0.1,1.4l0,0.9c0,0.6,0,2.1-0.1,2.6c-0.1,1.2-1,1.5-1.9,1.5c-0.4,0-2.3-0.2-2.7-0.2
	C164.2,145.8,163.5,146.5,163.5,147.7z M187.9,193.9c-0.5,0-2.7-0.1-3.2-0.1c-0.3,0-2.1,0.1-2.5,0.2c-1.5,0-1.6-1.2-1.6-1.7
	c0-0.7-0.1-1.4-0.2-2.1c-0.1-1-0.2-1.6-0.7-1.8c-0.2-0.1-1.1-0.1-3-0.1c-1,0-1.4,0.1-1.6,0.5c-0.2,0.4-0.3,2.9-0.4,3.5
	c0,1.4-0.8,1.8-1.6,1.8c-0.3,0-1.9-0.1-2.3-0.1l-2.9,0.1c-0.4,0-0.7,0-1.1-0.1c-0.6-0.2-0.8-0.9-0.8-1.2c0-0.2,1-6.2,1-6.5
	c0.1-0.5,0.2-1.1,0.3-1.7c0.1-0.7,0.5-3.9,0.6-4.6c0.1-0.7,0.3-1.6,0.4-2.3l-0.1,0c0.1-0.6,0.2-1.3,0.3-1.9c0.1-0.9,0.2-1.7,0.3-2.5
	c0.2-1.2,0.5-2.4,0.7-3.6c0.4-1.9,0.4-3.8,0.8-5.6c0.7-3.3,1.2-3.5,3.2-3.5c0.5,0,1.1,0,1.6,0.1c1,0,1.9,0.1,2.8,0.1
	c1.2,0,2.4-0.1,3.5-0.1c1.8,0,2.3,0.4,2.6,2.2c0.2,0.6,0.7,3.2,0.8,3.6c0.1,0.6,0.5,3.6,0.6,4.3c0.2,1,1,5,1.4,7h0
	c0.1,0.3,0.1,0.7,0.2,0.8c0.2,1.3,0.3,1.5,0.5,3.9c0.2,2,0.6,4,1,6c0.2,0.8,0.3,1.6,0.5,2.3c0.1,0.5,0.2,0.9,0.2,1.4
	C189.3,193,188.7,193.9,187.9,193.9z M192,193.8c-0.2,0.1-0.4,0-0.6,0.1c-1.3,0-1.3-1.2-1.3-1.5c0-0.9,0.3-5.1,0.3-5.4
	c0-0.2-0.1-1.1-0.1-1.3l0-1.5l-0.1-2.5c0-1.1,0-2.4,0.1-3.5c0-0.2,0-0.5,0.1-0.8h0c0-0.4,0-0.8,0-1.2l-0.1-1.9c0-0.8-0.1-2.5-0.1-3
	c0-0.9,0-1.9,0-2.8c0-1,0-1.8,0-2.1c0-0.7-0.2-4-0.2-4.8c0-0.4,0.2-1.3,1.3-1.3c0.3,0,0.6,0.1,1,0.1c0.2,0,1.7,0,1.8,0
	c0.4,0,2.5-0.2,2.7-0.2c0.8,0,1.1,0.5,1.2,0.7c0.2,0.3,1.2,2.2,1.6,3.4c0.1,0.2,0.1,0.4,0.2,0.6c0,0.1,0.9,2,0.9,2.1
	c0.2,0.3,0.4,0.7,0.5,1l0.5,1.4c0.1,0.3,0.3,0.5,0.4,0.8c0.4,1,1,2.8,1.3,3.6c0.1,0.5,0.3,0.7,0.4,0.7c0.2,0,0.2-1.4,0.2-1.8l-0.1-1
	l-0.1-0.9l0.1-2c0-0.8-0.3-4.7-0.3-5.5c0-0.4,0-1.8,0.2-2.2c0.1-0.2,0.6-1,1.7-1l0.8,0c0.4,0,2.3,0,2.8,0l1.5,0c0.3,0,0.5,0,0.6,0.1
	c0.2,0.1,0.7,0.5,0.7,1.2c0,0.2,0,0.4,0,0.6c-0.1,0.5-0.2,2.9-0.2,3.3c0,0.8,0.2,4.7,0.2,5.6c0,1,0,2.5-0.1,4.1l0,2v0.8
	c0,0.8,0.2,4.2,0.2,5.1c0,0.8-0.2,4.6-0.2,5.5c0,0.8,0,1.6,0.1,2.4c0,0.2,0.1,1.3,0.2,1.5c0,0.1,0,0.7-0.6,1
	c-0.2,0.1-0.3,0.1-1.1,0.1l-2.4-0.1l-3.3,0.1c-0.8,0-1.1-1-1.3-1.6c-0.1-0.6-0.4-1.1-0.7-1.7c-0.4-0.8-0.8-1.6-1.1-2.3
	c-0.2-0.5-0.3-1-0.5-1.4c-0.2-0.7-0.5-1.4-0.9-2c-0.2-0.5-0.5-1-0.7-1.5c-0.3-0.7-0.5-1.3-0.7-2c-0.6-1.6-0.8-2.2-1-2.2
	c-0.2,0.7-0.1,1.3,0,1.7c0,0.3,0.3,2.5,0.3,3.7c0,1.4-0.1,2.7-0.1,4.1c0,0.6,0.3,3.4,0.3,4c0,1-0.6,1.3-1.4,1.4l-3.5-0.1
	C193.2,193.7,192.6,193.8,192,193.8z M351.1,60.1c-1.2,0-4.7-1-9.3-1.6c0,0.8-0.3,1.4-0.9,1.8c-0.8,0.5-2,0.4-2.9-0.4
	c-0.1,0.5-0.4,0.9-0.8,1.2c-1,0.7-2.5,0.2-3.5-1c-0.1,0.7-0.4,1.3-0.9,1.7c-1.1,0.7-2.7,0.1-3.7-1.3l-2.4,10.9L325.8,59
	c-6.7,1.8-12.9,6.2-16.1,15.6c2.5,1.7,3.5,4.4,3.5,4.4s-2,0.6-4.8,0.5c-1.3,7.1-0.5,15,1.3,22.7c0.7-0.2,1.5-0.1,2,0.3
	c0.8,0.7,0.9,1.8,0.5,2.9c0.5,0,1,0.1,1.4,0.4c0.9,0.8,1,2.3,0.1,3.6c0.7-0.2,1.4,0,1.9,0.4c1,0.8,1,2.6-0.1,3.9l11.3-0.8l-11.9,4.7
	c6.6,16.2,15.4,29.4,16.1,30.7c1.3,2.2-2.7,4.5-2.7,4.5s-10-15.1-17.3-33.7c-1.1,1-2.6,1.3-3.5,0.5c-0.9-0.8-0.9-2.4-0.1-3.6
	c-0.7,0.1-1.3,0-1.8-0.4c-0.8-0.6-0.9-1.8-0.5-2.9c-0.5,0-1-0.1-1.4-0.5c-1-0.8-1-2.6,0.1-3.9l-12.5-0.3l14.6-4.5
	c-2-8.2-3-16.5-1.9-24c-1.5,0.2-2.6,0.6-2.6,0.6s-1.1,3.6-4.5,4c-8.5,0.9-18.6,6.8-17.8,18.2c0.8,11.4,19.5,9.6,23.7,39.6
	c1.6,11.6-0.9,24-7.7,34.6h0c0,0-0.1,0.1-0.1,0.2c0,0-0.1,0.1-0.1,0.1h0c-9,13.4-25.5,24.2-49.6,26.3c-8.4,0.7-20.9,1.5-34.5-0.4
	c-3.5-0.5-6.8-1-9.7-1.6c-7.1-1.3-4.9-2.7,3.1-3c1.6-0.1,6.1,0.1,9.6,0c3.7-0.2,3.6-2.7,3.6-4.3c0.1-2.4,0.4-5.2,0.5-6.3
	c0.1-0.8,0.8-5.8,0.2-8.2c0-0.2-0.1-1.1-0.2-2.1h0c-0.2-1.9-0.3-4.7-0.1-6.2c0.1-0.5-0.4-5.1,0.1-7c0.1-0.6,0.8-7.9,0.1-10.7
	c-0.1-0.3,0-1.2,0-2.3c0-1.4-0.1-4.5-3-4.4c-4.2-0.1-3.5-3.9-4-5.5c-0.1-0.5,0.6-2.8,0.3-4.3c-0.1-0.5-0.8-3.9-1-5.8
	c-0.1-0.8-0.1-5.1,0.6-6.5c0.7-1.4,6.7-2,6.7-2c22,0.3,16.2-20.7,27.4-46c11.5-26,29-26.1,29-26.1s15.2-1.9,22.1,6.7
	c4.3,5.4,3.3,15.2,3.3,15.2s2.9,0,6.1,0.7c3.7-10.8,11.8-15.6,20.3-17.5c-1.2-1.9-1.1-3.6,0-4.3c1-0.7,2.5-0.2,3.5,1
	c0-0.7,0.4-1.3,0.9-1.6c0.9-0.6,2-0.3,2.9,0.4c0.1-0.5,0.4-0.9,0.8-1.2c1.1-0.7,2.7-0.2,3.7,1.3l0.7,1.1l3.4-11.7l0.1,14.4
	c6.9,0.6,12,2.1,12,2.1S355.1,60.1,351.1,60.1z"/>
<path class="st0" d="M80.6,177.3L80.6,177.3l0-1.4l0-1.8c0-0.6-0.1-2.1-0.2-3c-0.2-1.9-1.3-2.4-2.1-2.4c-2.3,0-2.3,2.7-2.3,3.8
	l0.1,3.4c0,0.3,0,1.2,0,2.2H76c0,1.7,0,4,0,4.6c0,1.7,0,4.4,2.3,4.3c2,0,2.2-1.8,2.2-2.8c0-0.3,0-1.7,0-2c0-0.5,0.2-3.2,0.1-3.9
	L80.6,177.3z"/>
<path class="st1" d="M307.2,200.7c3.2,0,5.6-2.6,5.6-5.6v0c0-3.1-2.5-5.6-5.6-5.6c-3.2,0-5.6,2.6-5.6,5.6v0
	C301.6,198.2,304,200.7,307.2,200.7 M307.2,199.8c-2.7,0-4.7-2.1-4.7-4.7v0c0-2.6,2-4.7,4.7-4.7c2.7,0,4.7,2.1,4.7,4.7v0
	C311.9,197.7,309.8,199.8,307.2,199.8 M304.9,197.9h1.1v-2h1.2h0l1.4,2h1.3l-1.6-2.2c0.8-0.2,1.4-0.8,1.4-1.8v0
	c0-0.5-0.2-0.9-0.5-1.2c-0.4-0.4-1-0.6-1.8-0.6h-2.6V197.9z M306,194.9V193h1.5c0.7,0,1.2,0.3,1.2,0.9v0c0,0.6-0.4,0.9-1.2,0.9H306z
	"/>
</svg>
