<?xml version="1.0" encoding="utf-8"?>
<!-- Generator: Adobe Illustrator 24.1.0, SVG Export Plug-In . SVG Version: 6.00 Build 0)  -->
<svg version="1.1" id="Слой_1" xmlns="http://www.w3.org/2000/svg" xmlns:xlink="http://www.w3.org/1999/xlink" x="0px" y="0px"
	 width="400px" height="220px" viewBox="0 0 400 220" style="enable-background:new 0 0 400 220;" xml:space="preserve">
<style type="text/css">
	.st0{fill:none;}
</style>
<path d="M3.6,125.4l-0.7-0.5l5.1-5.5l0.5-0.6l0.6,0.5c3.3,2.5,7.6,4.1,12.2,4.1c2.7,0,4.7-0.6,6-1.5c1.3-0.9,2-2.1,2-3.6
	c-0.1-2.7-1.4-4.4-5.1-4.9c-2-0.2-3.6-0.5-6-0.8c-8.1-1-12.7-6.3-12.7-12.8c0-3.8,1.4-7.2,4.1-9.6c2.7-2.4,6.6-3.7,11.4-3.7
	c5.8,0,10.9,1.9,15.1,4.6l0.7,0.5l-4.7,6.7l-0.7-0.4c-3.2-1.9-6.9-3.2-10.7-3.2c-1.9,0-3.6,0.5-4.8,1.3c-1.2,0.9-1.9,2.1-1.9,3.9
	c0,2,1.4,4,5.7,4.6c1.2,0.2,2.9,0.4,5,0.7c8.8,1,13.1,6.9,13.1,13.1c0,4.1-1.6,7.5-4.6,9.8c-3,2.3-7.1,3.4-12.1,3.4h0
	C14.5,131.5,8.5,129.5,3.6,125.4"/>
<polyline class="st0" points="396.9,133.1 396.9,86.5 2.9,86.5 2.9,133.1 "/>
<path d="M68.1,98.9l5.4,15.4H62.7L68.1,98.9z M64.6,86.9l-17,44.2h9.1l3.5-9.5H76l3.5,9.5h9.1l-17-44.2H64.6z"/>
<polygon points="127.7,86.9 127.7,115.4 108.5,86.9 100.8,86.9 100.8,87.7 100.8,131.1 109.3,131.1 109.3,102.6 128.5,131.1 
	136.3,131.1 136.3,86.9 "/>
<path d="M168.5,131.1h-16.2V87.7v-0.8h16.6c6.2,0,11.4,2.7,14.5,7.6c1.1,1.8,1.8,3.3,2.1,5.4c0.3,2.1,0.4,4.7,0.4,9.2
	c0,4.8-0.1,7.6-0.5,9.7c-0.4,2.1-1.1,3.4-2.1,4.9C180.4,127.8,175.5,131.1,168.5,131.1L168.5,131.1L168.5,131.1z M168.1,123.4
	c3.7,0,6-1.1,7.6-3.3c0.7-1,1.1-1.7,1.3-3.1c0.2-1.5,0.3-3.7,0.3-7.7c0-3.8-0.1-6.2-0.3-7.8c-0.3-1.6-0.7-2.5-1.5-3.6
	c-2-2.5-3.8-3.2-7.3-3.3h-7.3v28.8C160.8,123.4,168.1,123.4,168.1,123.4z"/>
<polyline class="st0" points="396.9,133.1 396.9,86.5 2.9,86.5 2.9,133.1 "/>
<polygon points="272.1,86.9 262.4,117.5 252.7,86.9 243.7,86.9 259.1,131.1 265.7,131.1 281.1,86.9 "/>
<polygon points="295.1,86.9 295.1,87.7 295.1,131.1 303.6,131.1 303.6,86.9 "/>
<path d="M317.8,125.4l-0.7-0.5l5.1-5.5l0.5-0.6l0.6,0.5c3.3,2.5,7.6,4.1,12.2,4.1c2.7,0,4.7-0.6,6-1.5c1.3-0.9,2-2.1,2-3.6
	c-0.1-2.7-1.4-4.4-5.1-4.9c-2-0.2-3.6-0.5-6-0.8c-8.1-1-12.7-6.2-12.7-12.8c0-3.8,1.4-7.2,4.1-9.6c2.7-2.4,6.6-3.7,11.4-3.7
	c5.8,0,10.9,1.9,15.1,4.6l0.7,0.5l-4.7,6.7l-0.7-0.4c-3.2-1.9-6.9-3.2-10.7-3.2c-1.9,0-3.6,0.5-4.8,1.3c-1.2,0.9-1.9,2.1-1.9,3.9
	c0,2,1.4,4,5.7,4.6c1.2,0.2,2.9,0.4,5,0.7c8.8,1,13.1,6.9,13.1,13.1c0,4.1-1.6,7.5-4.6,9.8c-3,2.3-7.1,3.4-12.1,3.4h0
	C328.7,131.5,322.6,129.5,317.8,125.4"/>
<polyline class="st0" points="396.9,133.1 396.9,86.5 2.9,86.5 2.9,133.1 "/>
<polygon points="363.7,86.9 363.7,94.3 376,94.3 376,131.1 384.6,131.1 384.6,94.3 396.9,94.3 396.9,86.9 "/>
<path d="M234.3,124.5l0.8,0.1l-0.1,7.6l-0.9,0c-1.8-0.1-4.5-0.3-8.3-3c-2.4,1.4-5.5,2.4-9.1,2.4c-7.4,0-12.6-4.1-14.9-8.1
	c-0.7-1.3-1.3-2.4-1.6-4.4c-0.3-2-0.4-4.9-0.4-10c0-5.1,0.1-8,0.4-10c0.3-2,0.9-3.1,1.6-4.4c2.3-3.9,7.4-8.1,14.9-8.1
	c7.4,0,12.6,4.1,14.9,8.1c0.7,1.3,1.3,2.4,1.6,4.4c0.3,2,0.4,4.9,0.4,10c0,5.1-0.1,8-0.4,10s-0.9,3.1-1.6,4.4
	c-0.1,0.1-0.1,0.2-0.2,0.4C232.3,124.2,233.2,124.4,234.3,124.5 M216.8,123.4c0.9,0,1.8-0.1,2.5-0.4c-1.1-1.2-2.2-2.5-3.4-4
	c-2-2.5-4.7-3.8-7.4-4.4c0.3,3.7,0.7,4.4,2,5.9C211.8,122.1,213.9,123.4,216.8,123.4 M216.8,94.6c-2.9,0-5,1.3-6.3,2.8
	c-0.8,1-1.2,1.6-1.6,2.9c-0.3,1.2-0.5,3.1-0.5,6.3c4.4,0.7,10,2.6,13.9,7.3c0.9,1.1,1.7,2.1,2.4,3.2c0.3-1.6,0.4-4,0.4-8.1
	c0-4.4-0.1-6.8-0.5-8.4c-0.3-1.5-0.8-2.2-1.6-3.2C221.8,95.9,219.8,94.6,216.8,94.6"/>
<polyline class="st0" points="396.9,133.1 396.9,86.5 2.9,86.5 2.9,133.1 "/>
</svg>
