<?xml version="1.0" encoding="utf-8"?>
<!-- Generator: Adobe Illustrator 24.2.3, SVG Export Plug-In . SVG Version: 6.00 Build 0)  -->
<svg version="1.1" id="Saucony" xmlns="http://www.w3.org/2000/svg" xmlns:xlink="http://www.w3.org/1999/xlink" x="0px" y="0px"
	 viewBox="0 0 400 220" style="enable-background:new 0 0 400 220;" xml:space="preserve">
<style type="text/css">
	.st0{fill:#12100B;}
</style>
<g>
	<g>
		<path class="st0" d="M172.6,148.8c0,3-1.9,5-4.6,5c-2.7,0-4.7-2.2-4.7-5.1v-20h-11.6v20.1c0,8.6,6.8,14.9,16.3,14.9
			c2.3-0.1,4.5-0.6,6.5-1.6v1.8h9.9v-35.2h-11.7V148.8z"/>
		<g>
			<path class="st0" d="M136.7,128.6v1c-2.4-1.3-5-2-7.8-2.1c-11,0-19.3,7.8-19.3,18.3c0,10.2,8.2,18,19.2,18c2.8-0.1,5.6-0.9,8-2.3
				v2.2h10.6v-35.2H136.7z M129.2,154.3c-4.8,0-8.7-3.9-8.7-8.7c0-4.8,3.9-8.7,8.7-8.7c4.8,0,8.7,3.9,8.7,8.7
				C137.8,150.5,134,154.3,129.2,154.3z"/>
		</g>
		<path class="st0" d="M271.7,143.6c0-3,1.9-5,4.6-5s4.7,2.2,4.7,5.1v20h11.6v-20.1c0-8.6-6.8-14.9-16.3-14.9
			c-2.3,0.1-4.5,0.6-6.5,1.6v-1.8h-9.9v35.2h11.7V143.6z"/>
		<g>
			<path class="st0" d="M246.8,146.2c0,4.8-3.6,8.7-8.1,8.7c-4.4,0-8.1-3.9-8.1-8.7s3.6-8.7,8.1-8.7
				C243.2,137.5,246.8,141.4,246.8,146.2z M238.8,127.6c-10.5,0-18.9,8.3-18.9,18.6s8.5,18.6,18.9,18.6c10.5,0,18.9-8.3,18.9-18.6
				S249.2,127.6,238.8,127.6z"/>
		</g>
		<g>
			<g id="XMLID_18_">
				<path class="st0" d="M221.2,135.4l-7.1,7.1c-3.1-3.3-5.2-4.9-8.3-4.9c-4.4,0-8.1,3.9-8.1,8.7c0,4.8,3.6,8.7,8.1,8.7
					c3.5,0,5.9-2.3,8.3-4.9l7.1,7.1c-3.4,4.7-9.1,7.8-15.4,7.8c-10.5,0-18.9-8.3-18.9-18.6s8.5-18.6,18.9-18.6
					C212.1,127.6,217.7,130.7,221.2,135.4z"/>
			</g>
		</g>
		<g>
			<path class="st0" d="M318.1,128.6l-7,20.2l-7.7-20.2h-12.1l14.1,34c-0.9,1.8-1.6,1.8-2.3,1.8c-1.8,0-2.7-0.7-5.2-2l-4.1,9.1
				c2.3,1.2,5.1,3,10.1,3c5.9,0,9.5-2.9,12.3-10.2l13.8-35.7H318.1z"/>
		</g>
		<path class="st0" d="M92.9,134.6c-7.7-2-9.1-2.8-9.1-5.3c0-2.3,2.6-3.1,5-3.1c3.8,0,12,4.8,12,4.8l6.1-8.9c0,0-9.7-6.4-18-6.4
			c-0.1,0-0.3,0-0.4,0c-9.8,0.2-16.3,6-16.3,14.7c0,9.9,6.8,12.4,15.7,14.7c7.9,2,8.5,3.2,8.5,5.1c0,2.3-3.8,7.4-19.3-2.4l-7,8.3
			c0,0,11,8,20.4,8c10.8,0,17.5-5.7,17.5-14.9V149C107.9,140.3,101.9,136.9,92.9,134.6"/>
	</g>
	<g>
		<path class="st0" d="M166.6,175.3c3.9,0,7.3,2.9,7.3,7.6c0,4.3-3.1,7.5-7.4,7.5c-3.6,0-7-2.6-7-7.5
			C159.4,178.8,162.2,175.3,166.6,175.3z M161.5,183c0,3.8,2.2,6.5,5.1,6.5c3.1,0,5.3-2.8,5.3-6.4c0-3.8-2-6.7-5.2-6.7
			S161.5,179.6,161.5,183z"/>
		<path class="st0" d="M176.2,181.2c0.4-0.3,1-0.6,1.1-0.6c0.8,0,1,2.1,1.1,2.5c0.4-0.9,1.5-2.5,2.7-2.5c0.8,0,1.1,0.5,1.1,1.2
			c0,0.3-0.1,0.7-0.5,0.7c-0.3,0-0.8-0.4-1.2-0.4c-0.8,0-2,1.5-2,3.3v2.5c0,1,0.1,1.2,0.4,1.3c0.3,0.1,0.5,0.2,0.5,0.5
			c0,0.3-0.1,0.5-0.6,0.5h-2.3c-0.5,0-0.6-0.2-0.6-0.5c0-0.3,0.3-0.4,0.6-0.5c0.4-0.2,0.4-0.4,0.4-1.3v-4c0-1-0.5-1.3-0.9-1.5
			c-0.2-0.1-0.5-0.2-0.5-0.4C175.6,181.6,175.9,181.4,176.2,181.2z"/>
		<path class="st0" d="M184.8,181c0.5-0.2,0.9-0.3,1-0.3c0.3,0,0.6,0,0.6,2.3v5c0,1,0.1,1.1,0.5,1.3c0.3,0.1,0.6,0.2,0.6,0.5
			c0,0.3-0.1,0.4-0.6,0.4h-2.6c-0.4,0-0.7-0.1-0.7-0.4c0-0.3,0.2-0.3,0.4-0.4c0.4-0.1,0.7-0.2,0.7-1.1v-4.6c0-1.1-0.4-1.3-0.8-1.3
			c-0.3-0.1-0.6-0.1-0.6-0.4C183.4,181.5,184.1,181.3,184.8,181z M185.3,176.9c0.6,0,1.2,0.4,1.2,1c0,0.7-0.5,1.1-1.3,1.1
			c-0.7,0-1.1-0.5-1.1-1.1C184.1,177.4,184.7,176.9,185.3,176.9z"/>
		<path class="st0" d="M193.5,180.6c0.8,0,1.5,0.1,2.1,0.1h1.8c0.7,0,0.9,0.1,0.9,0.5c0,0.6-0.7,0.5-2,0.5c1,1,1.4,2.1,1.4,3.4
			c0,1.4-0.6,2.7-1.8,3.6c1.1,0.4,2.2,1.2,2.2,2.5c0,2.4-3.1,2.9-5.1,2.9c-1.4,0-3.8-0.1-3.8-1.6c0-0.5,0.5-1.4,1.1-1.4
			c0.2,0,0.3,0.1,0.3,0.3c0,0.1,0,0.3,0,0.5c0,0.7,1.3,1.1,2.8,1.1c1.9,0,3.2-0.5,3.2-1.8c0-1.1-0.9-1.5-1.7-1.9
			c-0.5,0.2-1,0.3-1.5,0.3c-2.6,0-4.3-1.9-4.3-4.4C188.9,182.6,190.8,180.6,193.5,180.6z M190.5,185.2c0,1.5,0.7,3.4,2.6,3.4
			c2,0,2.9-1.6,2.9-3.6c0-1.6-0.7-3.5-2.8-3.5C191.4,181.6,190.5,183.5,190.5,185.2z"/>
		<path class="st0" d="M201.4,181c0.5-0.2,0.9-0.3,1-0.3c0.3,0,0.6,0,0.6,2.3v5c0,1,0.1,1.1,0.5,1.3c0.3,0.1,0.6,0.2,0.6,0.5
			c0,0.3-0.1,0.4-0.6,0.4h-2.6c-0.4,0-0.7-0.1-0.7-0.4c0-0.3,0.2-0.3,0.4-0.4c0.4-0.1,0.7-0.2,0.7-1.1v-4.6c0-1.1-0.4-1.3-0.8-1.3
			c-0.3-0.1-0.6-0.1-0.6-0.4C200.1,181.5,200.8,181.3,201.4,181z M202,176.9c0.6,0,1.2,0.4,1.2,1c0,0.7-0.5,1.1-1.3,1.1
			c-0.7,0-1.1-0.5-1.1-1.1C200.7,177.4,201.3,176.9,202,176.9z"/>
		<path class="st0" d="M206.3,181.2c0.4-0.3,0.7-0.6,1-0.6c0.5,0,0.7,0.7,0.8,1.7c0.9-1.1,1.9-1.7,3.5-1.7c0.6,0,1.8,0.2,2.6,1.1
			c0.5,0.6,0.8,1.3,0.8,2.6v3.5c0,0.9,0.1,1.2,0.4,1.3c0.3,0.1,0.7,0.2,0.7,0.5c0,0.3-0.3,0.5-0.5,0.5h-2.2l-0.3,0
			c-0.3,0-0.4-0.2-0.4-0.5c0-0.2,0.2-0.4,0.4-0.5c0.4-0.2,0.5-0.3,0.5-1.4V184c0-1.5-0.9-2.3-2.3-2.3c-0.4,0-1.5,0.2-2.2,0.8
			c-0.4,0.4-0.6,0.8-0.6,1.7v3.7c0,0.8,0,1,0.5,1.2c0.3,0.1,0.6,0.2,0.6,0.5c0,0.3-0.2,0.5-0.5,0.5h-2.5c-0.5,0-0.6-0.2-0.6-0.5
			c0-0.3,0.3-0.4,0.5-0.5c0.4-0.2,0.5-0.4,0.5-1.4v-4.3c0-0.8,0-1.1-0.4-1.3c-0.3-0.1-0.7-0.2-0.7-0.4
			C205.8,181.6,206,181.4,206.3,181.2z"/>
		<path class="st0" d="M221.3,180.6c3.1,0,4.3,1.8,4.3,3.8v3.4c0,1.3,0.4,1.4,0.7,1.5c0.2,0.1,0.4,0.1,0.4,0.4
			c0,0.5-0.6,0.4-1.2,0.4c-1.1,0-1.3,0.1-1.2-1.6c-0.8,1.2-1.9,1.9-3.3,1.9c-1.7,0-3.4-0.9-3.4-2.8c0-1.4,1.3-3.7,5.3-3.7
			c0.5,0,0.9,0,1.3,0.1c-0.1-1.5-1.3-2.4-2.8-2.4c-1.8,0-1.9,0.9-2.7,0.9c-0.3,0-0.6-0.2-0.6-0.5
			C218.1,181.3,219.7,180.6,221.3,180.6z M219.2,187.5c0,1,0.8,1.8,2,1.8c2.1,0,3-1.4,3-2.8v-1.7c-0.3-0.1-0.6-0.1-1-0.1
			C221.5,184.8,219.2,185.5,219.2,187.5z"/>
		<path class="st0" d="M228.5,175.8c0.6-0.3,1.6-0.6,1.9-0.6c0.3,0,0.5,0.2,0.5,0.7V188c0,0.9,0.2,1.1,0.5,1.2
			c0.3,0.1,0.6,0.2,0.6,0.5c0,0.3-0.3,0.5-0.5,0.5h-2.7c-0.5,0-0.6-0.2-0.6-0.5c0-0.2,0.2-0.4,0.5-0.5c0.4-0.1,0.6-0.4,0.6-1.4
			v-10.6c0-1-1.2-0.6-1.2-1.1C228.1,176,228.2,175.9,228.5,175.8z"/>
		<path class="st0" d="M237.2,180.6c1.3,0,1.9,0.4,2.5,0.6c0.4,0.2,0.4,0.5,0.4,1.2c0,0.2,0,0.6-0.3,0.6c-0.6,0-1-1.5-2.8-1.5
			c-0.9,0-1.9,0.4-1.9,1.4c0,2.2,5.4,0.9,5.4,4.3c0,2-1.8,3.2-3.7,3.2c-1.5,0-3.4-0.9-3.4-2.1c0-0.3,0.2-0.6,0.5-0.6
			c0.8,0,0.8,0.9,1.5,1.3c0.4,0.2,1.1,0.4,1.6,0.4c0.9,0,2.1-0.5,2.1-1.6c0-2.5-5.3-0.8-5.3-4.4
			C233.9,181.9,235.2,180.6,237.2,180.6z"/>
	</g>
	<g>
		<g id="XMLID_17_">
			<path class="st0" d="M238.9,55.1c1,3.6,1.6,7.3,1.6,11.2c0,22.4-18.1,40.5-40.5,40.5c-5.9,0-11.6-1.3-16.7-3.6
				c3.6-0.8,7.6-2,10.9-4c16.7-10.1,17.9-29.9,30.6-38.9C229.7,57,235.8,55.6,238.9,55.1z"/>
			<path class="st0" d="M214.4,40.4c3.9,0,7.1,3.2,7.1,7.1c0,3.9-3.2,7.1-7.1,7.1c-3.9,0-7.1-3.2-7.1-7.1
				C207.3,43.6,210.5,40.4,214.4,40.4z"/>
			<path class="st0" d="M216.7,29.4c-3.6,0.8-7.6,2-10.9,4c-16.7,10-18,29.9-30.6,38.9c-4.8,3.4-10.9,4.8-14,5.3
				c-1-3.6-1.6-7.3-1.6-11.2c0-22.4,18.1-40.5,40.5-40.5C205.9,25.8,211.6,27.1,216.7,29.4z"/>
			<circle class="st0" cx="200" cy="66.3" r="7.1"/>
			<circle class="st0" cx="185.6" cy="85.1" r="7.1"/>
		</g>
	</g>
</g>
</svg>
