<?xml version="1.0" encoding="utf-8"?>
<!-- Generator: Adobe Illustrator 20.1.0, SVG Export Plug-In . SVG Version: 6.00 Build 0)  -->
<svg version="1.1" id="Stone_Island" xmlns="http://www.w3.org/2000/svg" xmlns:xlink="http://www.w3.org/1999/xlink" x="0px"
	 y="0px" viewBox="0 0 400 220" style="enable-background:new 0 0 400 220;" xml:space="preserve">
<title>Stone Island</title>
<g>
	<path d="M213.9,141.2c2.8,0,3.5,1.8,3.5,4.5v31c0,3-0.8,4.5-3.5,4.5v3.5h16.9v-3.5c-3-0.3-3.8-1.3-3.8-5v-31c0-3,1-4.5,3.8-4.5
		v-3.5h-16.9V141.2z"/>
	<path d="M255.4,161.9c-2.5-3-5-5-5.8-6l-5-5c-1.8-1.5-2.5-3-2.8-4.3c-0.5-1.3-0.5-3.8,0.8-5c1.3-1.3,2.8-1.8,4.5-1.5s3.8,1.8,4.8,3
		c1,1.5,2,3.3,2.5,4.5c0.3,1.3,0.5,2,0.5,2.3s0.3,1.3,0.3,1.5h4v-14.1h-3c0,0-0.3,0.8-0.8,1c-0.5,0.3-0.8,0-1,0
		c-0.3-0.3-2.8-1.3-5.8-1.8c-3-0.5-6.8-0.3-9.3,1c-1.5,0.8-2.5,1.5-3.8,2.5c-1,1-2,2.5-2.5,3.8c-1,2.5-1.3,5.5-0.3,8.3
		c1,2.8,3,5.3,4.5,7l3.5,3.5c1.5,1.5,3.3,3.3,3.8,4c1.3,1.3,2.5,2.5,4.3,4.5c1.8,2.3,2.3,4,2,6c-0.3,2-1.3,3-2.3,3.8
		c-1.3,0.8-3,1-4.8,0.3c-1.8-0.8-3-2-3.5-3c-0.8-1-1.5-3-2-4.5c-0.5-1.5-1-3.5-1-3.5h-3.5v14.3h2.5c0.3-0.3,0.8-1,1.3-1.3
		c0.8-0.5,1.5-0.3,2.3,0c0.8,0.3,1.5,0.8,2.8,1c1.8,0.5,3.5,0.8,5.8,0.8c2.5-0.3,3.3-0.5,4.8-1.3c1.8-0.8,3.8-2.3,5.3-5
		c1.5-3,1.8-6.5,1.3-9.3C259.2,166.7,257.7,164.6,255.4,161.9L255.4,161.9z"/>
	<path d="M171.4,181.5c-3.5,0-5.5-2.5-5.5-6.5v-13.1c5,0,9.6,1.8,10.1,6.3h3.3v-15.4h-3.3c-0.8,4-5,5.5-10.1,5.5v-17.1h2.5
		c4.5,0,8.8,1,11.6,6.5h3v-10.1h-31.5v3.5c2.8,0,4,1.5,4,4.5v30.4c0,3.3-0.8,4.8-3.8,5v3.5h30.7l1.3-12.1h-3
		C178.7,178.5,174.9,181.5,171.4,181.5L171.4,181.5z"/>
	<path d="M135.6,141.2c3.5,0.5,4.3,2.5,4.3,7.5v17.9h-0.3l-17.9-28.9h-13.6v3.5c1.8,0.5,5,1.8,6.3,4.5v25.2c0,7.3-0.8,9.1-4.3,10.6
		v3.5h12.8v-3.5c-3.8-0.8-4.5-3.3-4.5-7.5V149l0.3,0.3l21.9,36h3.3v-37.5c0-2.8,0.5-4.8,1.5-5.8c1-1,3.8-1,3.8-1v-3.5h-13.3v3.8
		L135.6,141.2z"/>
	<path d="M70.2,137.7h-37V148h3c1.3-6.3,7-6.8,10.3-6.8V177c0,3-0.5,4.5-3.8,4.5v3.5h18.1v-3.5c-3.8-0.3-3.8-2-3.8-5v-35.2
		c3.5,0,8.6,1,9.8,6.8h3.3V137.7z"/>
	<path d="M26.9,161.9c-2.5-3-5-5.3-5.8-6l-5-5c-1.8-1.5-2.5-3-2.8-4.3c-0.5-1.3-0.5-3.8,0.8-5c1.3-1.3,2.8-1.8,4.5-1.5
		s3.8,1.8,4.8,3s2,3.3,2.5,4.5c0.3,1.3,0.5,2,0.5,2.3s0.3,1.3,0.3,1.5h4v-14.1h-3c0,0-0.3,0.8-0.8,1c-0.5,0.3-0.8,0-1,0
		c-0.3-0.3-2.8-1.3-5.8-1.8s-6.8-0.3-9.3,1c-1.5,0.8-2.5,1.5-3.8,2.5c-1,1-2,2.5-2.5,3.8c-1,2.5-1.3,5.5-0.3,8.3
		c1,2.8,2.8,5.3,4.5,7l3.5,3.5c1.5,1.5,3.3,3.3,3.8,4c1.3,1.3,2.5,2.5,4.3,4.5c1.8,2.3,2.3,4,2,6c-0.3,2-1.3,3-2.3,3.8
		c-1.3,0.8-3,1-4.8,0.3c-1.8-0.8-3-2-3.5-3c-0.8-1-1.5-3-2-4.5c-0.5-1.5-1-3.5-1-3.5H5.3v14.3h2.5c0.3-0.3,0.8-1,1.3-1.3
		c0.8-0.5,1.5-0.3,2.3,0s1.5,0.8,2.8,1c1.8,0.5,3.5,0.8,5.8,0.8c2.5-0.3,3.3-0.5,4.8-1.3c1.8-0.8,3.8-2.3,5.3-5
		c1.5-3,1.8-6.5,1.3-9.3C30.7,166.7,29.2,164.6,26.9,161.9L26.9,161.9z"/>
	<path d="M89.6,137c-5.3,0-19.4,3.3-19.4,24.2c0,20.6,13.3,24.7,19.4,24.7c6,0,19.4-4,19.4-24.7C109,140.2,94.6,137,89.6,137z
		 M95.4,177c-1.3,2.8-2.5,5.3-5.8,5.3c-3.3,0-5.5-3.5-6.3-6c-0.5-2.5-1.5-8.1-1.3-15.4c0-7,0.8-12.3,1.3-14.3s2.3-6.3,6.3-6.3
		c2.8,0,5,2.3,6,5.5s1.5,10.6,1.5,15.1S96.6,174.2,95.4,177z"/>
	<path d="M209.6,98.5l-9.8-47.6l-9.6,47.6l-47.6,9.6l47.6,9.6l9.6,47.6l9.6-47.6l47.6-9.6L209.6,98.5L209.6,98.5z M148.7,108l42-8.6
		l8.3,8.6H148.7z M199.8,159.1l-8.6-42l8.6-8.3V159.1z M199.8,56.9l8.6,42l-8.6,8.3V56.9z M209.1,116.6l-8.3-8.6h50.3L209.1,116.6z"
		/>
	<path d="M350.5,141.2c3.5,0.5,4.3,2.8,4.3,7.8v17.9h-0.3L337,138h-12.1v3.5c1.8,0.5,4.5,4,4.5,4v27.4c-0.3,3.3-0.3,6.5-1.8,8.1
		c-0.5,0.5-1,0.5-1.8,0.5c-1.8,0-2.8-1.5-4.5-8.3l-9.1-35.2h-9.8l1,3.8l-8.6,29.7c-2,7.3-3,9.6-5.3,10.8v2.8h11.6v-2.8
		c-2.3-0.8-3.3-2.8-3.3-4.8c0-1,0.5-2.8,0.8-4l1.3-4.3h10.3l1.3,5.3c0.5,2.3,0.8,3.3,0.8,4c0,1.8-1,3.5-2.8,4v2.8H338v-3
		c-3.8-0.8-4.8-3.8-4.8-8.1V149l0.3,0.3l21.9,36h3.3v-37.5c0-4,0.3-6,3-6.5v-3.5h-11.3v3.5H350.5z M301.5,164.6l4-16.4h0.3l3.8,16.4
		H301.5z"/>
	<path d="M377.2,137.7h-13.6v3.5c1.8,0.5,2.3,2.3,2.3,4.3v30.7c0,3.3,0,4.8-2.3,5v3.5h14.8c14.8,0,18.1-12.3,18.1-23.7
		C396.6,144.3,390.1,137.7,377.2,137.7L377.2,137.7z M379.2,181.5c-2.3,0-3.5-1-3.5-5.3v-35h1.3c4.8,0,8.8,3.8,8.8,19.6
		C385.8,172.9,384.5,181.5,379.2,181.5z"/>
	<path d="M277.1,181.5c-2.5,0-2.3-2.5-2.3-7.3V146c0-3,0.8-4.5,3.8-4.8v-3.5h-16.4v3.5c2.5,0.3,3.3,1.5,3.3,4.8v30.7
		c0,3-0.5,4.5-3.3,4.8v3.5h25.7l1.5-11.8h-2.8C284.4,178.5,280.6,181.5,277.1,181.5L277.1,181.5z"/>
</g>
</svg>
