<?xml version="1.0" encoding="utf-8"?>
<!-- Generator: Adobe Illustrator 20.1.0, SVG Export Plug-In . SVG Version: 6.00 Build 0)  -->
<svg version="1.1" id="Слой_1" xmlns="http://www.w3.org/2000/svg" xmlns:xlink="http://www.w3.org/1999/xlink" x="0px" y="0px"
	 width="400px" height="220px" viewBox="0 0 400 220" style="enable-background:new 0 0 400 220;" xml:space="preserve">
<style type="text/css">
	.st0{fill-rule:evenodd;clip-rule:evenodd;fill:#1D1D1B;}
</style>
<g>
	<path class="st0" d="M375.1,132.3c-5.6-0.1-20.8-1.4-29.1-1.5c-6.5-0.1-11.7,0.5-13.8,0.8c0.7,0.9,1.4,1.8,2.2,2.6
		c2.7,0,10.3,0.3,24.4,2.7c11.7,2,18.3,2.3,21.5,2.3c3.2-2.3,6-5.1,8.3-8.3C385.4,131.5,379.4,132.3,375.1,132.3L375.1,132.3z"/>
	<path class="st0" d="M358.4,137.9c-12.6-2.2-20-2.8-23.4-2.9c6.3,6.6,15.2,10.7,25.1,10.7c6.8,0,13.2-2,18.5-5.3
		C375.2,140.2,368.9,139.7,358.4,137.9L358.4,137.9z"/>
	<path class="st0" d="M54.2,138c-1.6-1-1.9-2.1-1.9-3.2c0,0,0-29.8,0-32.7c0-2.9-1.3-3.8-2.1-3.8c-1.9,0-10.8,3.8-12.9,4.9
		c-2.1,1.1-0.5,2.5,0.5,3c1,0.5,1.7,1,1.7,3.5s0,24,0,25.1c0,1.1-0.3,2.2-1.9,3.2c-0.3,0.2-0.5,0.5-0.6,0.8
		c-0.1-0.4-0.4-0.7-0.9-1.1c-2.4-1.7-2.1-2.5-2.1-4.6s0-42.7,0-45.1c0-2.4-0.2-4.3,1.1-4.3c3.2,0,4.9,6,6.7,10.2
		c1.7,4.1,7.5,1.9,6.8-1c-0.6-2.9-1.9-10.9-2.5-13.8c-0.6-2.9-1.7-4.8-2.9-4.8c-1.1,0-3,1.7-3,1.7l-13.4,0.2l-13.4-0.2
		c0,0-1.9-1.7-3-1.7c-1.1,0-2.2,1.9-2.9,4.8C7,82,5.7,90.1,5,92.9c-0.6,2.9,5.1,5.1,6.8,1c1.7-4.1,3.5-10.2,6.7-10.2
		c1.3,0,1.1,1.9,1.1,4.3c0,2.4,0,43,0,45.1s0.3,2.9-2.1,4.6c-2.4,1.7-0.3,3.6,3.5,3.6h11.6c2.4,0,4-0.7,4.4-1.7
		c0.3,0.9,1.2,1.7,2.2,1.7h13.3C54.4,141.3,55.8,138.9,54.2,138L54.2,138z"/>
	<path class="st0" d="M210.2,138c-1.6-1-1.9-2.1-1.9-3.2c0,0,0-51.2,0-54.1c0-2.9-1.3-3.8-2.1-3.8c-1.9,0-10.8,3.8-12.8,4.9
		c-2.1,1.1-0.5,2.5,0.5,3c1,0.5,1.7,1,1.7,3.5c0,0.8,0,5.7,0,12.1c-0.8-1.1-2.2-1.9-4.5-1.9c-7.5,0-6.3,5.4-10.5,6.6
		c0-1.5,0-2.6,0-3c0-2.9-1.3-3.8-2.1-3.8c-1.9,0-10.8,3.8-12.9,4.9c-2.1,1.1-0.5,2.5,0.5,3c1,0.5,1.7,1,1.7,3.5s0,24,0,25.1
		c0,1.1-0.3,2.2-1.9,3.2c-1.6,1-0.2,3.3,1.6,3.3H181c1.7,0,3.2-2.3,1.6-3.3c-1.6-1-1.9-2.1-1.9-3.2c0,0,0-8.1,0-16.3
		c1-3.2,3.4-9.6,7.1-9.6c1.6,0,1.1,4.3,4.8,4.3c0.8,0,2.1-1.8,3-4.2c0,12.1,0,25.2,0,25.8c0,1.1-0.3,2.2-1.9,3.2
		c-1.6,1-0.2,3.3,1.6,3.3h13.3C210.3,141.3,211.8,138.9,210.2,138L210.2,138z"/>
	<path class="st0" d="M393.8,101.8l-18.7,4.8l2-3.8c4.4-0.7,10-2.1,15.3-5c-0.4-1-0.9-2-1.3-2.9c-4.5,2.3-8.6,3.3-11.8,3.7l2.9-5.5
		l7.5-0.5c-0.7-1.1-1.4-2.1-2.1-3.1H379l3.4-5.4c-0.7-0.6-1.4-1.1-2.2-1.7l-7,9.7l-2-4l0.3-1.4l6.6-5.6c-0.7-0.4-1.5-0.8-2.2-1.2
		l-7,3.8l-3.6-7.2c-1-0.2-2.1-0.3-3.2-0.3l3.8,9.9l-1.1,1L359.2,76c-0.3,0-0.7,0-1,0l-4.4,9.2l-4.5-7.5c-1.5,0.5-2.9,1.1-4.3,1.7
		l-0.2,6l-6.4-1.8c-1.3,1.1-2.6,2.2-3.7,3.5l7.8,9.5l-2.2,0.2l-7-8.1c-0.8,1-1.6,2.1-2.4,3.2l4.3,5.3l-7.4,0.5
		c-1.6,4-2.6,8.5-2.6,13.1c0,7.6,2.4,14.5,6.5,20.3c1.6-0.2,7.2-1,14.1-1c8.3,0,23.6,1.2,29.2,1.2c4.7,0,11.5-1,14.4-1.6
		c3.5-5.4,5.5-11.9,5.5-18.8C395,107.7,394.6,104.7,393.8,101.8z M376.5,93.5l1.9-0.1l-3.3,5.5c-0.7,0-1.4-0.1-1.9-0.1L376.5,93.5z
		 M372.4,103.3l-2.8,4.7l-2.6,0.7l3.3-5.2C370.8,103.4,371.5,103.4,372.4,103.3z M369.1,93.9l1,2.6l-5.7,7.9l-0.2-7.1L369.1,93.9z
		 M353.3,96l0.9,6.2l-2.5-2.5L353.3,96z M349.8,86.9l-1.5-0.2l-0.1-2.7L349.8,86.9z M351.5,91.2l-2.7,4.6l-0.3-5.6L351.5,91.2z
		 M339.2,87.2l5.2,1.7l0.3,3.7L339.2,87.2z M340.8,100l5-0.2l1.7,1.5l-4.9,4l-4.7-1.8L340.8,100z M335.3,100.2l-1.3,1.8l-4.3-1.6
		L335.3,100.2z M330.2,103.8l1.8,0.9l-2.5,3.3C329.6,106.5,329.9,105.2,330.2,103.8z M357.1,125.1c-8.6-1.3-17.1-2.5-25.6-2.7
		c-1.4-3.6-2.2-7.4-2.2-11.5c0-0.1,0-0.2,0-0.3l1.7,0.1h1.2l3.5-4.3l4,1.9l-1.9,2.6l4.5,0.2l8.5-7.1l2.2,2.4l-8.6,4.8l7.1,0.3
		l4.4-1.7l1.6,1.8L357.1,125.1z M358.8,102.6l-0.5-2.3l2-0.9l0.1,3.3L358.8,102.6z M360.6,94.4l-2.9,2.1l-1.7-6.6l3-7l2.6,5.5
		L360.6,94.4z M386.9,128.3c-7.4-0.2-14.9-1.1-22.3-2.2c-1.6-6.6-0.8-13.4-0.8-13.4l11.4-2.8l1.6,2.4l3-0.2L379,109l4.5-1.1
		c0.8,1.1,2.8,3.8,4.9,4.9l2.4-1.1c0,0-2.2-2.7-2.9-4.9l3.8-1c0.3,1.7,0.4,3.4,0.4,5.1C392.1,117.3,390.2,123.3,386.9,128.3z"/>
	<path class="st0" d="M125.9,97.7c-3.5,0-2.9,1.5-5.4,2.2c0-10.5,0-19.4,0-20.3c0-2.9-1.3-3.8-2.1-3.8c-1.9,0-10,3.8-12,4.9
		c-2.1,1.1-0.5,3.3,0.5,3.8c1,0.5,0.9,1,0.9,3.5c0,2.2,0,42.2,0,47.4c0,1.3,0.1,2.4,0.2,3.2c-0.1-0.2-0.3-0.5-0.6-0.6
		c-1.6-1-1.9-2.1-1.9-3.2c0-2.2,0.7-36-11.8-36c-4.6,0-4.8,3.4-7.6,4.2c-1.2-2.5-3.4-4.6-7.1-4.6c-6.2,0-5.4,3.6-8.6,4.4
		c0-0.3,0-0.5,0-0.6c0-2.9-1.3-3.8-2.1-3.8c-1.9,0-10.8,3.8-12.9,4.9c-2.1,1.1-0.5,2.5,0.5,3c1,0.5,1.7,1,1.7,3.5c0,2.5,0,24,0,25.1
		c0,1.1-0.3,2.2-1.9,3.2c-1.6,1-0.2,3.3,1.6,3.3h13.3c1.7,0,3.2-2.3,1.6-3.3c-1.6-1-1.9-2.1-1.9-3.2c0,0,0-14,0-23.7
		c0-2.5,1.8-4.1,3.2-4.1c1.4,0,2.6,1,2.6,3.8c0,2.5,0,22.8,0,24c0,1.1-0.3,2.2-1.9,3.2c-1.6,1-0.2,3.3,1.6,3.3h12
		c1.7,0,3.2-2.3,1.6-3.3c-1.6-1-1.9-2.1-1.9-3.2c0,0,0-25.4,0-25.5c0-0.8,1.2-1.6,2.3-1.6c3.3,0,4.5,23.6,4.5,27.1
		c0,1.1-0.3,2.2-1.9,3.2c-1.6,1-0.2,3.3,1.6,3.3h12c1.2,0,2.2-1.1,2.3-2.1c0.5,2.4,1.7,2.1,2.4,2.1c1,0,1.8,0.5,4.4-3.8
		c0.5-0.8,1.6-0.3,3,1.3c1.4,1.6,2.2,3.5,8.2,3.5c6,0,12.5-1,12.5-22.7C138.8,102.5,129.4,97.7,125.9,97.7z M124,131.6
		c-3.2,0-3.6-9.7-3.6-13c0-3.3,1.1-14.3,4-14.3c2.9,0,4.1,9.5,4.1,14.3C128.5,123.4,127.2,131.6,124,131.6z"/>
	<path class="st0" d="M161,128.6c0,3.3-1.6,3.2-3.2,3.2c-1.2,0-4.8,0.2-7.3-6c-0.1-0.7,0-2.7,2.3-3.2c0,0,10.9-4.3,12.2-4.9
		c1.3-0.6,1.4-2.9,1.4-4.6c0-1.7-2.7-15.1-13-15.1c-10.3,0-14.3,11.1-14.3,23.2c0,12.1,5.7,21.3,16,21.3c10.3,0,11.9-6.5,11.9-10.6
		C167,127,161,125.9,161,128.6z M148.5,117.4c-1.6-12.1,1.1-13.5,2.5-13.5c1.4,0,4.6,4.4,4.6,8.7c0,4.3-3.6,5.6-5.4,5.6
		C149.5,118.2,148.6,118.1,148.5,117.4z"/>
	<path class="st0" d="M277.8,138c-1.6-1-1.9-2.1-1.9-3.2c0-2.2,0.7-36-11.8-36c-4,0-4.6,2.6-6.6,3.8c0-0.2,0-0.3,0-0.4
		c0-2.9-1.3-3.8-2.1-3.8c-1.9,0-10.8,3.8-12.9,4.9c-2.1,1.1-0.5,2.5,0.5,3c1,0.5,1.7,1,1.7,3.5c0,2.5,0,24,0,25.1
		c0,1.1-0.3,2.1-1.7,3.1c-0.2-1.4-1.4-2.9-2.5-2.9c-1.3,0-1.6-1.1-1.6-2.5c0-1.4,0-2.1-1.3-17.8c-1.3-15.7-7.9-15.2-14.9-15.2
		c-7,0-13,3.3-13,8.7c0,5.4,3.5,5.9,6.2,5.9c2.7,0,4.8-0.6,4.8-4.1c0-3.5-2.2-4.6-2.2-4.6s1.1-0.3,3.6-0.3c2.5,0,4,4,4,7.5
		c0,2.9-5.1,3-7,4c-6.6,3.3-9.8,8.6-9.8,15.1c0,6.5,3.8,9.8,5.1,9.8c1.3,0,8.6,0,11.1,0c2.5,0,3.6-1.4,4.4-1.4
		c0.8,0,1.3,1.4,2.2,1.4c1,0,2.4,0,7,0c2.1,0,3.1-0.3,3.6-0.8c0.4,0.5,1.1,0.8,1.7,0.8h13.3c1.7,0,3.2-2.3,1.6-3.3
		c-1.6-1-1.9-2.1-1.9-3.2c0,0,0-14.9,0-24.7c0-1,1.3-2.4,2.7-2.4c3.3,0,4.5,23.6,4.5,27.1c0,1.1-0.3,2.2-1.9,3.2
		c-1.6,1-0.2,3.3,1.6,3.3h12C277.9,141.3,279.4,138.9,277.8,138z M226.7,132.6c0,1.4-0.3,3.2-2.2,3.2c-1.9,0-3.8-0.6-3.8-7
		c0-6.3,2.7-8.9,6-8.9C226.7,119.9,226.7,131.2,226.7,132.6z"/>
	<path class="st0" d="M309.8,138c-1.6-1-1.9-2.1-1.9-3.2c0,0,0-49.8,0-52.6c0-2.9-1.3-3.8-2.1-3.8c-1.3,0-5.6,2.6-9.1,4.1
		c-1.5,0.7-3.2,0.5-3.8,0.8c-2.1,1.1-0.5,2.5,0.5,3c1,0.5,1.7,1,1.7,3.5c0,0.8,0,6,0,12.5c-0.9-0.8-3-2.4-6-2.4
		c-4.1,0-12.5,7.8-12.5,24.1c0,6.8,2.1,11.7,3.3,14.8c1.3,3,2.7,2.5,4.8,2.5c1.6,0,23.5,0,23.5,0C310,141.3,311.4,138.9,309.8,138z
		 M292.2,134.3c-1.4,0-4.6-3.6-4.6-12.9c0-9.2,2.4-14.3,3.5-14.3c1.7,0,4.8,5.1,4.8,14.1C295.8,130.4,293.6,134.3,292.2,134.3z"/>
	<g>
		<path class="st0" d="M281.7,81.5c-1.8,0-3.3,1.4-3.3,3.2c0,1.9,1.5,3.2,3.3,3.2c1.8,0,3.3-1.4,3.3-3.2
			C285,82.9,283.5,81.5,281.7,81.5z M281.7,87.5c-1.5,0-2.6-1.1-2.6-2.7c0-1.5,1.2-2.7,2.6-2.7c1.5,0,2.6,1.2,2.6,2.7
			C284.3,86.3,283.2,87.5,281.7,87.5z"/>
		<path class="st0" d="M282.2,85c0.5-0.1,1-0.4,1-1c0-0.7-0.4-1.1-1.3-1.1h-1.4v3.7h0.6V85h0.7l1,1.6h0.6L282.2,85z M281,84.5v-1.2
			h0.8c0.4,0,0.8,0.1,0.8,0.5c0,0.6-0.4,0.6-0.9,0.6H281z"/>
	</g>
</g>
</svg>
