<?xml version="1.0" encoding="utf-8"?>
<!-- Generator: Adobe Illustrator 24.3.0, SVG Export Plug-In . SVG Version: 6.00 Build 0)  -->
<svg version="1.1" id="Слой_1" xmlns="http://www.w3.org/2000/svg" xmlns:xlink="http://www.w3.org/1999/xlink" x="0px" y="0px"
	 viewBox="0 0 400 220" style="enable-background:new 0 0 400 220;" xml:space="preserve">
<g>
	<polygon points="198.6,82.5 183.8,118.6 168.8,82.5 159.4,82.5 150.8,137.5 160.2,137.5 166,100.3 181.2,137.5 186.4,137.5 
		201.6,100.3 207.5,137.5 217,137.5 207.7,82.5 	"/>
	<polygon points="66.4,137.5 66.4,89.9 44.1,89.9 44.1,82.5 99,82.5 99,89.9 76.2,89.9 76.2,137.5 	"/>
	<polygon points="239.6,137.5 239.6,82.5 285.2,82.5 285.2,90.6 248.9,90.6 248.9,105.3 280.4,105.3 280.4,112.7 248.9,112.7 
		248.9,129.5 284.9,129.5 284.9,137.5 	"/>
	<polygon points="117.3,137.5 117.3,82.5 126.9,82.5 126.8,137.5 	"/>
	<polygon points="301.7,137.5 322.5,108.5 303.8,82.5 315.8,82.5 328.8,100.9 341.9,82.5 353.9,82.5 335.1,108.6 355.9,137.5 
		343.9,137.5 328.8,114.5 313.8,137.5 	"/>
</g>
</svg>
