<?xml version="1.0" encoding="utf-8"?>
<!-- Generator: Adobe Illustrator 21.0.2, SVG Export Plug-In . SVG Version: 6.00 Build 0)  -->
<svg version="1.1" id="Layer_1" xmlns="http://www.w3.org/2000/svg" xmlns:xlink="http://www.w3.org/1999/xlink" x="0px" y="0px"
	 viewBox="0 0 415.5 169" style="enable-background:new 0 0 415.5 169;" xml:space="preserve">
<style type="text/css">
	.st0{fill:#545454;}
</style>
<title>vans-logo</title>
<path d="M48.8,138.1h-5.2l-1-11.3h5.3L48.8,138.1z M366.7,138.1h5.3l1-11.3h-5.3L366.7,138.1z M39.5,126.8h-5.2l1,11.3h5.3
	L39.5,126.8z M375,138.1h5.3l1-11.3H376L375,138.1z M75.4,140.8c0.2,3.9-2.9,7.2-6.8,7.4c-0.1,0-0.2,0-0.3,0c-4,0-7.2-3.3-7.2-7.3
	c0-0.1,0-0.1,0-0.2v-0.1c0-4,2.8-7.4,7.1-7.4c4,0,7.2,3.2,7.2,7.2C75.4,140.6,75.4,140.7,75.4,140.8L75.4,140.8 M53.1,140.8
	c0,7.9,6.4,14.3,15,14.3s15.2-6.4,15.2-14.3v-0.1c0-7.9-6.4-14.3-15-14.3S53.1,132.8,53.1,140.8L53.1,140.8 M88.2,154.5H96v-9.9
	h13.3v-6.3H96v-4.7h14.7V127H88.2L88.2,154.5L88.2,154.5z M115.2,154.5h7.8v-9.9h13.3v-6.3h-13.3v-4.7h14.7V127h-22.5L115.2,154.5
	L115.2,154.5z M159.5,154.5h7.8v-20.9h8.4V127h-24.6v6.7h8.4L159.5,154.5L159.5,154.5z M180.8,154.5h7.8v-10.5h10v10.5h7.8V127h-7.8
	v10.3h-10V127h-7.8V154.5L180.8,154.5z M211.6,154.5h22.8V148h-15.1v-4.4h13.5v-6h-13.5v-4.2h14.9V127h-22.5L211.6,154.5
	L211.6,154.5z M255.8,154.7h6.8l5.6-15.9l5.7,15.9h6.8L290,127h-8.1l-4.9,16l-5.4-16h-6.7l-5.4,16l-4.9-16h-8.2L255.8,154.7z
	 M299.1,143.7l3.2-7.8l3.1,7.8H299.1L299.1,143.7z M286.6,154.5h8.2l2-4.9h10.9l2,4.9h8.4l-11.9-27.8h-7.5L286.6,154.5z
	 M321.7,154.5H343v-6.7h-13.6V127h-7.8L321.7,154.5L321.7,154.5z M347.4,154.5h21.4v-6.7h-13.6V127h-7.8L347.4,154.5L347.4,154.5z"
	/>
<path class="st0" d="M335.1,57.6H320c-1.5-3.7-3.1-6.6-11.6-6.6c-5.8,0-8.4,2.4-8.4,4.8c0,2.6,2.1,4.9,8.5,6.3l13.7,3.6
	c8.9,2.4,13.3,9.5,13.3,17c0,4.2-0.9,9.2-4.9,13.4c-3,3.1-7.4,7.1-22.3,7.1c-20.4,0-27.1-12.9-27.1-20.7h15.9
	c1.6,5.7,5.5,7.9,13.2,7.9c5.4,0,10-1.9,10-6c0-3.9-3.3-5.4-7.6-6.5l-10.8-2.9c-5.2-1.6-9.6-2.9-12.6-5.5c-8-6.8-7.5-19.1,1.3-25.5
	c4.8-3.5,9.8-5.4,17.7-5.4c9.3,0,14.5,2.6,18.7,5.5C330.6,46.6,335,52.7,335.1,57.6 M80.3,14c0.1,0.5,31.6,88.5,31.6,88.5h18.8
	l28.9-73.2h179.6l1.4-15.3H145.8l-24,60.7l-21.6-60.7L80.3,14 M235.5,70.8l23.4,31.6h14.7V39.9h-16.9v34l-21.2-34h-16.2v62.6h16.2
	V70.8L235.5,70.8z M341.1,99.2c0-1.8-1.5-3.3-3.3-3.3s-3.3,1.5-3.3,3.3s1.5,3.3,3.3,3.3C339.6,102.6,341.1,101.1,341.1,99.2
	C341.1,99.2,341.1,99.2,341.1,99.2L341.1,99.2z M340.7,99.2c0,1.6-1.3,2.9-2.9,2.9c-1.6,0-2.9-1.3-2.9-2.9s1.3-2.9,2.9-2.9
	C339.3,96.2,340.7,97.5,340.7,99.2C340.7,99.1,340.7,99.2,340.7,99.2L340.7,99.2z M339.3,98.5c0-0.7-0.5-1.2-1.2-1.2
	c-0.1,0-0.1,0-0.2,0h-1.6v3.5h0.8v-1.1h0.6l0.8,1.1h0.9l-0.8-1.3C339.1,99.5,339.4,99,339.3,98.5L339.3,98.5z M338.5,98.5
	c0,0.3-0.2,0.5-0.5,0.5c0,0-0.1,0-0.1,0h-0.8v-1h0.8c0.3-0.1,0.6,0.1,0.6,0.4C338.6,98.4,338.6,98.5,338.5,98.5L338.5,98.5z
	 M146.2,102.4h18l3.3-9.8h23.8l3.4,9.8h17.7l-22.7-62.6h-19.1L146.2,102.4z M172.6,81.3l7-20.8l6.9,20.8H172.6L172.6,81.3z"/>
</svg>
