<svg width="118" height="17" viewBox="0 0 118 17" fill="none" xmlns="http://www.w3.org/2000/svg">
<path fill-rule="evenodd" clip-rule="evenodd" d="M4.40977 7.75506C6.56584 7.75506 8.31368 6.01903 8.31368 3.87753C8.31368 1.73603 6.56584 0 4.40977 0C2.2537 0 0.505859 1.73603 0.505859 3.87753C0.505859 6.01903 2.2537 7.75506 4.40977 7.75506ZM17.5052 3.87753C17.5052 6.01903 15.7574 7.75506 13.6013 7.75506C11.4452 7.75506 9.69741 6.01903 9.69741 3.87753C9.69741 1.73603 11.4452 0 13.6013 0C15.7574 0 17.5052 1.73603 17.5052 3.87753ZM16.0446 3.85842C16.0446 5.18762 14.9598 6.26516 13.6215 6.26516C12.2833 6.26516 11.1984 5.18762 11.1984 3.85842C11.1984 2.52921 12.2833 1.45167 13.6215 1.45167C14.9598 1.45167 16.0446 2.52921 16.0446 3.85842ZM17.5061 13.1225C17.5061 15.264 15.7582 17 13.6022 17C11.4461 17 9.69824 15.264 9.69824 13.1225C9.69824 10.981 11.4461 9.24496 13.6022 9.24496C15.7582 9.24496 17.5061 10.981 17.5061 13.1225ZM4.40977 17C6.56584 17 8.31368 15.264 8.31368 13.1225C8.31368 10.981 6.56584 9.24496 4.40977 9.24496C2.2537 9.24496 0.505859 10.981 0.505859 13.1225C0.505859 15.264 2.2537 17 4.40977 17Z" fill="url(#paint0_radial_189_1717)"/>
<path fill-rule="evenodd" clip-rule="evenodd" d="M22 8.43103V12.8621H22.8727H23.7455V9.18755V5.51304H26.2473H28.7491V9.18755V12.8621H29.6218H30.4945V8.43103V4H26.2473H22V8.43103ZM41.7236 6.52147C41.4676 6.59994 41.1404 6.72292 40.9964 6.7949C40.7541 6.91584 40.7345 6.9997 40.7345 7.91639V8.90721L41.1709 8.51231C41.411 8.29508 41.8019 8.04208 42.0399 7.95C42.2779 7.85792 42.7597 7.78259 43.1108 7.78259C43.4619 7.78259 43.8799 7.83792 44.0396 7.90558C44.1995 7.97323 44.3852 8.17501 44.4524 8.35398C44.5196 8.53295 44.5745 8.76206 44.5745 8.86301C44.5745 9.02177 44.3867 9.05527 43.1789 9.11168C42.1599 9.15924 41.6426 9.23456 41.262 9.39095C40.9448 9.52128 40.6486 9.74554 40.5053 9.96374C40.332 10.2278 40.2698 10.5104 40.2696 11.0358C40.2692 11.5984 40.3245 11.825 40.5309 12.1066C40.675 12.3031 40.9407 12.5656 41.1217 12.69C41.3965 12.8789 41.6181 12.9161 42.4691 12.9161C43.4172 12.9161 43.519 12.8941 43.9437 12.5963C44.1947 12.4204 44.4638 12.2015 44.5417 12.11C44.6591 11.9721 44.6842 12.0223 44.6872 12.4028L44.6909 12.8621H45.4473H46.2036V10.3993C46.2036 8.06012 46.1905 7.91228 45.9418 7.45426C45.7578 7.11545 45.5261 6.89379 45.1625 6.70909C44.7247 6.48646 44.4566 6.44096 43.4171 6.41243C42.6193 6.3906 42.0261 6.42875 41.7236 6.52147ZM74.4218 6.52807C74.1658 6.60296 73.8386 6.72292 73.6945 6.7949C73.4525 6.91573 73.4327 6.99992 73.4327 7.90904V8.89251L73.6854 8.59423C73.8243 8.43006 74.204 8.18084 74.529 8.04024C74.952 7.85738 75.3283 7.78443 75.8525 7.78367C76.4761 7.7827 76.6276 7.82204 76.8707 8.04791C77.0618 8.22526 77.1564 8.4346 77.1564 8.67982V9.04641L75.7993 9.11395C74.7181 9.16777 74.335 9.23154 73.9145 9.42769C73.6241 9.56311 73.2792 9.81136 73.1479 9.97941C72.9636 10.2152 72.9093 10.4493 72.9099 11.0061C72.9105 11.578 72.9684 11.8137 73.1896 12.1453C73.362 12.4035 73.651 12.6403 73.9453 12.7644C74.2304 12.8847 74.6921 12.9664 75.0946 12.9678C75.4647 12.9691 75.9359 12.9045 76.1419 12.8245C76.3479 12.7443 76.6865 12.5454 76.8945 12.3825L77.2727 12.0863V12.4742V12.8621H78.0873H78.9018V10.5864C78.9018 9.25726 78.8472 8.10951 78.7708 7.82722C78.6772 7.48214 78.507 7.23822 78.1761 6.97517C77.8857 6.74443 77.4974 6.56373 77.1377 6.49208C76.8217 6.42918 76.186 6.38087 75.7252 6.38487C75.2643 6.38887 74.6778 6.45328 74.4218 6.52807ZM82.5673 6.5218C82.3113 6.60091 81.9369 6.7454 81.7353 6.84299C81.5337 6.94059 81.1784 7.22709 80.9455 7.47966C80.7031 7.74271 80.4436 8.19014 80.3382 8.527C80.2125 8.9285 80.1706 9.38003 80.2061 9.94991C80.2448 10.5691 80.3401 10.94 80.5752 11.3865C80.7577 11.7328 81.0888 12.1329 81.3549 12.3286C81.6094 12.5158 82.0647 12.7407 82.3669 12.8285C82.6691 12.9162 83.316 12.9929 83.8043 12.9989C84.5672 13.0081 84.7884 12.965 85.3752 12.6927L86.0582 12.3757L86.0926 11.5121L86.1272 10.6485L85.7435 10.9858C85.5326 11.1712 85.2419 11.3794 85.0975 11.4482C84.9532 11.5171 84.5081 11.5995 84.1084 11.6314C83.4981 11.6803 83.298 11.6494 82.8582 11.4382C82.5207 11.2763 82.2622 11.0525 82.1311 10.8087C81.9974 10.5602 81.9276 10.1786 81.9275 9.69658C81.9273 9.18712 81.995 8.8402 82.1489 8.5618C82.2708 8.34133 82.5322 8.0732 82.7298 7.9661C82.9609 7.84084 83.3284 7.77038 83.7592 7.76886C84.1276 7.76746 84.5727 7.81728 84.7482 7.87953C84.9238 7.94178 85.3033 8.19478 85.5918 8.44184L86.1164 8.89089V7.91412V6.93724L85.5828 6.69742C85.1924 6.52191 84.7788 6.4469 84.041 6.41783C83.4017 6.39265 82.8624 6.43069 82.5673 6.5218ZM33.4036 7.33884C33.4036 7.8081 33.3485 8.69128 33.281 9.30146C33.2136 9.91176 33.0807 10.5839 32.9857 10.7952C32.8906 11.0064 32.7493 11.2167 32.6718 11.2626C32.5943 11.3083 32.3846 11.3464 32.2058 11.3474L31.8807 11.349L31.9149 12.1326L31.9491 12.9161L32.6049 12.9139C32.9655 12.9128 33.4019 12.8416 33.5746 12.7558C33.7471 12.67 34.0098 12.4035 34.158 12.1636C34.3064 11.9237 34.512 11.3754 34.6149 10.9454C34.7178 10.5152 34.8357 9.65205 34.8769 9.02706L34.9517 7.89066H35.9813H37.0109V10.3764V12.8621H37.8836H38.7564V9.67388V6.4857H36.08H33.4036V7.33884ZM47.3673 7.18818V7.89066H48.4727H49.5782V10.3764V12.8621H50.3927H51.2073V10.3764V7.89066H52.3127H53.4182V7.18818V6.4857H50.3927H47.3673V7.18818ZM54.6982 9.67388V12.8621L55.4836 12.8606L56.2691 12.859L57.84 10.7671L59.4109 8.67506L59.4424 10.7686L59.474 12.8621H60.2861H61.0982V9.67388V6.4857H60.3098H59.5216L57.9535 8.53111L56.3855 10.5765L56.3538 8.53111L56.3223 6.4857H55.5102H54.6982V9.67388ZM65.3253 6.65754C65.2862 6.7521 65.2818 7.42097 65.3154 8.14399C65.3529 8.94892 65.4447 9.61001 65.5524 9.84918C65.6489 10.064 65.9038 10.363 66.1186 10.5136C66.3334 10.6642 66.7185 10.8405 66.9745 10.9055C67.2305 10.9704 67.7345 11.0238 68.0944 11.0242C68.4545 11.0245 68.9649 10.954 69.229 10.8675L69.7091 10.7102V11.7861V12.8621H70.5836H71.458L71.4272 9.7009L71.3964 6.53974L70.5527 6.50797L69.7091 6.47619V7.93162V9.38695L69.2888 9.51577C69.0576 9.58667 68.5775 9.62223 68.2217 9.59477C67.7005 9.55468 67.5225 9.48821 67.304 9.25218C67.054 8.98243 67.0327 8.86203 67.0327 7.7225V6.4857H66.2146C65.574 6.4857 65.3809 6.52299 65.3253 6.65754ZM87.0473 7.18818V7.89066H88.1527H89.2582V10.3764V12.8621H90.0727H90.8873V10.3764V7.89066H91.9927H93.0982V7.18818V6.4857H90.0727H87.0473V7.18818ZM95.8838 6.63322C95.592 6.70628 95.1782 6.86104 94.9643 6.97711C94.7504 7.09319 94.4693 7.37818 94.3396 7.61032C94.1805 7.8952 94.1024 8.24688 94.0995 8.69106C94.0968 9.1173 94.1707 9.49319 94.3091 9.75656C94.4266 9.98038 94.6735 10.2461 94.8577 10.3473C95.0419 10.4483 95.1927 10.5709 95.1927 10.6196C95.1927 10.6685 94.8785 11.1668 94.4945 11.7273C94.1105 12.2878 93.7964 12.7723 93.7964 12.8041C93.7964 12.836 94.2025 12.8621 94.699 12.8621H95.6015L96.2469 11.8624L96.8921 10.8627L97.6715 10.8307L98.4509 10.7988V11.8304V12.8621H99.2655H100.08V9.67388V6.4857L98.2473 6.49294C97.1886 6.49716 96.1904 6.55638 95.8838 6.63322ZM101.942 9.67388V12.8621H102.812H103.682L103.714 10.8595L103.745 8.85685L104.652 10.1029C105.384 11.1093 105.611 11.349 105.836 11.349C106.06 11.349 106.288 11.1087 107.024 10.095L107.935 8.84096L107.966 10.8516L107.998 12.8621H108.87H109.742L109.711 9.7009L109.68 6.53974L108.842 6.50807L108.004 6.47641L106.943 7.94751L105.883 9.41851L104.779 7.95216L103.675 6.4857H102.809H101.942V9.67388ZM111.484 9.67388V12.8621L112.327 12.8591L113.171 12.8562L114.713 10.7916L116.255 8.72694V10.7945V12.8621H117.127H118V9.67388V6.4857H117.203H116.405L114.846 8.52679L113.287 10.5678L113.256 8.52679L113.224 6.4857H112.354H111.484V9.67388ZM98.4509 8.76812V9.64568L97.3521 9.60104C96.4902 9.56603 96.2016 9.51296 96.0139 9.35517C95.8767 9.23997 95.7745 9.01971 95.7745 8.83945C95.7745 8.66642 95.8303 8.42812 95.8985 8.30977C95.9667 8.19143 96.1369 8.0518 96.2767 7.99949C96.4165 7.94719 96.9629 7.90126 97.4909 7.89747L98.4509 7.89066V8.76812ZM44.5366 10.5519C44.4989 10.7673 44.3788 11.0352 44.2697 11.1473C44.1605 11.2592 43.8833 11.403 43.6538 11.4666C43.4242 11.5303 43.0321 11.5663 42.7824 11.5467C42.453 11.5209 42.2654 11.4322 42.0982 11.2233C41.9455 11.0326 41.8918 10.8471 41.9387 10.6736C41.9777 10.5294 42.1285 10.3582 42.2738 10.2931C42.4193 10.2281 43.0032 10.1716 43.5716 10.1676L44.605 10.1602L44.5366 10.5519ZM77.1564 10.5183C77.1564 10.7749 77.0576 10.9642 76.8074 11.1868C76.5233 11.4396 76.3309 11.5058 75.7732 11.5433C75.1862 11.5828 75.0517 11.5558 74.8353 11.3548C74.6591 11.1911 74.5936 11.0165 74.6186 10.7778C74.6435 10.5405 74.7439 10.3935 74.9455 10.2994C75.1079 10.2234 75.6604 10.1627 76.1964 10.1618L77.1564 10.1602V10.5183Z" fill="#373F47"/>
<defs>
<radialGradient id="paint0_radial_189_1717" cx="0" cy="0" r="1" gradientUnits="userSpaceOnUse" gradientTransform="translate(15.8831 0.997773) rotate(143.754) scale(20.1209 21.2776)">
<stop stop-color="#CFEEF8"/>
<stop offset="0.340561" stop-color="#A9E6D2"/>
<stop offset="0.568367" stop-color="#74E353"/>
<stop offset="1" stop-color="#ECEB55"/>
</radialGradient>
</defs>
</svg>
