<?xml version="1.0" encoding="utf-8"?>
<!-- Generator: Adobe Illustrator 24.1.0, SVG Export Plug-In . SVG Version: 6.00 Build 0)  -->
<svg version="1.1" id="Слой_1" xmlns="http://www.w3.org/2000/svg" xmlns:xlink="http://www.w3.org/1999/xlink" x="0px" y="0px"
	 width="400px" height="220px" viewBox="0 0 400 220" style="enable-background:new 0 0 400 220;" xml:space="preserve">
<style type="text/css">
	.st0{fill:#1D1D1B;}
	.st1{fill-rule:evenodd;clip-rule:evenodd;fill:#1D1D1B;}
</style>
<g>
	<g>
		<polygon class="st0" points="10.6,108.2 64.3,108.2 69.6,95.9 10.6,95.9 		"/>
		<polygon class="st0" points="10.8,127.1 55.5,127.1 61.2,114.7 10.8,114.7 		"/>
		<polygon class="st0" points="10.9,145.6 47.5,145.6 53.1,133.3 10.9,133.3 		"/>
		<polygon class="st0" points="178.4,95.5 178.4,107.9 122.7,107.9 117.4,95.5 		"/>
		<polygon class="st0" points="178.3,133 178.3,145.4 139,145.4 133.7,133 		"/>
		<polygon class="st0" points="94.6,55.3 44.6,164.4 60,164.4 110.6,126.6 178.1,126.6 178.3,114.4 105.5,114.4 71,139.5 94.4,86.8 
			103.4,108 117.4,108 		"/>
		<polygon class="st0" points="125.5,164.5 141.2,164.5 127.8,133.1 113.1,133.1 		"/>
	</g>
	<g>
		<g>
			<path class="st0" d="M149.4,152.6c0.1,0,0.2,0,0.3,0c0.4,0,0.7-0.1,0.8-0.2c0.2-0.1,0.3-0.3,0.3-0.6c0-0.2-0.1-0.4-0.2-0.5
				c-0.2-0.1-0.4-0.2-0.6-0.2c-0.1,0-0.3,0-0.5,0.1V152.6z M148.4,150.8h1.8c0.4,0,0.7,0.1,0.9,0.3c0.2,0.2,0.3,0.4,0.3,0.7
				c0,0.2-0.1,0.4-0.2,0.6c-0.2,0.2-0.4,0.3-0.8,0.4l1,1.3c0.1,0.2,0.2,0.3,0.3,0.3c0,0,0.1,0.1,0.2,0.1v0.2h-0.8l-1.4-1.7h-0.4v1
				c0,0.2,0,0.4,0.1,0.5c0.1,0.1,0.2,0.1,0.4,0.1v0.2h-1.5v-0.2c0.2,0,0.3,0,0.4-0.1c0-0.1,0.1-0.2,0.1-0.5v-2.2
				c0-0.2,0-0.4-0.1-0.4c-0.1-0.1-0.2-0.1-0.3-0.1V150.8z M153,152.8c0-0.8-0.3-1.6-0.9-2.2c-0.6-0.6-1.3-0.9-2.2-0.9
				c-0.9,0-1.6,0.3-2.2,0.9c-0.6,0.6-0.9,1.3-0.9,2.2c0,0.8,0.3,1.6,0.9,2.2c0.6,0.6,1.3,0.9,2.2,0.9c0.9,0,1.6-0.3,2.2-0.9
				C152.7,154.4,153,153.7,153,152.8 M153.4,152.8c0,1-0.3,1.8-1,2.5c-0.7,0.7-1.5,1-2.4,1c-1,0-1.8-0.3-2.4-1c-0.7-0.7-1-1.5-1-2.5
				c0-0.9,0.3-1.8,1-2.4c0.7-0.7,1.5-1,2.4-1c1,0,1.8,0.3,2.4,1C153.1,151.1,153.4,151.9,153.4,152.8"/>
		</g>
	</g>
	<g>
		<path class="st0" d="M200.2,122.2l13.4-27h0.4l13.1,27h-6.5l-1.7-3.8h-10.6l-1.7,3.8H200.2z M210,113.9h6.9l-3.4-8.2L210,113.9z"
			/>
		<polygon class="st0" points="246.3,122.2 246.3,96 252.6,96 252.6,116.6 262.8,116.6 262.8,122.2 		"/>
		<g>
			<g>
				<path class="st0" d="M286.5,122.2V96h6.7c2.1,0,3.7,0.1,4.9,0.5c1.2,0.3,2.3,0.8,3.2,1.5c1,0.7,1.7,1.6,2.3,2.7
					c0.5,1.1,0.8,2.2,0.8,3.4c0,2.6-0.9,4.8-2.8,6.3c-1.9,1.6-4.4,2.3-7.7,2.3c-0.3,0-0.6,0-0.8,0c-0.2,0-0.3,0-0.5,0v9.6H286.5z
					 M293.6,100.8h-0.9v7h1.1c1.6,0,2.8-0.3,3.6-0.9c0.8-0.6,1.2-1.5,1.2-2.6c0-1.2-0.4-2.1-1.2-2.6
					C296.7,101.1,295.4,100.8,293.6,100.8"/>
			</g>
		</g>
		<g>
			<polygon class="st0" points="325.3,122.2 325.3,96 331.5,96 331.5,105.6 341.6,105.6 341.6,96 347.7,96 347.7,122.2 341.6,122.2 
				341.6,111.2 331.5,111.2 331.5,122.2 			"/>
		</g>
		<g>
			<path class="st0" d="M364,122.2l13.4-27h0.4l13.1,27h-6.5l-1.7-3.8H372l-1.7,3.8H364z M373.8,113.9h6.9l-3.4-8.2L373.8,113.9z"/>
		</g>
	</g>
	<g>
		<polygon class="st1" points="200.5,144.9 200.5,131.8 203.6,131.8 203.6,144.9 200.5,144.9 		"/>
		<polygon class="st1" points="216.3,144.9 216.3,131.3 216.6,131.3 224.8,139 224.8,131.8 227.7,131.8 227.7,145.4 227.4,145.4 
			219.2,137.7 219.2,144.9 216.3,144.9 		"/>
		<path class="st1" d="M242,142.1h0.7c1.4,0,2.4-0.3,3.2-1c0.8-0.7,1.2-1.6,1.2-2.8c0-1.2-0.4-2.1-1.2-2.8c-0.8-0.7-1.8-1-3.2-1H242
			V142.1L242,142.1z M238.9,144.9v-13.1h3.5c2.5,0,4.4,0.6,5.8,1.8c1.4,1.2,2.1,2.8,2.1,4.8c0,1.2-0.3,2.3-0.8,3.2
			c-0.5,0.9-1.4,1.7-2.4,2.3c-0.6,0.3-1.3,0.6-2,0.8c-0.7,0.2-1.6,0.2-2.6,0.2H238.9L238.9,144.9z"/>
		<path class="st1" d="M262.7,131.6v7.2c0,1.2,0.2,2,0.6,2.6c0.4,0.6,1.1,0.9,1.9,0.9c0.8,0,1.5-0.3,1.9-0.8
			c0.4-0.5,0.7-1.3,0.7-2.3v-7.5h2.8v7.5c0,1.9-0.5,3.4-1.5,4.4c-1,1.1-2.3,1.6-4,1.6c-1.7,0-3.1-0.5-4.1-1.6
			c-1-1.1-1.5-2.5-1.5-4.4v-7.6H262.7L262.7,131.6z"/>
		<path class="st1" d="M281.4,141.2c0.8,0.5,1.5,0.8,2.1,1c0.6,0.2,1.1,0.3,1.7,0.3c0.5,0,1-0.1,1.3-0.4c0.3-0.2,0.5-0.5,0.5-0.9
			c0-0.5-0.6-1.1-1.8-1.8c-0.2-0.1-0.3-0.2-0.4-0.3l-0.9-0.5c-0.9-0.5-1.5-1-1.9-1.7c-0.4-0.6-0.6-1.3-0.6-2.1
			c0-1.1,0.4-1.9,1.2-2.6c0.8-0.7,1.8-1,3.1-1c0.5,0,1,0.1,1.5,0.2c0.5,0.1,1.1,0.3,1.8,0.5v3.1c-0.6-0.4-1.2-0.7-1.8-0.9
			c-0.6-0.2-1.1-0.3-1.4-0.3c-0.4,0-0.8,0.1-1,0.3c-0.3,0.2-0.4,0.4-0.4,0.8c0,0.2,0.1,0.4,0.2,0.6c0.2,0.2,0.4,0.4,0.7,0.5l1.5,0.9
			c1.3,0.7,2.2,1.4,2.6,2c0.4,0.6,0.7,1.3,0.7,2.1c0,1.3-0.4,2.3-1.3,3.1c-0.9,0.8-2,1.2-3.5,1.2c-0.5,0-1-0.1-1.6-0.2
			c-0.6-0.1-1.2-0.3-1.9-0.5L281.4,141.2L281.4,141.2z"/>
		<polygon class="st1" points="304,144.9 304,134.5 299.9,134.5 299.9,131.8 311.3,131.8 311.3,134.5 307.2,134.5 307.2,144.9 
			304,144.9 		"/>
		<path class="st1" d="M326.4,134.2h-0.5v3.6h0.7c0.8,0,1.4-0.2,1.8-0.5c0.4-0.3,0.6-0.8,0.6-1.4c0-0.6-0.2-1.1-0.6-1.4
			C328,134.3,327.3,134.2,326.4,134.2L326.4,134.2z M322.9,144.9v-13.1h3.4c1.1,0,1.9,0.1,2.5,0.2c0.6,0.1,1.1,0.4,1.6,0.7
			c0.5,0.3,0.9,0.8,1.1,1.3c0.3,0.5,0.4,1.1,0.4,1.6c0,0.8-0.2,1.6-0.6,2.2c-0.4,0.6-1,1.1-1.8,1.5l4,5.6h-3.6l-3.5-5.2h-0.4v5.2
			H322.9L322.9,144.9z"/>
		<polygon class="st1" points="344,144.9 344,131.8 347.1,131.8 347.1,144.9 344,144.9 		"/>
		<polygon class="st1" points="361.5,144.9 361.5,131.8 369.5,131.8 369.5,134.5 364.5,134.5 364.5,136.9 368.8,136.9 368.8,139.6 
			364.5,139.6 364.5,142.2 369.6,142.2 369.6,144.9 361.5,144.9 		"/>
		<path class="st1" d="M382.3,141.2c0.8,0.5,1.5,0.8,2.1,1c0.6,0.2,1.1,0.3,1.7,0.3c0.5,0,1-0.1,1.3-0.4c0.3-0.2,0.5-0.5,0.5-0.9
			c0-0.5-0.6-1.1-1.8-1.8c-0.2-0.1-0.3-0.2-0.4-0.3l-0.9-0.5c-0.9-0.5-1.5-1-1.9-1.7c-0.4-0.6-0.6-1.3-0.6-2.1
			c0-1.1,0.4-1.9,1.2-2.6c0.8-0.7,1.8-1,3.1-1c0.5,0,1,0.1,1.5,0.2c0.5,0.1,1.1,0.3,1.8,0.5v3.1c-0.6-0.4-1.2-0.7-1.8-0.9
			c-0.6-0.2-1.1-0.3-1.4-0.3c-0.4,0-0.8,0.1-1,0.3c-0.3,0.2-0.4,0.4-0.4,0.8c0,0.2,0.1,0.4,0.2,0.6c0.2,0.2,0.4,0.4,0.7,0.5l1.5,0.9
			c1.3,0.7,2.2,1.4,2.6,2c0.4,0.6,0.7,1.3,0.7,2.1c0,1.3-0.4,2.3-1.3,3.1c-0.9,0.8-2,1.2-3.5,1.2c-0.5,0-1-0.1-1.6-0.2
			c-0.6-0.1-1.2-0.3-1.9-0.5L382.3,141.2L382.3,141.2z"/>
	</g>
</g>
</svg>
