<?xml version="1.0" encoding="utf-8"?>
<!-- Generator: Adobe Illustrator 19.2.1, SVG Export Plug-In . SVG Version: 6.00 Build 0)  -->
<svg version="1.1" id="Casio" xmlns="http://www.w3.org/2000/svg" xmlns:xlink="http://www.w3.org/1999/xlink" x="0px" y="0px"
	 width="400px" height="220px" viewBox="0 0 400 220" style="enable-background:new 0 0 400 220;" xml:space="preserve">
<title>Casio</title>
<g>
	<path class="st0" d="M87.2,118.8v2.1c0,7.9-0.1,15.1-8.7,20.6c-8.5,5.4-19,5.3-29.9,5.3c-25.6,0-44.4-1-44.4-27.5v-18.8
		c0-24,16.7-27.5,44.4-27.5c25.9,0,38,2,38.5,23.8v2.8H61.2V97c-0.9-6.5-6.8-7-15.3-7c-14.3,0-15.7,3.4-15.7,13.7V115
		c0,10.8,0.6,15,15.7,15c10.4,0,15.5-0.6,15.5-9.1v-2.1H87.2L87.2,118.8z"/>
	<path class="st0" d="M114.3,133.8l-4.6,12.5H83.6l28.3-72.5H150l28.7,72.5H153l-4.9-12.5H114.3L114.3,133.8z M131.4,88.2h-0.3
		l-11.4,31.4h23.4L131.4,88.2L131.4,88.2z"/>
	<path class="st0" d="M221.5,102.2c27.9,1.5,34.8,4.3,34.8,20.9c0,12,0.6,23.8-40.8,23.8c-24,0-40-0.4-40-24.2h24.1
		c0,7.5,3.5,8.3,15.8,8.3c11.8,0,15.7-0.6,15.7-6.7c0-6.3-1.4-6.2-13.2-6.8l-5.5-0.3c-23.2-1.3-36.8-1.2-36.8-21.9
		c0-20.8,15.2-22.1,39.8-22.1c20.6,0,38.2,0.3,38.2,20.3v3h-24.1c0-7.4-4-7.4-14.1-7.4c-13.6,0-14.7,2.1-14.7,6.2
		c0,5.8,3.6,6,10.3,6.4L221.5,102.2L221.5,102.2z"/>
	<polygon class="st0" points="287.5,146.2 262.4,146.2 262.4,73.8 287.5,73.8 	"/>
	<path class="st0" d="M293.1,120.2V99.8c0-22.3,18.1-26.6,43.6-26.6s43.6,4.3,43.6,26.6v20.5c0,22.3-18.1,26.6-43.6,26.6
		S293.1,142.6,293.1,120.2L293.1,120.2z M354.5,118.1v-16.3c0-10.7-4.6-11.8-17.7-11.8s-17.3,1.1-17.7,11.8v16.3
		c0.4,10.8,4.6,11.9,17.7,11.9S354.5,128.9,354.5,118.1L354.5,118.1z"/>
	<path class="st0" d="M392.4,139.6h-2.8l-2.1-3.4l0,0v3.4h-2.3v-8.7h3.4c1.7,0,3,0.8,3,2.7c0,1.2-0.7,2.2-1.9,2.5L392.4,139.6
		L392.4,139.6z M387.4,134.8h0.2c0.7,0,1.6-0.1,1.6-1.1c0-0.9-0.8-1.1-1.6-1.1h-0.2V134.8L387.4,134.8z"/>
	<path class="st0" d="M388.3,141.9c1.7,0,3.3-0.7,4.5-1.8c1.1-1.1,1.8-2.7,1.8-4.5c0-1.7-0.7-3.3-1.8-4.5c-1.1-1.1-2.7-1.8-4.5-1.8
		c-1.7,0-3.3,0.7-4.5,1.8c-1.1,1.1-1.8,2.7-1.8,4.5c0,1.7,0.7,3.3,1.8,4.5C385,141.2,386.5,141.9,388.3,141.9L388.3,141.9z
		 M393.5,140.9c-1.3,1.3-3.2,2.2-5.3,2.2c-2.1,0-3.9-0.8-5.3-2.2c-1.3-1.3-2.2-3.2-2.2-5.3s0.8-3.9,2.2-5.3c1.3-1.3,3.2-2.2,5.3-2.2
		c2.1,0,3.9,0.8,5.3,2.2s2.2,3.2,2.2,5.3S394.9,139.6,393.5,140.9L393.5,140.9z"/>
</g>
</svg>
