<?xml version="1.0" encoding="utf-8"?>
<!-- Generator: Adobe Illustrator 23.0.3, SVG Export Plug-In . SVG Version: 6.00 Build 0)  -->
<svg version="1.1" id="Слой_1" xmlns="http://www.w3.org/2000/svg" xmlns:xlink="http://www.w3.org/1999/xlink" x="0px" y="0px"
	 width="400px" height="220px" viewBox="0 0 400 220" style="enable-background:new 0 0 400 220;" xml:space="preserve">
<g>
	<path d="M173.47,24.07l16.44,0l-0.08,9c0.01,0.56-0.08,1.09-0.64,1.24c-1.74,0.48-1.33,1.63-1.51,3.21
		c-0.1,0.89,0.08,1.76,0.27,2.64c1.63,7.6,4.76,23.08,5.29,23.04c0.33-0.02,3.42-15.29,3.42-15.29s0.76-4.92,1.28-7.26
		c0.27-1.21,0.44-2.44,0.35-3.7c-0.1-1.36,0.1-2.3-1.2-2.66c-0.59-0.16-0.63-0.67-0.62-1.21c0.04-3.08-0.03-5.92,0-9h16.26
		c0,0-0.07,5.67,0,9c0.01,0.4,0.08,0.96-0.35,1.14c-2.14,0.89-2.28,2.16-1.82,4.47c0.7,3.48,4.67,24.61,5.3,24.61
		c0.67,0,4.34-18.53,5.67-24.44c0.23-1.03,0.01-1.96-0.29-2.91c-0.41-1.27-1.54-1.62-1.76-1.73c-0.23-0.11-0.19-0.44-0.19-1.14
		c0,0,0-8.99,0-9l15.91,0.02l0,8.98c-0.02,0.39,0.07,0.86-0.2,1.14c-0.48,0.35-4.25,1.36-4.65,5.12c-0.21,1.96-0.46,3.92-0.84,5.85
		c-1.35,6.85-2.35,13.76-3.72,20.6c-0.89,4.45-1.52,8.96-2.27,13.45c-1.16,6.91-2.54,13.38-3.68,20.29
		c-0.13,0.79-0.37,1.19-1.28,1.17c-2.62-0.06-5.24-0.04-7.86-0.01c-0.63,0.01-0.91-0.18-1.02-0.84c-0.5-2.99-0.85-5.53-1.37-8.52
		c-1.15-6.54-3.56-21.05-3.85-21.06c-0.27,0.02-2.45,11.42-3.61,16.94c-0.88,4.19-1.91,7.95-2.8,12.15
		c-0.28,1.31-0.31,1.32-1.6,1.32c-2.04,0.01-4.09-0.03-6.13,0.02c-0.8,0.02-1.15-0.14-1.32-1.04c-1.89-9.9-3.73-19.35-5.61-29.26
		c-1.05-5.54-2.11-11.08-3.05-16.65c-0.83-4.89-1.91-9.74-2.92-14.6c-0.19-0.91-0.48-1.81-0.94-2.65c-0.55-1-1.23-1.84-2.37-2.16
		c-0.45-0.13-0.67-0.79-0.66-1.25C173.49,30,173.44,27.15,173.47,24.07"/>
	<path d="M270.83,24.07h12.37c2.93,5.84,5.99,11.7,8.91,17.55c3.41,6.82,6.92,14.17,10.31,21c0,0,0.15,0.57,0.48,0.69
		c0.27-0.25,0.18-0.58,0.18-0.87c0.01-7.99-0.12-16.5-0.12-24.5c0-0.46-0.33-1.32-0.33-1.32c-0.32-0.77-1.51-1.76-3.13-2.54
		c-0.39-0.21-0.37-1.23-0.37-1.23v-8.79h19.62l-0.01,8.95c0.02,0.7-0.43,0.89-0.94,1.07c-2.54,0.9-3.27,2.6-3.26,5.27
		c0.03,19.76,0.03,39.64,0.03,59.4c-0.01,0.05,0.01,1.14,0.01,1.14c0,0.89-0.37,0.76-1.02,0.75c-2.99-0.02-5.98-0.03-8.96,0.01
		c-0.72,0.01-0.87-0.2-1.13-0.79c-2.21-4.97-4.48-9.61-6.71-14.57c-3.26-7.25-6.43-14.25-9.69-21.5c-0.08-0.18-0.12-0.41-0.36-0.49
		c-0.39,0.07-0.23,0.39-0.23,0.6c-0.01,7.34-0.09,14.43-0.1,21.77c0,1.69,0.44,3.2,1.79,4.35c0.54,0.46,1.14,0.73,1.82,0.86
		c0.48,0.1,0.57,0.24,0.57,0.75l-0.04,9.02h-19.73l0.08-9.16c-0.01-0.6,0.05-0.6,0.74-0.76c1.8-0.42,3.15-2.24,3.26-4.16
		c0.02-0.37,0-0.73,0-1.1c0-14.99,0-29.98,0-44.98c0-0.99-0.08-1.98-0.16-2.97c-0.15-1.84-1.06-3.02-2.72-3.44
		c-0.93-0.23-1.15-0.36-1.13-1.24V24.07z"/>
	<path d="M142.94,61.53V87.7v3.07h0.82c2.09,0.2,3.92-1.63,5.52-3.05c3.28-2.92,5.24-6.59,6.34-10.78
		c1.22-4.64,1.26-9.41,1.49-14.15c0.18-3.76,0.04-7.53-0.26-11.29c-0.25-3.12-0.55-6.26-1.61-9.24c-1.5-4.21-4.76-8.24-11.47-8.24
		c-0.78,0-0.82,0.2-0.82,1.11V61.53z M152.48,24.08c4.59,0.82,8.26,3.27,11.17,6.76c2.24,2.69,3.43,5.99,4.19,9.38
		c1.14,5.05,1.78,10.18,2.03,15.37c0.15,3.14,0.29,6.27,0.14,9.4c-0.25,5.37-0.36,10.75-2.07,15.95c-1.58,4.81-4.9,10.94-7.83,14.06
		c-1.35,1.29-3.88,4.3-6.41,5.25c-1.05,0.39-2.12,0.45-2.12,0.45h-6.49H126.9v-8.79c0-0.56,0.01-0.97,0.75-1.11
		c1.04-0.19,1.67-1.03,2.17-1.91c0.79-1.39,1.14-2.89,1.14-4.5c-0.02-11.94-0.01-23.89-0.01-35.84c0-3.3,0.01-6.6,0-9.9
		c-0.01-2.66-0.91-3.9-3.46-4.71c-0.41-0.13-0.6-0.24-0.59-0.69v-9.15C134.99,24.07,152.48,24.08,152.48,24.08"/>
	<path d="M243.31,24.08l19.54,0v8.81c0,0.65-0.3,1.14-0.78,1.23c-2.11,0.63-3.09,2.51-3.08,4.93c0.06,15.61,0.03,31.22,0.03,46.84
		c0,0.47-0.03,0.95,0.02,1.41c0.18,1.83,1.27,3.41,3.1,3.45c0.72,0.02,0.72,0.02,0.71,0.92l0.01,8.99H243.3c0,0,0.01-8.71,0.01-8.75
		c0-1.15,0.11-1.07,0.69-1.1c1.85-0.36,3.51-2.14,3.51-4.87c0-15.82,0-31.64,0-47.46c0-2.5-0.92-3.72-3.41-4.33
		c-0.54-0.13-0.79-0.55-0.79-1.25V24.08z"/>
	<path d="M79.94,24.04l39.25,0.05l-0.01,21.06l-9.59-0.01c-0.53,0-0.53-0.02-0.56-0.81c0.01-1.53-0.22-3.03-0.6-4.5
		c-1.02-3.95-3.48-5.63-7.55-5.85c-1.25-0.07-2.52,0.02-3.77-0.03c-0.78-0.03-1,0.28-0.97,1.01c0.05,0.99,0.09,1.69,0.09,2.69
		c0,5.5-0.01,11.01,0,16.51c0,1.2-0.03,1.89,0.78,2.35c0.44,0.25,1.08,0.16,1.45,0.16c2.78-0.01,5.57-1.15,5.57-3.93
		c0-1,0-1,1.41-1.01l6.76,0.02c1.35-0.02,1.35-0.02,1.35,0.93c0.01,6.18-0.16,12.52-0.14,18.7c0,0.82-0.25,1.08-1.07,1.07
		c-2.72-0.04-5.44-0.02-8.01-0.02c-0.36-0.03-0.36-0.4-0.38-0.6c-0.41-2.96-3.96-5.3-4.79-5.64c-0.11-0.04-0.87-0.4-2.19-0.51
		c-0.71-0.06-0.74,0.14-0.74,1.84c0,7.13,0,14.26,0,21.38c0,0.37,0.01,0.73,0,1.1c-0.01,0.43,0.12,0.71,0.6,0.71
		c1.84-0.01,3.67,0.06,5.5-0.06c1.06-0.07,1.96-0.71,2.69-1.51c2.27-2.49,3.52-5.45,3.79-8.77c0.09-1.13,0.23-1.23,1.26-1.23
		c2.73,0.02,9.11,0.01,9.11,0.01l0.02,21.45c0,0-7.97,0.02-11.54,0.02c-8.59,0-27.69-0.02-27.69-0.02v-8.91
		c0.01-0.94,0.01-0.96,0.52-1.06c1.78-0.26,2.84-1.41,3.22-3.19c0.19-0.93,0.29-1.86,0.29-2.8c0-14.52,0-29.03,0-43.55
		c0-1.48-0.17-2.93-0.65-4.32c-0.49-1.42-1.71-3.11-2.78-3.24c-0.73-0.09-0.6-1.07-0.6-1.07C79.93,35.02,79.94,24.04,79.94,24.04"/>
	<g>
		<path d="M7.69,161.11v-5.28h36.33v5.28H28.39v23.03h20.28v5.28H2.83v-5.28H22.9v-23.03H7.69z"/>
		<path d="M103.51,195.96v-46.9h5.7v15c4.51,1.69,8.31,3.17,11.41,4.44c4.51,2.26,8.38,4.3,11.62,6.13l-3.17,5.07
			c-2.4-1.55-5.99-3.59-10.77-6.13c-1.13-0.7-4.16-1.97-9.08-3.8v26.19H103.51z M127.8,159.84l-2.96,2.96
			c-2.96-2.96-4.93-4.86-5.91-5.7l2.75-2.53c0.56,0.28,1.48,0.99,2.75,2.11C125.69,157.8,126.82,158.85,127.8,159.84z
			 M129.92,157.94l-6.13-5.7l2.75-2.75c2.96,2.53,5.07,4.37,6.34,5.49L129.92,157.94z"/>
		<path d="M196.16,158.15v-9.29h5.7v9.29h15.84c-0.14,5.35-0.49,9.29-1.06,11.83c-0.71,3.38-1.69,6.41-2.96,9.08
			c-1.41,2.53-3.03,4.72-4.86,6.55c-1.83,1.83-4.51,3.8-8.03,5.91c-3.38,1.97-7.18,3.45-11.41,4.44c-1.13-2.53-2.04-4.3-2.75-5.28
			c4.79-1.12,8.24-2.18,10.35-3.17c2.67-1.27,5.14-2.89,7.39-4.86c1.97-1.83,3.73-4.36,5.28-7.6c1.27-2.96,1.9-7.04,1.9-12.25
			h-25.56v13.52h-5.28v-18.17H196.16z"/>
		<path d="M295.57,161.53l-4.44,4.01v30h-5.7v-25.56c-1.97,1.69-5.28,3.94-9.93,6.76c-4.22,2.4-7.47,4.09-9.72,5.07
			c-0.71-1.97-1.62-3.66-2.75-5.07c5.07-2.11,9.51-4.44,13.31-6.97c3.52-2.11,7.32-5,11.41-8.66c3.66-3.24,7.39-7.18,11.2-11.83
			l4.65,4.01L295.57,161.53z"/>
		<path d="M391.82,160.89c0.42,0.71,0.98,1.41,1.69,2.11c0.42,0.57,1.2,1.2,2.32,1.9c-4.65,5.63-8.24,9.58-10.77,11.83
			c-3.38,3.1-7.39,6.2-12.04,9.29c-4.79,2.96-10.28,5.84-16.48,8.66l-2.96-5.91c4.79-1.55,8.31-2.96,10.56-4.22
			c4.79-2.53,8.24-4.58,10.35-6.13c3.24-2.39,6.2-4.93,8.87-7.6C386.46,167.73,389.28,164.42,391.82,160.89z M369.85,161.11
			l-3.8,4.44c-3.1-2.81-5.21-4.65-6.34-5.49c-0.28-0.28-0.78-0.67-1.48-1.16c-0.71-0.49-1.48-1.02-2.32-1.58
			c-0.84-0.56-1.55-1.06-2.11-1.48l3.38-4.22c1.55,0.84,2.92,1.69,4.12,2.53c1.2,0.84,2.01,1.41,2.43,1.69
			C366.54,158.08,368.58,159.84,369.85,161.11z"/>
	</g>
</g>
</svg>
