<svg width="248" height="248" viewBox="0 0 248 248" fill="none" xmlns="http://www.w3.org/2000/svg">
<path fill-rule="evenodd" clip-rule="evenodd" d="M109.826 81.1562C109.593 81.2393 109.218 81.4469 108.993 81.6177C108.766 81.7906 108.465 82.184 108.315 82.5056C108.133 82.8948 108.045 83.2882 108.044 83.7119C108.043 84.1756 108.125 84.5016 108.354 84.9535C108.633 85.5017 108.845 85.695 110.364 86.7879C111.299 87.4599 112.157 88.0772 112.271 88.1598C112.431 88.275 112.453 88.3588 112.366 88.5206C112.273 88.6939 112.326 88.7924 112.667 89.075C112.896 89.2641 113.719 89.9254 114.498 90.5445C115.276 91.1638 116.728 92.2809 117.725 93.027C118.721 93.7732 119.881 94.6262 120.301 94.9227C120.721 95.2192 121.065 95.4996 121.065 95.5457C121.065 95.5918 120.823 95.8015 120.528 96.0119C120.232 96.2222 119.2 97.0004 118.234 97.7414C117.269 98.4822 115.766 99.6828 114.894 100.409C114.022 101.136 112.875 102.184 112.346 102.738C111.817 103.292 110.657 104.291 109.77 104.958C108.882 105.625 108.156 106.217 108.156 106.274C108.156 106.33 108.211 106.411 108.278 106.452C108.345 106.493 109.151 106.017 110.068 105.394C110.986 104.772 112.081 104.125 112.502 103.957C112.923 103.789 114.041 103.209 114.987 102.669C115.932 102.129 117.597 101.109 118.687 100.403C119.777 99.6964 121.247 98.7197 121.953 98.2323C122.659 97.745 123.299 97.3224 123.375 97.2934C123.451 97.2643 124.836 98.1225 126.454 99.2006C128.072 100.279 130.087 101.571 130.933 102.073C131.778 102.574 132.835 103.168 133.281 103.392C133.727 103.616 134.347 103.899 134.659 104.022C134.971 104.144 135.62 104.517 136.101 104.849C136.582 105.182 137.325 105.69 137.753 105.978C138.18 106.267 138.57 106.503 138.618 106.503C138.667 106.503 138.734 106.43 138.769 106.341C138.811 106.231 138.297 105.78 137.167 104.934C136.252 104.248 135.259 103.408 134.96 103.066C134.661 102.723 133.846 101.943 133.148 101.331C132.45 100.72 131.141 99.6357 130.238 98.9225C129.335 98.2093 127.968 97.1547 127.202 96.5791L125.808 95.5323L126.296 95.184C126.564 94.9924 127.956 93.9608 129.388 92.8915C130.821 91.8222 132.592 90.4585 133.325 89.8611C134.455 88.9389 134.647 88.7366 134.593 88.5221C134.537 88.3026 134.726 88.1292 136.034 87.2C136.862 86.6118 137.779 85.9101 138.072 85.6408C138.444 85.2999 138.663 84.9778 138.796 84.5813C138.925 84.1915 138.965 83.8188 138.922 83.401C138.886 83.0481 138.737 82.5834 138.571 82.3C138.412 82.0303 138.047 81.6542 137.759 81.464C137.471 81.2739 137.009 81.0845 136.732 81.0432C136.455 81.0018 136.015 81.0021 135.753 81.0438C135.491 81.0855 135.056 81.2485 134.787 81.4058C134.509 81.5684 134.154 81.917 133.966 82.2122C133.784 82.4983 133.635 82.8685 133.635 83.035C133.635 83.2014 133.709 83.3988 133.799 83.4737C133.89 83.5485 134.058 83.5799 134.173 83.5434C134.288 83.507 134.494 83.2483 134.631 82.9686C134.77 82.6826 135.04 82.3622 135.247 82.2359C135.45 82.1125 135.784 81.98 135.989 81.9414C136.226 81.8968 136.55 81.9424 136.873 82.0656C137.228 82.2008 137.475 82.397 137.683 82.7099C137.9 83.0379 137.981 83.3055 137.981 83.6973C137.981 84.0451 137.899 84.3637 137.749 84.6003C137.618 84.8066 136.733 85.5239 135.718 86.2464C134.073 87.4172 133.903 87.5119 133.728 87.3536C133.553 87.1959 133.446 87.2356 132.532 87.7991C131.98 88.1394 130.792 88.8967 129.892 89.482C128.991 90.0673 127.312 91.1988 126.16 91.9965C125.009 92.7941 123.927 93.5489 123.757 93.6739C123.476 93.8806 123.43 93.8853 123.247 93.7252C123.137 93.6286 122.283 93.0193 121.348 92.3711C120.414 91.7229 118.962 90.7351 118.121 90.1758C117.28 89.6167 115.892 88.719 115.037 88.181C114.181 87.643 113.432 87.2028 113.372 87.2028C113.312 87.2028 113.22 87.2804 113.166 87.3755C113.088 87.5158 112.729 87.3057 111.254 86.2548C110.255 85.5435 109.347 84.8216 109.234 84.6505C109.122 84.4795 109.006 84.1316 108.977 83.8773C108.947 83.6056 108.995 83.2479 109.095 83.01C109.188 82.7872 109.436 82.4753 109.645 82.3168C109.854 82.1582 110.165 81.9935 110.337 81.9509C110.509 81.9081 110.83 81.9071 111.051 81.9484C111.274 81.9902 111.653 82.203 111.9 82.4255C112.145 82.6465 112.346 82.892 112.346 82.971C112.346 83.05 112.442 83.2327 112.559 83.3769C112.747 83.6086 112.807 83.6236 113.069 83.5047C113.249 83.423 113.365 83.279 113.365 83.1376C113.365 83.0096 113.265 82.7092 113.143 82.4701C113.02 82.2309 112.715 81.8601 112.464 81.6461C112.213 81.4321 111.811 81.1982 111.57 81.1262C111.328 81.054 110.933 80.9974 110.691 81.0001C110.449 81.0028 110.06 81.073 109.826 81.1562ZM122.104 81.1159C121.835 81.1687 121.349 81.3334 121.024 81.4818C120.698 81.6301 120.241 81.9191 120.007 82.1238C119.773 82.3284 119.515 82.6281 119.433 82.7895C119.35 82.951 119.193 83.7829 119.082 84.6383C118.972 85.4936 118.839 86.2198 118.787 86.252C118.734 86.2843 118.445 86.2232 118.143 86.1163C117.841 86.0096 117.508 85.9549 117.404 85.995C117.299 86.0351 117.156 86.1941 117.085 86.3485C116.982 86.5745 116.993 86.685 117.145 86.9151C117.248 87.0724 117.591 87.3317 117.908 87.4914C118.224 87.6512 118.949 87.8844 119.519 88.0097C120.089 88.1351 121.218 88.2755 122.028 88.3217C122.838 88.3679 124.162 88.3659 124.972 88.3171C125.782 88.2685 126.805 88.1527 127.246 88.0599C127.687 87.967 128.332 87.785 128.68 87.6553C129.028 87.5255 129.445 87.3161 129.605 87.19C129.819 87.0227 129.898 86.8555 129.898 86.5714C129.898 86.2638 129.837 86.1547 129.61 86.0512C129.377 85.9456 129.212 85.9594 128.755 86.1234C128.443 86.2351 128.165 86.3028 128.136 86.2739C128.107 86.245 128.005 85.5915 127.91 84.8216C127.814 84.0517 127.659 83.2082 127.564 82.9474C127.469 82.6864 127.216 82.3185 127 82.1298C126.784 81.9409 126.407 81.6845 126.162 81.5597C125.916 81.4349 125.395 81.2575 125.004 81.1657C124.613 81.0737 123.91 81.0033 123.443 81.0091C122.976 81.015 122.374 81.0631 122.104 81.1159ZM17 131.672V144.426H19.0383H21.0766V138.218V132.011H28.7201H36.3636V138.218V144.426H38.3453H40.327V131.672V118.918H38.2887H36.2504V124.392V129.866H28.6635H21.0766V124.392V118.918H19.0383H17V131.672ZM58.1884 123.123C57.2798 125.435 55.0489 131.111 53.2308 135.735C51.4128 140.36 49.9005 144.208 49.8701 144.285C49.8276 144.393 50.1411 144.426 51.2172 144.426H52.6198L54.4171 139.658C55.4056 137.035 56.3639 134.495 56.5469 134.014L56.8795 133.139H60.6444H64.4092L66.6547 138.783L68.9002 144.426H71.3161C73.0388 144.426 73.7321 144.389 73.7321 144.298C73.7321 144.228 72.8698 142.082 71.816 139.53C70.7621 136.977 68.4382 131.359 66.6518 127.045C64.8652 122.73 63.3781 119.137 63.3468 119.059C63.3048 118.955 62.8392 118.918 61.5651 118.918H59.8404L58.1884 123.123ZM92.0025 119.046C91.6193 119.101 90.8144 119.27 90.214 119.422C89.6136 119.574 88.6774 119.894 88.1335 120.133C87.5896 120.372 86.7893 120.798 86.355 121.079C85.9207 121.361 85.2471 121.857 84.858 122.183C84.469 122.508 83.8181 123.189 83.4116 123.695C83.0052 124.202 82.4401 125.065 82.1561 125.613C81.8721 126.161 81.5166 126.97 81.366 127.411C81.2154 127.853 81.0188 128.624 80.929 129.125C80.8392 129.626 80.7343 130.391 80.6959 130.826C80.6576 131.26 80.6808 132.184 80.7476 132.879C80.8144 133.574 80.9975 134.64 81.1544 135.249C81.3171 135.88 81.7022 136.89 82.0494 137.598C82.4255 138.364 82.9553 139.206 83.4334 139.798C83.8594 140.325 84.6365 141.099 85.1602 141.517C85.684 141.936 86.5549 142.506 87.0953 142.784C87.6359 143.062 88.532 143.441 89.0866 143.625C89.6412 143.81 90.579 144.05 91.1707 144.159C91.9692 144.306 92.8154 144.355 94.4545 144.352C95.8943 144.348 97.1356 144.28 98.0215 144.155C98.7689 144.05 99.8645 143.842 100.456 143.693C101.048 143.544 101.736 143.351 101.985 143.264L102.438 143.106L102.469 141.352L102.5 139.598L101.506 140.585C100.731 141.356 100.326 141.661 99.6635 141.973C99.1964 142.194 98.4065 142.467 97.9083 142.58C97.2365 142.732 96.5782 142.782 95.3604 142.773C94.0813 142.763 93.5183 142.708 92.8126 142.522C92.3144 142.391 91.4226 142.046 90.8309 141.756C89.9196 141.309 89.5995 141.072 88.736 140.203C88.0514 139.514 87.5517 138.885 87.2136 138.287C86.9368 137.797 86.5467 136.908 86.3468 136.312C86.147 135.715 85.8956 134.701 85.7881 134.058C85.6321 133.124 85.605 132.467 85.6536 130.785C85.7042 129.031 85.7636 128.484 86.0102 127.496C86.1939 126.761 86.5286 125.861 86.8923 125.126C87.3855 124.129 87.6236 123.797 88.3904 123.035C89.0007 122.429 89.5649 121.993 90.0967 121.717C90.5337 121.49 91.2726 121.193 91.7387 121.057C92.4075 120.862 92.98 120.798 94.4545 120.756C96.0418 120.712 96.4934 120.739 97.4552 120.936C98.1421 121.078 98.9142 121.33 99.4179 121.578C99.9296 121.83 100.546 122.267 101.024 122.717C101.451 123.118 101.963 123.699 102.162 124.008C102.361 124.317 102.533 124.556 102.544 124.538C102.555 124.52 102.543 123.529 102.517 122.337L102.47 120.169L101.831 119.983C101.48 119.881 100.657 119.678 100.003 119.531C99.3492 119.385 98.2128 119.187 97.4779 119.092C96.7169 118.993 95.4004 118.924 94.4205 118.932C93.4738 118.94 92.3858 118.991 92.0025 119.046ZM115.63 131.672V144.426H117.725H119.82L119.827 138.924L119.835 133.422L120.909 132.531C121.51 132.032 122.024 131.684 122.075 131.74C122.126 131.796 124.295 134.305 126.895 137.316C129.496 140.326 131.952 143.158 132.354 143.608L133.085 144.426H135.624C137.021 144.426 138.164 144.387 138.164 144.339C138.164 144.292 135.21 140.851 131.598 136.693L125.032 129.133L125.512 128.681C125.776 128.433 128.403 126.135 131.35 123.574L136.709 118.918H135.125H133.54L130.898 121.162C129.445 122.396 126.396 124.988 124.123 126.922L119.99 130.439L119.96 124.679L119.931 118.918H117.78H115.63V131.672ZM148.242 131.672V144.426H157.018H165.794V143.354V142.282H159.17H152.545V137.259V132.237H157.981H163.416V131.221V130.205H157.981H152.545V125.521V120.837H159.17H165.794V119.878V118.918H157.018H148.242V131.672ZM176.099 119.878V120.837H180.628H185.158V132.632V144.426H187.309H189.461V132.632V120.837H194.047H198.633V119.878V118.918H187.366H176.099V119.878ZM207.466 119.876V120.834L212.024 120.864L216.581 120.893L216.61 132.66L216.639 144.426H218.733H220.828V132.632V120.837H225.414H230V119.878V118.918H218.733H207.466V119.876ZM62.1028 127.144C62.8936 129.184 63.5407 130.911 63.5407 130.981C63.5407 131.072 62.7196 131.108 60.672 131.108C59.0942 131.108 57.777 131.082 57.7448 131.05C57.7126 131.017 58.3283 129.291 59.1131 127.213C59.8978 125.134 60.568 123.434 60.6024 123.433C60.6367 123.433 61.3118 125.103 62.1028 127.144ZM80.9416 156.804C80.9 156.845 80.866 158.928 80.866 161.431V165.984H83.9801H87.0941V165.363V164.742H84.8293H82.5646V160.735V156.729H81.7908C81.3652 156.729 80.983 156.762 80.9416 156.804ZM98.4851 156.848C98.1796 156.899 97.6138 157.096 97.2276 157.285C96.8193 157.485 96.3024 157.868 95.9917 158.198C95.6981 158.511 95.3323 159.041 95.1787 159.375C95.0252 159.709 94.8433 160.301 94.7746 160.69C94.6809 161.22 94.6835 161.581 94.7851 162.131C94.8597 162.534 95.0579 163.145 95.2255 163.489C95.3932 163.832 95.7869 164.369 96.1005 164.682C96.4141 164.994 96.9746 165.402 97.3461 165.589C97.9931 165.913 98.0836 165.927 99.4936 165.927C100.914 165.927 100.992 165.915 101.729 165.567C102.179 165.355 102.728 164.971 103.066 164.635C103.408 164.294 103.783 163.757 103.994 163.307C104.276 162.708 104.359 162.361 104.398 161.628C104.434 160.952 104.394 160.544 104.25 160.1C104.142 159.766 103.901 159.252 103.714 158.956C103.527 158.66 103.145 158.216 102.864 157.97C102.583 157.723 102.087 157.396 101.763 157.243C101.438 157.09 100.846 156.912 100.446 156.848C100.047 156.783 99.5672 156.736 99.3804 156.743C99.1935 156.75 98.7906 156.797 98.4851 156.848ZM111.1 161.356V165.984H111.665H112.229L112.259 162.887L112.289 159.79L115.507 162.887C117.847 165.138 118.798 165.984 118.99 165.984H119.254V161.356V156.729H118.687H118.121V159.902V163.074L114.846 159.902C112.686 157.809 111.491 156.729 111.336 156.729C111.101 156.729 111.1 156.744 111.1 161.356ZM126.727 161.364V166L129.077 165.964L131.427 165.927L132.19 165.567C132.631 165.359 133.181 164.977 133.492 164.664C133.789 164.365 134.169 163.837 134.338 163.49C134.506 163.142 134.696 162.532 134.759 162.135C134.832 161.674 134.836 161.15 134.77 160.687C134.712 160.289 134.51 159.647 134.32 159.263C134.128 158.873 133.745 158.352 133.457 158.088C133.172 157.826 132.624 157.466 132.24 157.288C131.855 157.11 131.209 156.912 130.804 156.847C130.399 156.783 129.316 156.73 128.398 156.729L126.727 156.729V161.364ZM145.083 156.903C144.685 156.989 144.08 157.227 143.74 157.43C143.4 157.634 142.942 158.004 142.724 158.252C142.505 158.501 142.167 159.034 141.972 159.437C141.641 160.122 141.618 160.253 141.618 161.415C141.618 162.586 141.639 162.702 141.98 163.391C142.179 163.794 142.586 164.367 142.884 164.665C143.183 164.963 143.758 165.368 144.161 165.567C144.824 165.892 145.014 165.931 146.114 165.965C147.124 165.997 147.453 165.963 148.042 165.765C148.433 165.634 148.992 165.351 149.286 165.136C149.579 164.922 150.022 164.491 150.268 164.18C150.515 163.869 150.821 163.339 150.947 163.002C151.073 162.666 151.209 162.141 151.25 161.836C151.291 161.527 151.263 160.986 151.187 160.613C151.112 160.246 150.896 159.655 150.708 159.299C150.52 158.944 150.092 158.395 149.757 158.08C149.423 157.764 148.872 157.38 148.534 157.226C148.196 157.071 147.622 156.897 147.26 156.837C146.897 156.778 146.422 156.734 146.204 156.738C145.986 156.743 145.482 156.817 145.083 156.903ZM157.981 161.356V165.984H158.545H159.11L159.14 162.915L159.17 159.847L162.32 162.887C164.391 164.886 165.564 165.939 165.745 165.963L166.021 165.999V161.357V156.716L165.483 156.751L164.945 156.785L164.888 159.879L164.832 162.973L161.604 159.854C159.829 158.138 158.288 156.733 158.179 156.731C157.993 156.729 157.981 157.023 157.981 161.356ZM100.611 158.087C101.022 158.24 101.386 158.488 101.701 158.829C101.962 159.111 102.285 159.579 102.42 159.869C102.614 160.289 102.663 160.603 102.66 161.413C102.657 162.192 102.601 162.548 102.422 162.942C102.293 163.224 102.019 163.647 101.813 163.88C101.607 164.114 101.204 164.424 100.916 164.569C100.628 164.715 100.157 164.869 99.8691 164.912C99.5175 164.964 99.1458 164.932 98.7372 164.814C98.3962 164.715 97.9214 164.461 97.6574 164.235C97.3982 164.014 97.0453 163.547 96.8734 163.196C96.6253 162.691 96.5515 162.359 96.5159 161.591C96.4796 160.805 96.516 160.504 96.7093 159.993C96.8403 159.646 97.1307 159.15 97.3543 158.889C97.5781 158.629 97.9213 158.333 98.1171 158.232C98.3129 158.131 98.6007 158.01 98.7569 157.963C98.9129 157.915 99.2554 157.872 99.5176 157.867C99.78 157.862 100.272 157.961 100.611 158.087ZM130.998 158.192C131.339 158.339 131.798 158.669 132.085 158.976C132.391 159.301 132.664 159.742 132.793 160.12C132.912 160.469 133 161.028 132.996 161.413C132.991 161.785 132.93 162.296 132.86 162.548C132.789 162.8 132.578 163.238 132.389 163.521C132.201 163.805 131.843 164.171 131.593 164.336C131.344 164.5 130.836 164.712 130.465 164.807C130.095 164.902 129.497 164.964 129.137 164.945L128.482 164.911L128.453 161.369L128.423 157.826L129.415 157.882C130.09 157.921 130.596 158.02 130.998 158.192ZM147.645 158.18C147.904 158.312 148.296 158.604 148.516 158.829C148.735 159.055 149.031 159.474 149.173 159.762C149.39 160.2 149.431 160.466 149.431 161.413C149.431 162.417 149.398 162.604 149.13 163.11C148.964 163.423 148.599 163.89 148.318 164.148C147.975 164.463 147.597 164.679 147.169 164.803C146.734 164.929 146.357 164.963 145.979 164.912C145.675 164.87 145.155 164.675 144.825 164.478C144.396 164.223 144.12 163.946 143.86 163.513C143.66 163.179 143.437 162.622 143.365 162.275C143.291 161.922 143.264 161.342 143.303 160.963C143.345 160.554 143.51 160.005 143.718 159.583C143.908 159.196 144.25 158.728 144.478 158.54C144.707 158.352 145.099 158.123 145.351 158.03C145.632 157.926 146.07 157.876 146.491 157.901C146.893 157.924 147.367 158.039 147.645 158.18Z" fill="black"/>
</svg>
