<?xml version="1.0" encoding="utf-8"?>
<!-- Generator: Adobe Illustrator 21.1.0, SVG Export Plug-In . SVG Version: 6.00 Build 0)  -->
<svg version="1.1" id="Слой_1" xmlns="http://www.w3.org/2000/svg" xmlns:xlink="http://www.w3.org/1999/xlink" x="0px" y="0px"
	 width="400px" height="220px" viewBox="0 0 400 220" style="enable-background:new 0 0 400 220;" xml:space="preserve">
<path d="M47,189h3.8v10.1H60V189h3.8v23.2H60v-10.1h-9.2v10.1H47V189z M76.8,189h15v3.2H80.4l0.3,6.8h9.6v3h-9.7l0.1,7.1h11.3v3
	H76.8L76.8,189z M103.7,189h3.8v20.2h10.9v3h-14.7V189z M129.8,189h3.4v20.2h11.3v3h-14.7V189z M157.1,203l-7.1-14h4l4.8,10.2
	l4.8-10.2h4l-7.1,14v9.2h-3.4V203z M192.8,189h3.8l-0.2,10h9.3v-10h3.8v23.2h-3.8v-10.1h-9.3l-0.1,10.1h-3.6L192.8,189z M228.3,189
	h3l8.4,23.2h-3.8l-1.3-4.1H225l-1.4,4.1h-3.9L228.3,189z M233.1,204.2l-3.4-9.1l-3.4,9.2L233.1,204.2z M250,212.2
	c-0.3-7.7,0-15.5,0-23.2h3.5l10.5,16v-16h3.9v23.2h-3.4l-11-16.3v16.3H250z M282.9,212.1c-1.3-0.4-4-2.1-4-2.5
	c0.6-0.9,1.3-1.4,2.1-2.2c2.6,1.6,7.3,2.7,9.5,1.2c3.4-3.4,0.7-5.9-3.1-6.3c-5.1-0.6-7.7-2.8-7.7-6.4c0-3.7,1.8-5.9,5.6-6.8
	c4-0.4,6.5,0.3,9.6,2.2l-2.3,2.4c-2.7-1.5-6.3-2.4-8.3-0.4c-3.3,3.5,1.2,5.3,3.8,5.8c4.4,0.8,5.7,1.5,6.8,3.9
	c1.7,3.5,0.4,7.2-3.2,8.9C289.9,212.6,285.4,212.8,282.9,212.1L282.9,212.1z M307.5,189h15v3.2h-11.6v6.7h10v3.1h-10v7.1h11.7v3
	h-15.1V189z M334.4,189h3.3l10.6,16v-16h3.8v23.2h-3.3L337.9,196l-0.2,16.2h-3.4V189z M47,7h54.2l0.2,56.5l51.9,0.2V7l52.1,0.2
	l-31.4,161l-0.2,1h-20.9v-55.5h-51.7v55.5H47L47,7z M194,168.6L225.1,7.3L235.6,7h10.5v55.5h51.7V7H352v162.2h-54.2v-56.7h-51.7
	v56.7L194,168.6z"/>
</svg>
