<?xml version="1.0" encoding="utf-8"?>
<!-- Generator: Adobe Illustrator 24.3.0, SVG Export Plug-In . SVG Version: 6.00 Build 0)  -->
<svg version="1.1" id="Слой_1" xmlns="http://www.w3.org/2000/svg" xmlns:xlink="http://www.w3.org/1999/xlink" x="0px" y="0px"
	 viewBox="0 0 400 220" style="enable-background:new 0 0 400 220;" xml:space="preserve">
<style type="text/css">
	.st0{fill-rule:evenodd;clip-rule:evenodd;}
</style>
<g>
	<path class="st0" d="M173.6,77.1c-15.7,3.3-25.9,16.1-25.9,32.8c0,19.5,13.9,33.7,33.2,33.7c6.9,0,13.5-1.9,19.1-5.6
		c2.5-1.6,6.4-5.5,8.1-8c7.4-10.7,7.9-26.9,1.3-37.9c-4.8-8-12.8-13.4-22.2-15C183.7,76.3,177,76.4,173.6,77.1z M15.7,109.8v31h6.4
		h6.4l0-21.6c0-18.4,0.1-21.5,0.4-20.6c0.4,1.1,5.2,14.6,11.2,31.9c1.8,5.1,3.3,9.5,3.5,9.8c0.2,0.5,0.7,0.5,5.5,0.5h5.3l5.9-17.1
		c3.3-9.4,6.7-19.3,7.6-21.9l1.7-4.8l0.1,21.9l0.1,21.9h6.4h6.4l-0.1-30.9L82.6,79l-9.5-0.1c-8.8-0.1-9.5,0-9.8,0.4
		c-0.2,0.3-2,6-4.2,12.6c-2.1,6.7-5.2,16-6.7,20.7c-1.5,4.7-2.9,8.6-2.9,8.6c-0.1,0-1-2.5-2.1-5.6c-1-3.1-4.3-12.6-7.2-21.2L35,79
		l-9.6-0.1l-9.6-0.1V109.8z M111.1,79.4c-0.1,0.3-5.4,14.1-11.7,30.7c-6.3,16.6-11.6,30.3-11.7,30.4c-0.1,0.1,3,0.2,6.9,0.2h7
		l2.4-6.8l2.4-6.8h11.6h11.6l2.3,6.7l2.3,6.7l7.1,0.1c5.6,0.1,7.1,0,7-0.3c-0.1-0.2-5.3-14.1-11.6-31l-11.5-30.6h-7
		C111.9,78.9,111.2,78.9,111.1,79.4z M221.3,109.8v31h6.7h6.7v-9.7c0-11.3-0.5-9.7,4.7-14.7c2.5-2.4,3.4-3.1,3.6-2.8
		c0.2,0.2,4.2,6.2,9,13.4c4.8,7.2,8.9,13.2,9.1,13.4c0.3,0.3,2.3,0.4,8.8,0.3l8.4-0.1l-3.1-4.3c-6-8.4-20.8-29.2-22.1-31.1l-1.3-1.9
		l12-12c6.6-6.6,12-12.1,12-12.3c0-0.1-3.7-0.2-8.3-0.2h-8.3l-2.7,2.8c-1.5,1.5-6.2,6.5-10.5,11c-10.9,11.6-11,11.7-11.3,11.7
		c-0.1,0-0.2-5.7-0.2-12.6l0-12.6l-6.7-0.1l-6.7-0.1V109.8z M283.8,79.1c-0.1,0.1-0.2,14-0.2,31v30.8h23.6h23.6v-5.7v-5.7h-16.8
		h-16.8v-7.6v-7.6h15.1h15.1v-5.2v-5.2h-15.1h-15.1v-6.6v-6.6l16.4-0.1l16.4-0.1v-5.7V79L307,78.9C294.3,78.9,283.9,79,283.8,79.1z
		 M333.4,79.3c-0.1,0.2-0.1,2.8-0.1,5.8l0.1,5.4l9.4,0.1l9.4,0.1v25.1v25.1h6.7h6.7v-25.1V90.6l9.4-0.1l9.4-0.1v-5.7V79l-25.4-0.1
		C338.4,78.9,333.5,78.9,333.4,79.3z M187.3,84.8c6.9,1.8,12.6,6.5,15.8,13c2,4.1,2.4,5.8,2.6,10.8c0.2,4.7-0.3,7.7-1.6,11.2
		c-3.1,7.9-9.9,13.8-17.8,15.5c-3.2,0.7-8.5,0.6-11.4-0.2c-12.3-3.2-20.1-15-18.7-28.3c1.1-10.5,7.8-18.8,17.3-21.7
		c1.2-0.4,2.9-0.8,3.7-0.9C179.5,83.9,184.7,84.2,187.3,84.8z M168.1,109.8v18.4h3.7h3.7l0.1-7.9l0.1-7.9l2.4-0.1l2.4-0.1l3.6,7.9
		l3.6,7.9l3.8,0c2.1,0,3.8-0.1,3.8-0.2c0-0.1-1.6-3.6-3.6-7.8c-2-4.2-3.6-7.7-3.6-7.9s0.5-0.3,1.1-0.4c0.8-0.1,1.6-0.7,2.7-1.8
		c2.2-2.2,2.9-4.6,2.8-8.8c-0.2-4.8-1.9-7.5-5.8-9.1c-1.7-0.7-2.1-0.7-11.3-0.8l-9.5-0.1V109.8z M122,105.3c2,6,3.8,11,3.8,11.2
		c0.1,0.3-1.6,0.4-7.9,0.4c-6.3,0-8-0.1-7.9-0.4c0.1-0.2,1.9-5.3,4-11.2c2.1-6,3.9-10.8,4-10.8C118.2,94.4,119.9,99.3,122,105.3z
		 M185.3,97.8c1.5,0.8,2,1.9,2,4c0,2-0.5,2.9-2.1,4.1c-0.7,0.6-1.3,0.6-5.6,0.7l-4.8,0.1v-4.8v-4.8l4.7,0.1
		C183.4,97.3,184.6,97.4,185.3,97.8z"/>
</g>
</svg>
