<?xml version="1.0" encoding="utf-8"?>
<!-- Generator: Adobe Illustrator 21.0.1, SVG Export Plug-In . SVG Version: 6.00 Build 0)  -->
<svg version="1.1" id="Master_Piece" xmlns="http://www.w3.org/2000/svg" xmlns:xlink="http://www.w3.org/1999/xlink" x="0px"
	 y="0px" viewBox="0 0 400 220" style="enable-background:new 0 0 400 220;" xml:space="preserve">
<title>Master Piece</title>
<g>
	<g>
		<path d="M93.5,173.4L93,175l0.1,0.1c0.8-0.6,2.8-2,5.7-2c1.5,0,4.1,0.2,4.7,2.4c1.2-1.3,3.6-2.4,6.5-2.4c3.2,0,4.7,1.5,4.7,3.2
			c0,0.7-0.2,1.6-0.4,2.5l-2.4,8.5h-5l2.3-8.5c0.1-0.1,0.1-0.3,0.2-0.6c0.2-0.6,0.3-0.9,0.3-1.2c0-0.5-0.3-1.3-1.9-1.3
			c-1.3,0-2.5,0.7-3.4,1.5c-1,1.1-1.5,2.7-1.7,3.7l-1.7,6.3h-5l2.4-8.6c0.2-0.9,0.3-1.2,0.3-1.6c0-0.8-0.8-1.3-1.8-1.3
			c-1.5,0-2.8,0.9-3.4,1.5c-0.9,0.9-1.2,2-1.7,3.6l-1.8,6.4h-5l3.9-13.9h4.6V173.4z"/>
		<path d="M123.2,177.3c0.4-1.2,1.7-1.6,3.2-1.6c1.3,0,2.6,0.4,2.6,1.4c0,0.5-0.2,1-0.3,1.2c-1,0.3-2.8,0.4-4.8,0.5
			c-2.4,0.1-7.5,0.5-7.5,4.6c0,2.5,2.5,4,5.3,4c1.6,0,3.7-0.5,5.4-1.9c0.1,0.7,0.1,0.9,0.4,1.6h4.8c-0.2-0.7-0.4-1.2-0.4-2
			s0.2-1.7,0.5-2.6c0-0.3,0.4-1.4,0.5-1.6c0.7-2.4,1-3.2,1-4.2c0-0.8-0.5-3.7-7-3.7c-3.3,0-7,0.8-8.4,3.9L123.2,177.3z M127.9,181.3
			c-0.3,1.1-1,3.5-4.5,3.5c-1.6,0-2.3-0.8-2.3-1.6c0-1.6,2.7-2,5.7-2.3c0.7-0.1,0.8-0.1,1.2-0.2L127.9,181.3z"/>
		<path d="M139.7,182.8c0.6,1.1,1.5,2.2,4.2,2.2c1.8,0,3.4-0.7,3.4-1.6c0-0.7-0.4-0.8-3.8-1.7c-3.1-0.8-5.9-1.5-5.9-4.1
			c0-2.3,2.7-4.5,8.4-4.5c2.6,0,6.7,0.4,7.7,3.6l-4.6,0.6c-0.8-1.7-3.3-1.7-3.8-1.7c-2.1,0-2.9,0.6-2.9,1.3c0,0.8,0.9,1.1,3.5,1.6
			c2.7,0.6,6.6,1.4,6.6,4.2c0,1.9-1.9,4.9-8.4,4.9c-4.7,0-8-1.2-9.2-4.2L139.7,182.8z"/>
		<path d="M156.9,173.4h2.4l0.6-2.2l5.7-2.6l-1.3,4.8h3l-0.7,2.7h-3.1l-1.6,5.9c-0.1,0-0.1,0.3-0.2,0.5c-0.2,0.7-0.2,1-0.2,1.3
			c0,0.9,1.1,0.9,1.6,0.9c0.3,0,1.5-0.1,1.7-0.1l-0.8,2.8c-0.9,0.1-1.6,0.2-2.6,0.2c-2.5,0-5.1-0.5-5.1-2.9c0-0.7,0.2-1.2,0.6-3
			l1.6-5.6h-2.4L156.9,173.4z"/>
		<path d="M172.3,179.2c0.4-1.3,1.6-3.5,4.5-3.5c2.6,0,3.5,1.6,3.4,3.5H172.3z M184.3,181.5c0.3-0.9,0.3-2.1,0.3-2.4
			c0-2.6-1.5-6-7.4-6c-7.3,0-10.3,4.6-10.3,8c0,3.7,3.2,6.5,8.3,6.5c2.5,0,6.2-0.7,8.4-4l-4.5-0.6c-0.3,0.4-1.4,1.9-3.9,1.9
			c-2.1,0-3.8-1.3-3.6-3.4H184.3z"/>
		<path d="M194,173.4l-0.7,2.6l0.1,0.1c1.3-1.5,3.1-3,5.6-3c1.1,0,1.8,0.2,2.3,0.4l-1.9,3.1c-0.3-0.1-0.7-0.2-1.4-0.2
			c-2.2,0-3.6,1.4-3.9,1.7c-1.2,1.2-1.7,3.1-2.3,4.8l-1.2,4.3h-5l3.8-13.9L194,173.4L194,173.4z"/>
		<path d="M219.2,178.5l-1,3.6h-9.6l1-3.6H219.2z"/>
		<path d="M244.7,179c0,2.4-1.8,5.7-5,5.7c-2.1,0-3.6-1.5-3.6-3.2c0-2,1.4-5.6,5.1-5.6C243.5,175.9,244.7,177.3,244.7,179z
			 M233.2,173.4l-5.3,19.1h4.9l2-7.2c0.4,0.5,1.9,2.2,5.6,2.2c5.5,0,9.1-4.3,9.1-8.7c0-3.7-2.5-5.8-6.4-5.8c-3,0-4.7,1-5.7,1.8
			l-0.1-0.1l0.4-1.4L233.2,173.4L233.2,173.4z"/>
		<path d="M259.7,173.4l-3.9,13.9h-5l3.8-13.9H259.7z M261.2,168.1l-1,3.4h-5l1-3.4H261.2z"/>
		<path d="M266.3,179.2c0.4-1.3,1.5-3.5,4.4-3.5c2.6,0,3.5,1.6,3.4,3.5H266.3z M278.4,181.5c0.3-0.9,0.3-2.1,0.3-2.4
			c0-2.6-1.5-6-7.3-6c-7.3,0-10.3,4.6-10.3,8c0,3.7,3.2,6.5,8.3,6.5c2.6,0,6.2-0.7,8.4-4l-4.5-0.6c-0.3,0.4-1.4,1.9-3.9,1.9
			c-2.1,0-3.7-1.3-3.6-3.4H278.4z"/>
		<path d="M297.1,182.6c-1.5,3-4.5,4.9-9,4.9c-5.6,0-7.6-3.1-7.6-5.9c0-4.8,4.2-8.6,10.5-8.6c5,0,7.1,2.3,7.4,4.6l-4.8,0.4
			c-0.1-0.5-0.4-2.2-3-2.2c-3.9,0-5.3,4-5.3,6.2c0,1.8,1.4,2.5,2.8,2.5c0.9,0,3-0.4,4-2.6L297.1,182.6z"/>
		<path d="M305.1,179.2c0.3-1.3,1.6-3.5,4.4-3.5c2.6,0,3.5,1.6,3.4,3.5H305.1z M317.1,181.5c0.3-0.9,0.3-2.1,0.3-2.4
			c0-2.6-1.5-6-7.3-6c-7.3,0-10.3,4.6-10.3,8c0,3.7,3.2,6.5,8.3,6.5c2.6,0,6.2-0.7,8.4-4L312,183c-0.3,0.4-1.4,1.9-3.9,1.9
			c-2.1,0-3.7-1.3-3.6-3.4H317.1z"/>
		<path d="M147.4,198.1c2.1,0,3,0,3.7,0.3c0.6,0.2,0.8,0.5,0.8,0.7c0,1-2.4,1-4.3,1h-1.9V198h1.7V198.1z M142.1,204.1h3.5v-2.7h2.3
			c1.6,0,3.5,0,4.7-0.3c1.1-0.2,2.9-0.8,2.9-2s-1.7-1.8-2.8-2c-0.9-0.2-1.9-0.2-5-0.2h-5.6L142.1,204.1L142.1,204.1z"/>
		<path d="M157.9,196.9h7.4c2.6,0,3.5,0.1,4,0.2c2,0.3,2.8,1.1,2.8,1.8c0,0.8-1,1.5-2.6,1.8c-0.6,0.1-1.3,0.2-2,0.2l0,0
			c1.5,0.3,2.2,0.6,3.9,1.8l2.1,1.4h-4.2l-2.5-1.6c-2.1-1.3-2.4-1.4-4.7-1.4h-0.7v3h-3.5V196.9z M161.4,200h2.6c1.1,0,2.6,0,3.2-0.1
			c1.2-0.2,1.4-0.6,1.4-0.8c0-0.3-0.2-0.6-0.9-0.7c-0.6-0.2-1.1-0.2-3.5-0.2h-2.8V200z"/>
		<path d="M182.2,196.8c5.7,0,8.5,1.6,8.5,3.7c0,1.9-2.3,3.7-8.4,3.7c-6.6,0-8.5-2-8.5-3.7C173.7,198.2,176.8,196.8,182.2,196.8z
			 M178.2,202.1c0.6,0.4,1.8,0.9,4,0.9c1.8,0,4.8-0.4,4.8-2.5c0-0.8-0.5-2.4-4.8-2.4c-4,0-4.9,1.4-4.9,2.5
			C177.4,201.3,177.8,201.8,178.2,202.1z"/>
		<path d="M199.4,196.9c2,0,4.8,0,6.7,1.2c0.6,0.4,1.5,1.1,1.5,2.4c0,0.4,0,1.7-2.2,2.7c-1.8,0.8-4.7,0.8-5.8,0.8H193v-7.2h6.4
			V196.9z M196.5,198.1v4.8h2.6c2.7,0,4.9-0.1,4.9-2.4c0-2.4-2.5-2.4-5.9-2.4L196.5,198.1L196.5,198.1z"/>
		<path d="M213.6,196.9v3.9c0,0.9,0,1.2,0.4,1.5c0.6,0.5,2,0.6,3.1,0.6c3.4,0,3.4-0.9,3.4-2.1v-4h3.5v3.8c0,1.3-0.1,2-1,2.5
			c-1.3,0.9-3.9,1-5.8,1c-7.2,0-7.2-1.8-7.2-3.5v-3.8h3.6V196.9z"/>
		<path d="M238.4,201.4c-0.4,0.8-1.5,1.5-3.9,1.5c-1.6,0-2.7-0.3-3.4-0.7c-0.7-0.5-0.9-1.1-0.9-1.8c0-0.5,0-2.4,4.4-2.4
			c1.8,0,3.3,0.4,3.7,1.2l3.5-0.3c-0.3-0.5-0.8-0.9-1.7-1.3c-1.9-0.8-4.4-0.8-5.4-0.8c-5.7,0-8.2,1.8-8.2,3.8c0,2.2,3.2,3.7,8,3.7
			c5.7,0,6.9-1.8,7.3-2.3L238.4,201.4z"/>
		<path d="M248.2,198.1H243v-1.2h13.9v1.2h-5.2v6h-3.5V198.1z"/>
		<g>
			<path d="M131.4,110.7c-3.3-1.2-5.3,0.2-5.3,0.2s-22.3,12.7-24.6,12.7c-2.3,0-22-11.1-22-11.1s-4-2.4-6.3-1.9
				c-3.2,0.8-2.9,3.1-2.9,3.1c0,3.1,0,11.4,0,32.3c0,0,0.2,1.1,0.6,1.4c0.9,0.8,2,0.6,3.1,0.6c0.9,0,4.1,0.2,4.7-0.3
				c0.8-0.7,0.7-1.8,0.7-1.8v-22.1v-4.5c0,0-0.2-1.2,0.5-1.8c0.5-0.3,1.7,0.3,1.7,0.3l9.6,4.9c0,0,9,4.3,10.4,4.3
				c1.8-0.1,9.8-4.3,9.8-4.3l10.3-5.4c0,0,2.4-1.3,2.8-0.9c0.6,0.6,0.3,2.4,0.3,2.4l0.1,5.6l-0.1,21.6c0,0,0,1,1,1.6
				c0.7,0.5,3.6,0.4,4.7,0.4c1.2,0,2.5-0.1,3.1-0.6c0.4-0.3,0.4-2.3,0.4-2.3v-30.9C133.8,114.1,133.8,111.6,131.4,110.7z"/>
			<path d="M327.2,144.2h-44.4c0,0-4.3,0.3-6.1-0.9c-3.3-2.1-3.2-10.9-3.2-14.5c0-5.6,0.2-13,2.2-15.3c0.8-0.9,3.1-0.9,5.7-0.9h43.4
				c0,0,1.7,0,2.7-0.1c0.9-0.1,0.9-0.6,0.8-1.8c-0.1-1.7-1.4-1.4-1.4-1.4l-51,0.1c0,0-2.2,0.2-2.5,0.3c-3.5,0.5-6.2,3.5-7.5,7
				c-0.6,1.5-1.3,6.8-1.4,11.6c-0.1,5.3,0.8,11.5,1.7,13.5c1.9,3.8,4.5,5.4,8,5.7c0.2,0,1.7,0.1,1.7,0.1l51.3-0.1c0,0,1.1,0.1,1-1.8
				C328.3,143.8,327.2,144.2,327.2,144.2z"/>
			<path d="M263.5,116.1c0,0-0.2-2.9-1.6-4.4c-1.6-1.8-4.8-1.5-4.8-1.5h-57.8h-0.2h-59c0,0-2.3-0.2-3.3,1.3
				c-0.9,1.4-0.9,2.9-0.9,2.9v12.1c0,0,0,2.5,0.9,3.5c1,1,2.7,0.8,2.7,0.8h28l0,0H186c0,0,2.4-0.2,3.2,0.8s0.8,3.1,0.8,3.1v6.5
				c0,0,0.1,2-0.9,3c-1,1.1-3.5,0.8-3.5,0.8h-49.7v0.1c-0.3,0-0.6,0.3-0.6,0.8v1.5c0,0.4,0.3,0.7,0.6,0.7l0,0H195
				c0,0,2.3,0.2,3.3-1.2c0.9-1.5,0.9-2.9,0.9-2.9v-12.1c0,0,0-2.5-0.9-3.6c-1-1-2.7-0.8-2.7-0.8h-28.1l0,0h-18.8
				c0,0-2.1,0.2-2.9-0.8c-0.7-1.1-0.7-3.1-0.7-3.1V117c0,0-0.2-2.1,0.7-3.1c1-1,4.1-0.9,4.1-0.9H199l0,0h49c0,0,3.3-0.2,4.8,1.7
				c1.5,1.9,1.2,3,1.2,3v3.3c0,0,0.6,2.9-1.2,4.6c-1.7,1.7-5,1.2-5,1.2h-34.2c0,0-3.1-0.2-4.6,1c-1.5,1.1-2.6,3.1-2.6,3.1l-7.5,17.4
				h8.8l5.9-14.2c0,0,0.7-2.3,2-3.5c1.3-1.1,5.6-0.9,5.6-0.9h35.9c0,0,2.9,0,4.6-1.7s1.6-5.6,1.6-5.6v-6.3H263.5z"/>
		</g>
	</g>
	<path d="M328.1,189.8c-7.1,0-12.9,5.8-12.9,12.9c0,7.1,5.8,12.8,12.9,12.8s12.9-5.8,12.9-12.8C341,195.6,335.3,189.8,328.1,189.8z
		 M328.1,213.2c-5.8,0-10.5-4.7-10.5-10.5s4.7-10.5,10.5-10.5s10.5,4.7,10.5,10.5S333.9,213.2,328.1,213.2z"/>
	<path d="M325.4,208.5v-5.1h0.5c0.6,0,1,0,1.2,0.1s0.5,0.3,0.7,0.5s0.7,0.9,1.3,1.8l1.8,2.7h2.9l-1.5-2.4c-0.6-0.9-1.1-1.6-1.4-2
		s-0.8-0.7-1.3-1c1-0.2,1.9-0.5,2.4-1.1s0.8-1.3,0.8-2.3c0-0.7-0.2-1.4-0.5-1.9c-0.4-0.6-0.8-0.9-1.4-1.2c-0.6-0.2-1.5-0.3-2.9-0.3
		h-5v12.2H325.4z M325.4,198.4h1.9c1,0,1.6,0,1.8,0c0.4,0.1,0.7,0.2,0.9,0.5c0.2,0.2,0.3,0.6,0.3,1s-0.1,0.7-0.2,0.9
		c-0.2,0.3-0.4,0.4-0.7,0.5c-0.3,0.1-1,0.1-2.2,0.1h-1.8L325.4,198.4L325.4,198.4z"/>
	<path d="M340.9,156.2c0,0.6-0.5,1.2-1,1.2H60c-0.6,0-1-0.5-1-1.2l0,0c0-0.6,0.5-1.2,1-1.2h279.9C340.4,155,340.9,155.5,340.9,156.2
		L340.9,156.2z"/>
	<path d="M340.9,163c0,0.5-0.5,0.9-1,0.9H60c-0.6,0-1-0.4-1-0.9l0,0c0-0.5,0.5-0.9,1-0.9h279.9C340.4,162.2,340.9,162.5,340.9,163
		L340.9,163z"/>
	<g>
		<path d="M195.7,38.2l-2,8.4c4.2-0.5,1.8,6.3,1.8,6.3L191.7,68l12.6-0.1l3.9-18.4C209.4,42.9,210.5,37.2,195.7,38.2z"/>
		<path d="M210.9,38.2l-1.3,8.5c3-0.4,1.2,6.3,1.2,6.3L207,68l12.6-0.1l3.9-18.4C224.6,42.9,225.8,37.2,210.9,38.2z"/>
		<path d="M193.8,30.5c-2.7-0.1-6.9,0-9.8,1.7c-1.5,0.9-3.4,8.4-5.4,15.9c-2.5,9.6-5.1,19.5-5.1,19.5l13.8,0.1l8-32.2h32.1l0.8-4.9
			L193.8,30.5z"/>
	</g>
	<path d="M200.2,4.5c-25,0-45.2,20.3-45.2,45.2c0,25,20.3,45.2,45.2,45.2c25,0,45.2-20.3,45.2-45.2C245.4,24.7,225.2,4.5,200.2,4.5z
		 M200.2,92.5c-23.6,0-42.8-19.2-42.8-42.8s19.2-42.8,42.8-42.8S243,26.1,243,49.7S223.8,92.5,200.2,92.5z"/>
	<path d="M200.2,11c-21.4,0-38.7,17.3-38.7,38.7s17.3,38.7,38.7,38.7s38.7-17.3,38.7-38.7S221.6,11,200.2,11z M200.2,85.1
		c-19.6,0-35.4-15.9-35.4-35.4s15.9-35.4,35.4-35.4c19.6,0,35.4,15.9,35.4,35.4S219.8,85.1,200.2,85.1z"/>
</g>
</svg>
