<?xml version="1.0" encoding="utf-8"?>
<!-- Generator: Adobe Illustrator 21.0.1, SVG Export Plug-In . SVG Version: 6.00 Build 0)  -->
<svg version="1.1" id="Слой_1" xmlns="http://www.w3.org/2000/svg" xmlns:xlink="http://www.w3.org/1999/xlink" x="0px" y="0px"
	 viewBox="0 0 400 220" style="enable-background:new 0 0 400 220;" xml:space="preserve">
<g>
	<path d="M234,41.7l-0.4-0.2l-0.7-0.3l-1.8-0.7l-0.4,1L221.5,63l1.7,0.7l1.1,0.5c2.2,0.9,4.4,1.5,6.6,1.5h0.2
		c4.2,0,8.2-2.4,10.1-7.2c0.9-2.1,1.3-4.1,1.4-5.9C242.7,47.5,239.1,43.8,234,41.7z M237.7,57c-1.7,3.7-3.8,4.8-6.8,4.9
		c-1.4,0-2.9-0.3-4.5-0.9l6.6-15.5c4,1.8,5.7,4.1,5.7,7.1C238.7,53.8,238.4,55.3,237.7,57z M234,41.7l-0.4-0.2l-0.7-0.3l-1.8-0.7
		l-0.4,1L221.5,63l1.7,0.7l1.1,0.5c2.2,0.9,4.4,1.5,6.6,1.5h0.2c4.2,0,8.2-2.4,10.1-7.2c0.9-2.1,1.3-4.1,1.4-5.9
		C242.7,47.5,239.1,43.8,234,41.7z M237.7,57c-1.7,3.7-3.8,4.8-6.8,4.9c-1.4,0-2.9-0.3-4.5-0.9l6.6-15.5c4,1.8,5.7,4.1,5.7,7.1
		C238.7,53.8,238.4,55.3,237.7,57z M234,41.7l-0.4-0.2l-0.7-0.3l-1.8-0.7l-0.4,1L221.5,63l1.7,0.7l1.1,0.5c2.2,0.9,4.4,1.5,6.6,1.5
		h0.2c4.2,0,8.2-2.4,10.1-7.2c0.9-2.1,1.3-4.1,1.4-5.9C242.7,47.5,239.1,43.8,234,41.7z M237.7,57c-1.7,3.7-3.8,4.8-6.8,4.9
		c-1.4,0-2.9-0.3-4.5-0.9l6.6-15.5c4,1.8,5.7,4.1,5.7,7.1C238.7,53.8,238.4,55.3,237.7,57z M234,41.7l-0.4-0.2l-0.7-0.3l-1.8-0.7
		l-0.4,1L221.5,63l1.7,0.7l1.1,0.5c2.2,0.9,4.4,1.5,6.6,1.5h0.2c4.2,0,8.2-2.4,10.1-7.2c0.9-2.1,1.3-4.1,1.4-5.9
		C242.7,47.5,239.1,43.8,234,41.7z M237.7,57c-1.7,3.7-3.8,4.8-6.8,4.9c-1.4,0-2.9-0.3-4.5-0.9l6.6-15.5c4,1.8,5.7,4.1,5.7,7.1
		C238.7,53.8,238.4,55.3,237.7,57z M210.8,95.9c-1.7-1.9-4.2-3.1-7.2-3.1c-2.9,0-5.5,1.2-7.2,3.1c-1.8,1.9-2.7,4.4-2.7,7.1
		c0,2.9,1,5.5,2.8,7.3c0.9,1,2,1.7,3.2,2.2c1.2,0.5,2.5,0.7,3.9,0.7c2.8,0,5.4-1.1,7.1-2.9c1.7-1.8,2.7-4.4,2.8-7.3
		C213.5,100.3,212.5,97.8,210.8,95.9z M203.6,109.3c-3.7-0.1-6-2.3-6.1-6.3c0.1-3.7,2.3-6.4,6.1-6.4s6,2.7,6.1,6.4
		C209.6,107,207.4,109.2,203.6,109.3z M234,41.7l-0.4-0.2l-0.7-0.3l-1.8-0.7l-0.4,1L221.5,63l1.7,0.7l1.1,0.5
		c2.2,0.9,4.4,1.5,6.6,1.5h0.2c4.2,0,8.2-2.4,10.1-7.2c0.9-2.1,1.3-4.1,1.4-5.9C242.7,47.5,239.1,43.8,234,41.7z M237.7,57
		c-1.7,3.7-3.8,4.8-6.8,4.9c-1.4,0-2.9-0.3-4.5-0.9l6.6-15.5c4,1.8,5.7,4.1,5.7,7.1C238.7,53.8,238.4,55.3,237.7,57z M210.8,95.9
		c-1.7-1.9-4.2-3.1-7.2-3.1c-2.9,0-5.5,1.2-7.2,3.1c-1.8,1.9-2.7,4.4-2.7,7.1c0,2.9,1,5.5,2.8,7.3c0.9,1,2,1.7,3.2,2.2
		c1.2,0.5,2.5,0.7,3.9,0.7c2.8,0,5.4-1.1,7.1-2.9c1.7-1.8,2.7-4.4,2.8-7.3C213.5,100.3,212.5,97.8,210.8,95.9z M203.6,109.3
		c-3.7-0.1-6-2.3-6.1-6.3c0.1-3.7,2.3-6.4,6.1-6.4s6,2.7,6.1,6.4C209.6,107,207.4,109.2,203.6,109.3z M234,41.7l-0.4-0.2l-0.7-0.3
		l-1.8-0.7l-0.4,1L221.5,63l1.7,0.7l1.1,0.5c2.2,0.9,4.4,1.5,6.6,1.5h0.2c4.2,0,8.2-2.4,10.1-7.2c0.9-2.1,1.3-4.1,1.4-5.9
		C242.7,47.5,239.1,43.8,234,41.7z M237.7,57c-1.7,3.7-3.8,4.8-6.8,4.9c-1.4,0-2.9-0.3-4.5-0.9l6.6-15.5c4,1.8,5.7,4.1,5.7,7.1
		C238.7,53.8,238.4,55.3,237.7,57z M199.3,171.7v-0.5c0.1-7-4.8-13.3-12.6-13.5h-0.5c-7.8-0.1-12.9,6.1-13.1,13.1v0.6
		c-0.1,5.1,2.4,9.4,6.4,11.6c1.9,1.1,4,1.7,6.3,1.7h0.8c2.3,0,4.5-0.6,6.4-1.7C196.8,180.8,199.3,176.7,199.3,171.7L199.3,171.7z
		 M195.7,171.5L195.7,171.5c-0.4,5.8-3.9,9.2-9.3,9.3H186c-5.5-0.3-8.9-3.8-9-9.5v-0.4c0.1-2.7,1.1-5.1,2.7-6.8
		c1.6-1.7,3.8-2.7,6.6-2.7h0.4c5.7,0.3,8.9,4.4,9,9.7V171.5z M210.8,95.9c-1.7-1.9-4.2-3.1-7.2-3.1c-2.9,0-5.5,1.2-7.2,3.1
		c-1.8,1.9-2.7,4.4-2.7,7.1c0,2.9,1,5.5,2.8,7.3c0.9,1,2,1.7,3.2,2.2c1.2,0.5,2.5,0.7,3.9,0.7c2.8,0,5.4-1.1,7.1-2.9
		c1.7-1.8,2.7-4.4,2.8-7.3C213.5,100.3,212.5,97.8,210.8,95.9z M203.6,109.3c-3.7-0.1-6-2.3-6.1-6.3c0.1-3.7,2.3-6.4,6.1-6.4
		s6,2.7,6.1,6.4C209.6,107,207.4,109.2,203.6,109.3z M234,41.7l-0.4-0.2l-0.7-0.3l-1.8-0.7l-0.4,1L221.5,63l1.7,0.7l1.1,0.5
		c2.2,0.9,4.4,1.5,6.6,1.5h0.2c4.2,0,8.2-2.4,10.1-7.2c0.9-2.1,1.3-4.1,1.4-5.9C242.7,47.5,239.1,43.8,234,41.7z M237.7,57
		c-1.7,3.7-3.8,4.8-6.8,4.9c-1.4,0-2.9-0.3-4.5-0.9l6.6-15.5c4,1.8,5.7,4.1,5.7,7.1C238.7,53.8,238.4,55.3,237.7,57z M199.3,171.7
		v-0.5c0.1-7-4.8-13.3-12.6-13.5h-0.5c-7.8-0.1-12.9,6.1-13.1,13.1v0.6c-0.1,5.1,2.4,9.4,6.4,11.6c1.9,1.1,4,1.7,6.3,1.7h0.8
		c2.3,0,4.5-0.6,6.4-1.7C196.8,180.8,199.3,176.7,199.3,171.7L199.3,171.7z M195.7,171.5L195.7,171.5c-0.4,5.8-3.9,9.2-9.3,9.3H186
		c-5.5-0.3-8.9-3.8-9-9.5v-0.4c0.1-2.7,1.1-5.1,2.7-6.8c1.6-1.7,3.8-2.7,6.6-2.7h0.4c5.7,0.3,8.9,4.4,9,9.7V171.5z M210.8,95.9
		c-1.7-1.9-4.2-3.1-7.2-3.1c-2.9,0-5.5,1.2-7.2,3.1c-1.8,1.9-2.7,4.4-2.7,7.1c0,2.9,1,5.5,2.8,7.3c0.9,1,2,1.7,3.2,2.2
		c1.2,0.5,2.5,0.7,3.9,0.7c2.8,0,5.4-1.1,7.1-2.9c1.7-1.8,2.7-4.4,2.8-7.3C213.5,100.3,212.5,97.8,210.8,95.9z M203.6,109.3
		c-3.7-0.1-6-2.3-6.1-6.3c0.1-3.7,2.3-6.4,6.1-6.4s6,2.7,6.1,6.4C209.6,107,207.4,109.2,203.6,109.3z M234,41.7l-0.4-0.2l-0.7-0.3
		l-1.8-0.7l-0.4,1L221.5,63l1.7,0.7l1.1,0.5c2.2,0.9,4.4,1.5,6.6,1.5h0.2c4.2,0,8.2-2.4,10.1-7.2c0.9-2.1,1.3-4.1,1.4-5.9
		C242.7,47.5,239.1,43.8,234,41.7z M237.7,57c-1.7,3.7-3.8,4.8-6.8,4.9c-1.4,0-2.9-0.3-4.5-0.9l6.6-15.5c4,1.8,5.7,4.1,5.7,7.1
		C238.7,53.8,238.4,55.3,237.7,57z M286.4,81.8l-2.4-0.3v-37c0-4.6-3.7-8.4-8.3-8.4h-3.5L269,15.8l-22.9,3.6l1.7,10.9
		c-2.5-1.6-5.2-3-8.1-4.3l-19.9-8.5l-0.7,1.7l-7.2,16.9h-1.5v-4.9h-15v-1.3h16.3V11.5H172v13.3l-12.6-21l-21.2,8.4l2.8,23.9h-0.1
		l-14.2-19.4l-21.5,8.5l2.5,11.3c-3.4,1-5.9,4.3-5.9,8V180c0,4.6,3.7,8.4,8.4,8.4H138l1.6,8.3l19.8-3.9c6.2,6.6,15.4,10.5,25.6,10.7
		h1.7c7.9,0,15.2-2.2,21.1-6.2l-3.1,11.8l28.2,7.4l7.4-28.1h35.3c4.6,0,8.3-3.8,8.3-8.4v-40.8l4.9,0.6L286.4,81.8z M275.7,41.4
		c1.6,0,2.9,1.3,2.9,3v36.5l-14.9-1.8l-8.9,22.5l-3.3-24l-0.9-0.1c1.4-1.2,2.7-2.5,3.9-4l0.4,2.3l22.9-3.6L273,41.4H275.7z
		 M265.8,20.1l7.7,48.9L258,71.4l-0.4-2.6c0.4-0.9,0.9-1.8,1.3-2.8c2-4.5,2.9-8.8,2.9-12.8c0-4.3-1.1-8.3-3.1-11.8
		c-1-1.9-2.4-3.7-3.9-5.4c-0.8-0.9-1.7-1.8-2.7-2.6l-1.7-10.9L265.8,20.1z M221.8,22.5l16.4,7c4,1.7,7.5,3.7,10.4,6
		c0.3,0.2,0.5,0.4,0.8,0.6c0.4,0.4,0.9,0.8,1.4,1.3c0.8,0.8,1.6,1.7,2.3,2.5c0.4,0.5,0.8,1,1.2,1.6c2.4,3.5,3.8,7.4,3.9,11.8
		c0,2.7-0.5,5.5-1.5,8.6c-0.3,1-0.6,1.9-1,2.8c-0.1,0.2-0.2,0.5-0.3,0.7c-0.5,1-1,1.9-1.5,2.8c-2.4,4-5.4,6.8-8.9,8.7
		c-1.1,0.6-2.3,1.1-3.5,1.5c-2.2,0.7-4.5,1.1-6.9,1.1c-1,0-2.1-0.1-3.1-0.2c-0.7-0.1-1.3-0.2-1.9-0.3c-0.7-0.1-1.3-0.2-1.9-0.4
		c-1.5-0.3-3-0.9-4.5-1.5l-19.4-8.3h8.5V50.4h-2.4L221.8,22.5z M188.4,90.3l-2.7,2.9c0,0-0.4,0.4-1,1c-0.4,0.5-1.1,1.1-1.8,1.7
		c2.9-8.3,10.9-13.3,20.6-13.4c8.8,0,16.3,4.2,19.7,11.2c0.5,0.9,0.9,1.9,1.2,2.9c0.4,1.2,0.7,2.6,0.8,4c0.1,0.7,0.1,1.5,0.1,2.2
		c0,5.2-1.7,9.5-4.4,12.8c-0.8,0.9-1.7,1.8-2.7,2.5c-0.8,0.7-1.6,1.2-2.5,1.7c-3.5,1.9-7.6,3-12.2,3c-5,0-9.6-1.3-13.2-3.6
		c0.5-0.3,0.9-0.5,1.3-0.8l0.9-0.7L188.4,90.3z M159.7,65.2l-0.1-1.1c2-0.8,4-1.4,6.1-1.8c2-0.3,4.1-0.5,6.2-0.6v7.1h8.2l2.2,10.5
		c-2.6-1.3-5.6-2.2-8.7-2.2c-0.9,0-1.8,0-2.7,0.2c-6.7,1.2-11.4,6.9-11.4,13.5c0,0.7,0.1,1.6,0.2,2.4c1.2,6.8,7.3,11.2,13.8,11.2
		c0.8,0,1.7-0.1,2.5-0.2c0.7-0.1,1.4-0.4,2-0.6c0.7-0.3,1.3-0.6,1.9-0.9c0.6-0.4,1.3-0.8,1.9-1.2c1-0.7,1.9-1.3,2.7-2
		c0.5-0.4,0.9-0.7,1.1-1l2.7,17.6c-0.4,0.2-0.8,0.4-1.3,0.6c-0.6,0.3-1.2,0.5-1.9,0.8c-0.6,0.3-1.3,0.5-1.9,0.7
		c-3,1-6.3,1.8-8.2,2.1c-1.2,0.2-2.3,0.3-3.5,0.4l-1.9-9.7l-17.9,3.5c-5.1-4.2-8.8-10.2-10.1-17.4c-0.3-1.9-0.5-3.7-0.5-5.5
		c0-9.5,4.5-18.2,11.8-23.7L159.7,65.2z M157.7,41.5h0.1l8.5,16.9c-0.4,0.1-0.8,0.1-1.2,0.2c-2,0.3-3.9,0.8-5.7,1.5L157.7,41.5z
		 M184.1,84.5l1.5,0.9c-3.8,3.5-6.4,8.3-7.2,13.9c-1,0.6-2,1-2.9,1.1c-0.6,0.1-1.3,0.2-1.9,0.2c-4.9,0-9.2-3.3-10.1-8.1
		c-0.1-0.6-0.2-1.2-0.2-1.8c0-4.7,3.4-8.9,8.3-9.8c0.7-0.1,1.4-0.1,2.1-0.1C177.2,80.8,180.9,82.4,184.1,84.5z M224.7,88.8
		c-0.9-1.3-2-2.5-3.2-3.5c-4.7-4.2-11-6.5-17.9-6.5c-6.1,0-11.8,1.8-16.3,5.2l-0.3-1.5l-2.9-13.8h13.8l-0.6,1.4l24.4,10.4
		c1.6,0.7,3.3,1.3,4.9,1.7L224.7,88.8z M175.8,15.3h32.1v10.8h-16.3V35h15v10.1h-15v9h16.9v10.8h-32.7v-6.1l2-0.8l11.4-4.5
		l-13.4-22.4V15.3z M206.3,48.9l-0.6,1.5h-10.4v-1.5H206.3z M125.5,21.3l17.1,23.3l3.2-1.2l-3.4-28.8l15.5-6.1l25.8,43.2l-13.8,5.4
		l-13.2-26.3l-3.6,1.5l2.7,30.4l-7.9,3.1l-18.2-24.1l-3.5,1.3l8.1,28.2l-13.8,5.4l-10.7-49.1L125.5,21.3z M110.3,182.9
		c-1.6,0-3-1.3-3-3V44.5c0-1.2,0.7-2.2,1.7-2.7l8.7,39.9l21.1-8.3l-6.2-21.7l13.3,17.6c-5.3,6-8.4,13.8-8.4,22.2
		c0,2,0.2,4.1,0.6,6.1c1.2,7,4.5,13,9.2,17.6l-37.3,7.2l5.4,27.6l14.6-3.5l7.1,36.4H110.3z M142.8,192.3L133,142l-14.6,3.5l-3.9-20
		l52.3-10.2l3.9,20l-14.8,2.2l9.8,50.3L142.8,192.3z M186.6,199.7h-1.4c-8.5-0.3-15.9-3-21.3-7.8l6.1-1.2l-7.7-39.5
		c5.6-6.1,14-9.6,23.5-9.6h1.3c6,0.3,11.6,1.8,16.2,4.5c0.9,0.5,1.7,1.1,2.5,1.6c0.9,0.6,1.8,1.3,2.6,2.1c5.6,5.1,9.1,12.3,9.1,21
		v1.1c-0.1,1.9-0.3,3.8-0.7,5.6c-0.4,1.9-1,3.7-1.7,5.4c-0.8,1.7-1.7,3.3-2.7,4.8c-0.1,0.2-0.2,0.4-0.4,0.6c-0.7,1-1.5,1.9-2.4,2.7
		C204,196.6,195.8,199.6,186.6,199.7z M238.5,183l-0.6,0.5l-7.4,28.4l-20.9-5.4l3.5-13.4c1.3-1.5,2.5-3,3.5-4.7
		c1.1-1.7,2-3.5,2.7-5.4c1.3-3.3,2-7,2.1-10.9v-1.2c0-12-5.8-21.5-14.7-27.2l-2.6-8.4l23.8,6.2l3,20l3.1,0.8l12-16.1l23.8,6.3
		L238.5,183z M278.6,180c0,1.6-1.3,3-2.9,3h-31.9l33.3-32.5l-32.6-8.5l-10.6,14.2l-2.6-17.7l-32.8-8.6l3.4,11.3
		c-4.4-2-9.3-3.1-14.5-3.2H186c-9.4,0-18.1,3.2-24.4,8.9l-1.2-6.2l14.8-2.2l-2.7-14.1c1.1-0.1,2.3-0.2,3.5-0.4
		c2.7-0.5,6.9-1.5,10.5-2.9c4.6,3.7,10.6,5.7,17.1,5.7c3.8,0,7.5-0.7,10.8-2l-1.7,5.9l22.5,2.7l4.8-22.1l3.5,23.1l14.1,1.7l9.4-21.6
		l-0.7,22.7l12.3,1.5V180z M283.9,135.4l-5.4-0.7l-8.4-1l0.9-29.3l-3.6-0.6l-12.2,28.1l-8.4-1l-4.6-30l-3.8-0.5l-6.2,28.7l-14.7-1.8
		l1.5-5.1c0.9-0.6,1.8-1.2,2.6-1.9c4.6-4.1,7.5-10.1,7.5-17.5c0-3.4-0.6-6.6-1.8-9.4l3.1-10.5c1.3,0.2,2.7,0.3,4.1,0.3h0.1
		c3.9,0,7.6-0.8,11-2.4l2.6,0.3l4,28.7l3.4,0.4l10.6-27l16.6,2l2,50.3L283.9,135.4z M224.3,64.2c2.2,0.9,4.4,1.5,6.6,1.5h0.2
		c4.2,0,8.2-2.4,10.1-7.2c0.9-2.1,1.3-4.1,1.4-5.9c0.1-5.1-3.5-8.8-8.6-10.9l-0.4-0.2l-0.7-0.3l-1.8-0.7l-0.4,1L221.5,63l1.7,0.7
		L224.3,64.2z M233,45.5c4,1.8,5.7,4.1,5.7,7.1c0,1.2-0.3,2.7-1,4.4c-1.7,3.7-3.8,4.8-6.8,4.9c-1.4,0-2.9-0.3-4.5-0.9L233,45.5z
		 M199.7,112.5c1.2,0.5,2.5,0.7,3.9,0.7c2.8,0,5.4-1.1,7.1-2.9c1.7-1.8,2.7-4.4,2.8-7.3c0-2.7-1-5.2-2.7-7.1
		c-1.7-1.9-4.2-3.1-7.2-3.1c-2.9,0-5.5,1.2-7.2,3.1c-1.8,1.9-2.7,4.4-2.7,7.1c0,2.9,1,5.5,2.8,7.3
		C197.4,111.2,198.5,112,199.7,112.5z M203.6,96.6c3.8,0,6,2.7,6.1,6.4c-0.1,4-2.3,6.2-6.1,6.3c-3.7-0.1-6-2.3-6.1-6.3
		C197.6,99.3,199.8,96.6,203.6,96.6z M199.3,171.2c0.1-7-4.8-13.3-12.6-13.5h-0.5c-7.8-0.1-12.9,6.1-13.1,13.1v0.6
		c-0.1,5.1,2.4,9.4,6.4,11.6c1.9,1.1,4,1.7,6.3,1.7h0.8c2.3,0,4.5-0.6,6.4-1.7c3.8-2.2,6.3-6.3,6.4-11.3h-0.1V171.2z M195.7,171.5
		L195.7,171.5c-0.4,5.8-3.9,9.2-9.3,9.3H186c-5.5-0.3-8.9-3.8-9-9.5v-0.4c0.1-2.7,1.1-5.1,2.7-6.8c1.6-1.7,3.8-2.7,6.6-2.7h0.4
		c5.7,0.3,8.9,4.4,9,9.7V171.5z M234,41.7l-0.4-0.2l-0.7-0.3l-1.8-0.7l-0.4,1L221.5,63l1.7,0.7l1.1,0.5c2.2,0.9,4.4,1.5,6.6,1.5h0.2
		c4.2,0,8.2-2.4,10.1-7.2c0.9-2.1,1.3-4.1,1.4-5.9C242.7,47.5,239.1,43.8,234,41.7z M237.7,57c-1.7,3.7-3.8,4.8-6.8,4.9
		c-1.4,0-2.9-0.3-4.5-0.9l6.6-15.5c4,1.8,5.7,4.1,5.7,7.1C238.7,53.8,238.4,55.3,237.7,57z M210.8,95.9c-1.7-1.9-4.2-3.1-7.2-3.1
		c-2.9,0-5.5,1.2-7.2,3.1c-1.8,1.9-2.7,4.4-2.7,7.1c0,2.9,1,5.5,2.8,7.3c0.9,1,2,1.7,3.2,2.2c1.2,0.5,2.5,0.7,3.9,0.7
		c2.8,0,5.4-1.1,7.1-2.9c1.7-1.8,2.7-4.4,2.8-7.3C213.5,100.3,212.5,97.8,210.8,95.9z M203.6,109.3c-3.7-0.1-6-2.3-6.1-6.3
		c0.1-3.7,2.3-6.4,6.1-6.4s6,2.7,6.1,6.4C209.6,107,207.4,109.2,203.6,109.3z M234,41.7l-0.4-0.2l-0.7-0.3l-1.8-0.7l-0.4,1L221.5,63
		l1.7,0.7l1.1,0.5c2.2,0.9,4.4,1.5,6.6,1.5h0.2c4.2,0,8.2-2.4,10.1-7.2c0.9-2.1,1.3-4.1,1.4-5.9C242.7,47.5,239.1,43.8,234,41.7z
		 M237.7,57c-1.7,3.7-3.8,4.8-6.8,4.9c-1.4,0-2.9-0.3-4.5-0.9l6.6-15.5c4,1.8,5.7,4.1,5.7,7.1C238.7,53.8,238.4,55.3,237.7,57z
		 M210.8,95.9c-1.7-1.9-4.2-3.1-7.2-3.1c-2.9,0-5.5,1.2-7.2,3.1c-1.8,1.9-2.7,4.4-2.7,7.1c0,2.9,1,5.5,2.8,7.3c0.9,1,2,1.7,3.2,2.2
		c1.2,0.5,2.5,0.7,3.9,0.7c2.8,0,5.4-1.1,7.1-2.9c1.7-1.8,2.7-4.4,2.8-7.3C213.5,100.3,212.5,97.8,210.8,95.9z M203.6,109.3
		c-3.7-0.1-6-2.3-6.1-6.3c0.1-3.7,2.3-6.4,6.1-6.4s6,2.7,6.1,6.4C209.6,107,207.4,109.2,203.6,109.3z M234,41.7l-0.4-0.2l-0.7-0.3
		l-1.8-0.7l-0.4,1L221.5,63l1.7,0.7l1.1,0.5c2.2,0.9,4.4,1.5,6.6,1.5h0.2c4.2,0,8.2-2.4,10.1-7.2c0.9-2.1,1.3-4.1,1.4-5.9
		C242.7,47.5,239.1,43.8,234,41.7z M237.7,57c-1.7,3.7-3.8,4.8-6.8,4.9c-1.4,0-2.9-0.3-4.5-0.9l6.6-15.5c4,1.8,5.7,4.1,5.7,7.1
		C238.7,53.8,238.4,55.3,237.7,57z M210.8,95.9c-1.7-1.9-4.2-3.1-7.2-3.1c-2.9,0-5.5,1.2-7.2,3.1c-1.8,1.9-2.7,4.4-2.7,7.1
		c0,2.9,1,5.5,2.8,7.3c0.9,1,2,1.7,3.2,2.2c1.2,0.5,2.5,0.7,3.9,0.7c2.8,0,5.4-1.1,7.1-2.9c1.7-1.8,2.7-4.4,2.8-7.3
		C213.5,100.3,212.5,97.8,210.8,95.9z M203.6,109.3c-3.7-0.1-6-2.3-6.1-6.3c0.1-3.7,2.3-6.4,6.1-6.4s6,2.7,6.1,6.4
		C209.6,107,207.4,109.2,203.6,109.3z M234,41.7l-0.4-0.2l-0.7-0.3l-1.8-0.7l-0.4,1L221.5,63l1.7,0.7l1.1,0.5
		c2.2,0.9,4.4,1.5,6.6,1.5h0.2c4.2,0,8.2-2.4,10.1-7.2c0.9-2.1,1.3-4.1,1.4-5.9C242.7,47.5,239.1,43.8,234,41.7z M237.7,57
		c-1.7,3.7-3.8,4.8-6.8,4.9c-1.4,0-2.9-0.3-4.5-0.9l6.6-15.5c4,1.8,5.7,4.1,5.7,7.1C238.7,53.8,238.4,55.3,237.7,57z M210.8,95.9
		c-1.7-1.9-4.2-3.1-7.2-3.1c-2.9,0-5.5,1.2-7.2,3.1c-1.8,1.9-2.7,4.4-2.7,7.1c0,2.9,1,5.5,2.8,7.3c0.9,1,2,1.7,3.2,2.2
		c1.2,0.5,2.5,0.7,3.9,0.7c2.8,0,5.4-1.1,7.1-2.9c1.7-1.8,2.7-4.4,2.8-7.3C213.5,100.3,212.5,97.8,210.8,95.9z M203.6,109.3
		c-3.7-0.1-6-2.3-6.1-6.3c0.1-3.7,2.3-6.4,6.1-6.4s6,2.7,6.1,6.4C209.6,107,207.4,109.2,203.6,109.3z M234,41.7l-0.4-0.2l-0.7-0.3
		l-1.8-0.7l-0.4,1L221.5,63l1.7,0.7l1.1,0.5c2.2,0.9,4.4,1.5,6.6,1.5h0.2c4.2,0,8.2-2.4,10.1-7.2c0.9-2.1,1.3-4.1,1.4-5.9
		C242.7,47.5,239.1,43.8,234,41.7z M237.7,57c-1.7,3.7-3.8,4.8-6.8,4.9c-1.4,0-2.9-0.3-4.5-0.9l6.6-15.5c4,1.8,5.7,4.1,5.7,7.1
		C238.7,53.8,238.4,55.3,237.7,57z M234,41.7l-0.4-0.2l-0.7-0.3l-1.8-0.7l-0.4,1L221.5,63l1.7,0.7l1.1,0.5c2.2,0.9,4.4,1.5,6.6,1.5
		h0.2c4.2,0,8.2-2.4,10.1-7.2c0.9-2.1,1.3-4.1,1.4-5.9C242.7,47.5,239.1,43.8,234,41.7z M237.7,57c-1.7,3.7-3.8,4.8-6.8,4.9
		c-1.4,0-2.9-0.3-4.5-0.9l6.6-15.5c4,1.8,5.7,4.1,5.7,7.1C238.7,53.8,238.4,55.3,237.7,57z"/>
</g>
</svg>
