<svg width="400" height="220" viewBox="0 0 400 220" fill="none" xmlns="http://www.w3.org/2000/svg">
<g clip-path="url(#clip0_201:12)">
<g clip-path="url(#clip1_201:12)">
<path d="M89.0773 54.3384V165.662H63.8554V90.4916L53.7771 165.662H35.8776L25.3794 92.2256V165.662H0V54.3384H37.3474C38.4759 61.0383 39.6045 68.9205 40.7855 77.9851L44.8798 106.309L51.52 54.3384H89.0773Z" fill="#1D1D1B"/>
<path d="M182.906 88.0218H156.109V79.7717C156.334 77.2712 155.974 74.7525 155.059 72.415C154.679 71.8752 154.164 71.4453 153.565 71.1685C152.966 70.8917 152.304 70.7779 151.647 70.8385C150.86 70.8009 150.077 70.9792 149.383 71.3542C148.689 71.7293 148.111 72.2868 147.711 72.9667C146.687 74.9597 146.224 77.194 146.372 79.4302C146.205 82.3114 146.717 85.1916 147.868 87.8379C149.986 90.7457 152.79 93.0835 156.03 94.6428C168.856 102.28 176.948 108.559 180.307 113.481C183.667 118.403 185.338 126.286 185.32 137.128C185.653 143.11 184.704 149.094 182.538 154.679C180.121 158.947 176.34 162.279 171.804 164.138C165.99 166.778 159.658 168.08 153.275 167.947C146.423 168.146 139.63 166.629 133.512 163.533C128.662 161.277 124.832 157.284 122.777 152.341C120.803 146.093 119.915 139.552 120.153 133.003V125.778H146.976V139.335C146.731 142.066 147.117 144.817 148.104 147.375C148.56 148.027 149.184 148.542 149.91 148.866C150.636 149.19 151.436 149.31 152.225 149.214C153.078 149.259 153.927 149.069 154.681 148.666C155.435 148.264 156.065 147.663 156.503 146.928C157.568 144.854 158.048 142.529 157.894 140.202C157.894 133.66 157.028 129.351 155.269 127.354C151.098 123.53 146.562 120.125 141.727 117.186C136.746 114.042 131.977 110.576 127.449 106.808C124.89 104.282 122.919 101.223 121.675 97.8483C119.984 93.1884 119.2 88.2475 119.365 83.2925C119.365 74.7621 120.45 68.5264 122.62 64.5853C125.019 60.44 128.706 57.1925 133.118 55.3369C138.662 52.9715 144.652 51.8332 150.676 52C157.252 51.8129 163.789 53.059 169.836 55.6521C174.321 57.3481 178.047 60.6028 180.334 64.8218C182.066 68.5264 182.958 74.7797 182.958 83.634L182.906 88.0218Z" fill="#1D1D1B"/>
<path d="M281.662 95.326H252.792V85.2105C252.991 81.2063 252.709 77.1926 251.952 73.2558C251.602 72.57 251.074 71.9909 250.424 71.5788C249.773 71.1666 249.025 70.9365 248.256 70.9124C247.487 70.8882 246.725 71.0709 246.05 71.4415C245.376 71.8121 244.813 72.3569 244.42 73.0193C243.563 76.4524 243.244 79.9979 243.475 83.5289V136.918C243.284 140.24 243.603 143.571 244.42 146.797C244.722 147.555 245.261 148.195 245.956 148.621C246.652 149.047 247.466 149.237 248.278 149.162C249.178 149.243 250.081 149.031 250.852 148.558C251.623 148.085 252.22 147.375 252.556 146.534C253.525 143.12 253.906 139.566 253.684 136.024V122.94H247.858V105.914H281.662V165.662H263.526L260.902 157.779C259.184 161.031 256.617 163.755 253.474 165.662C250.262 167.434 246.644 168.339 242.976 168.289C238.205 168.311 233.511 167.088 229.355 164.742C225.443 162.686 222.119 159.665 219.696 155.967C217.554 152.652 216.149 148.916 215.576 145.01C214.929 139.289 214.658 133.531 214.762 127.774V94.4327C214.527 86.6698 215.099 78.9034 216.468 71.2589C218.099 65.8551 221.585 61.2021 226.31 58.1219C232.472 53.8904 239.841 51.7787 247.307 52.1051C254.661 51.8387 261.94 53.6605 268.303 57.3599C273.26 60.1121 277.117 64.4925 279.221 69.7613C281.199 76.5312 282.085 83.5736 281.846 90.6229L281.662 95.326Z" fill="#1D1D1B"/>
<path d="M403.004 54.3384V165.662H377.782V90.4916L367.73 165.662H349.857L339.359 92.2256V165.662H314.137V54.3384H351.484C352.613 61.0383 353.741 68.9205 354.922 77.9851L359.017 106.282L365.447 54.3384H403.004Z" fill="#1D1D1B"/>
</g>
</g>
<defs>
<clipPath id="clip0_201:12">
<rect width="400" height="220" fill="white"/>
</clipPath>
<clipPath id="clip1_201:12">
<rect width="403" height="116" fill="white" transform="translate(0 52)"/>
</clipPath>
</defs>
</svg>
