<?xml version="1.0" encoding="utf-8"?>
<!-- Generator: Adobe Illustrator 19.2.1, SVG Export Plug-In . SVG Version: 6.00 Build 0)  -->
<svg version="1.1" id="Native_Union" xmlns="http://www.w3.org/2000/svg" xmlns:xlink="http://www.w3.org/1999/xlink" x="0px" y="0px"
	 width="400px" height="220px" viewBox="0 0 400 220" style="enable-background:new 0 0 400 220;" xml:space="preserve">
<title>Native Union</title>
<g>
	<g>
		<path d="M307.1,217.5H92.9V2.5h214.2V217.5z M93.1,217.3h213.8V2.7H93.1V217.3z"/>
		<g>
			<path class="st0" d="M200,115.4c0-1.2-0.5-1.7-1.6-1.7h-0.6c-1.1,0-1.6,0.6-1.6,1.7v21.6c0,1.2,0.5,1.7,1.6,1.7h0.6
				c1.1,0,1.6-0.6,1.6-1.7V115.4z"/>
			<path class="st0" d="M229.5,120.7c-0.6-1.6-1.4-2.9-2.5-4.1c-1.1-1.1-2.5-2-4-2.6c-1.5-0.6-3.2-0.9-4.9-0.9c-1.8,0-3.4,0.3-4.9,1
				c-1.5,0.6-2.9,1.5-4,2.7c-1.1,1.1-1.9,2.5-2.5,4.1c-0.6,1.6-0.9,3.3-0.9,5.2c0,1.9,0.3,3.6,0.9,5.2c0.6,1.6,1.4,2.9,2.5,4.1
				c1.1,1.1,2.5,2,4,2.6c1.5,0.6,3.2,0.9,4.9,0.9c1.8,0,3.4-0.3,4.9-1c1.5-0.6,2.9-1.5,4-2.7c1.1-1.1,1.9-2.5,2.5-4.1
				c0.6-1.6,0.9-3.3,0.9-5.2C230.4,124,230.1,122.3,229.5,120.7 M226.1,129.9c-0.4,1.2-1.1,2.3-1.8,3.2c-0.8,0.8-1.7,1.5-2.7,2
				c-1,0.5-2.2,0.7-3.4,0.7c-1.3,0-2.4-0.2-3.5-0.7c-1-0.5-2-1.1-2.7-2c-0.8-0.9-1.4-2-1.8-3.2c-0.4-1.2-0.6-2.5-0.6-3.9
				c0-1.4,0.2-2.7,0.6-3.9c0.4-1.2,1.1-2.3,1.8-3.2c0.8-0.8,1.7-1.5,2.7-2c1-0.5,2.2-0.7,3.4-0.7c1.2,0,2.4,0.2,3.5,0.7
				c1,0.5,2,1.2,2.7,2c0.8,0.9,1.4,2,1.8,3.2c0.4,1.2,0.6,2.5,0.6,3.9C226.7,127.4,226.5,128.7,226.1,129.9"/>
			<path class="st0" d="M162,115.4c0-1.2-0.5-1.7-1.6-1.7h-0.6c-1.1,0-1.6,0.6-1.6,1.7v12.4c0,5.1-2.2,7.6-6.6,7.6
				c-4.4,0-6.6-2.6-6.6-7.6v-12.4c0-1.2-0.5-1.7-1.7-1.7h-0.6c-1.1,0-1.6,0.6-1.6,1.7V128c0,3.6,0.9,6.3,2.6,8.1
				c1.7,1.8,4.4,2.7,7.8,2.7c3.4,0,6.1-0.9,7.8-2.8c1.8-1.8,2.7-4.6,2.7-8.1V115.4z"/>
			<path class="st0" d="M258.9,136.6c0,0.7-0.2,1.2-0.5,1.6c-0.3,0.4-0.7,0.5-1.3,0.5h-0.3c-0.6,0-1-0.1-1.2-0.2
				c-0.2-0.2-0.5-0.5-0.8-0.9l-15.2-18.9v18.4c0,1.1-0.5,1.7-1.5,1.7h-0.4c-1,0-1.5-0.5-1.5-1.7v-21.3c0-0.6,0.1-1.2,0.4-1.5
				c0.3-0.4,0.7-0.6,1.3-0.6h0.7c0.6,0,1,0.1,1.3,0.3c0.3,0.2,0.6,0.6,1,1.1l14.2,17.6l0.3,0.4v-17.8c0-1.1,0.5-1.7,1.5-1.7h0.5
				c1,0,1.5,0.5,1.5,1.7V136.6z"/>
			<path class="st0" d="M189.3,136.6c0,0.7-0.2,1.2-0.4,1.6c-0.3,0.4-0.7,0.5-1.3,0.5h-0.3c-0.6,0-1-0.1-1.2-0.2
				c-0.2-0.2-0.5-0.5-0.8-0.9l-14.4-18.9v18.4c0,1.1-0.5,1.7-1.5,1.7h-0.4c-1,0-1.5-0.5-1.5-1.7v-21.3c0-0.6,0.2-1.2,0.5-1.5
				c0.3-0.4,0.7-0.6,1.3-0.6h0.7c0.6,0,1,0.1,1.3,0.3c0.3,0.2,0.6,0.6,1,1.1l13.5,17.6l0.3,0.4v-17.8c0-1.1,0.5-1.7,1.5-1.7h0.5
				c1,0,1.5,0.5,1.5,1.7V136.6z"/>
			<path class="st0" d="M207.9,82.8c0-1-0.5-1.5-1.7-1.5h-16.3c-1.1,0-1.7,0.5-1.7,1.5V83c0,1.1,0.6,1.6,1.7,1.6h6.3v20.1
				c0,1.1,0.5,1.7,1.5,1.7h0.5c1.1,0,1.6-0.6,1.6-1.7V84.5h6.3c1.1,0,1.7-0.5,1.7-1.6V82.8z"/>
			<path class="st0" d="M214.7,82.9c0-1.1-0.4-1.7-1.5-1.7h-0.5c-1,0-1.4,0.5-1.4,1.7v21.8c0,1.1,0.4,1.7,1.4,1.7h0.5
				c1.1,0,1.5-0.5,1.5-1.7V82.9z"/>
			<path class="st0" d="M258.9,104.5c0-1-0.5-1.5-1.7-1.5h-11.2v-8h9.9c1.1,0,1.7-0.5,1.7-1.5v-0.1c0-1-0.6-1.5-1.7-1.5h-9.9v-7.4
				h11.2c1.1,0,1.7-0.5,1.7-1.5v-0.2c0-1-0.6-1.5-1.7-1.5h-12.9c-0.6,0-1.1,0.2-1.4,0.6c-0.4,0.4-0.5,0.9-0.5,1.5v20.9
				c0,0.6,0.2,1.1,0.5,1.5c0.4,0.4,0.8,0.6,1.4,0.6h12.9c1.1,0,1.7-0.5,1.7-1.6V104.5z"/>
			<path class="st0" d="M161.9,104.3c0,0.7-0.2,1.2-0.5,1.6c-0.3,0.4-0.7,0.5-1.3,0.5h-0.3c-0.6,0-1-0.1-1.2-0.2
				c-0.2-0.2-0.5-0.5-0.8-0.9l-13.3-18.9v18.4c0,1.1-0.5,1.7-1.5,1.7h-0.4c-1,0-1.5-0.5-1.5-1.7V83.3c0-0.6,0.2-1.2,0.5-1.5
				c0.3-0.4,0.7-0.6,1.3-0.6h0.7c0.6,0,1,0.1,1.3,0.3c0.3,0.2,0.6,0.6,1,1.1l12.4,17.6l0.3,0.4V82.9c0-1.1,0.5-1.7,1.5-1.7h0.5
				c1,0,1.5,0.5,1.5,1.7V104.3z"/>
			<path class="st0" d="M180.7,82.7c-0.2-0.5-0.5-0.8-0.8-1.1c-0.3-0.2-0.8-0.3-1.5-0.3h0h0c0,0,0,0,0,0h0h0h0
				c-0.7,0-1.2,0.1-1.5,0.3c-0.3,0.2-0.6,0.6-0.8,1.1l-8.5,22.6c0,0,0.2,0.3,0.6,0.6c0.2,0.1,0.5,0.3,0.8,0.4
				c0.7,0.2,1.4,0.1,1.9-0.4c0.5-0.4,0.8-1.4,1-2c0,0,6.4-17.3,6.4-17.4c0,0,0,0,0,0c0,0,0,0,0,0c0,0,0,0,0,0c0,0,0,0,0,0
				c0,0,6.4,17.4,6.4,17.4c0.2,0.6,0.6,1.6,1,2c0.6,0.5,1.3,0.6,1.9,0.4c0.3-0.1,0.6-0.3,0.8-0.4c0.4-0.3,0.6-0.6,0.6-0.6
				L180.7,82.7z"/>
			<path class="st0" d="M226.4,104.9c0.2,0.5,0.5,0.8,0.8,1.1c0.3,0.2,0.8,0.3,1.5,0.3h0h0h0h0h0h0c0.7,0,1.2-0.1,1.5-0.3
				c0.3-0.2,0.6-0.6,0.8-1.1l7.8-22.6c0,0-0.2-0.3-0.6-0.6c-0.2-0.1-0.5-0.3-0.8-0.4c-0.7-0.2-1.4-0.1-1.9,0.4c-0.5,0.4-0.8,1.4-1,2
				c0,0-5.7,17.3-5.7,17.4c0,0,0,0,0,0h0h0h0c0,0,0,0,0,0c0,0-5.7-17.4-5.7-17.4c-0.2-0.6-0.6-1.6-1-2c-0.6-0.5-1.3-0.6-1.9-0.4
				c-0.3,0.1-0.6,0.3-0.8,0.4c-0.4,0.3-0.6,0.6-0.6,0.6L226.4,104.9z"/>
		</g>
	</g>
</g>
</svg>
