<svg width="154" height="103" viewBox="0 0 154 103" fill="none" xmlns="http://www.w3.org/2000/svg">
<g clip-path="url(#clip0_236_2)">
<path d="M40.7152 17.2239C40.2669 16.7404 39.7141 16.3657 39.099 16.1283C38.4634 15.8733 37.8501 15.5659 37.2654 15.2093C37.1277 15.0813 37.018 14.9262 36.9432 14.7537C36.8684 14.5813 36.8302 14.3952 36.8308 14.2073C36.8271 14.0287 36.86 13.8513 36.9275 13.686C36.995 13.5207 37.0956 13.3709 37.2232 13.246C37.5536 13.0095 37.9517 12.8862 38.358 12.8943C38.7345 12.871 39.1106 12.9464 39.4491 13.1132C39.7645 13.2822 39.852 13.6022 40.2006 13.6836C40.2848 13.6959 40.3708 13.6866 40.4504 13.6565C40.53 13.6264 40.6007 13.5766 40.6557 13.5117C40.7108 13.4469 40.7485 13.369 40.7652 13.2856C40.782 13.2022 40.7772 13.1158 40.7514 13.0347C40.6724 12.8144 40.5207 12.6276 40.3213 12.505C39.7811 12.1444 39.1354 11.9754 38.4878 12.0251C37.7319 11.9769 36.985 12.2108 36.3916 12.6816C36.1524 12.8857 35.9617 13.1406 35.8335 13.4278C35.7053 13.715 35.6428 14.0272 35.6506 14.3416C35.6465 14.8556 35.8318 15.353 36.1713 15.739C36.6379 16.2401 37.2242 16.6145 37.875 16.8271C38.5317 17.0552 39.1511 17.3792 39.7131 17.7884C39.8181 17.8991 39.8993 18.0301 39.9517 18.1733C40.0041 18.3166 40.0267 18.4691 40.018 18.6214C40.0231 18.8234 39.987 19.0244 39.9117 19.212C39.8365 19.3997 39.7237 19.5699 39.5803 19.7124C39.4094 19.866 39.2094 19.9836 38.9922 20.0582C38.7749 20.1329 38.5449 20.1631 38.3157 20.147C38.044 20.1502 37.7731 20.1177 37.5098 20.0505C37.5032 20.0497 37.4966 20.0482 37.4902 20.0459C37.2763 19.9902 37.0747 19.895 36.8956 19.7652C36.8559 19.7382 36.8181 19.7084 36.7825 19.6762C36.535 19.4272 36.461 19.0937 36.3086 18.9443C36.2352 18.869 36.1393 18.8196 36.0354 18.8036C35.9315 18.7875 35.8252 18.8055 35.7325 18.8551C35.6397 18.9046 35.5656 18.9829 35.5211 19.0782C35.4767 19.1735 35.4644 19.2806 35.4861 19.3835C35.5489 19.6648 35.6789 19.9268 35.8649 20.147C35.9436 20.2416 36.0316 20.328 36.1275 20.405L36.1305 20.4111L36.135 20.4126C36.255 20.5098 36.385 20.5938 36.5229 20.6631C36.5485 20.6767 36.5772 20.6888 36.6029 20.7008C36.7324 20.7634 36.8673 20.8144 37.0058 20.8533C37.0345 20.8608 37.1854 20.8955 37.1854 20.8955C37.557 20.9746 37.9357 21.0161 38.3157 21.0193C38.7006 21.0502 39.0879 21.0044 39.455 20.8844C39.8221 20.7645 40.1617 20.5728 40.4541 20.3205C40.6831 20.0926 40.8631 19.8203 40.983 19.5203C41.1029 19.2203 41.1601 18.899 41.1513 18.576C41.1645 18.0888 41.0106 17.6116 40.7152 17.2239" fill="black"/>
<path d="M23.3473 15.2085C23.3783 15.2816 23.4302 15.3441 23.4965 15.3879C23.5628 15.4318 23.6405 15.4552 23.72 15.4552C23.7995 15.4552 23.8772 15.4318 23.9435 15.3879C24.0098 15.3441 24.0617 15.2816 24.0928 15.2085L25.454 12.9977C25.7075 12.5842 25.9595 12.3472 26.3474 12.3985C26.619 12.4348 26.7066 12.6717 26.5088 13.0037L24.5259 16.295C24.3025 16.6973 24.1769 17.1466 24.1592 17.6065V20.1659C24.1807 20.2492 24.1828 20.3364 24.1653 20.4206C24.1479 20.5049 24.1115 20.5841 24.0587 20.6521C24.006 20.7201 23.9384 20.7752 23.8612 20.8131C23.7839 20.8509 23.699 20.8706 23.6129 20.8706C23.5268 20.8706 23.4419 20.8509 23.3646 20.8131C23.2874 20.7752 23.2198 20.7201 23.1671 20.6521C23.1143 20.5841 23.0779 20.5049 23.0605 20.4206C23.043 20.3364 23.0452 20.2492 23.0666 20.1659V17.6065C23.0484 17.1473 22.9244 16.6985 22.7044 16.295L20.6852 12.9977C20.4845 12.6687 20.6038 12.3985 20.9524 12.3985C21.1476 12.3988 21.3392 12.4517 21.507 12.5515C21.6748 12.6513 21.8127 12.7945 21.9061 12.966L23.3473 15.2085Z" fill="black"/>
<path d="M130.143 15.2085C130.174 15.2816 130.226 15.3441 130.292 15.3879C130.359 15.4318 130.436 15.4552 130.516 15.4552C130.595 15.4552 130.673 15.4318 130.739 15.3879C130.806 15.3441 130.858 15.2816 130.889 15.2085L132.25 12.9977C132.503 12.5842 132.755 12.3472 133.143 12.3985C133.415 12.4348 133.502 12.6717 133.305 13.0037L131.322 16.295C131.098 16.6973 130.973 17.1466 130.955 17.6065V20.1659C130.977 20.2492 130.979 20.3364 130.961 20.4206C130.944 20.5049 130.907 20.5841 130.855 20.6521C130.802 20.7201 130.734 20.7752 130.657 20.8131C130.58 20.8509 130.495 20.8706 130.409 20.8706C130.323 20.8706 130.238 20.8509 130.161 20.8131C130.083 20.7752 130.016 20.7201 129.963 20.6521C129.91 20.5841 129.874 20.5049 129.856 20.4206C129.839 20.3364 129.841 20.2492 129.862 20.1659V17.6065C129.844 17.1473 129.72 16.6985 129.5 16.295L127.481 12.9977C127.28 12.6687 127.4 12.3985 127.748 12.3985C127.943 12.3988 128.135 12.4517 128.303 12.5515C128.471 12.6513 128.609 12.7945 128.702 12.966L130.143 15.2085Z" fill="black"/>
<path d="M33.467 19.8396C34.2019 18.8968 34.5606 17.7148 34.4736 16.5226C34.5354 15.3193 34.1799 14.1316 33.467 13.1603C33.1445 12.803 32.7506 12.5174 32.3107 12.3219C31.8709 12.1264 31.3949 12.0254 30.9136 12.0254C30.4323 12.0254 29.9563 12.1264 29.5165 12.3219C29.0766 12.5174 28.6827 12.803 28.3602 13.1603C27.5886 14.1029 27.2136 15.3086 27.3144 16.5226C27.2289 17.7139 27.5857 18.8949 28.3165 19.8396C28.6274 20.2204 29.0216 20.5249 29.4687 20.7295C29.9159 20.9341 30.4039 21.0333 30.8955 21.0197C31.3868 21.0396 31.8758 20.9431 32.3227 20.738C32.7696 20.5329 33.1617 20.2251 33.467 19.8396H33.467ZM29.234 19.3657C28.6623 18.5321 28.3856 17.5314 28.4477 16.5226C28.3756 15.5141 28.6533 14.5116 29.234 13.6839C29.4274 13.4289 29.6793 13.2241 29.9685 13.0867C30.2576 12.9493 30.5755 12.8835 30.8955 12.8947C31.2158 12.8776 31.5353 12.9408 31.825 13.0787C32.1146 13.2165 32.3652 13.4246 32.554 13.6839C33.1352 14.5114 33.4134 15.5139 33.3417 16.5226C33.4034 17.5316 33.1261 18.5323 32.554 19.3657C32.3645 19.6238 32.1135 19.8305 31.8239 19.967C31.5343 20.1035 31.2151 20.1655 30.8955 20.1474C30.5762 20.1596 30.2586 20.095 29.9695 19.959C29.6803 19.8229 29.4281 19.6195 29.234 19.3657" fill="black"/>
<path d="M48.6689 20.0534C48.6904 20.1368 48.6925 20.2239 48.6751 20.3082C48.6577 20.3925 48.6212 20.4717 48.5685 20.5397C48.5158 20.6077 48.4482 20.6627 48.3709 20.7006C48.2936 20.7385 48.2087 20.7582 48.1226 20.7582C48.0366 20.7582 47.9516 20.7385 47.8744 20.7006C47.7971 20.6627 47.7295 20.6077 47.6768 20.5397C47.624 20.4717 47.5876 20.3925 47.5702 20.3082C47.5528 20.2239 47.5549 20.1368 47.5763 20.0534V17.6193C47.5758 17.4331 47.5018 17.2546 47.3704 17.1226C47.239 16.9906 47.0608 16.9159 46.8746 16.9145H44.3936C44.2076 16.9162 44.0298 16.9911 43.8987 17.1231C43.7676 17.255 43.6938 17.4333 43.6934 17.6193V20.0534C43.7118 20.1383 43.711 20.2262 43.691 20.3107C43.671 20.3951 43.6323 20.4741 43.5778 20.5417C43.5233 20.6093 43.4544 20.6638 43.3761 20.7013C43.2977 20.7387 43.212 20.7582 43.1252 20.7582C43.0384 20.7582 42.9527 20.7387 42.8743 20.7013C42.796 20.6638 42.7271 20.6093 42.6726 20.5417C42.6181 20.4741 42.5794 20.3951 42.5594 20.3107C42.5394 20.2262 42.5386 20.1383 42.557 20.0534V12.9939C42.5382 12.9088 42.5387 12.8207 42.5585 12.7358C42.5783 12.651 42.6169 12.5717 42.6714 12.5038C42.7259 12.4358 42.795 12.381 42.8736 12.3434C42.9521 12.3057 43.0381 12.2861 43.1252 12.2861C43.2123 12.2861 43.2983 12.3057 43.3768 12.3434C43.4554 12.381 43.5245 12.4358 43.579 12.5038C43.6335 12.5717 43.6721 12.651 43.6919 12.7358C43.7117 12.8207 43.7122 12.9088 43.6934 12.9939V15.3375C43.6932 15.5239 43.7667 15.7029 43.8978 15.8355C44.029 15.968 44.2071 16.0434 44.3936 16.0453H46.8746C47.0613 16.0438 47.2398 15.9685 47.3712 15.8359C47.5027 15.7033 47.5764 15.5242 47.5763 15.3375V12.9939C47.5544 12.9104 47.552 12.8229 47.5692 12.7383C47.5864 12.6537 47.6228 12.5741 47.6756 12.5058C47.7283 12.4374 47.7961 12.3821 47.8736 12.344C47.9511 12.3059 48.0363 12.2861 48.1226 12.2861C48.209 12.2861 48.2942 12.3059 48.3717 12.344C48.4492 12.3821 48.5169 12.4374 48.5697 12.5058C48.6224 12.5741 48.6588 12.6537 48.676 12.7383C48.6932 12.8229 48.6908 12.9104 48.6689 12.9939V20.0534Z" fill="black"/>
<path d="M51.735 20.0534C51.7536 20.1382 51.753 20.226 51.7332 20.3105C51.7134 20.395 51.6749 20.4739 51.6205 20.5416C51.5661 20.6092 51.4973 20.6637 51.419 20.7012C51.3408 20.7387 51.2551 20.7582 51.1683 20.7582C51.0816 20.7582 50.9959 20.7387 50.9176 20.7012C50.8394 20.6637 50.7705 20.6092 50.7162 20.5416C50.6618 20.4739 50.6233 20.395 50.6035 20.3105C50.5836 20.226 50.583 20.1382 50.6016 20.0534V12.9939C50.5826 12.909 50.5829 12.8208 50.6025 12.736C50.6221 12.6512 50.6606 12.5719 50.715 12.5039C50.7694 12.436 50.8384 12.3811 50.9169 12.3434C50.9953 12.3057 51.0813 12.2861 51.1683 12.2861C51.2554 12.2861 51.3413 12.3057 51.4198 12.3434C51.4983 12.3811 51.5673 12.436 51.6217 12.5039C51.6761 12.5719 51.7145 12.6512 51.7341 12.736C51.7537 12.8208 51.754 12.909 51.735 12.9939V20.0534Z" fill="black"/>
<path d="M58.7341 20.0185C59.2222 19.5745 59.6019 19.0244 59.8439 18.4106C60.0859 17.7968 60.1838 17.1357 60.13 16.4781C60.1885 15.8311 60.0967 15.1793 59.8619 14.5736C59.6271 13.9679 59.2556 13.4246 58.7763 12.9861C57.9372 12.4394 56.9379 12.1926 55.9408 12.2859H54.2868C54.0988 12.2864 53.9187 12.3613 53.7858 12.4942C53.6529 12.6271 53.578 12.8072 53.5775 12.9951V20.0532C53.579 20.2404 53.6543 20.4195 53.7871 20.5515C53.92 20.6834 54.0995 20.7576 54.2868 20.7579H56.069C57.0166 20.8321 57.9601 20.5703 58.734 20.0185L58.7341 20.0185ZM58.1183 13.73C58.7558 14.5301 59.0543 15.5481 58.9498 16.5657C59.0442 17.4536 58.7953 18.3439 58.2541 19.0542C57.9539 19.3401 57.5957 19.5583 57.2039 19.694C56.8121 19.8296 56.3957 19.8795 55.9829 19.8404H55.42C55.2333 19.8397 55.0545 19.7652 54.9225 19.6332C54.7905 19.5012 54.716 19.3223 54.7153 19.1356V13.8644C54.7163 13.6778 54.7908 13.4991 54.9228 13.3671C55.0547 13.2352 55.2334 13.1606 55.42 13.1596H55.9829C56.7414 13.0708 57.5052 13.2748 58.1183 13.73" fill="black"/>
<path d="M65.2009 12.9471C65.1384 12.7722 65.0288 12.618 64.8842 12.5014C64.7396 12.3847 64.5657 12.3103 64.3815 12.2861C64.1976 12.3098 64.0235 12.3825 63.8775 12.4967C63.7314 12.6109 63.6188 12.7623 63.5515 12.935L60.6314 20.1048C60.4865 20.4654 60.5906 20.7582 60.8713 20.7582C61.0446 20.7263 61.2065 20.6499 61.3412 20.5363C61.4759 20.4228 61.5787 20.2762 61.6395 20.1108L62.0575 19.0952C62.1471 18.9089 62.2851 18.75 62.4572 18.6354C62.6292 18.5207 62.8289 18.4543 63.0354 18.4432H65.382C65.5867 18.4541 65.7842 18.5217 65.9527 18.6384C66.1211 18.7551 66.2538 18.9164 66.3358 19.1042L66.7115 20.0988C66.7766 20.2753 66.8893 20.4304 67.0372 20.5468C67.185 20.6632 67.3622 20.7364 67.5491 20.7582C67.8765 20.7582 68.0275 20.461 67.8901 20.0988L65.2009 12.9471ZM65.4907 16.9115C65.5274 16.9849 65.5436 17.0668 65.5377 17.1486C65.5317 17.2304 65.5037 17.3091 65.4567 17.3763C65.4098 17.4436 65.3455 17.4969 65.2707 17.5306C65.1959 17.5644 65.1134 17.5773 65.0319 17.568H63.384C63.3031 17.578 63.221 17.5653 63.1468 17.5314C63.0726 17.4975 63.0093 17.4438 62.9638 17.3761C62.9183 17.3084 62.8925 17.2295 62.8891 17.148C62.8858 17.0665 62.9051 16.9857 62.9448 16.9145L63.9891 14.2917C64.1385 13.9311 64.3664 13.9341 64.4992 14.2977L65.4907 16.9115Z" fill="black"/>
<path d="M76.396 19.4038C75.9184 19.8213 75.3232 20.0806 74.6922 20.1463C74.4562 20.151 74.2218 20.1067 74.0038 20.016C73.7859 19.9254 73.5891 19.7904 73.4261 19.6196C73.255 19.4669 73.1194 19.2786 73.0287 19.068C72.938 18.8574 72.8944 18.6295 72.901 18.4003C72.9111 17.9847 73.0309 17.5792 73.248 17.2247C73.4877 16.81 73.8574 16.4859 74.2999 16.3027C74.9166 17.3895 75.6174 18.4264 76.396 19.4038ZM77.6471 20.7062C77.8653 20.7515 78.0885 20.7687 78.3111 20.7575C78.6974 20.7575 78.788 20.5327 78.5163 20.2625C78.5163 20.2625 78.0108 19.7525 77.6622 19.3163C78.3458 18.331 78.6964 17.1528 78.6627 15.954H78.3639C77.9791 15.954 77.8433 16.1834 77.7376 16.7146C77.6924 16.9455 77.6169 17.3409 77.5279 17.6578C77.4415 18.0021 77.2943 18.3281 77.0932 18.6206C76.3778 17.7516 75.7485 16.8151 75.2144 15.8243C75.705 15.5648 76.1251 15.1898 76.4383 14.7316C76.7174 14.385 76.8716 13.9543 76.8759 13.5093C76.8702 13.3112 76.8248 13.1164 76.7423 12.9362C76.6599 12.7561 76.5421 12.5943 76.396 12.4605C76.2173 12.3049 76.0095 12.1863 75.7847 12.1115C75.5599 12.0366 75.3225 12.007 75.0861 12.0243C74.8295 12.0105 74.5727 12.0499 74.332 12.14C74.0912 12.2301 73.8717 12.369 73.6872 12.548C73.5098 12.6988 73.3673 12.8864 73.2696 13.0977C73.1719 13.309 73.1213 13.539 73.1213 13.7719C73.1275 13.9824 73.1704 14.1903 73.2481 14.3861C73.3883 14.7506 73.5642 15.1004 73.7732 15.4304C73.82 15.5028 73.6012 15.7412 73.2798 15.954C72.9456 16.1945 72.6548 16.49 72.4196 16.8278C72.0445 17.2816 71.8429 17.8539 71.8507 18.4425C71.8447 18.7861 71.9116 19.1271 72.0472 19.4429C72.1827 19.7587 72.3837 20.0421 72.6369 20.2745C72.8967 20.5259 73.2051 20.7215 73.5433 20.8495C73.8814 20.9774 74.2421 21.0349 74.6032 21.0185C75.0341 21.0264 75.4619 20.9451 75.8597 20.7796C76.2576 20.6142 76.617 20.3682 76.9152 20.0572C77.1315 20.3029 77.3773 20.5209 77.6472 20.7061L77.6471 20.7062ZM74.2094 13.6843C74.2151 13.441 74.3084 13.2079 74.472 13.0278C74.5468 12.9546 74.6356 12.8974 74.7331 12.8595C74.8307 12.8216 74.9348 12.804 75.0394 12.8075C75.274 12.8186 75.5008 12.8949 75.6944 13.0278C75.7745 13.1002 75.8391 13.1881 75.8842 13.2861C75.9293 13.3842 75.9541 13.4904 75.957 13.5983C75.9401 13.8515 75.8488 14.0941 75.6944 14.2955C75.4531 14.6241 75.1398 14.8931 74.7784 15.0817C74.4584 14.6803 74.2609 14.1951 74.2095 13.6843" fill="black"/>
<path d="M87.2143 18.9325C87.0934 18.9594 86.9881 19.0332 86.9216 19.1377C86.8091 19.4053 86.6384 19.6445 86.422 19.838C86.0479 20.0878 85.6039 20.212 85.1544 20.1926C84.822 20.2042 84.4915 20.139 84.1884 20.0022C83.8853 19.8653 83.6179 19.6604 83.4069 19.4033C82.8326 18.5568 82.5565 17.5433 82.6221 16.5225C82.5667 15.5023 82.8419 14.4914 83.4069 13.6401C83.632 13.3915 83.9094 13.1958 84.2191 13.0669C84.5287 12.938 84.8631 12.8792 85.1981 12.8946C85.6286 12.8699 86.0561 12.9791 86.422 13.207C86.6019 13.3435 86.737 13.5305 86.8099 13.7442C86.8701 13.8629 86.9532 13.9686 87.0543 14.0551C87.3411 14.2211 87.7697 13.8846 87.6716 13.4334C87.5685 13.1543 87.4104 12.8987 87.2068 12.6818C86.9254 12.4415 86.599 12.2597 86.2466 12.147C85.8943 12.0343 85.5229 11.9929 85.1544 12.0253C84.6607 12.0088 84.1695 12.102 83.7162 12.2982C83.2629 12.4945 82.8588 12.7889 82.5331 13.1602C81.7621 14.1032 81.3872 15.3086 81.4873 16.5225C81.3991 17.7351 81.7727 18.9361 82.5331 19.8848C82.8586 20.2564 83.2626 20.551 83.716 20.7473C84.1693 20.9435 84.6607 21.0366 85.1544 21.0196C85.5791 21.0281 86.002 20.9623 86.4039 20.825C86.4266 20.8174 86.4447 20.8038 86.4658 20.7963C86.61 20.7399 86.7489 20.6707 86.8808 20.5895C86.9185 20.5639 86.9502 20.5307 86.9879 20.5035C87.0699 20.4469 87.1476 20.3844 87.2204 20.3164C87.2385 20.2983 87.2475 20.2832 87.2641 20.2651C87.2731 20.2545 87.2867 20.247 87.2958 20.2364C87.302 20.2275 87.3071 20.2179 87.3109 20.2077C87.4646 20.0308 87.5866 19.8286 87.6716 19.6101C87.7516 19.2344 87.6006 18.9325 87.2143 18.9325" fill="black"/>
<path d="M94.7891 19.8398C95.518 18.8942 95.8741 17.7137 95.7896 16.5228C95.849 15.3207 95.496 14.1345 94.7891 13.1605C94.4699 12.7923 94.073 12.4996 93.6271 12.3034C93.1811 12.1071 92.6971 12.0123 92.2101 12.0257C91.7301 12.0156 91.2538 12.1121 90.8157 12.3084C90.3775 12.5046 89.9884 12.7956 89.6763 13.1605C88.9031 14.1025 88.5265 15.3082 88.626 16.5228C88.5413 17.7152 88.9009 18.8968 89.6355 19.8398C89.9454 20.2208 90.3387 20.5254 90.7852 20.73C91.2316 20.9347 91.7191 21.0338 92.21 21.0199C92.7024 21.0395 93.1924 20.9429 93.6405 20.7379C94.0886 20.5329 94.482 20.2252 94.789 19.8398H94.7891ZM90.5515 19.3659C89.9798 18.5323 89.7031 17.5316 89.7652 16.5228C89.6931 15.5143 89.9708 14.5118 90.5515 13.6842C90.7446 13.4295 90.9961 13.225 91.2847 13.0876C91.5732 12.9503 91.8906 12.8842 92.21 12.8949C92.5306 12.8769 92.8507 12.9398 93.1407 13.0777C93.4307 13.2156 93.6815 13.4241 93.87 13.6842C94.4512 14.5116 94.7294 15.5141 94.6577 16.5228C94.7194 17.5318 94.4422 18.5325 93.87 19.3659C93.6803 19.6242 93.4291 19.8309 93.1392 19.9675C92.8493 20.104 92.5299 20.1659 92.21 20.1476C91.8913 20.1587 91.5745 20.0935 91.2861 19.9576C90.9976 19.8216 90.7458 19.6188 90.5515 19.3659" fill="black"/>
<path d="M101.611 18.8361C101.549 19.0075 101.442 19.1588 101.301 19.2742C101.16 19.3895 100.99 19.4644 100.81 19.4911C100.628 19.4649 100.457 19.391 100.314 19.277C100.17 19.163 100.06 19.013 99.9933 18.8422L98.3937 14.985C98.2443 14.6303 98.1205 14.6544 98.1205 15.0423V20.054C98.1205 20.4388 97.9062 20.7572 97.6436 20.7572C97.375 20.7572 97.1592 20.4388 97.1592 20.054V12.9944C97.1412 12.8283 97.1882 12.6617 97.2903 12.5295C97.3924 12.3973 97.5418 12.3097 97.707 12.2852C97.8899 12.3108 98.0626 12.3846 98.2077 12.4988C98.3527 12.6131 98.4648 12.7638 98.5325 12.9356L100.594 17.7104C100.748 18.0635 100.995 18.0635 101.137 17.7074L103.055 12.9386C103.117 12.7694 103.222 12.6196 103.361 12.5047C103.5 12.3899 103.667 12.3141 103.845 12.2852C104.131 12.2852 104.368 12.6036 104.368 12.9945V20.054C104.368 20.4388 104.155 20.7572 103.884 20.7572C103.62 20.7572 103.408 20.4388 103.408 20.054V14.911C103.408 14.5292 103.295 14.505 103.153 14.8627L101.611 18.8361Z" fill="black"/>
<path d="M110.768 16.6129C111.04 16.3549 111.254 16.0423 111.397 15.6956C111.54 15.349 111.607 14.9761 111.596 14.6013C111.628 14.2434 111.569 13.8831 111.424 13.5543C111.28 13.2254 111.054 12.9387 110.768 12.721C110.098 12.365 109.339 12.2133 108.584 12.2849H106.925C106.739 12.2865 106.56 12.3621 106.429 12.495C106.298 12.6279 106.224 12.8074 106.225 12.9941V20.0537C106.207 20.1385 106.207 20.2263 106.227 20.3108C106.247 20.3953 106.286 20.4743 106.34 20.5419C106.395 20.6095 106.464 20.664 106.542 20.7015C106.62 20.739 106.706 20.7584 106.793 20.7584C106.879 20.7584 106.965 20.739 107.043 20.7015C107.122 20.664 107.191 20.6095 107.245 20.5419C107.299 20.4743 107.338 20.3953 107.358 20.3108C107.378 20.2263 107.379 20.1385 107.36 20.0537V18.0964C107.361 17.9098 107.436 17.7314 107.568 17.5999C107.701 17.4684 107.88 17.3946 108.066 17.3947H108.407C109.266 17.4495 110.112 17.1693 110.768 16.6129V16.6129ZM110.067 13.5087C110.216 13.6554 110.328 13.834 110.397 14.031C110.465 14.228 110.488 14.4381 110.463 14.6451C110.469 15.1184 110.314 15.5797 110.024 15.9535C109.768 16.1914 109.464 16.3697 109.131 16.4754C108.799 16.5811 108.447 16.6116 108.101 16.5647H108.066C107.88 16.565 107.701 16.4915 107.569 16.3603C107.436 16.2291 107.361 16.0508 107.36 15.8644V13.8634C107.361 13.6767 107.436 13.4981 107.568 13.3663C107.701 13.2346 107.88 13.1605 108.066 13.1602H108.628C109.132 13.1248 109.635 13.2466 110.067 13.5088" fill="black"/>
<path d="M116.078 12.9471C116.017 12.7727 115.91 12.6186 115.767 12.5018C115.624 12.3851 115.452 12.3104 115.269 12.2861C115.084 12.3091 114.908 12.3815 114.761 12.4957C114.614 12.6099 114.5 12.7616 114.431 12.935L111.516 20.1048C111.366 20.4654 111.473 20.7582 111.747 20.7582C111.922 20.7283 112.086 20.6527 112.223 20.5391C112.36 20.4254 112.465 20.2777 112.527 20.1108L112.945 19.0952C113.033 18.9092 113.169 18.7504 113.34 18.6357C113.511 18.5209 113.71 18.4544 113.915 18.4432H116.265C116.47 18.4541 116.667 18.5216 116.836 18.6383C117.005 18.7551 117.138 18.9164 117.22 19.1042L117.596 20.0988C117.661 20.2751 117.774 20.4299 117.922 20.5462C118.07 20.6626 118.247 20.7359 118.433 20.7582C118.756 20.7582 118.912 20.461 118.774 20.0988L116.078 12.9471ZM116.372 16.9115C116.409 16.9843 116.426 17.0658 116.42 17.1473C116.415 17.2288 116.387 17.3074 116.341 17.3746C116.295 17.4419 116.231 17.4953 116.157 17.5294C116.082 17.5634 116 17.5768 115.919 17.568H114.267C114.186 17.5775 114.104 17.5646 114.03 17.5306C113.956 17.4967 113.893 17.4431 113.847 17.3757C113.801 17.3083 113.775 17.2296 113.771 17.1483C113.767 17.0669 113.786 16.9861 113.825 16.9145L114.876 14.2917C115.02 13.9311 115.249 13.9341 115.386 14.2977L116.372 16.9115Z" fill="black"/>
<path d="M126.194 20.0534C126.212 20.2182 126.165 20.3835 126.064 20.5147C125.963 20.646 125.815 20.7332 125.651 20.7582C125.463 20.7342 125.283 20.6679 125.124 20.5644C124.966 20.4609 124.833 20.3229 124.735 20.1606L121.285 14.6298C121.081 14.2993 120.912 14.3476 120.912 14.7384V20.0534C120.912 20.4398 120.676 20.7582 120.386 20.7582C120.102 20.7582 119.864 20.4398 119.864 20.0534V12.9939C119.845 12.8283 119.891 12.6618 119.993 12.5297C120.094 12.3976 120.243 12.3103 120.408 12.2861C120.597 12.3107 120.778 12.3768 120.938 12.4796C121.098 12.5824 121.233 12.7194 121.333 12.8807L124.815 18.3738C125.022 18.7013 125.194 18.65 125.194 18.2651V12.9939C125.194 12.603 125.423 12.2861 125.693 12.2861C125.971 12.2861 126.194 12.603 126.194 12.9939L126.194 20.0534Z" fill="black"/>
<path d="M38.5647 51.3608C39.046 51.3192 39.4912 51.089 39.8032 50.7203C40.1153 50.3516 40.2688 49.8744 40.2302 49.393C40.2302 48.141 39.6128 47.0702 38.4222 47.0702C37.9702 47.0702 37.6807 47.0702 37.6807 47.3996V50.8931C37.6807 51.3608 37.9701 51.3608 38.5647 51.3608V51.3608ZM33.1434 47.997C33.1434 46.4727 31.2099 47.0702 31.0445 46.0207C31.0445 45.2436 31.6833 45.0981 32.506 45.0981C33.0422 45.0981 33.7623 45.1224 34.3526 45.1224C35.4049 45.1224 38.2767 44.8115 39.6128 44.8115C40.8277 44.8115 44.7447 45.7583 44.7447 49.0836V49.2518C44.7447 51.6502 42.9823 53.4797 39.6128 53.6208C39.3661 53.6208 38.502 53.5196 38.05 53.5196C37.8233 53.5196 37.6807 53.5609 37.6807 53.6208V55.3048C37.6807 56.9689 39.1836 56.3757 39.1836 57.4195C39.1836 58.3449 37.5181 58.7983 35.2366 58.7983C32.9979 58.7983 31.6618 58.4903 31.6618 57.4195C31.8073 56.3757 33.1434 57.1343 33.1434 55.3048V47.997H33.1434Z" fill="black"/>
<path d="M55.7761 53.9712C55.7256 51.9855 55.0826 50.0603 53.9295 48.4429C53.7546 48.2144 53.5307 48.0279 53.2744 47.8971C53.018 47.7663 52.7357 47.6946 52.448 47.6872C51.7707 47.6872 51.0962 48.1805 50.9479 49.5366C50.9479 49.6578 50.9065 49.8417 50.9065 49.9658C51.0392 51.6465 51.5673 53.2721 52.448 54.7098C52.6001 55.0323 52.8333 55.31 53.1246 55.5156C53.416 55.7213 53.7557 55.848 54.1106 55.8833C54.5178 55.87 54.9075 55.7143 55.2118 55.4433C55.5161 55.1723 55.7158 54.8033 55.7761 54.4003V53.9712ZM53.2693 44.6271C56.7828 44.6271 60.7454 46.9086 60.7454 51.8137V52.2644C60.7454 56.0017 56.9653 58.7979 53.332 58.7979C51.233 58.7979 46.1212 58.0379 45.8146 51.5029C45.8969 49.6045 46.7271 47.8158 48.1239 46.5275C49.5206 45.2392 51.3705 44.556 53.2693 44.6271" fill="black"/>
<path d="M67.7825 50.4391C67.7611 50.5802 68.0505 50.7471 68.3357 50.7471C68.5604 50.7366 68.7804 50.6798 68.982 50.5801C69.1837 50.4805 69.3625 50.3402 69.5073 50.1681C69.652 49.996 69.7596 49.7958 69.8233 49.5801C69.8869 49.3644 69.9053 49.1379 69.8771 48.9147C69.8771 47.5458 69.0971 46.927 68.5211 46.927C68.4413 46.9283 68.3625 46.9454 68.2893 46.9773C68.2161 47.0091 68.1499 47.0551 68.0946 47.1126C68.0392 47.1701 67.9957 47.238 67.9666 47.3123C67.9376 47.3867 67.9234 47.466 67.9251 47.5458L67.7825 50.4391ZM63.2452 48.4427C63.2452 46.2882 61.7651 46.9897 61.7651 46.0215V45.879C61.7651 44.8722 63.0013 44.6641 64.1906 44.6641C65.1958 44.6641 66.3252 44.8309 66.8784 44.8109C67.6014 44.7896 68.4199 44.6883 69.1613 44.6883C72.0132 44.6883 74.8493 45.4284 74.8493 48.5925C74.8493 50.4391 72.8958 51.0351 72.8958 51.5028L72.8773 51.6297C72.8773 52.2657 74.7452 51.8778 75.1559 53.8099C75.588 55.0191 75.4396 56.3752 76.2225 56.5178C76.4443 56.5328 76.6529 56.6289 76.8085 56.7877C76.9642 56.9465 77.056 57.1569 77.0666 57.379C77.0666 58.0777 76.2225 58.9432 74.1079 58.9432C72.3012 58.9432 71.0293 58.3629 70.4718 56.8258C70.0212 55.5723 69.977 52.866 68.4626 52.866H68.2345C67.9251 52.866 67.7825 53.4406 67.7825 54.0751C67.7825 54.6056 67.908 55.2472 67.9251 55.7791C67.9479 56.6019 69.1157 56.5591 69.1157 57.4204V57.5872C68.9731 58.7992 66.5904 58.7992 65.6479 58.7992C64.6398 58.7992 61.8692 58.6324 61.8692 57.379L61.9063 57.2792C62.0546 56.2297 63.2452 56.9683 63.2452 54.7111L63.2452 48.4427Z" fill="black"/>
<path d="M86.6335 54.8539C86.6335 56.9685 88.463 55.9247 88.463 57.2794C88.463 58.3445 87.2695 58.7994 84.2337 58.7994C82.9176 58.7994 79.8162 58.7994 79.8162 57.3792L79.8575 57.2793C79.9987 55.9247 81.4973 57.1353 81.6428 54.8538C81.7284 53.4792 81.851 51.5913 81.851 50.1497C81.851 49.5765 81.851 48.9591 81.8096 48.5926C81.8096 47.9966 81.5829 47.7242 81.3148 47.7242C80.9666 47.7947 80.6584 47.9957 80.4536 48.286C80.1869 48.547 79.6294 50.0314 78.5015 50.0314C78.4388 50.0314 78.2976 49.9829 78.2135 49.9829C77.6203 49.8874 77.3095 49.1459 77.3095 48.3217C77.3145 47.2388 77.7422 46.2007 78.5015 45.4285C79.1375 44.8525 79.4868 44.6885 79.7121 44.6885C80.1471 44.8201 80.5934 44.9103 81.0453 44.958H87.5575C88.035 44.9061 88.5096 44.8295 88.9792 44.7284C89.4092 44.7728 89.8089 44.9701 90.1056 45.2845C90.9118 46.1563 91.3893 47.2816 91.456 48.4672C91.4902 48.7465 91.4357 49.0294 91.3004 49.276C91.165 49.5227 90.9556 49.7206 90.7017 49.8418C90.4767 49.96 90.2275 50.0248 89.9734 50.0309C89.7193 50.0371 89.4672 49.9845 89.2367 49.8773C89.0063 49.7701 88.8037 49.6111 88.6448 49.4128C88.4858 49.2144 88.3748 48.982 88.3204 48.7338C88.0096 48.0564 87.5162 47.7242 87.1882 47.7242C86.8802 47.7242 86.6336 48.0351 86.6336 48.5926V54.8538L86.6335 54.8539Z" fill="black"/>
<path d="M94.2498 47.8508C94.0673 46.3337 92.7526 46.9268 92.7526 46.0214C92.7526 45.9801 92.7326 45.9244 92.7326 45.8788C92.7326 45.2443 93.4698 44.8108 94.4152 44.8108H101.337C101.523 44.8108 101.749 44.8521 101.89 44.8521C102.631 44.8185 103.364 44.6876 104.07 44.4629C104.168 44.4578 104.266 44.4724 104.358 44.5057C104.716 44.8624 104.996 45.2886 105.183 45.758C105.37 46.2274 105.458 46.73 105.443 47.2349C105.443 47.9978 105.177 48.5938 104.498 48.5938C104.479 48.5938 104.358 48.6323 104.315 48.6323C103.082 48.6323 103.905 46.7843 100.577 46.7843C98.7941 46.7843 98.6287 47.5457 98.6287 48.4426C98.6287 49.1456 98.6287 50.4816 99.3887 50.4816C99.4273 50.4816 99.4914 50.4389 99.5285 50.4389C99.5699 50.4389 99.6754 50.4816 99.7153 50.4816C101.481 50.4816 100.066 48.407 101.481 48.2858C102.714 48.4426 102.855 50.2934 102.855 51.2018C102.855 51.9575 102.855 54.4001 101.481 54.4001C101.431 54.4092 101.383 54.4241 101.337 54.4443C100.31 54.4443 101.254 52.411 99.6754 52.411C98.9354 52.411 98.7942 53.0084 98.7942 54.4001C98.7942 56.3151 99.4273 56.559 100.166 56.559C100.434 56.559 100.762 56.5176 101.03 56.5176C104.663 56.5176 103.761 53.8098 105.261 53.6216C106.001 53.6216 106.306 54.2604 106.306 55.019C106.306 56.5176 105.219 58.7991 104.663 58.7991C104.07 58.7991 103.019 58.4911 101.481 58.4911H94.8458C94.6405 58.4911 94.3738 58.5339 94.1913 58.5339C93.4698 58.5339 92.9165 58.3856 92.9165 57.5871C93.2032 56.8256 93.9617 57.1351 94.2498 55.9245C94.4714 54.7171 94.5893 53.493 94.602 52.2655C94.602 51.8563 94.5592 51.4485 94.5592 51.2018C94.5008 49.8415 94.3738 48.9146 94.2498 47.8509" fill="black"/>
<path d="M113.671 50.4391C113.652 50.5802 113.939 50.7471 114.225 50.7471C114.45 50.7365 114.67 50.6796 114.872 50.5799C115.073 50.4802 115.252 50.34 115.397 50.1679C115.542 49.9958 115.649 49.7957 115.713 49.58C115.777 49.3644 115.795 49.1379 115.767 48.9147C115.767 47.5458 114.988 46.927 114.414 46.927C114.333 46.9272 114.254 46.9435 114.18 46.9749C114.106 47.0063 114.039 47.0522 113.983 47.1099C113.927 47.1675 113.883 47.2358 113.853 47.3106C113.824 47.3855 113.81 47.4655 113.812 47.5458L113.671 50.4391ZM109.136 48.4427C109.136 46.2882 107.656 46.9897 107.656 46.0215V45.879C107.656 44.8722 108.884 44.6641 110.079 44.6641C111.081 44.6641 112.214 44.8309 112.767 44.8109C113.485 44.7896 114.308 44.6883 115.048 44.6883C117.903 44.6883 120.738 45.4284 120.738 48.5925C120.738 50.4391 118.787 51.0351 118.787 51.5028L118.76 51.6297C118.76 52.2657 120.631 51.8778 121.047 53.8099C121.473 55.0191 121.328 56.3752 122.114 56.5178C122.335 56.5331 122.544 56.6293 122.699 56.7881C122.854 56.9468 122.946 57.1571 122.956 57.379C122.956 58.0777 122.114 58.9432 119.996 58.9432C118.188 58.9432 116.915 58.3629 116.362 56.8258C115.912 55.5723 115.868 52.866 114.348 52.866H114.123C113.812 52.866 113.671 53.4406 113.671 54.0751C113.671 54.6056 113.795 55.2472 113.812 55.7791C113.835 56.6019 115.007 56.5591 115.007 57.4204V57.5872C114.86 58.7992 112.482 58.7992 111.535 58.7992C110.531 58.7992 107.756 58.6324 107.756 57.379L107.797 57.2792C107.943 56.2297 109.136 56.9683 109.136 54.7111L109.136 48.4427Z" fill="black"/>
<path d="M0 102.665H154V0H0V102.665ZM152.502 101.169H1.49921V1.49447H152.502L152.502 101.169Z" fill="black"/>
<path d="M12.8338 94.1102H141.168V8.55469H12.8338V94.1102ZM139.668 92.6099H14.3308V10.0521H139.668V92.6099Z" fill="black"/>
<path d="M50.7169 38.2195H22.6735V65.1715H50.6953L77.0001 80.6463L103.303 65.1715H131.327V38.2195H103.285L77.0001 22.7607L50.7169 38.2195ZM77.0001 24.4971L100.332 38.2195H53.6701L77.0001 24.4971ZM77.0001 78.907L53.6487 65.1715H100.349L77.0001 78.907ZM24.1698 39.7173H129.829V63.6745H24.1698V39.7173Z" fill="black"/>
<path d="M95.9314 82.7019C95.8386 82.5204 95.7005 82.366 95.5305 82.2536C95.3605 82.1413 95.1643 82.0748 94.961 82.0605C94.7551 82.0732 94.5558 82.1381 94.3821 82.2493C94.2083 82.3605 94.0658 82.5142 93.968 82.6959L90.4458 89.9003C90.2768 90.2504 90.4035 90.5341 90.737 90.5341C90.9302 90.5137 91.1153 90.4457 91.2757 90.3361C91.4361 90.2265 91.5668 90.0789 91.6561 89.9064L92.1798 88.85C92.2827 88.668 92.4299 88.515 92.6077 88.405C92.7854 88.295 92.9881 88.2316 93.1968 88.2207H96.2966C96.504 88.2304 96.7051 88.2947 96.8798 88.407C97.0544 88.5193 97.1963 88.6758 97.2911 88.8605L97.7544 89.8912C97.8503 90.0766 97.9931 90.2335 98.1687 90.3464C98.3443 90.4592 98.5464 90.5239 98.7549 90.5341H98.7624C98.842 90.5451 98.9231 90.5331 98.9962 90.4996C99.0692 90.4661 99.1311 90.4124 99.1747 90.3449C99.2183 90.2774 99.2417 90.1988 99.2422 90.1185C99.2427 90.0381 99.2202 89.9593 99.1774 89.8912L95.9314 82.7019ZM96.2921 86.707C96.3355 86.774 96.3586 86.8521 96.3586 86.932C96.3586 87.0118 96.3355 87.0899 96.2921 87.1569C96.2487 87.2239 96.1869 87.2769 96.114 87.3095C96.0412 87.3422 95.9605 87.3531 95.8816 87.3409H93.6194C93.5413 87.3531 93.4613 87.3423 93.3892 87.31C93.3171 87.2776 93.2559 87.225 93.2131 87.1585C93.1703 87.092 93.1476 87.0146 93.148 86.9355C93.1483 86.8565 93.1716 86.7792 93.215 86.7131L94.4932 84.048C94.6653 83.7024 94.9293 83.7024 95.0923 84.0571L96.2921 86.707Z" fill="black"/>
<path d="M106.243 86.3876C106.557 86.1555 106.811 85.8517 106.984 85.5015C107.157 85.1513 107.243 84.7649 107.236 84.3745C107.265 83.9997 107.188 83.6243 107.012 83.292C106.836 82.9597 106.569 82.6841 106.243 82.4972C105.421 82.1333 104.52 81.9828 103.623 82.0596H101.499C101.312 82.0608 101.134 82.1354 101.002 82.2673C100.87 82.3992 100.795 82.5778 100.794 82.7643V89.8269C100.79 89.9186 100.805 90.01 100.838 90.0957C100.871 90.1814 100.92 90.2596 100.984 90.3257C101.048 90.3918 101.124 90.4443 101.208 90.4802C101.293 90.5161 101.384 90.5346 101.475 90.5346C101.567 90.5346 101.658 90.5161 101.742 90.4802C101.827 90.4443 101.903 90.3918 101.966 90.3257C102.03 90.2596 102.08 90.1814 102.112 90.0957C102.145 90.01 102.16 89.9186 102.157 89.8269V87.8741C102.157 87.6879 102.231 87.5094 102.363 87.3774C102.494 87.2455 102.672 87.1707 102.858 87.1693H103.411C104.416 87.2332 105.413 86.9579 106.243 86.3876V86.3876ZM105.403 83.2834C105.574 83.4155 105.707 83.59 105.79 83.7896C105.873 83.9892 105.902 84.2069 105.875 84.4213C105.879 84.9094 105.69 85.3792 105.348 85.7281C104.689 86.2227 103.863 86.4419 103.045 86.3393H102.858C102.672 86.3386 102.494 86.2642 102.362 86.1324C102.231 86.0007 102.157 85.8222 102.157 85.6361V83.6411C102.156 83.4545 102.23 83.2754 102.362 83.143C102.493 83.0106 102.672 82.9357 102.858 82.9348H103.675C104.271 82.8952 104.868 83.0155 105.403 83.2834" fill="black"/>
<path d="M112.818 82.7019C112.726 82.5204 112.588 82.3659 112.418 82.2534C112.248 82.141 112.052 82.0746 111.849 82.0605C111.644 82.0736 111.445 82.1388 111.272 82.25C111.099 82.3611 110.957 82.5146 110.859 82.6959L107.333 89.9003C107.165 90.2504 107.298 90.5341 107.628 90.5341C107.821 90.5136 108.006 90.4455 108.166 90.3359C108.326 90.2263 108.456 90.0787 108.544 89.9064L109.065 88.85C109.17 88.6688 109.318 88.5164 109.497 88.4066C109.675 88.2968 109.878 88.2329 110.087 88.2207H113.188C113.395 88.2307 113.595 88.2951 113.769 88.4074C113.943 88.5198 114.084 88.6761 114.178 88.8605L114.65 89.8912C114.744 90.0767 114.885 90.2339 115.06 90.3468C115.234 90.4598 115.436 90.5244 115.643 90.5341H115.648C115.728 90.5461 115.809 90.5348 115.883 90.5016C115.957 90.4683 116.019 90.4146 116.063 90.3467C116.107 90.2788 116.13 90.1997 116.13 90.119C116.13 90.0382 116.107 89.9591 116.063 89.8912L112.818 82.7019ZM113.18 86.707C113.223 86.7743 113.245 86.8524 113.245 86.932C113.245 87.0116 113.221 87.0894 113.178 87.1562C113.134 87.223 113.073 87.2759 113 87.3086C112.928 87.3413 112.847 87.3525 112.768 87.3409H110.506C110.428 87.3534 110.348 87.3428 110.276 87.3103C110.204 87.2779 110.143 87.225 110.1 87.1582C110.058 87.0914 110.036 87.0136 110.037 86.9345C110.039 86.8554 110.063 86.7784 110.108 86.7131L111.385 84.048C111.552 83.7024 111.816 83.7024 111.979 84.0571L113.18 86.707Z" fill="black"/>
<path d="M125.525 89.8273C125.531 90.0084 125.464 90.1844 125.341 90.3169C125.217 90.4495 125.047 90.5279 124.866 90.5351C124.658 90.5183 124.455 90.4596 124.27 90.3626C124.085 90.2656 123.922 90.1323 123.79 89.9707L119.608 84.3735C119.374 84.0641 119.184 84.126 119.184 84.5123V89.8273C119.194 89.9162 119.186 90.0062 119.159 90.0916C119.133 90.177 119.088 90.2557 119.029 90.3227C118.969 90.3896 118.896 90.4431 118.815 90.4798C118.733 90.5165 118.645 90.5355 118.555 90.5355C118.466 90.5355 118.377 90.5165 118.296 90.4798C118.214 90.4431 118.141 90.3896 118.082 90.3227C118.022 90.2557 117.978 90.177 117.951 90.0916C117.924 90.0062 117.916 89.9162 117.927 89.8273V82.7648C117.921 82.5854 117.987 82.4111 118.109 82.2795C118.231 82.1479 118.399 82.0696 118.579 82.0615C118.788 82.0775 118.991 82.1351 119.178 82.231C119.364 82.3269 119.529 82.4591 119.664 82.6199L123.892 88.1794C124.131 88.4948 124.321 88.4269 124.321 88.039V82.7648C124.307 82.6779 124.313 82.589 124.337 82.5044C124.361 82.4198 124.403 82.3414 124.46 82.2746C124.517 82.2078 124.588 82.1541 124.668 82.1174C124.748 82.0806 124.835 82.0615 124.923 82.0615C125.011 82.0615 125.098 82.0806 125.178 82.1174C125.258 82.1541 125.329 82.2078 125.386 82.2746C125.443 82.3414 125.485 82.4198 125.509 82.5044C125.533 82.589 125.539 82.6779 125.525 82.7648V89.8273Z" fill="black"/>
<path d="M88.1273 82.0605C87.9436 82.0644 87.7688 82.1406 87.6408 82.2725C87.5128 82.4045 87.442 82.5815 87.4437 82.7653V87.1673C87.4437 87.5552 87.4256 88.186 87.4014 88.5723C87.3889 88.8895 87.3146 89.2012 87.1826 89.4898C87.0351 89.6432 86.8551 89.7616 86.6559 89.8366C86.4567 89.9115 86.2433 89.941 86.0312 89.923C85.6276 89.9296 85.2316 89.8127 84.8963 89.588C84.7443 89.4726 84.6024 89.3443 84.4723 89.2047C84.0347 88.6825 83.3103 89.1066 83.4703 89.5246C83.6097 89.837 83.8272 90.1083 84.1018 90.3123C84.3764 90.5163 84.6989 90.6463 85.0383 90.6896V90.6911L85.0458 90.6926C85.3699 90.7604 85.7002 90.7943 86.0313 90.7937V90.7892C86.066 90.7892 86.0962 90.7937 86.1324 90.7937C86.6754 90.7986 87.2125 90.6805 87.7034 90.4482C88.0607 90.2425 88.3522 89.9394 88.5439 89.5744C88.7354 89.0436 88.825 88.4814 88.808 87.9174V82.7653C88.8099 82.582 88.7395 82.4053 88.6122 82.2734C88.4848 82.1415 88.3107 82.0651 88.1274 82.0605" fill="black"/>
<path d="M33.6946 82.0605C34.0795 82.0605 34.4009 82.2598 34.4009 82.4967C34.4009 82.7351 34.0795 82.9343 33.6946 82.9343H31.6951C31.6023 82.9345 31.5105 82.953 31.4249 82.9887C31.3393 83.0243 31.2615 83.0765 31.1961 83.1422C31.1307 83.208 31.0788 83.2859 31.0435 83.3717C31.0082 83.4575 30.9901 83.5493 30.9903 83.6421V89.8264C30.9974 89.9167 30.9856 90.0075 30.9559 90.093C30.9262 90.1785 30.8791 90.257 30.8176 90.3235C30.7561 90.3899 30.6815 90.443 30.5985 90.4792C30.5155 90.5155 30.4259 90.5342 30.3354 90.5342C30.2448 90.5342 30.1553 90.5155 30.0723 90.4792C29.9893 90.443 29.9147 90.3899 29.8532 90.3235C29.7917 90.257 29.7446 90.1785 29.7149 90.093C29.6852 90.0075 29.6734 89.9167 29.6804 89.8264V83.6421C29.6807 83.5492 29.6627 83.4572 29.6273 83.3713C29.5919 83.2854 29.5399 83.2073 29.4743 83.1415C29.4087 83.0758 29.3307 83.0236 29.2449 82.9881C29.1591 82.9525 29.0671 82.9342 28.9742 82.9343H26.9278C26.5385 82.9343 26.2216 82.7351 26.2216 82.4967C26.2216 82.2598 26.5385 82.0605 26.9278 82.0605H33.6946Z" fill="black"/>
<path d="M42.5037 89.6175C42.9258 89.179 43.2511 88.6568 43.4586 88.0846C43.666 87.5124 43.751 86.9031 43.708 86.296C43.7667 85.0605 43.3337 83.8522 42.5037 82.9352C41.6622 82.1651 40.5515 81.757 39.4116 81.7988C38.2888 81.7624 37.197 82.1708 36.3738 82.9352C35.9292 83.3679 35.5858 83.8936 35.3685 84.4747C35.1511 85.0557 35.0652 85.6777 35.1167 86.296C35.0731 86.903 35.1577 87.5124 35.3649 88.0846C35.5721 88.6568 35.8973 89.1791 36.3194 89.6175C36.7295 90.0112 37.2146 90.3183 37.7458 90.5205C38.277 90.7227 38.8436 90.8159 39.4116 90.7946C39.9804 90.8225 40.5487 90.7323 41.0809 90.5297C41.6131 90.3271 42.0975 90.0165 42.5037 89.6175V89.6175ZM37.4181 89.1345C36.746 88.3473 36.4076 87.3289 36.4749 86.296C36.4379 85.7845 36.5021 85.2708 36.664 84.7842C36.8258 84.2976 37.0821 83.8477 37.4181 83.4604C37.6754 83.1952 37.9863 82.988 38.3301 82.8527C38.6739 82.7173 39.0426 82.657 39.4116 82.6756C39.7811 82.6498 40.1517 82.7068 40.4964 82.8426C40.841 82.9784 41.151 83.1894 41.4036 83.4604C41.7399 83.8476 41.9964 84.2974 42.1585 84.784C42.3206 85.2706 42.3851 85.7844 42.3483 86.296C42.4151 87.3291 42.0762 88.3475 41.4036 89.1345C41.1516 89.4065 40.8418 89.6184 40.4971 89.7547C40.1523 89.8911 39.7814 89.9483 39.4116 89.9223C39.0423 89.9411 38.6733 89.8805 38.3294 89.7447C37.9855 89.6088 37.6748 89.4007 37.4181 89.1345" fill="black"/>
<path d="M49.0629 85.5501C48.9959 85.6112 48.9425 85.6857 48.9062 85.7688C48.8699 85.8519 48.8515 85.9418 48.8522 86.0324C48.8529 86.1231 48.8727 86.2127 48.9103 86.2952C48.9479 86.3777 49.0025 86.4514 49.0705 86.5114L52.9051 90.0593C53.1903 90.3159 53.1073 90.5347 52.7165 90.5347H52.4509C52.0026 90.5098 51.5746 90.3398 51.2315 90.0503L47.5433 86.605C47.2626 86.3394 47.0287 86.439 47.0287 86.8298V89.8269C47.0322 89.9186 47.0171 90.01 46.9845 90.0957C46.9518 90.1814 46.9022 90.2597 46.8386 90.3257C46.7749 90.3918 46.6986 90.4444 46.6142 90.4803C46.5298 90.5162 46.439 90.5347 46.3473 90.5347C46.2556 90.5347 46.1648 90.5162 46.0804 90.4803C45.996 90.4444 45.9197 90.3918 45.8561 90.3257C45.7925 90.2597 45.7428 90.1814 45.7102 90.0957C45.6775 90.01 45.6625 89.9186 45.666 89.8269V82.7643C45.6629 82.6729 45.6782 82.5818 45.7111 82.4965C45.744 82.4111 45.7936 82.3333 45.8572 82.2675C45.9208 82.2018 45.9969 82.1495 46.0811 82.1138C46.1653 82.0781 46.2559 82.0597 46.3473 82.0597C46.4388 82.0597 46.5293 82.0781 46.6135 82.1138C46.6977 82.1495 46.7738 82.2018 46.8374 82.2675C46.901 82.3333 46.9507 82.4111 46.9835 82.4965C47.0164 82.5818 47.0317 82.6729 47.0287 82.7643V85.4173C47.0287 85.8097 47.2565 85.9017 47.5372 85.6331L50.7667 82.547C51.1067 82.2558 51.5331 82.0845 51.98 82.0596H52.0358C52.4282 82.0596 52.5127 82.2784 52.2335 82.547L49.0629 85.5501Z" fill="black"/>
<path d="M69.9165 89.6175C70.3391 89.1795 70.6648 88.6573 70.8723 88.085C71.0798 87.5127 71.1644 86.9032 71.1207 86.296C71.1505 85.6842 71.0595 85.0725 70.8529 84.4959C70.6463 83.9192 70.3281 83.3889 69.9165 82.9353C69.0752 82.1647 67.9644 81.7565 66.8243 81.7989C65.7006 81.7622 64.6078 82.1706 63.7835 82.9353C63.3394 83.3684 62.9965 83.8941 62.7792 84.4751C62.5619 85.0561 62.4756 85.6778 62.5264 86.296C62.4826 86.9033 62.5674 87.513 62.7751 88.0854C62.9829 88.6577 63.309 89.1798 63.7322 89.6175C64.142 90.0116 64.627 90.3189 65.1583 90.5212C65.6896 90.7234 66.2563 90.8164 66.8243 90.7946C67.393 90.822 67.9612 90.7316 68.4933 90.529C69.0254 90.3264 69.5099 90.0161 69.9165 89.6175ZM64.8323 89.1346C64.1591 88.3479 63.8201 87.3292 63.8876 86.296C63.8505 85.7844 63.9148 85.2706 64.0769 84.7839C64.239 84.2973 64.4958 83.8475 64.8323 83.4604C65.089 83.1948 65.3996 82.9873 65.7432 82.8519C66.0868 82.7166 66.4555 82.6565 66.8243 82.6757C67.1934 82.6501 67.5635 82.7073 67.9076 82.8431C68.2517 82.9789 68.5611 83.1898 68.8133 83.4604C69.1511 83.8468 69.4086 84.2965 69.5711 84.7833C69.7335 85.27 69.7976 85.7843 69.7596 86.296C69.8288 87.3297 69.489 88.3492 68.8133 89.1346C68.5618 89.4063 68.2525 89.618 67.9083 89.7544C67.5641 89.8907 67.1937 89.9481 66.8243 89.9224C66.4552 89.9418 66.0862 89.8815 65.7425 89.7455C65.3988 89.6096 65.0884 89.4012 64.8323 89.1346Z" fill="black"/>
<path d="M57.5741 84.8724C57.6221 84.9483 57.6885 85.0108 57.7671 85.0542C57.8457 85.0975 57.9341 85.1202 58.0239 85.1202C58.1136 85.1202 58.202 85.0975 58.2806 85.0542C58.3592 85.0108 58.4256 84.9483 58.4736 84.8724L60.1124 82.663C60.2155 82.4702 60.3719 82.3112 60.563 82.2049C60.7541 82.0987 60.9718 82.0497 61.1899 82.0639C61.5189 82.0987 61.6246 82.3371 61.3861 82.6691L58.9942 85.9589C58.7308 86.3484 58.5785 86.8023 58.5535 87.2719V89.8298C58.5596 89.92 58.5471 90.0106 58.5168 90.0958C58.4864 90.181 58.4389 90.2591 58.3772 90.3252C58.3154 90.3913 58.2407 90.4439 58.1577 90.48C58.0748 90.516 57.9853 90.5346 57.8948 90.5346C57.8044 90.5346 57.7149 90.516 57.6319 90.48C57.5489 90.4439 57.4742 90.3913 57.4125 90.3252C57.3507 90.2591 57.3032 90.181 57.2728 90.0958C57.2425 90.0106 57.23 89.92 57.2361 89.8298V87.2719C57.2115 86.8027 57.0603 86.3489 56.7985 85.9589L54.3658 82.663C54.1228 82.334 54.2662 82.0639 54.6857 82.0639C54.9092 82.0587 55.1305 82.1076 55.331 82.2064C55.5315 82.3052 55.7051 82.451 55.8372 82.6313L57.5741 84.8724Z" fill="black"/>
<path d="M76.9603 87.6638C77.5975 87.6638 78.114 87.1473 78.114 86.5101C78.114 85.873 77.5975 85.3564 76.9603 85.3564C76.3231 85.3564 75.8066 85.873 75.8066 86.5101C75.8066 87.1473 76.3231 87.6638 76.9603 87.6638Z" fill="black"/>
</g>
<defs>
<clipPath id="clip0_236_2">
<rect width="154" height="102.665" fill="white"/>
</clipPath>
</defs>
</svg>
