<?xml version="1.0" encoding="utf-8"?>
<!-- Generator: Adobe Illustrator 19.2.1, SVG Export Plug-In . SVG Version: 6.00 Build 0)  -->
<svg version="1.1" id="Ray_Ban" xmlns="http://www.w3.org/2000/svg" xmlns:xlink="http://www.w3.org/1999/xlink" x="0px" y="0px"
	 width="400px" height="220px" viewBox="0 0 400 220" enable-background="new 0 0 400 220" xml:space="preserve">
<title>Ray Ban</title>
<g>
	<path d="M220.7,115.4c5.1,0,8.6,3.2,8.6,6.8c0,5-5.1,12.3-15,12.3c-7.4,0-8.4-4.7-8.4-6.8C205.8,124,211.2,115.4,220.7,115.4z"/>
	<path d="M240.4,138.1c0-2.4,0.6-9.2,0.6-12.9l-0.8-63.1c0-16.4,4.9-27.2,9.8-34.3c4.8-7,16-20,31.5-20c11.9,0,18.2,9.7,18.2,20.4
		c0,11.8-4,21.2-17.7,34c-13.7,12.8-17.1,13.2-17.1,16.8c0,3.5,4.4,5.7,6.8,7.4c2.4,1.7,11.7,8,16.2,12.1c4.6,4,6,6.8,6,10.7
		c0,6.7-2.9,10.4-5.7,14.6c-4.4,6.7-21,23.4-29.4,39.5c-2,3.2-3.5,3.1-4.9,1.4c-2.4-3.1-4.3-5.6-5-7.8c-0.7-2.2-1.9-5.8,0.3-9.3
		c2.2-3.5,17.9-22.9,23.4-30c4.9-6.2,4.7-15,1.1-18.4c-3.6-3.5-11.8-10.8-14.3-13.7c-2.1-2.5-3.6-7.7,0-11.9
		c11.4-13.2,23.6-28,23.6-42.7c0-8.3-5.4-14-9.7-14c-10.4,0-19.4,19.4-19.8,37l1.9,68.8c0,5.1,0.1,7.6-3.7,12.1
		c-3.7,4.3-7.4,5.7-9.4,5.7C241.1,140.4,240.4,139.5,240.4,138.1z"/>
	<path d="M386.3,68.7c0,2.3,1.9,4.3,4.3,4.3c2.4,0,4.3-1.9,4.3-4.3c0-2.4-1.9-4.3-4.3-4.3C388.2,64.4,386.3,66.3,386.3,68.7z
		 M387.5,68.7c0-2,1.3-3.3,3-3.3c1.7,0,3,1.4,3,3.3c0,2-1.3,3.3-3,3.3C388.8,72,387.5,70.7,387.5,68.7z M388.8,71h1v-2h0.5l1.1,2h1
		l-1.3-2.1c0.7-0.1,1.3-0.4,1.3-1.3c0-1.1-0.7-1.4-1.9-1.4h-1.8V71z M389.8,68.3v-1.2h0.7c0.4,0,0.9,0.1,0.9,0.5
		c0,0.5-0.3,0.6-0.8,0.6H389.8z"/>
	<path d="M194.2,121.1c-2.1,0-5,4.6-7.6,10c-2.6,5.4-5.7,15.1-9,15.1c-2.8,0-3.2-10.7-3.5-13c-0.3-2.4-1.6-4.5-4.4-4.5
		c-1.5,0-3.3,1.7-4,3.5c-2.5,6.9-5.8,21.6-11,21.6c-2.4,0-5.3-6-5.3-9.8c0-7.7-3-8.7-6.1-8.7c-3.5,0-4.8,4.8-7.1,4.8
		c-1.9,0-2.9-0.4-4.6-0.4c-9.4,0-19.3,16-19.3,26.8c0,7.3,4.1,8.5,7.1,8.5c10.4,0,16.6-15.7,19.8-15.7c2.8,0,0.8,8.9,8.7,8.9
		c8.2,0,12.6-14.4,15.5-14.4c2.9,0,0,8.7,6.8,8.7c4,0,6.5-3.8,10.4-9.6c1.3-1.9,3.2-2.5,3.2,0.7l-0.7,56c0,1.1,0.7,2.4,1.8,2.4
		c1.1,0,7.2-0.1,8.3-0.1c1.1,0,1.8-1,1.7-2.2c-0.1-1.2,0.6-69.8,1-85C196,123,196.3,121.1,194.2,121.1z M126.2,165.6
		c-1.1,0-2.1-0.6-2.1-2.5c0-4.2,7.7-16.8,11.4-16.8c1.2,0,2.1,1.2,2.1,2.6C137.6,152.7,129.4,165.6,126.2,165.6z"/>
	<path d="M396.3,89.8c-1.2-1.2-4.2,1.4-5.8,1.4c-5.3,0-7.4-9.7-8.6-14.4c-1.3-4.7-2.4-8.2-6-8.2c-5.1,0-9,10-11,14.7
		c-1.6,3.9-3.6,3.5-3.6,1c0,0-0.3-4.9-0.3-6.9c0-2.1-2.2-3.6-3.7-3.6s-3.6,0.8-5.4,4.2c-1.8,3.3-6.7,13.9-7.9,16.9
		c-1.4,3.3-2.2,5.7-4.7,5.7c-3.3,0-3.9-7.6-4.6-12.2c-0.4-2.9-1.3-6.4-5-6.4c-2.2,0-3.2,1.5-4.3,2.8c-1.1,1.3-3,1.7-4.7,1.7
		c-11.8,0-22.6,19.1-22.6,30.1c0,5.7,1.8,8.4,5.5,8.4c3.7,0,6.1-1.9,9-4.4c2.9-2.5,9.2-10.7,10.4-12.6c1.3-1.9,2.4-0.7,2.8,0.8
		c0.9,3.2,2.8,7.5,8,7.5c6.1,0,9-6.8,12.2-12.6c1.9-3.5,3.1-1.8,3.1-0.1c0,4.2,0.7,6.7,3.9,6.7c4.9,0,9.6-9.6,11.9-14.7
		c2.4-5.1,3.6-8.3,5.6-8.3c2.2,0,3.1,6.5,4.6,10.3c1.8,4.5,4.6,6,8.3,6c3.7,0,6.4-2.6,8.7-5.4C394.5,95,397.4,90.9,396.3,89.8z
		 M312.6,111.5c-1.2,0-2.1-1.4-2.1-2.8c0-3.7,7.6-14.6,11.2-14.6c1.2,0,1.7,0.8,1.7,1.8C323.4,98.8,316.4,111.5,312.6,111.5z"/>
	<path d="M75.7,179.5c0-2.1-1.9-2.8-1.9-2.8l-18.3-8.5c-3.1-1.5-2.7-2.9,0-4.6l17.9-11.2c2.1-1.2,2.3-2.9,2.3-5.2l-0.2-58.7
		c0-1.9,0.2-3.1,1.9-4.2l7.1-4.6c2.9-1.5,5.6-1.5,5.6,2.1v53.5c0,2.5,1.2,4.4,4.4,1.9c17.1-13.5,33.7-27.7,33.7-49.3
		c0-12.5-7.9-20.2-18.9-20.2c-26.8,0-71.5,30.5-88,41.8c-3.7,2.5-12.7,10.2-14.4,11.9c-1.7,1.7-3.3,2.3-3.3-1
		c0-3.3,0.2-7.9,0.2-11.7c0-3.7,1.4-11.4,6.7-14.8c37-23.5,71.8-37.9,95.9-37.9s32.5,16.2,32.5,27.9c0,21.8-16,41.4-47.2,65.1
		c-1.5,1.2-1.5,3.5-1.5,4.2v11c0,2.5,1.3,4,3.5,5l48.5,22.9c4.8,2.3,4.4,5.4,3.5,7.1c-0.8,1.7-1.6,4-2.7,5c-2.5,2.3-4.6,2.9-8.7,1.3
		L94,186.3c-2.3-1.5-4-0.4-4.2,1.5l0.4,10.2c0,2.5-0.8,5.2-3.5,6.9c-2.7,1.7-5.8,3.7-7.5,4.6c-1.7,0.8-3.3,1.2-3.3-1.7
		c0-2.9-0.2-26.7-0.2-26.7C75.7,181.1,75.7,181.6,75.7,179.5z"/>
</g>
</svg>
