<?xml version="1.0" encoding="utf-8"?>
<!-- Generator: Adobe Illustrator 22.1.0, SVG Export Plug-In . SVG Version: 6.00 Build 0)  -->
<svg version="1.1" id="Слой_1" xmlns="http://www.w3.org/2000/svg" xmlns:xlink="http://www.w3.org/1999/xlink" x="0px" y="0px"
	 width="400px" height="220px" viewBox="0 0 400 220" style="enable-background:new 0 0 400 220;" xml:space="preserve">
<style type="text/css">
	.st0{fill:#231F20;}
</style>
<g id="XMLID_645_">
	<path id="XMLID_658_" class="st0" d="M340.4,154c0,7.3,11.4,7.3,11.4,0v-40.6c0-1.3-0.1-2.8-0.2-4.2c18.9,3.9,52.9-12.6,31.5-38.4
		c-8.6-10.4-33.2-24.5-42.3-7.3c-4.3,8.2-1.2,19.2-0.6,27.9C341.5,112.1,340.4,133.3,340.4,154 M357.2,69.8
		c8.5,1.5,15.7,3.6,19.4,11.1c10.8,22.5-25.4,17.6-26.1,16.7c-0.4-5.2-1-13.5-0.8-18.1C349.9,72.2,348.5,69.1,357.2,69.8"/>
	<path id="XMLID_657_" class="st0" d="M319.9,143.4c0-26.8-1.8-53.7-1.5-80.4c0.1-7.3-11.3-7.3-11.4,0c-0.3,26.8,1.5,53.5,1.5,80.4
		C308.5,150.7,319.9,150.7,319.9,143.4"/>
	<path id="XMLID_654_" class="st0" d="M237.4,144.9c-0.2,1.1-0.6,16,8.4,9.5c7.9-5.8,20.6-4.8,29.3-10.1c9.1-5.5,19.7-12.1,22.8-23
		c5.5-19-7.1-43.8-20.3-56.6c-7.2-6.9-31.8-22-37.4-5.7c-1.4,4.1,0.9,9.6,1.3,13.5c1.1,8.9,0.2,18.3,0.3,27.3
		C241.9,115.1,239.5,129.9,237.4,144.9 M253.3,73.6c0-0.3-1.2-7.8-1.1-8c3.2-4.5,12.8,3.5,15.9,6c10.3,8.3,21,28.9,19.2,43
		c-2.6,20.3-22.6,20.4-37.7,25.4c1.9-12.4,3.7-24.8,3.7-37.5C253.3,93,254,83.1,253.3,73.6"/>
	<path id="XMLID_653_" class="st0" d="M162.9,153.9c3.9-6.4,3.2-16.8,3.9-24c1.2-13.1-2.1-33.5,2.6-46.8
		c9.8,7.6,13.8,32.8,17.6,42.2c4,9.9,8.2,26.3,17.9,32.1c2.9,1.7,7.8,0.3,8.4-3.4c2.7-16.9,0.5-35.4,0.5-52.5
		c0-12.7-3.2-26.3-3-38.4c0.1-7.3-11.3-7.3-11.4,0c-0.4,23.6,5,48.7,4.2,73.1c-1.4-3.8-2.6-7.6-3.7-10c-4.1-9.4-6.6-18.6-9.6-28.3
		c-2.9-9.2-11.7-25.7-22.1-27.9c-2.6-0.5-5,0.4-6.4,2.6c-7.4,11.9-4.6,27.9-5.7,41.1c-0.5,6.4-1.6,30.3-3.4,35.3
		C150.1,155.9,159,160.1,162.9,153.9"/>
	<path id="XMLID_650_" class="st0" d="M108.3,163.1c0,7.3,11.4,7.3,11.4,0c0-16.7-1.3-35.2-1.1-52.1c1.4,0.1,28.6-0.2,29.5-15.9
		c0.6-9.9-8.1-27.7-18.9-29.8c-9.6-1.9-18.8,4.3-20.7,13.6c-2.3,11.2-0.6,24.6-0.5,35.9C108,131,108.3,147,108.3,163.1 M129,79.1
		c3.3,1.7,6.2,7.9,6.2,11.6c0.1,8.7-8.1,9.1-16.2,9.4c0.1-1.9,0.1-3.9,0.3-5.8C120,86.8,120.4,74.5,129,79.1"/>
	<path id="XMLID_649_" class="st0" d="M79,65.7c2.4,5.4,1.8,17.4,2.4,22.5c1,8.3,1,16.7,1.9,25c1.6,15,3.8,31.3,3.8,46.3
		c0,7.3,11.4,7.3,11.4,0v-1c0-0.1,0-0.1,0-0.2c-0.1-15.7-2.7-31.4-3.8-47.1c-1-14.8,1.5-38.9-6.2-52.1c-2.7-4.6-11.1-2.9-10.6,2.9
		c0,0.3,0.1,0.6,0.1,0.9C78,64.1,78.4,65,79,65.7"/>
	<path id="XMLID_646_" class="st0" d="M14.4,162.9c-0.8,3.6,2.2,8.3,7,7.3c0.4-0.1,0.8-0.2,1.3-0.3c1.7-0.4,3.7-2.2,4-4
		c2.8-19-1-40.2-3-59.4c-0.4-3.7-0.4-7.7-0.3-11.9c0.6,0.2,1.2,0.4,1.9,0.5c8.5,10.5,13,24.1,18.8,36.1c3.1,6.5,5.5,13.3,8.7,19.7
		c3,6,8.2,12.3,8.6,19.2c0.4,7.3,11.3,7.4,11.4,0c0-0.3,0-0.7,0-1c0-0.9-0.2-1.6-0.5-2.3c-0.9-5.3-3-9.3-5.8-14.5
		c-5.1-9.4-8.4-19.6-13.2-29c-4.6-8.9-8.3-18.4-13.4-27c10,0.2,21-0.6,26.8-9.8c6.7-10.9-0.4-24.9-9.7-31.9
		c-6.5-4.9-13.5-7.7-21.6-8c-8-0.3-16.1-1.1-22.8,3.9c-1,0.8-1.5,1.7-1.9,2.7c-0.8,1.5-1,3.2-0.1,5.1c1.9,4.2,1.9,63.8,4.8,89.4
		c0,0,0.6,7.1,0.5,8.8C15.6,158.1,14.4,162.9,14.4,162.9 M45.7,60.9c6.2,3.3,14.5,11.6,11.5,19c-2.3,5.7-11.2,5-16.3,5
		c-2.9,0-5.8,0-8.7-0.2c-0.3,0-7.5-1.1-8.4-1.6c0.3-7.9,0.3-17.7-1.5-24.7C29.6,56.3,40.2,58,45.7,60.9"/>
</g>
</svg>
