<svg enable-background="new 0 0 400 220" viewBox="0 0 400 220" xmlns="http://www.w3.org/2000/svg"><g fill="#020202"><path d="m1.3 105.2v-6.1h4.4v-8.9h8.3v8.9h5.5v6.1h-5.1v17.1c0 1.4 0 2 .7 2.4.3.3 1.4.3 3.1.3h.7 1v6.1h-4.1c-4.1 0-6.8-.7-8.2-2-1-.7-1.7-2-1.7-4.1v-19.8z"/><path d="m46.7 99.1c1.7.7 3.1 1.7 4.1 3.1s1.4 2.4 1.7 3.8.3 3.4.3 6.1v19.1h-8.5v-19.8c0-1.7-.3-3.1-1-4.1-.7-1.4-2-2.4-4.4-2.4-2 0-3.8.7-5.1 2.4-1.4 1.4-1.7 3.4-1.7 6.1v17.4h-8.5v-43.3h8.4v15.3c1.4-1.7 2.7-3.1 4.1-3.8 1.7-.7 3.4-1 5.1-1 2.1.1 3.8.4 5.5 1.1z"/><path d="m65.8 95h-8.5v-7.8h8.5zm-8.5 3.7h8.5v32.1h-8.5z"/><path d="m77.4 120.9c0 1.4.7 2.4 1 3.1 1 1 3.1 1.7 5.8 1.7 1.7 0 3.1-.3 4.1-.7 1-.3 1.4-1.4 1.4-2 0-1-.3-1.7-1-2-1-1-3.8-1.7-8.9-3.1-3.8-1-6.1-2-7.8-3.4-1.4-1.4-2.4-3.4-2.4-5.8 0-3.1 1-5.5 3.4-7.5s5.8-3.1 9.9-3.1 7.2.7 9.9 2.4c2.4 1.7 4.1 4.4 4.4 8.2h-8.5c0-1-.3-2-1-2.7-1-1-2.4-1.7-4.8-1.7-1.7 0-3.1.3-4.1.7-.7.7-1 1.4-1 2 0 1 .3 1.7 1.4 2 .7.3 3.8 1.4 8.9 2.4 3.4.7 5.8 2 7.5 3.8 1.7 1.7 2.4 3.8 2.4 6.1 0 3.1-1.4 5.8-3.4 7.8-2.4 2-6.1 3.1-10.9 3.1-5.1 0-8.9-1-11.3-3.1-2.4-2-3.8-4.8-3.8-8.2-.1 0 8.8 0 8.8 0z"/><path d="m110.5 95h-8.5v-7.8h8.5zm-8.6 3.7h8.5v32.1h-8.5z"/><path d="m122.4 120.9c.3 1.4.7 2.4 1 3.1 1 1 3.1 1.7 5.8 1.7 1.7 0 3.1-.3 4.1-.7 1-.3 1.4-1.4 1.4-2 0-1-.3-1.7-1.4-2-.7-.7-3.8-1.4-8.9-2.7-3.8-1-6.1-2-7.8-3.4-1.4-1.4-2.4-3.4-2.4-5.8 0-3.1 1-5.5 3.4-7.5s5.8-3.1 9.9-3.1 7.2.7 9.9 2.4c2.4 1.7 4.1 4.4 4.4 8.2h-8.5c0-1-.3-2-1-2.7-1-1-2.4-1.7-4.8-1.7-1.7 0-3.1.3-4.1.7-.7.7-1 1.4-1 2 0 1 .3 1.7 1.4 2 .7.3 3.8 1.4 8.9 2.4 3.4.7 5.8 2 7.5 3.8s2.4 3.8 2.4 6.1c0 3.1-1 5.8-3.4 7.8s-6.1 3.1-10.9 3.1c-5.1 0-8.9-1-11.3-3.1s-3.8-4.8-3.8-8.2h9.2z"/><path d="m172.9 100.8c2.4 1.7 3.4 4.4 3.4 8.5v21.8h-8.5v-19.8c0-1.7-.3-3.1-.7-3.8-.7-1.7-2.4-2.4-4.8-2.4-2.7 0-4.8 1.4-5.8 3.8-.7 1.4-.7 3.1-.7 4.8v17.4h-8.5v-32.4h8.2v4.8c1-1.7 2-2.7 3.1-3.4 1.7-1.4 3.8-2 6.5-2 3 0 5.7.6 7.8 2.7z"/><path d="m202.2 99.4c2.4 1 4.1 2.7 5.5 4.8 1.7 2 2.4 4.1 2.7 6.8.3 1.4.3 3.8.3 6.5h-23.5c0 3.4 1.4 5.5 3.4 6.8 1.4.7 2.7 1.4 4.8 1.4s3.4-.3 4.8-1.4c.7-.7 1.4-1.4 1.7-2h8.5c-.3 2-1.4 3.8-3.1 5.8-2.7 3.1-6.8 4.8-12.3 4.8-4.4 0-8.2-1.4-11.3-4.1-3.4-2.7-4.8-6.8-4.8-13 0-5.5 1.4-9.9 4.4-13 3.1-3.1 6.8-4.4 11.6-4.4 2.5-.3 5.3 0 7.3 1zm-12.6 7.2c-1.4 1.4-2 3.1-2.4 5.1h14.3c0-2.4-1-4.1-2.4-5.1s-3.1-1.7-5.1-1.7c-1.3 0-3 .7-4.4 1.7z"/><path d="m233.3 98.7h9.2l-11.6 32.4h-8.9l-11.6-32.4h9.5l6.8 23.9z"/><path d="m265.7 99.4c2.4 1 4.1 2.7 5.5 4.8s2 4.1 2.4 6.5c.3 1.4.3 3.8.3 6.5h-23.5c0 3.4 1.4 5.5 3.4 6.8 1.4.7 2.7 1.4 4.8 1.4s3.4-.3 4.8-1.4c.7-.7 1.4-1.4 1.7-2h8.5c-.3 2-1.4 3.8-3.1 5.8-2.7 3.1-6.8 4.8-12.3 4.8-4.4 0-8.2-1.4-11.3-4.1-3.4-2.7-4.8-6.8-4.8-13 0-5.5 1.4-9.9 4.4-13s6.8-4.4 11.6-4.4c2.8 0 5.2.3 7.6 1.3zm-12.7 7.2c-1 1.4-2 3.1-2.4 5.1h14.7c0-2.4-1-4.1-2.4-5.1s-2.7-1.7-4.8-1.7c-2.3 0-4 .7-5.1 1.7z"/><path d="m295.3 98.1h.7v8.5c-.7 0-1 0-1.4 0-.3 0-.7 0-1 0-3.4 0-5.8 1-6.8 3.4-.7 1.4-1 3.1-1 5.8v15.3h-8.5v-32.4h8.2v5.8c1.4-2 2.4-3.8 3.4-4.4 1.7-1.4 3.8-2 6.1-2z"/><path d="m297.4 105.2v-6.1h4.4v-8.9h8.2v8.9h5.1v6.1h-5.1v17.1c0 1.4.3 2 .7 2.4.3.3 1.4.3 3.1.3h.7 1v6.1h-4.1c-4.1 0-6.8-.7-8.2-2-1-1-1.4-2.4-1.4-4.4v-19.4h-4.4z"/><path d="m342 99.1c1.7.7 3.1 1.7 4.1 3.1s1.4 2.4 1.7 3.8.3 3.4.3 6.1v19.1h-8.5v-19.8c0-1.7-.3-3.1-1-4.1-.7-1.4-2-2.4-4.4-2.4-2 0-3.8.7-5.1 2.4-1 1.4-1.7 3.8-1.7 6.5v17.4h-8.5v-43.7h8.5v15.3c1.4-1.7 2.7-3.1 4.1-3.8 1.7-.7 3.4-1 5.1-1 2 .1 3.7.4 5.4 1.1z"/><path d="m365.9 111.4c1.7-.3 2.7-.3 3.4-.7 1.4-.7 1.7-1.4 1.7-2.4 0-1.4-.3-2.4-1.4-2.7-1-.3-2.4-.7-4.1-.7-2 0-3.4.3-4.4 1.4-.7.7-1 1.7-1.4 3.1h-8.2c0-2.7 1-5.1 2.4-6.8 2.4-2.7 6.1-4.4 11.6-4.4 3.4 0 6.8.7 9.5 2 2.7 1.4 4.1 4.1 4.1 7.8v14.7 3.8c0 1 .3 1.7.3 2.4.3.3.7.7 1.4 1v1.4h-9.2c-.3-.7-.3-1.4-.3-1.7 0-.7-.3-1.4-.3-2-1 1.4-2.4 2.4-4.1 3.1-1.7 1-3.8 1.7-6.1 1.7-3.1 0-5.5-.7-7.2-2.4-2-1.7-2.7-4.1-2.7-7.2 0-4.1 1.4-6.8 4.8-8.5 1.7-1 4.1-1.7 7.5-2zm5.1 4.1c-.7.3-1 .7-1.7.7-.3.3-1.4.3-2 .7l-2 .3c-1.7.3-3.1.7-3.8 1-1.4.7-2 2-2 3.8 0 1.4.3 2.4 1.4 3.1.7.7 1.7 1 3.1 1 1.7 0 3.4-.3 5.1-1.7 1.7-1 2.4-3.1 2.4-5.8v-3.1z"/><path d="m380.9 105.2v-6.1h4.4v-8.9h8.2v8.9h5.1v6.1h-5.1v17.1c0 1.4.3 2 .7 2.4.3.3 1.4.3 3.1.3h.7.7v6.1h-4.1c-4.1 0-6.8-.7-8.2-2-1-1-1.4-2.4-1.4-4.4v-19.4h-4.1z"/></g></svg>