<?xml version="1.0" encoding="utf-8"?>
<!-- Generator: Adobe Illustrator 24.3.0, SVG Export Plug-In . SVG Version: 6.00 Build 0)  -->
<svg version="1.1" id="Слой_1" xmlns="http://www.w3.org/2000/svg" xmlns:xlink="http://www.w3.org/1999/xlink" x="0px" y="0px"
	 viewBox="0 0 400 220" style="enable-background:new 0 0 400 220;" xml:space="preserve">
<g>
	<path d="M21.6,98.7v13.1c0,1.2,0.1,2.2,0.4,2.8c0.5,1.1,1.5,1.7,3.1,1.7c2,0,3.3-0.8,4-2.4c0.4-0.9,0.6-2,0.6-3.4V98.7h5.8v21.9
		h-5.5v-3.2c-0.1,0.1-0.2,0.3-0.4,0.6c-0.2,0.3-0.5,0.6-0.8,0.9c-0.9,0.8-1.8,1.4-2.6,1.7c-0.8,0.3-1.8,0.4-2.9,0.4
		c-3.2,0-5.4-1.2-6.5-3.5c-0.6-1.3-0.9-3.2-0.9-5.7V98.7H21.6z"/>
	<path d="M57.4,100c1.4,1.2,2.1,3.2,2.1,5.9v14.7h-5.9v-13.3c0-1.2-0.1-2-0.5-2.7c-0.6-1.1-1.6-1.7-3.2-1.7c-1.9,0-3.2,0.8-3.9,2.5
		c-0.4,0.9-0.5,2-0.5,3.3v11.8h-5.7V98.7h5.5v3.2c0.7-1.1,1.4-1.9,2.1-2.4c1.2-0.9,2.6-1.3,4.4-1.3C54.2,98.2,56,98.8,57.4,100"/>
	<path d="M69.5,96.1h-5.8v-5.3h5.8V96.1z M63.7,98.7h5.8v21.9h-5.8V98.7z"/>
	<path d="M83,90.8c0.3,0,0.7,0,1.2,0.1v4.6c-0.3,0-0.9,0-1.6,0c-0.8,0-1.3,0.1-1.6,0.5c-0.3,0.3-0.4,0.7-0.4,1.2v1.8h3.7v4h-3.7
		v17.7h-5.6v-17.7h-3.3v-4h3.2v-1.4c0-2.3,0.4-4,1.2-4.8c0.8-1.3,2.8-1.9,6-1.9C82.4,90.8,82.7,90.8,83,90.8"/>
	<path d="M105.4,117.9c-1.8,2.3-4.7,3.4-8.4,3.4c-3.8,0-6.6-1.1-8.4-3.4c-1.8-2.3-2.8-5-2.8-8.2c0-3.1,0.9-5.9,2.8-8.2
		c1.8-2.3,4.7-3.5,8.4-3.5c3.8,0,6.6,1.1,8.4,3.5c1.9,2.3,2.8,5,2.8,8.2C108.2,112.9,107.3,115.7,105.4,117.9 M100.8,114.8
		c0.9-1.2,1.3-2.9,1.3-5.1c0-2.2-0.4-3.9-1.3-5.1c-0.9-1.2-2.2-1.8-3.9-1.8c-1.7,0-3,0.6-3.9,1.8c-0.9,1.2-1.4,2.9-1.4,5.1
		c0,2.2,0.5,3.9,1.4,5.1c0.9,1.2,2.2,1.8,3.9,1.8C98.7,116.6,99.9,116,100.8,114.8"/>
	<path d="M124,98.2c0.1,0,0.2,0,0.5,0v5.8c-0.4,0-0.7,0-1,0c-0.3,0-0.5,0-0.7,0c-2.3,0-3.8,0.7-4.6,2.2c-0.4,0.8-0.7,2.1-0.7,3.9
		v10.5h-5.7V98.7h5.5v3.8c0.9-1.5,1.6-2.4,2.3-3c1.1-0.9,2.5-1.3,4.2-1.3C123.9,98.2,123.9,98.2,124,98.2"/>
	<path d="M154.8,98.8c0.9,0.4,1.8,1,2.6,1.9c0.6,0.8,1,1.7,1.2,2.8c0.1,0.7,0.2,1.8,0.2,3.2l0,13.8h-5.9v-13.9c0-0.8-0.1-1.5-0.4-2
		c-0.5-1-1.5-1.5-2.8-1.5c-1.6,0-2.7,0.7-3.3,2c-0.3,0.7-0.5,1.5-0.5,2.5v13h-5.7v-13c0-1.3-0.1-2.2-0.4-2.8
		c-0.5-1.1-1.4-1.6-2.8-1.6c-1.6,0-2.7,0.5-3.3,1.6c-0.3,0.6-0.5,1.5-0.5,2.7v13.2h-5.8V98.7h5.5v3.2c0.7-1.1,1.4-1.9,2-2.4
		c1.1-0.9,2.5-1.3,4.3-1.3c1.7,0,3,0.4,4,1.1c0.8,0.7,1.5,1.6,1.9,2.6c0.8-1.3,1.7-2.2,2.8-2.8c1.2-0.6,2.5-0.9,4-0.9
		C152.9,98.3,153.8,98.4,154.8,98.8"/>
	<path d="M188.9,99.2c1.5,0.7,2.8,1.8,3.8,3.2c0.9,1.3,1.5,2.8,1.7,4.5c0.2,1,0.2,2.4,0.2,4.3h-15.9c0.1,2.2,0.9,3.7,2.3,4.6
		c0.9,0.6,1.9,0.8,3.2,0.8c1.3,0,2.4-0.3,3.2-1c0.4-0.4,0.8-0.9,1.2-1.5h5.8c-0.2,1.3-0.9,2.6-2.1,4c-2,2.1-4.7,3.2-8.2,3.2
		c-2.9,0-5.5-0.9-7.7-2.7c-2.2-1.8-3.3-4.7-3.3-8.8c0-3.8,1-6.7,3-8.7c2-2,4.6-3,7.8-3C185.6,98.2,187.3,98.5,188.9,99.2
		 M180.3,104.2c-0.8,0.8-1.3,1.9-1.5,3.3h9.9c-0.1-1.5-0.6-2.6-1.5-3.4c-0.9-0.8-2.1-1.1-3.4-1.1
		C182.2,102.9,181.1,103.3,180.3,104.2"/>
	<polygon points="193.2,120.6 200.7,109.5 193.5,98.7 200.5,98.7 204.2,105.1 207.8,98.7 214.6,98.7 207.4,109.4 214.9,120.6 
		207.7,120.6 203.9,114 200.1,120.6 	"/>
	<path d="M236.3,101.1c1.8,1.9,2.7,4.7,2.7,8.3c0,3.9-0.9,6.8-2.6,8.8c-1.7,2-4,3-6.7,3c-1.7,0-3.2-0.4-4.3-1.3
		c-0.6-0.5-1.2-1.2-1.9-2.1v11.4h-5.7V98.7h5.5v3.2c0.6-1,1.3-1.7,2-2.3c1.3-1,2.8-1.5,4.5-1.5C232.3,98.3,234.5,99.2,236.3,101.1
		 M231.8,105.2c-0.8-1.3-2-1.9-3.8-1.9c-2.1,0-3.5,1-4.3,3c-0.4,1-0.6,2.4-0.6,4c0,2.5,0.7,4.3,2.1,5.4c0.8,0.6,1.7,0.9,2.8,0.9
		c1.6,0,2.8-0.6,3.6-1.8c0.8-1.2,1.3-2.9,1.3-4.9C233,108,232.6,106.5,231.8,105.2"/>
	<path d="M256.9,99.2c1.5,0.7,2.8,1.8,3.8,3.2c0.9,1.3,1.5,2.8,1.7,4.5c0.1,1,0.2,2.4,0.2,4.3h-15.9c0.1,2.2,0.9,3.7,2.3,4.6
		c0.9,0.6,1.9,0.8,3.2,0.8c1.3,0,2.4-0.3,3.2-1c0.4-0.4,0.8-0.9,1.2-1.5h5.8c-0.2,1.3-0.9,2.6-2.1,4c-2,2.1-4.7,3.2-8.2,3.2
		c-2.9,0-5.5-0.9-7.7-2.7c-2.2-1.8-3.3-4.7-3.3-8.8c0-3.8,1-6.7,3-8.7c2-2,4.6-3,7.8-3C253.6,98.2,255.3,98.5,256.9,99.2
		 M248.3,104.2c-0.8,0.8-1.3,1.9-1.5,3.3h9.9c-0.1-1.5-0.6-2.6-1.5-3.4c-0.9-0.8-2.1-1.1-3.4-1.1
		C250.2,102.9,249.1,103.3,248.3,104.2"/>
	<path d="M277.2,98.2c0.1,0,0.2,0,0.5,0v5.8c-0.4,0-0.7,0-1,0c-0.3,0-0.5,0-0.7,0c-2.3,0-3.8,0.7-4.6,2.2c-0.4,0.8-0.7,2.1-0.7,3.9
		v10.5H265V98.7h5.5v3.8c0.9-1.5,1.6-2.4,2.3-3c1.1-0.9,2.5-1.3,4.2-1.3C277,98.2,277.1,98.2,277.2,98.2"/>
	<path d="M286.5,96.1h-5.8v-5.3h5.8V96.1z M280.7,98.7h5.8v21.9h-5.8V98.7z"/>
	<path d="M319,98.8c0.9,0.4,1.8,1,2.6,1.9c0.6,0.8,1,1.7,1.3,2.8c0.1,0.7,0.2,1.8,0.2,3.2l0,13.8h-5.9v-13.9c0-0.8-0.1-1.5-0.4-2
		c-0.5-1-1.5-1.5-2.8-1.5c-1.6,0-2.7,0.7-3.3,2c-0.3,0.7-0.5,1.5-0.5,2.5v13h-5.7v-13c0-1.3-0.1-2.2-0.4-2.8
		c-0.5-1.1-1.4-1.6-2.8-1.6c-1.6,0-2.7,0.5-3.3,1.6c-0.3,0.6-0.5,1.5-0.5,2.7v13.2h-5.8V98.7h5.5v3.2c0.7-1.1,1.4-1.9,2-2.4
		c1.1-0.9,2.5-1.3,4.3-1.3c1.7,0,3,0.4,4,1.1c0.8,0.7,1.5,1.6,1.9,2.6c0.8-1.3,1.7-2.2,2.8-2.8c1.2-0.6,2.5-0.9,4-0.9
		C317.1,98.3,318,98.4,319,98.8"/>
	<path d="M341.2,99.2c1.5,0.7,2.8,1.8,3.8,3.2c0.9,1.3,1.5,2.8,1.7,4.5c0.2,1,0.2,2.4,0.2,4.3H331c0.1,2.2,0.9,3.7,2.3,4.6
		c0.9,0.6,1.9,0.8,3.2,0.8c1.3,0,2.4-0.3,3.2-1c0.4-0.4,0.8-0.9,1.2-1.5h5.8c-0.2,1.3-0.9,2.6-2.1,4c-2,2.1-4.7,3.2-8.2,3.2
		c-2.9,0-5.5-0.9-7.7-2.7c-2.2-1.8-3.3-4.7-3.3-8.8c0-3.8,1-6.7,3-8.7c2-2,4.6-3,7.8-3C338,98.2,339.7,98.5,341.2,99.2 M332.6,104.2
		c-0.8,0.8-1.3,1.9-1.5,3.3h9.9c-0.1-1.5-0.6-2.6-1.5-3.4c-0.9-0.8-2.1-1.1-3.4-1.1C334.6,102.9,333.5,103.3,332.6,104.2"/>
	<path d="M367.1,100c1.4,1.2,2.1,3.2,2.1,5.9v14.7h-5.9v-13.3c0-1.2-0.2-2-0.5-2.7c-0.6-1.1-1.6-1.7-3.2-1.7c-1.9,0-3.2,0.8-3.9,2.5
		c-0.4,0.9-0.6,2-0.6,3.3v11.8h-5.7V98.7h5.5v3.2c0.7-1.1,1.4-1.9,2.1-2.4c1.2-0.9,2.7-1.3,4.4-1.3C363.8,98.2,365.6,98.8,367.1,100
		"/>
	<path d="M371.9,102.9v-4h3.1v-6.2h5.7v6.2h3.5v4h-3.5v11.6c0,0.9,0.1,1.5,0.3,1.7c0.2,0.2,0.9,0.3,2.1,0.3c0.2,0,0.4,0,0.6,0
		c0.2,0,0.4,0,0.6-0.1v4.3l-2.7,0.2c-2.7,0.1-4.6-0.4-5.6-1.4c-0.7-0.7-1-1.7-1-3v-13.5H371.9z"/>
</g>
</svg>
