<?xml version="1.0" encoding="utf-8"?>
<!-- Generator: Adobe Illustrator 24.3.0, SVG Export Plug-In . SVG Version: 6.00 Build 0)  -->
<svg version="1.1" id="Victorinox" xmlns="http://www.w3.org/2000/svg" xmlns:xlink="http://www.w3.org/1999/xlink" x="0px" y="0px"
	 viewBox="0 0 400 220" style="enable-background:new 0 0 400 220;" xml:space="preserve">
<style type="text/css">
	.st0{fill:#1D1D1B;}
	.st1{fill:#FFFFFF;}
</style>
<g>
	<g>
		<g>
			<path class="st0" d="M329.9,139.2l7.4,11.1c0.7,1.1,1.6,1.8,2.3,2.3c0.4,0.2,1.4,0.8,2.1,0.8v1.5h-12.3v-1.5
				c0.1,0,1.2-0.2,1.9-0.5s1-1.2,0.3-2l-5-7.5l-5.6,7.7c-1.1,1.2-0.2,2.1,1.3,2.3v1.5h-9.2v-1.6c2.1-0.3,2.9-1.2,3.8-2.5l7.7-10.4
				l-6.8-10.1c-1.1-1.7-2.9-2.7-4.5-2.7v-1.5H326v1.5c-1.4,0.2-3.5,0.6-2.5,2.3l4.4,6.5l4.9-6.5c1.1-1.3,0.2-2.2-1.4-2.3v-1.5h9.2
				v1.5c-1.5,0.1-2.3,0.7-3.2,1.6L329.9,139.2z M288.7,140.2c-0.1,5.9,1.8,12.3,7.7,12.3c6,0,7.6-6.5,7.4-12.5
				c-0.2-5.8-1.2-11.7-7.4-11.7C290,128.2,288.8,134.4,288.7,140.2 M310,140.7c-0.2,7.6-5.2,14.8-13.4,14.8
				c-8.3,0-13.7-6.6-13.9-14.9c-0.1-7.8,5.3-15.1,13.8-15.1C304.9,125.5,310.1,132.9,310,140.7 M274.2,154.9h-1.1l-18.2-21.2V151
				c0,0.7,0.5,1.4,1.3,1.9c0.8,0.5,1.4,0.5,2.1,0.5v1.5h-9.7v-1.5c0.5-0.1,1.1-0.2,1.7-0.4c1-0.3,1.7-1.1,1.7-2v-20.6
				c-0.7-1.4-2.3-2.8-4.1-2.8v-1.5h7.5l15.8,18.8v-14.9c0-1.6-1.9-2.5-3.3-2.5v-1.5h9.8v1.5c-1.7,0.2-3.4,0.6-3.4,2.3L274.2,154.9
				L274.2,154.9z M237.5,151c0,1,0.5,1.4,1.4,1.8c0.5,0.2,1.4,0.5,1.9,0.5v1.5h-11.6v-1.5c0.4-0.1,1.7-0.4,2-0.6
				c0.7-0.4,1.3-0.8,1.3-1.8V130c0-1.6-2-2.2-3.3-2.3v-1.5h11.6v1.5c-1.6,0.3-3.3,0.6-3.3,2.5V151z M208.3,129.1
				c-0.2,0-1.4,0.1-3,0.2v12.2h4.9c3.6-0.2,5.1-2.1,5.1-6.5C215.2,129.7,212,129.1,208.3,129.1 M223.4,154.9h-7l-6.2-10.8h-5v6.8
				c0,1.1,0.8,2.1,3.5,2.5l0.1,1.5h-12.2v-1.6c0.8,0,1.5-0.2,2.2-0.5c0.7-0.3,1.4-1.1,1.4-2v-20.4c0-1.9-2-2.6-3.9-2.9v-1.5h13.8
				c4.8,0,10.7,3.2,10.7,8.7c0,2.9-1.3,6.9-5.9,8.4l4.7,7.8c0.8,1.3,1.8,2.1,3.7,2.3L223.4,154.9z M169.6,140.3
				c-0.2,5.9,1.8,12.3,7.7,12.3c6.1,0,7.6-6.5,7.4-12.5c-0.2-5.8-1.1-11.7-7.4-11.7C170.7,128.4,169.6,134.5,169.6,140.3
				 M190.7,140.8c-0.2,7.6-5.2,14.8-13.4,14.8c-8.3,0-13.7-6.6-13.9-14.9c-0.2-7.8,5.2-15.1,13.8-15.1
				C185.6,125.5,190.9,133,190.7,140.8 M150.6,129.2v21.5c0,1.1,0.7,1.8,1.8,2.2c0.5,0.2,1.2,0.3,1.9,0.4v1.5h-12v-1.5
				c0.7-0.1,1.3-0.2,2.1-0.5c0.9-0.3,1.6-1.1,1.6-2.2l-0.1-21.5h-3.8c-2.3,0-3,1-3.4,2c-0.3,0.9-0.4,1.7-0.4,2.6l-1.7-0.1v-7.6h23.2
				v7.7h-1.7c-0.1-1.2-0.2-2.2-0.6-3c-0.5-1.1-1.4-1.6-2.6-1.6L150.6,129.2L150.6,129.2z M131.2,126.1l0.2,8h-1.5
				c-0.4-1.6-0.8-2.9-1.5-3.8c-1.1-1.4-2.6-2-4.7-2c-7.4,0-8,7.4-8,12c0,4.8,0.9,12.3,8.6,12.2c2.3-0.1,5.9-1.4,8.3-4.5l0.2-0.3
				l1.6,1.2l-0.1,0.2c-2.7,4.7-7.8,6.5-11,6.5c-9.2,0-13.8-8.1-13.8-14.9c0-5.5,3.4-15,12.2-15c3.4,0,5.9,0.8,8,1.9l0.3-1.4
				L131.2,126.1L131.2,126.1z M101,151c0,1,0.5,1.4,1.4,1.8c0.5,0.2,1.4,0.5,1.9,0.5v1.5H92.7v-1.5c0.4-0.1,1.7-0.4,2-0.6
				c0.7-0.4,1.3-0.8,1.3-1.8V130c0-1.6-2-2.2-3.3-2.3v-1.5h11.6v1.5c-1.6,0.3-3.3,0.6-3.3,2.5L101,151L101,151z M74.1,147.7
				l6.5-17.7c0.4-1.2-0.2-2-2.3-2.3v-1.6h9.8v1.6c-1.7,0.1-3.2,0.4-3.9,2.6l-9.7,25.4h-2.1l-10.8-25.5c-1-2.2-2.6-2.3-3.4-2.3v-1.7
				h11.3v1.6c-1.8,0.3-2.3,1.4-2,2L74.1,147.7z"/>
			<path class="st0" d="M121.2,168.9l0.6,6.1h-1.1c-0.5-2-1.2-3.1-2-3.6c-0.8-0.6-1.8-0.9-2.9-0.9c-1.4,0-2.5,0.7-2.5,2.3
				c0,1.4,0.8,2,2.4,2.9l2.3,1.4c2.6,1.7,4.1,2.7,4.1,5.3c0,3.1-2.5,5.1-5.9,5.1c-0.8,0-1.8-0.2-2.6-0.5c-1.1-0.4-1.6-0.6-1.8-0.6
				c-0.4,0-0.5,0.4-0.5,1h-1l-0.8-6.2h1c0.5,1.4,1.1,2.5,1.5,3c1,1.1,2.3,1.7,4.1,1.7c1.8,0,2.9-1.2,2.9-2.8c0-1.8-1.3-2.6-3.2-3.7
				l-2.5-1.5c-1.9-1.1-2.9-2.3-2.9-4.4c0-2.6,1.9-4.8,5.3-4.8c0.7,0,1.5,0.2,2.3,0.4c1.1,0.4,1.5,0.6,2,0.6c0.2,0,0.5-0.4,0.5-1
				H121.2L121.2,168.9z"/>
			<path class="st0" d="M149.6,169.2v1c-1,0.2-1.7,0.5-2.1,1.5l-5.5,15.8h-0.9l-3.8-10.7l-3.7,10.7h-1l-4.5-11.8
				c-1-2.5-1.7-4.1-2.1-4.7c-0.4-0.5-0.8-0.8-1.6-0.9h-0.2v-1h7v1c-0.8,0.1-1.1,0.1-1.2,0.2c-0.3,0.1-0.5,0.3-0.5,0.7
				c0,0.4,0.1,0.7,0.2,1.1l3.7,9.9l2.6-8l-0.9-2.5c-0.2-0.5-0.5-0.9-0.9-1.1c-0.2-0.1-0.5-0.2-1.1-0.2v-1h7.1v1.1h-0.6
				c-1.3,0-1.4,0.5-1.4,0.8c0,0.3,0.2,0.7,0.3,1.1l3.5,9.7l2.9-8.8c0.2-0.5,0.4-1.2,0.4-1.8c0-0.5-0.2-0.7-0.6-0.8
				c-0.2-0.1-0.4-0.2-1.1-0.2v-1L149.6,169.2L149.6,169.2z"/>
			<path class="st0" d="M157.7,184.7c0,0.6,0.3,0.9,0.9,1.1c0.4,0.2,0.8,0.3,1.2,0.4v0.9h-7.2v-0.9c0.2-0.1,1.1-0.2,1.3-0.4
				c0.5-0.2,0.8-0.5,0.8-1.1v-13.1c0-1-1.2-1.4-2.1-1.5v-0.9h7.2v0.9c-1,0.2-2.1,0.4-2.1,1.5V184.7z"/>
			<path class="st0" d="M175.3,168.9l0.6,6.1h-1.1c-0.5-2-1.2-3.1-2-3.6c-0.8-0.6-1.8-0.9-2.9-0.9c-1.4,0-2.5,0.7-2.5,2.3
				c0,1.4,0.8,2,2.4,2.9l2.3,1.4c2.6,1.7,4.1,2.7,4.1,5.3c0,3.1-2.5,5.1-5.9,5.1c-0.8,0-1.8-0.2-2.6-0.5c-1.1-0.4-1.6-0.6-1.8-0.6
				c-0.4,0-0.5,0.4-0.5,1h-1l-0.8-6.2h1c0.5,1.4,1.1,2.5,1.5,3c1,1.1,2.3,1.7,4.1,1.7c1.8,0,2.9-1.2,2.9-2.8c0-1.8-1.3-2.6-3.2-3.7
				l-2.5-1.5c-1.9-1.1-2.9-2.3-2.9-4.4c0-2.6,1.9-4.8,5.3-4.8c0.7,0,1.5,0.2,2.3,0.4c1.1,0.4,1.5,0.6,2,0.6c0.2,0,0.5-0.4,0.5-1
				H175.3L175.3,168.9z"/>
			<path class="st0" d="M192.2,168.9l0.6,6.1h-1.1c-0.5-2-1.2-3.1-2-3.6c-0.8-0.6-1.8-0.9-2.9-0.9c-1.4,0-2.5,0.7-2.5,2.3
				c0,1.4,0.8,2,2.4,2.9l2.3,1.4c2.6,1.7,4.1,2.7,4.1,5.3c0,3.1-2.5,5.1-5.9,5.1c-0.8,0-1.8-0.2-2.6-0.5c-1.1-0.4-1.6-0.6-1.8-0.6
				c-0.4,0-0.5,0.4-0.5,1h-1l-0.8-6.2h1c0.5,1.4,1.1,2.5,1.5,3c1,1.1,2.3,1.7,4.1,1.7c1.8,0,2.9-1.2,2.9-2.8c0-1.8-1.3-2.6-3.2-3.7
				l-2.5-1.5c-1.9-1.1-2.9-2.3-2.9-4.4c0-2.6,1.9-4.8,5.3-4.8c0.7,0,1.5,0.2,2.3,0.4c1.1,0.4,1.5,0.6,2,0.6c0.2,0,0.5-0.4,0.5-1
				H192.2L192.2,168.9z"/>
			<path class="st0" d="M211.6,180.4h5.6l-2.9-7.1L211.6,180.4z M215.2,168.8l6.5,15.1c0.5,1.1,0.8,1.7,1.1,1.8
				c0.2,0.2,0.8,0.4,1.5,0.5v1h-6.8v-1c1.1-0.1,1.7-0.2,1.7-0.8c0-0.2-0.1-0.4-0.2-0.7l-1.1-2.6H211l-0.8,2.1
				c-0.2,0.4-0.2,0.8-0.2,1.1c0,0.9,0.8,1,1.7,1.1v1h-6.2v-1c0.8-0.1,1.4-0.3,1.7-0.7c0.3-0.5,0.7-0.8,1.5-2.9l5.6-13.8L215.2,168.8
				L215.2,168.8z"/>
			<path class="st0" d="M234.3,171c-0.2,0-0.8,0.1-1.9,0.2v7.7h3.1c2.3-0.2,3.2-1.4,3.2-4.1C238.7,171.4,236.7,171,234.3,171
				 M243.7,187.2h-4.4l-3.9-6.8h-3.1v4.3c0,0.7,0.5,1.4,2.3,1.5l0.1,0.9h-7.6v-1c0.5,0,1-0.1,1.4-0.3c0.5-0.2,0.9-0.7,0.9-1.2v-12.8
				c0-1.2-1.2-1.7-2.5-1.8v-0.9h8.6c3,0,6.7,2,6.7,5.5c0,1.8-0.8,4.4-3.7,5.3l2.9,4.9c0.5,0.8,1.1,1.4,2.3,1.4L243.7,187.2z"/>
			<path class="st0" d="M264.1,169.2h5.5v1c-1.4,0.2-2.1,0.5-2.1,2.3V184c0,1.7,0.2,2.1,2.1,2.3v1h-7.2v-1c1.9-0.2,2-0.6,2-2.5
				v-10.4l-6.4,13.8h-0.6l-6.2-13.6v9.5c0,1.4,0.2,2.3,0.5,2.6c0.3,0.4,0.8,0.5,1.8,0.6v1h-6.4v-1c0.9-0.2,1.4-0.4,1.7-0.8
				c0.2-0.2,0.5-0.8,0.5-2.5v-10.7c0-0.8-0.1-1.4-0.5-1.7c-0.4-0.2-0.8-0.4-1.5-0.5v-1.1h5.4l5.7,12.8L264.1,169.2z"/>
			<path class="st0" d="M290.6,169.2v1.1c-0.7,0.1-1.1,0.2-1.5,0.5c-0.7,0.5-1.4,1.3-2.1,2.5L283,179v5c0,1.2,0.2,1.5,0.4,1.7
				c0.2,0.2,0.6,0.5,2.2,0.5v1.1h-8.1v-1c1.6-0.1,1.9-0.4,2.1-0.6c0.2-0.2,0.4-0.5,0.4-2v-4.4l-3.4-5c-1.2-1.7-2-2.9-2.5-3.4
				c-0.5-0.5-1-0.7-1.8-0.8v-1.1h7.8v1.1h-0.6c-0.6,0-1.4,0.1-1.4,0.8c0,0.3,0.2,0.6,0.4,0.9l3.5,5.3l3.5-5.3
				c0.2-0.2,0.4-0.6,0.4-0.9s-0.2-0.4-0.6-0.5c-0.4-0.1-1.1-0.2-1.1-0.2v-1.1L290.6,169.2L290.6,169.2z"/>
			<path class="st1" d="M176.4,64.9c0-7.7-1.3-15.2-3.5-22.3l0.1-0.1c1.8-0.9,5.5-2.8,9.2-4.8c4.1-2.2,8.4-4.2,10.7-4.7
				c2.9-0.6,5.6,0.3,7.3,2.8c1.7-2.5,4.4-3.4,7.3-2.8c2.3,0.5,6.7,2.5,10.7,4.7c3.7,2,7.4,3.9,9.2,4.7l0.1,0.1
				c-2.3,7.1-3.5,14.5-3.5,22.3c0,7.4,1.4,14.6,3.5,21.3l-0.1,0.1c-12.4,4.6-19.9,10.4-27,17.7H200c-7.1-7.4-14.6-13.1-27-17.7
				l-0.1-0.1C175,79.3,176.4,72.3,176.4,64.9"/>
			<path class="st0" d="M199.8,104.4l-0.2-0.2c-5.9-6.2-13.4-12.6-26.9-17.6l-0.2-0.1l-0.2-0.4l0.1-0.2c2.3-7.7,3.5-14.6,3.5-21.2
				c0-7.4-1.2-14.8-3.5-22.1l-0.1-0.2l0.2-0.4l0.2-0.1c1.7-0.8,5.3-2.6,9.2-4.7c4.7-2.6,8.8-4.3,10.8-4.7c3-0.6,5.6,0.3,7.4,2.5
				c1.7-2.2,4.4-3.1,7.4-2.5c2,0.4,6.1,2.2,10.8,4.7c3.5,1.9,7.2,3.8,9.2,4.7l0.2,0.1l0.2,0.4l-0.1,0.2c-2.3,7.4-3.5,14.8-3.5,22.1
				c0,6.6,1.1,13.6,3.5,21.2l0.1,0.2l-0.2,0.4l-0.2,0.1c-11,4.1-18.7,9.2-26.9,17.6l-0.2,0.2H199.8z M173.4,85.9
				c13.3,5,20.7,11.3,26.6,17.5c8-8.3,15.8-13.4,26.6-17.5c-2.3-7.6-3.4-14.5-3.4-21.1c0-7.4,1.2-14.8,3.5-22.1
				c-2-1-5.6-2.9-8.9-4.7c-4.6-2.5-8.6-4.2-10.6-4.6c-2.9-0.6-5.3,0.4-6.8,2.6l-0.4,0.5l-0.4-0.5c-1.4-2.3-4-3.2-6.8-2.6
				c-2,0.4-6,2.2-10.6,4.6c-3.8,2-7.2,3.8-8.9,4.7c2.3,7.4,3.5,14.8,3.5,22.1C176.8,71.5,175.7,78.4,173.4,85.9"/>
			<path class="st0" d="M214.3,41.4c-3.2-1.6-6.3-3-8.1-3.4c-3.3-0.7-5.8,2-6.2,3.5l-0.1,0.3l-0.1-0.3c-0.4-1.6-2.9-4.2-6.2-3.5
				c-1.7,0.4-5,1.8-8.1,3.4c-3.1,1.5-6,3.1-7.4,3.8C180.1,51,181,57,181,63.6h4.4v-3.3h10V50.2h8.7v10h10.1v3.3h4.6
				c0-6.5,1-12.6,2.8-18.5C220.3,44.4,217.4,42.9,214.3,41.4"/>
			<path class="st0" d="M200,97.4c6-5.7,13.4-11.2,21.6-14c-0.8-2.8-1.7-6.7-2.1-10.6c-0.5-3.5-0.5-6.8-0.6-7.3h-4.7v3.3h-10v10
				h-8.7v-10h-10v-3.3h-4.4c-0.2,6-1.1,12.5-2.7,17.9C186.6,86.2,194,91.7,200,97.4"/>
		</g>
	</g>
</g>
</svg>
