<?xml version="1.0" encoding="utf-8"?>
<!-- Generator: Adobe Illustrator 20.1.0, SVG Export Plug-In . SVG Version: 6.00 Build 0)  -->
<svg version="1.1" id="Layer_1" xmlns="http://www.w3.org/2000/svg" xmlns:xlink="http://www.w3.org/1999/xlink" x="0px" y="0px"
	 width="215.333px" height="82.722px" viewBox="0 0 215.333 82.722" enable-background="new 0 0 215.333 82.722"
	 xml:space="preserve">
<g>
	<path d="M53.44,16.546l0.631,0.93l-12.318,27.16v19.722l-0.664,0.664h-6.475l-0.664-0.664V44.503L21.632,17.476l0.598-0.93h7.072
		l0.631,0.332l7.869,17.531l8.035-17.531l0.598-0.332H53.44z"/>
	<path d="M86.975,16.546l0.764,0.664v6.342l-0.764,0.664H68.016v12.717h17.531l0.697,0.697v6.309l-0.697,0.697H68.016v12.716h18.959
		l0.764,0.664v6.342l-0.764,0.664H60.878l-0.697-0.664V17.21l0.697-0.664H86.975z"/>
	<path d="M122.005,16.546l0.764,0.664v6.342l-0.764,0.664h-18.959v12.717h17.531l0.698,0.697v6.309l-0.698,0.697h-17.531v12.716
		h18.959l0.764,0.664v6.342l-0.764,0.664H95.907l-0.697-0.664V17.21l0.697-0.664H122.005z"/>
	<path d="M158.329,57.95v6.408l-0.73,0.664h-26.928l-0.697-0.664v-5.744l7.438-13.978h-3.818l-0.697-0.697v-6.242l0.697-0.764h7.803
		l6.674-12.65h-16.436l-0.764-0.664V17.21l0.764-0.664h25.002l0.697,0.664v5.512l-7.504,14.211h4.018l0.697,0.764v6.242
		l-0.697,0.697h-7.936l-6.607,12.65h18.295L158.329,57.95z"/>
	<path d="M195.816,16.546l0.631,0.93l-12.318,27.16v19.722l-0.664,0.664h-6.475l-0.664-0.664V44.503l-12.318-27.027l0.598-0.93
		h7.072l0.631,0.332l7.869,17.531l8.035-17.531l0.598-0.332H195.816z"/>
</g>
</svg>
