<svg width="76" height="13" viewBox="0 0 76 13" fill="none" xmlns="http://www.w3.org/2000/svg">
<path d="M20.2482 12.3987H15.8102C15.8102 10.9799 15.2111 9.61911 14.1448 8.61579C13.0784 7.61254 11.6321 7.04891 10.1241 7.04891C8.61607 7.04891 7.16977 7.61254 6.10339 8.61579C5.03703 9.61911 4.43796 10.9799 4.43796 12.3987H0C0 9.87245 1.06664 7.44962 2.96528 5.66331C4.86391 3.87699 7.43904 2.87343 10.1241 2.87343C12.8092 2.87343 15.3843 3.87699 17.2829 5.66331C19.1815 7.44962 20.2482 9.87245 20.2482 12.3987Z" fill="#B8F803"/>
<path d="M25.3099 3.78033H33.5618V12.3987H31.6201V5.37874H27.2377V12.3987H25.3099V3.78033ZM36.9735 7.92059C36.9861 8.51832 36.9397 9.11592 36.8347 9.70559C36.7423 10.1205 36.6036 10.4067 36.4187 10.5642C36.2023 10.7291 35.9286 10.8128 35.6504 10.799H35.3272V12.3987H35.9541C36.6013 12.3987 37.132 12.2683 37.5462 12.0073C37.9605 11.7463 38.2734 11.2948 38.4851 10.6529C38.6941 10.0066 38.7985 9.11711 38.7985 7.98453V5.37487H42.3226V12.3948H44.2559V3.78295H36.9735V7.92059ZM55.2357 10.816H55.6295V12.3987H54.6102C53.9547 12.3987 53.5076 12.2639 53.2691 11.9942C53.0389 11.7153 52.9188 11.3699 52.9293 11.0169C52.6778 11.3736 52.3631 11.687 51.9987 11.9434C51.4726 12.3139 50.7746 12.4992 49.9045 12.4992C49.2995 12.5101 48.6979 12.4099 48.1335 12.2043C47.6526 12.0322 47.2359 11.7309 46.9353 11.3379C46.6421 10.9377 46.4916 10.4602 46.5053 9.97436C46.5053 9.08794 46.8396 8.40641 47.5081 7.92971C48.1766 7.453 49.1473 7.21464 50.4204 7.21464H52.7296V6.69272C52.7405 6.47779 52.6984 6.26341 52.6068 6.06627C52.5151 5.86919 52.3763 5.69459 52.2012 5.55621C51.849 5.28133 51.3571 5.14389 50.7256 5.14389C50.2312 5.1239 49.7418 5.24386 49.3207 5.4884C49.1503 5.58956 49.0042 5.72301 48.8918 5.88031C48.7793 6.03754 48.7029 6.21514 48.6675 6.40173H46.7744C46.8206 5.87194 47.0357 5.36757 47.3916 4.95468C47.7666 4.53935 48.2463 4.21907 48.7868 4.02305C49.4336 3.78688 50.1234 3.67248 50.8172 3.68641C52.0329 3.68641 52.9751 3.95261 53.6435 4.48496C54.312 5.01731 54.6449 5.79238 54.6421 6.81018V10.2601C54.6421 10.4741 54.6893 10.6203 54.7808 10.6985C54.9122 10.7884 55.0739 10.8302 55.2357 10.816ZM52.7393 8.56122H50.3345C49.7381 8.56122 49.2791 8.66781 48.9574 8.88094C48.6356 9.09406 48.4742 9.4194 48.4733 9.85696C48.4701 10.0276 48.5097 10.1965 48.5891 10.35C48.6684 10.5035 48.785 10.6372 48.9296 10.7403C49.2347 10.9712 49.648 11.0861 50.1778 11.0861C50.6524 11.0998 51.1231 11.001 51.5466 10.799C51.9102 10.6194 52.2135 10.3483 52.4231 10.0161C52.6371 9.66606 52.7455 9.26772 52.7365 8.86395L52.7393 8.56122ZM59.3963 9.75517V3.78033H57.5101V12.3987H59.1924L64.1476 6.40566V12.3987H66.0257V3.78688H64.3265L59.3963 9.75517ZM61.7386 2.8735C62.6216 2.8735 63.3104 2.66864 63.8051 2.25892C64.2997 1.84921 64.5512 1.26291 64.5596 0.500015H63.0742C63.0945 0.829109 62.9865 1.15386 62.7705 1.4134C62.5666 1.63913 62.2269 1.75004 61.7498 1.75004C61.2727 1.75004 60.9537 1.63913 60.7567 1.4134C60.5485 1.15072 60.4458 0.827136 60.4669 0.500015H58.9775C59.0005 1.26291 59.2478 1.84921 59.7194 2.25892C60.1909 2.66864 60.8617 2.8735 61.7317 2.8735H61.7386ZM67.841 3.78688V5.3853H70.9544V12.4053H72.8865V5.3853H76V3.78033L67.841 3.78688Z" fill="black"/>
</svg>
