<svg width="22" height="27" viewBox="0 0 22 27" fill="none" xmlns="http://www.w3.org/2000/svg">
<g clip-path="url(#clip0)">
<path d="M12.68 9.9078C12.1625 9.63385 11.5917 9.48926 10.9601 9.48926H7.84766V17.4112H10.9601C11.5917 17.4112 12.1625 17.2742 12.68 16.9927C13.1974 16.7187 13.6084 16.3154 13.9128 15.7827C14.2172 15.25 14.3694 14.626 14.3694 13.903V13.005C14.3694 12.2821 14.2172 11.6581 13.9128 11.1254C13.6084 10.5851 13.1974 10.1818 12.68 9.9078ZM12.5658 14.1541C12.5658 14.7401 12.4212 15.1891 12.1168 15.5087C11.82 15.8283 11.4319 15.9881 10.9601 15.9881H9.57511V10.9123H10.9601C11.4319 10.9123 11.82 11.0721 12.1168 11.3917C12.4136 11.7114 12.5658 12.1603 12.5658 12.7463V14.1541Z" fill="black"/>
<path d="M4.604 14.8774L1.75789 9.48959H0.159808H0V17.4115H1.56764L1.49154 12.0237L4.34526 17.4115H5.94335H6.10316V9.48959H4.5279L4.604 14.8774Z" fill="black"/>
<path d="M16.0587 16.9245C16.6295 17.3278 17.3524 17.5333 18.2276 17.5333C19.1864 17.5333 19.9474 17.3202 20.4953 16.9016C21.0432 16.4831 21.3172 15.821 21.3172 14.9231C21.3172 14.4056 21.1878 13.9947 20.9367 13.6903C20.6856 13.3859 20.3812 13.1576 20.0311 13.013C19.6811 12.8684 19.2245 12.7238 18.6842 12.5868C18.3113 12.4955 18.0221 12.4118 17.8014 12.3357C17.5883 12.2596 17.4133 12.1607 17.2687 12.0313C17.1317 11.9019 17.0632 11.7421 17.0632 11.5519C17.0632 11.3312 17.1774 11.1485 17.3981 11.0116C17.6188 10.8746 17.9308 10.8061 18.3341 10.8061C18.7222 10.8061 19.019 10.8898 19.2397 11.0572C19.4604 11.2246 19.5669 11.4529 19.5669 11.7421V11.8487H21.1574V11.7117C21.1574 10.9431 20.891 10.3647 20.3583 9.97662C19.8256 9.58851 19.1408 9.39066 18.3037 9.39066C17.7557 9.39066 17.2611 9.47436 16.8197 9.64939C16.3784 9.82442 16.0283 10.0832 15.7619 10.4408C15.5032 10.7985 15.3662 11.2246 15.3662 11.7345C15.3662 12.2824 15.4956 12.7162 15.7467 13.0358C16.0055 13.363 16.3023 13.5913 16.6523 13.7435C17.0024 13.8881 17.4514 14.0327 18.0069 14.1849C18.3798 14.2762 18.6689 14.3599 18.8744 14.436C19.0799 14.5121 19.2549 14.6111 19.3843 14.7328C19.5213 14.8622 19.5897 15.022 19.5897 15.2199C19.5897 15.4786 19.4756 15.6993 19.2549 15.8667C19.0342 16.0341 18.6689 16.1178 18.1591 16.1178C17.7253 16.1178 17.3829 16.0189 17.1393 15.821C16.8958 15.6232 16.7817 15.3568 16.7817 15.022L16.7893 14.8394H15.1912L15.1836 15.0905C15.1988 15.9047 15.488 16.5135 16.0587 16.9245Z" fill="black"/>
<path d="M12.4673 19.2916C11.9498 19.01 11.3639 18.873 10.7322 18.873C10.1006 18.873 9.51466 19.0176 8.98957 19.2916C8.4721 19.5732 8.05355 19.9841 7.74155 20.5168C7.43715 21.0495 7.27734 21.6887 7.27734 22.4193V23.5151C7.27734 24.2457 7.42954 24.8849 7.74155 25.4176C8.04595 25.9503 8.46449 26.3688 8.98957 26.6428C9.45378 26.8939 9.99408 27.0081 10.7322 27.0081C11.4704 27.0081 12.0031 26.8939 12.4673 26.6428C12.9848 26.3612 13.4033 25.9503 13.7153 25.4176C14.0197 24.8849 14.1795 24.2457 14.1795 23.5151V22.4193C14.1795 21.6887 14.0273 21.0495 13.7153 20.5168C13.4033 19.9765 12.9848 19.5656 12.4673 19.2916ZM12.3684 22.1529V23.7738C12.3684 24.3522 12.2162 24.8012 11.9118 25.1208C11.6074 25.4328 11.2117 25.5926 10.7246 25.5926C10.2376 25.5926 9.84189 25.4328 9.53749 25.1208C9.23309 24.8088 9.08089 24.3522 9.08089 23.7738V22.1529C9.08089 21.5746 9.23309 21.1256 9.53749 20.806C9.84189 20.494 10.2376 20.3342 10.7246 20.3342C11.2117 20.3342 11.6074 20.494 11.9118 20.806C12.2162 21.1256 12.3684 21.5746 12.3684 22.1529Z" fill="black"/>
<path d="M21.019 22.6091C21.2244 22.2362 21.3234 21.8329 21.3234 21.3915V21.323C21.3234 20.8741 21.2168 20.4707 21.0114 20.1131C20.8059 19.7478 20.5243 19.4662 20.1667 19.2684C19.8166 19.0629 19.4285 18.964 19.0176 18.964H15.5322V26.8859H17.2445V23.8191H19.0176C19.4437 23.8191 19.8318 23.7126 20.1819 23.4995C20.5319 23.2788 20.8135 22.982 21.019 22.6091ZM19.5959 21.4372C19.5959 21.6959 19.5046 21.9318 19.3144 22.1221C19.1317 22.3199 18.8958 22.4189 18.6142 22.4189H17.2445V20.3718H18.6142C18.9034 20.3718 19.1393 20.4707 19.322 20.6686C19.5046 20.8664 19.5959 21.0947 19.5959 21.3687V21.4372Z" fill="black"/>
<path d="M4.23873 22.0992H1.67418V18.9563H0V26.8782H1.68179V23.5755H4.23873V26.8782H5.91291V18.9563H4.23873V22.0992Z" fill="black"/>
<path d="M4.8323 3.78213C5.71505 3.531 6.11077 2.92982 6.11077 2.09273V2.04707C6.11077 0.692503 5.22802 0 3.50056 0H0V7.88388H3.64515C5.48675 7.88388 6.40755 7.1305 6.40755 5.677V5.63134C6.40755 4.57356 5.85964 3.9876 4.8323 3.78213ZM1.74267 1.2252H3.20378C4.04087 1.2252 4.41375 1.52198 4.41375 2.18405V2.22971C4.41375 2.93743 4.08653 3.24183 3.21139 3.24183H1.74267V1.2252ZM4.64205 5.53241C4.64205 6.24775 4.24634 6.64346 3.36359 6.64346H1.74267V4.39092H3.27988C4.24634 4.39092 4.64205 4.7562 4.64205 5.49436V5.53241Z" fill="black"/>
<path d="M9.62077 4.83991H10.572H10.5796L12.1701 7.88388H14.0041L12.2538 4.53551H12.269C12.718 4.40614 13.1289 4.17024 13.4257 3.82779C13.7225 3.48534 13.8899 3.04397 13.8899 2.43517V2.38952C13.8899 1.58286 13.5931 0.98168 13.0605 0.578354C12.5354 0.190248 11.7744 0 10.846 0H7.84766V7.88388H9.62077V4.83991ZM9.62077 1.36979H10.8003C11.6678 1.36979 12.2157 1.64374 12.2157 2.45039V2.49605C12.2157 3.24944 11.6907 3.62993 10.8003 3.62993H9.62077V1.36979Z" fill="black"/>
<path d="M15.3567 4.33012V5.83689H18.3779L19.4813 7.88396H21.3077L17.0842 0.0533447H15.2578L17.5636 4.33012H15.3567Z" fill="black"/>
<path d="M20.7599 25.8737C20.8056 25.8356 20.8284 25.7747 20.8284 25.691C20.8284 25.5921 20.798 25.5236 20.7447 25.4856C20.6914 25.4475 20.6001 25.4247 20.486 25.4247H20.1283V26.3607H20.2805V25.9574H20.4251L20.6686 26.3607H20.8436L20.5849 25.9498C20.6534 25.9345 20.7067 25.9117 20.7599 25.8737ZM20.4555 25.8204H20.2805V25.5464H20.4631C20.486 25.5464 20.5088 25.5464 20.5316 25.5464C20.5545 25.5464 20.5773 25.554 20.6001 25.5617C20.6229 25.5693 20.6382 25.5845 20.6458 25.5997C20.661 25.6149 20.6686 25.6378 20.6686 25.6682C20.6686 25.7062 20.661 25.7291 20.6534 25.7519C20.6382 25.7671 20.6229 25.7823 20.6077 25.7976C20.5849 25.8052 20.5621 25.8128 20.5392 25.8204C20.5088 25.8204 20.486 25.8204 20.4555 25.8204Z" fill="black"/>
<path d="M20.4482 24.7856C19.8547 24.7856 19.3752 25.2726 19.3752 25.8662C19.3752 26.4598 19.8547 26.9468 20.4482 26.9468C21.0418 26.9468 21.5212 26.4598 21.5212 25.8662C21.5212 25.265 21.0418 24.7856 20.4482 24.7856ZM20.4482 26.8631C19.9003 26.8631 19.4513 26.4141 19.4513 25.8586C19.4513 25.3031 19.9003 24.8541 20.4482 24.8541C20.9961 24.8541 21.4451 25.3031 21.4451 25.8586C21.4451 26.4141 21.0038 26.8631 20.4482 26.8631Z" fill="black"/>
</g>
<defs>
<clipPath id="clip0">
<rect width="21.5209" height="27" fill="white"/>
</clipPath>
</defs>
</svg>
